<?xml version="1.0" encoding="UTF-8" standalone="no"?>
<!DOCTYPE svg PUBLIC "-//W3C//DTD SVG 1.1//EN"
 "http://www.w3.org/Graphics/SVG/1.1/DTD/svg11.dtd">
<!-- Generated by graphviz version 2.40.1 (20161225.0304)
 -->
<!-- Title: dependencies Pages: 1 -->
<svg width="504pt" height="211pt"
 viewBox="0.00 0.00 504.00 211.00" xmlns="http://www.w3.org/2000/svg" xmlns:xlink="http://www.w3.org/1999/xlink">
<g id="graph0" class="graph" transform="scale(1 1) rotate(0) translate(4 207)">
<title>dependencies</title>
<polygon fill="#ffffff" stroke="transparent" points="-4,4 -4,-207 500,-207 500,4 -4,4"/>
<text text-anchor="start" x="227.0091" y="-42.4" font-family="sans-serif" font-weight="bold" font-size="14.00" fill="#000000">Legend</text>
<polygon fill="#ffffb3" stroke="transparent" points="14,-10 14,-30 34,-30 34,-10 14,-10"/>
<text text-anchor="start" x="37.629" y="-15.4" font-family="sans-serif" font-size="14.00" fill="#000000"> &#160;Declarations</text>
<polygon fill="#8dd3c7" stroke="transparent" points="127,-10 127,-30 147,-30 147,-10 127,-10"/>
<text text-anchor="start" x="150.7251" y="-15.4" font-family="sans-serif" font-size="14.00" fill="#000000"> &#160;Module</text>
<polygon fill="#80b1d3" stroke="transparent" points="213,-10 213,-30 233,-30 233,-10 213,-10"/>
<text text-anchor="start" x="236.7812" y="-15.4" font-family="sans-serif" font-size="14.00" fill="#000000"> &#160;Bootstrap</text>
<polygon fill="#fdb462" stroke="transparent" points="310,-10 310,-30 330,-30 330,-10 310,-10"/>
<text text-anchor="start" x="333.6732" y="-15.4" font-family="sans-serif" font-size="14.00" fill="#000000"> &#160;Providers</text>
<polygon fill="#fb8072" stroke="transparent" points="406,-10 406,-30 426,-30 426,-10 406,-10"/>
<text text-anchor="start" x="429.7258" y="-15.4" font-family="sans-serif" font-size="14.00" fill="#000000"> &#160;Exports</text>
<g id="clust1" class="cluster">
<title>cluster_AssessmentsModule</title>
<polygon fill="none" stroke="#000000" stroke-dasharray="1,5" points="56,-70 56,-195 440,-195 440,-70 56,-70"/>
</g>
<g id="clust2" class="cluster">
<title>cluster_AssessmentsModule_declarations</title>
<polygon fill="none" stroke="#000000" points="264,-78 264,-130 432,-130 432,-78 264,-78"/>
</g>
<g id="clust4" class="cluster">
<title>cluster_AssessmentsModule_imports</title>
<polygon fill="none" stroke="#000000" points="64,-78 64,-130 256,-130 256,-78 64,-78"/>
</g>
<!-- AssessmentsComponent -->
<g id="node1" class="node">
<title>AssessmentsComponent</title>
<polygon fill="#ffffb3" stroke="#000000" points="424.3725,-122 271.6275,-122 271.6275,-86 424.3725,-86 424.3725,-122"/>
<text text-anchor="middle" x="348" y="-99.8" font-family="Times,serif" font-size="14.00" fill="#000000">AssessmentsComponent</text>
</g>
<!-- AssessmentsModule -->
<g id="node2" class="node">
<title>AssessmentsModule</title>
<polygon fill="#8dd3c7" stroke="#000000" points="319.5898,-187 316.5898,-191 295.5898,-191 292.5898,-187 188.4102,-187 188.4102,-151 319.5898,-151 319.5898,-187"/>
<text text-anchor="middle" x="254" y="-164.8" font-family="Times,serif" font-size="14.00" fill="#000000">AssessmentsModule</text>
</g>
<!-- AssessmentsComponent&#45;&gt;AssessmentsModule -->
<g id="edge1" class="edge">
<title>AssessmentsComponent&#45;&gt;AssessmentsModule</title>
<path fill="none" stroke="#000000" d="M295.5544,-122.1061C295.5544,-122.1061 295.5544,-140.991 295.5544,-140.991"/>
<polygon fill="#000000" stroke="#000000" points="292.0544,-140.9909 295.5544,-150.991 299.0544,-140.991 292.0544,-140.9909"/>
</g>
<!-- AssessmentsRoutingModule -->
<g id="node3" class="node">
<title>AssessmentsRoutingModule</title>
<polygon fill="#8dd3c7" stroke="#000000" points="248.2077,-122 245.2077,-126 224.2077,-126 221.2077,-122 71.7923,-122 71.7923,-86 248.2077,-86 248.2077,-122"/>
<text text-anchor="middle" x="160" y="-99.8" font-family="Times,serif" font-size="14.00" fill="#000000">AssessmentsRoutingModule</text>
</g>
<!-- AssessmentsRoutingModule&#45;&gt;AssessmentsModule -->
<g id="edge2" class="edge">
<title>AssessmentsRoutingModule&#45;&gt;AssessmentsModule</title>
<path fill="none" stroke="#000000" d="M218.2795,-122.1061C218.2795,-122.1061 218.2795,-140.991 218.2795,-140.991"/>
<polygon fill="#000000" stroke="#000000" points="214.7795,-140.9909 218.2795,-150.991 221.7795,-140.991 214.7795,-140.9909"/>
</g>
</g>
</svg>
