<svg xmlns="http://www.w3.org/2000/svg" width="240" height="64" viewBox="0 0 240 64">
    <defs>
        <path id="a" d="M29.33 18.496a9.97 9.97 0 0 1-6.795 2.658c-.687 0-1.355-.067-2.002-.199l-3.553-3.55a3.55 3.55 0 0 1 0-5.027 3.56 3.56 0 0 1 5.028 0l6.643 6.64.68-.522z"/>
        <path id="b" d="M18.451 34.57a9.961 9.961 0 0 1 2.66 6.793c0 .686-.068 1.354-.2 2l-3.552 3.552a3.555 3.555 0 0 1-5.028-5.026l6.643-6.64-.523-.679z"/>
    </defs>
    <g fill="none" fill-rule="evenodd">
        <path fill="#4855B5" d="M92.568 32.179c-5.21 0-9.568-3.632-9.568-10.547 0-6.821 4.516-10.8 9.726-10.8 2.653 0 4.8 1.263 6.19 2.684l-2.463 2.968c-1.042-.947-2.148-1.642-3.632-1.642-2.81 0-5.053 2.495-5.053 6.632 0 4.231 1.958 6.694 4.99 6.694 1.674 0 3-.852 4.01-1.926l2.464 2.905c-1.706 1.99-3.98 3.032-6.664 3.032zm14.306 0c-3.19 0-4.263-2.084-4.263-5.242V9.663h4.642v17.463c0 .98.442 1.295.82 1.295.19 0 .316 0 .57-.063l.568 3.442c-.506.221-1.295.379-2.337.379zm5.4-.379V16.137h4.642V31.8h-4.642zm2.305-17.968c-1.547 0-2.684-1.01-2.684-2.432 0-1.421 1.137-2.4 2.684-2.4 1.579 0 2.684.979 2.684 2.4 0 1.421-1.105 2.432-2.684 2.432zM121.62 31.8V9.663h4.516v12.695h.126l4.958-6.221h5.053l-5.495 6.442 5.905 9.221h-5.02l-3.538-6.095-1.99 2.242V31.8h-4.515z"/>
        <path fill="#F9683D" d="M146.61 32.347c-2.684 0-5.526-1.01-7.61-2.968l2.653-3.19c1.484 1.264 3.379 2.148 5.084 2.148 1.926 0 2.874-.758 2.874-1.99 0-1.294-1.169-1.705-2.969-2.463l-2.684-1.137c-2.116-.852-4.137-2.62-4.137-5.62 0-3.411 3.032-6.127 7.326-6.127 2.369 0 4.864.947 6.632 2.716l-2.368 2.937c-1.358-1.042-2.622-1.642-4.264-1.642-1.61 0-2.62.694-2.62 1.863 0 1.263 1.357 1.705 3.126 2.431l2.652 1.074c2.495 1.01 4.074 2.684 4.074 5.59 0 3.41-2.842 6.378-7.768 6.378zm18.253 0c-3.979 0-7.642-3-7.642-8.21 0-5.21 3.663-8.21 7.642-8.21 3.948 0 7.61 3 7.61 8.21 0 5.21-3.662 8.21-7.61 8.21zm0-3.758c1.895 0 2.874-1.736 2.874-4.452s-.98-4.453-2.874-4.453c-1.926 0-2.874 1.737-2.874 4.453s.948 4.452 2.874 4.452zM181 32.347c-3.41 0-4.863-2.4-4.863-6.315v-9.727h4.642v9.127c0 2.242.6 2.968 1.958 2.968 1.168 0 1.863-.505 2.779-1.737V16.305h4.642v15.663h-3.79l-.347-2.179h-.095c-1.326 1.58-2.779 2.558-4.926 2.558zm13.863-.379V16.305h3.79l.315 2.748h.127c1.137-2.116 2.842-3.127 4.452-3.127.885 0 1.421.127 1.864.316l-.758 4.01c-.569-.157-1.042-.252-1.706-.252-1.168 0-2.62.758-3.442 2.874v9.094h-4.642zm19.705.38c-4.357 0-7.736-3-7.736-8.211 0-5.21 3.82-8.21 8.147-8.21 1.926 0 3.41.694 4.579 1.673l-2.18 3c-.757-.632-1.389-.916-2.115-.916-2.242 0-3.663 1.737-3.663 4.453s1.484 4.452 3.505 4.452c1.01 0 1.99-.505 2.81-1.136l1.832 3.031c-1.547 1.358-3.473 1.863-5.179 1.863zm15.569 0c-4.484 0-7.926-3.032-7.926-8.211 0-5.084 3.631-8.21 7.389-8.21 4.453 0 6.663 3.252 6.663 7.515 0 .821-.095 1.674-.19 2.053h-9.378c.41 2.273 1.99 3.316 4.073 3.316 1.169 0 2.243-.348 3.38-1.043l1.547 2.81c-1.61 1.106-3.695 1.77-5.558 1.77zm-3.474-9.916h5.653c0-1.737-.758-2.969-2.621-2.969-1.453 0-2.716.98-3.032 2.969zM85.536 52.156a4.136 4.136 0 0 1-2.99-1.261l.65-.754c.611.637 1.469 1.066 2.353 1.066 1.118 0 1.781-.559 1.781-1.391 0-.871-.611-1.144-1.417-1.508l-1.222-.533c-.806-.338-1.729-.949-1.729-2.197 0-1.3 1.131-2.262 2.678-2.262 1.014 0 1.911.429 2.522 1.053l-.585.702c-.52-.494-1.144-.806-1.937-.806-.949 0-1.586.481-1.586 1.248 0 .819.741 1.131 1.417 1.417l1.209.52c.988.429 1.755 1.014 1.755 2.275 0 1.352-1.105 2.431-2.899 2.431zM89.997 52v-6.318h.884l.091.91h.04c.545-.598 1.208-1.066 1.962-1.066.962 0 1.482.455 1.742 1.209.663-.715 1.313-1.209 2.08-1.209 1.3 0 1.924.858 1.924 2.47V52h-1.066v-3.861c0-1.183-.377-1.69-1.17-1.69-.494 0-1 .325-1.586.975V52h-1.066v-3.861c0-1.183-.377-1.69-1.183-1.69-.468 0-1 .325-1.586.975V52h-1.066zm12.222.156c-1.053 0-1.846-.663-1.846-1.794 0-1.378 1.183-2.067 3.874-2.366 0-.806-.26-1.586-1.3-1.586-.728 0-1.39.338-1.885.676l-.416-.741c.585-.377 1.47-.819 2.483-.819 1.547 0 2.197 1.027 2.197 2.6V52h-.884l-.09-.754h-.04c-.598.494-1.3.91-2.093.91zm.312-.858c.611 0 1.105-.299 1.716-.845v-1.755c-2.106.26-2.834.78-2.834 1.586 0 .715.494 1.014 1.118 1.014zm4.773.702v-6.318h.885l.09 1.144h.04c.428-.793 1.078-1.3 1.793-1.3.273 0 .469.039.677.13l-.209.936a1.768 1.768 0 0 0-.61-.104c-.534 0-1.17.39-1.6 1.456V52h-1.066zm6.49.156c-1.352 0-1.807-.858-1.807-2.106v-3.497h-.936v-.806l.988-.065.13-1.768h.897v1.768h1.703v.871h-1.703v3.51c0 .78.247 1.222.975 1.222.22 0 .507-.091.715-.169l.208.806c-.351.117-.78.234-1.17.234zM118.88 52v-8.528h1.079v3.575h3.965v-3.575h1.092V52h-1.092v-4.017h-3.965V52h-1.079zm8.361 0v-6.318h1.066V52h-1.066zm.546-7.618c-.416 0-.74-.286-.74-.689 0-.416.324-.689.74-.689s.741.273.741.689c0 .403-.325.689-.74.689zM130.43 52v-6.318h.884l.091 1.144h.04c.428-.793 1.078-1.3 1.793-1.3.273 0 .468.039.676.13l-.208.936a1.768 1.768 0 0 0-.61-.104c-.534 0-1.17.39-1.6 1.456V52h-1.066zm4.5 0v-6.318h1.066V52h-1.066zm.547-7.618c-.416 0-.742-.286-.742-.689 0-.416.326-.689.742-.689s.74.273.74.689c0 .403-.325.689-.74.689zm2.64 7.618v-6.318h.885l.09.91h.04c.598-.598 1.248-1.066 2.119-1.066 1.326 0 1.924.858 1.924 2.47V52h-1.066v-3.861c0-1.183-.364-1.69-1.196-1.69-.65 0-1.092.338-1.73.975V52h-1.065zm9.233 2.912c-1.547 0-2.613-.611-2.613-1.703 0-.533.35-1.04.923-1.43v-.052a1.166 1.166 0 0 1-.56-1.027c0-.533.365-.949.69-1.17v-.052a2.236 2.236 0 0 1-.82-1.703c0-1.378 1.093-2.249 2.38-2.249.35 0 .663.065.897.156h2.197v.819h-1.3c.299.286.52.767.52 1.3 0 1.352-1.027 2.197-2.314 2.197-.312 0-.663-.078-.95-.221-.22.195-.402.403-.402.754 0 .403.26.689 1.118.689h1.222c1.469 0 2.21.455 2.21 1.508 0 1.17-1.235 2.184-3.198 2.184zm0-5.629c.728 0 1.339-.585 1.339-1.508s-.598-1.469-1.34-1.469c-.74 0-1.338.546-1.338 1.469s.61 1.508 1.339 1.508zm.156 4.888c1.209 0 2.002-.624 2.002-1.287 0-.585-.455-.78-1.274-.78h-1.092c-.247 0-.546-.026-.82-.104-.454.325-.65.702-.65 1.066 0 .676.69 1.105 1.834 1.105zm8.532-2.015c-1.079 0-1.859-.468-2.353-1.365l.78-.546c.377.676.858.962 1.47.962.91 0 1.364-.52 1.364-1.82v-5.915h1.092v6.019c0 1.469-.689 2.665-2.353 2.665zm6.385 0c-1.339 0-1.937-.858-1.937-2.47v-4.004h1.08v3.861c0 1.183.35 1.69 1.182 1.69.65 0 1.105-.325 1.703-1.066v-4.485h1.066V52h-.884l-.09-.988h-.04c-.585.689-1.209 1.144-2.08 1.144zm6.867 0c-.897 0-1.755-.377-2.353-.871l.532-.715c.547.442 1.106.754 1.86.754.832 0 1.248-.442 1.248-.988 0-.65-.755-.936-1.444-1.196-.897-.325-1.885-.754-1.885-1.82 0-1.014.806-1.794 2.171-1.794.793 0 1.482.325 1.963.715l-.506.676c-.43-.325-.885-.559-1.444-.559-.793 0-1.157.429-1.157.91 0 .598.69.819 1.405 1.092.91.338 1.923.715 1.923 1.911 0 1.027-.819 1.885-2.314 1.885zm5.514 0c-1.352 0-1.807-.858-1.807-2.106v-3.497h-.936v-.806l.988-.065.13-1.768h.897v1.768h1.703v.871h-1.703v3.51c0 .78.247 1.222.975 1.222.22 0 .507-.091.715-.169l.208.806c-.351.117-.78.234-1.17.234zm6.439 0c-1.053 0-1.846-.663-1.846-1.794 0-1.378 1.183-2.067 3.874-2.366 0-.806-.26-1.586-1.3-1.586-.728 0-1.391.338-1.885.676l-.416-.741c.585-.377 1.469-.819 2.483-.819 1.547 0 2.197 1.027 2.197 2.6V52h-.884l-.091-.754h-.039c-.598.494-1.3.91-2.093.91zm.312-.858c.611 0 1.105-.299 1.716-.845v-1.755c-2.106.26-2.834.78-2.834 1.586 0 .715.494 1.014 1.118 1.014zm10.69.858c-2.132 0-3.718-1.638-3.718-4.42 0-2.743 1.612-4.42 3.783-4.42 1.04 0 1.846.494 2.34 1.053l-.585.702c-.455-.481-1.014-.806-1.742-.806-1.612 0-2.678 1.326-2.678 3.445 0 2.145 1.027 3.497 2.64 3.497.818 0 1.43-.364 1.975-.962l.598.676c-.676.78-1.508 1.235-2.613 1.235zm5.215 0c-.805 0-1.13-.507-1.13-1.43v-7.982h1.065v8.06c0 .338.143.468.3.468.065 0 .117 0 .234-.026l.143.806c-.143.065-.326.104-.612.104zm2.174-.156v-6.318h1.066V52h-1.066zm.546-7.618c-.416 0-.741-.286-.741-.689 0-.416.325-.689.74-.689.417 0 .742.273.742.689 0 .403-.325.689-.741.689zm2.64 7.618v-9.256h1.054v6.266h.039l2.69-3.328h1.184l-2.12 2.535L208.073 52h-1.17l-1.846-3.042-1.183 1.378V52h-1.053zm10.587-4.771l-.403 1.3h2.561l-.403-1.3a61.758 61.758 0 0 1-.858-2.873h-.052c-.26.988-.533 1.924-.845 2.873zm-2.6 4.771l2.886-8.528h1.222L217.8 52h-1.157l-.806-2.6h-3.107l-.819 2.6h-1.105zm9.037 0l-1.755-6.318h1.092l.936 3.653c.143.598.26 1.17.377 1.755h.052c.143-.585.273-1.17.43-1.755l.974-3.653h1.04l.988 3.653c.156.598.3 1.17.442 1.755h.052c.143-.585.26-1.157.39-1.755l.923-3.653h1.014L225.108 52h-1.3l-.91-3.393c-.156-.598-.273-1.183-.429-1.82h-.052c-.143.637-.273 1.235-.442 1.833l-.884 3.38h-1.248zm9.649.156c-1.053 0-1.846-.663-1.846-1.794 0-1.378 1.183-2.067 3.874-2.366 0-.806-.26-1.586-1.3-1.586-.728 0-1.392.338-1.886.676l-.416-.741c.585-.377 1.47-.819 2.483-.819 1.547 0 2.197 1.027 2.197 2.6V52h-.884l-.09-.754h-.04c-.597.494-1.3.91-2.093.91zm.312-.858c.61 0 1.105-.299 1.715-.845v-1.755c-2.106.26-2.834.78-2.834 1.586 0 .715.494 1.014 1.119 1.014zm4.877 3.419c-.286 0-.533-.052-.741-.13l.208-.845c.13.039.325.091.48.091.716 0 1.17-.572 1.43-1.352l.144-.468-2.535-6.331h1.105l1.287 3.497c.195.546.416 1.196.61 1.781h.053c.182-.572.364-1.222.533-1.781l1.13-3.497h1.04l-2.378 6.838c-.442 1.248-1.092 2.197-2.366 2.197z"/>
        <g>
            <path fill="#28B4D2" d="M35.474 5.165a5.066 5.066 0 0 1-9.288 2.8A5.066 5.066 0 0 1 30.405.1a5.066 5.066 0 0 1 5.068 5.066M46.53 14.287L32.389 25.11a6.231 6.231 0 0 1-3.805 1.287 6.257 6.257 0 0 1-4.437-1.83l-3.613-3.612c.647.132 1.315.2 2.002.2a9.97 9.97 0 0 0 6.795-2.66l12.877-9.852a3.561 3.561 0 0 1 4.985.66c1.195 1.561.9 3.79-.661 4.984"/>
            <path fill="#E1BA23" d="M29.33 18.496a9.97 9.97 0 0 1-6.795 2.658c-.687 0-1.355-.067-2.002-.199l-3.553-3.55a3.55 3.55 0 0 1 0-5.027 3.56 3.56 0 0 1 5.028 0l6.643 6.64.68-.522z"/>
            <path d="M29.33 18.496a9.97 9.97 0 0 1-6.795 2.658c-.687 0-1.355-.067-2.002-.199l-3.553-3.55a3.55 3.55 0 0 1 0-5.027 3.56 3.56 0 0 1 5.028 0l6.643 6.64.68-.522z"/>
            <path fill="#F9683D" d="M35.474 5.165a5.066 5.066 0 0 1-9.288 2.8A5.066 5.066 0 0 1 30.405.1a5.066 5.066 0 0 1 5.068 5.066"/>
            <path fill="#4855B5" d="M46.53 14.287L32.389 25.11a6.231 6.231 0 0 1-3.805 1.287 6.257 6.257 0 0 1-4.437-1.83l-3.613-3.612c.647.132 1.315.2 2.002.2a9.97 9.97 0 0 0 6.795-2.66l12.877-9.852a3.561 3.561 0 0 1 4.985.66c1.195 1.561.9 3.79-.661 4.984"/>
            <path fill="#F9683D" d="M29.33 18.496a9.97 9.97 0 0 1-6.795 2.658c-.687 0-1.355-.067-2.002-.199l-3.553-3.55a3.55 3.55 0 0 1 0-5.027 3.56 3.56 0 0 1 5.028 0l6.643 6.64.68-.522zM28.39 58.775a5.066 5.066 0 0 1 9.288-2.8 5.066 5.066 0 0 1-4.221 7.866 5.066 5.066 0 0 1-5.067-5.066"/>
            <path fill="#4855B5" d="M17.333 49.653L31.475 38.83a6.232 6.232 0 0 1 3.805-1.287c1.618 0 3.229.619 4.438 1.83l3.612 3.612c-.647-.132-1.315-.2-2.001-.2a9.97 9.97 0 0 0-6.796 2.66l-12.876 9.852a3.561 3.561 0 0 1-4.986-.66 3.551 3.551 0 0 1 .662-4.984"/>
            <path fill="#F9683D" d="M34.533 45.445a9.97 9.97 0 0 1 6.795-2.66c.687 0 1.355.068 2.003.2l3.552 3.55a3.55 3.55 0 0 1 0 5.027 3.56 3.56 0 0 1-5.028 0l-6.643-6.64-.679.523zM5.115 28.43a5.064 5.064 0 0 1 2.802 9.284 5.066 5.066 0 0 1-7.87-4.22 5.066 5.066 0 0 1 5.068-5.064"/>
            <path fill="#28B4D2" d="M14.24 17.378L25.07 31.513a6.224 6.224 0 0 1 1.287 3.804 6.252 6.252 0 0 1-1.831 4.436l-3.613 3.61c.131-.646.199-1.314.199-2a9.96 9.96 0 0 0-2.66-6.793L8.594 21.7a3.555 3.555 0 1 1 5.647-4.322"/>
            <path fill="#E1BA23" d="M18.451 34.57a9.96 9.96 0 0 1 2.66 6.793c0 .686-.068 1.354-.2 2l-3.552 3.552a3.553 3.553 0 0 1-5.028 0 3.556 3.556 0 0 1 0-5.026l6.643-6.64-.523-.679z"/>
            <path d="M18.451 34.57a9.961 9.961 0 0 1 2.66 6.793c0 .686-.068 1.354-.2 2l-3.552 3.552a3.555 3.555 0 0 1-5.028-5.026l6.643-6.64-.523-.679z"/>
            <path fill="#4855B5" d="M14.24 17.378L25.07 31.513a6.224 6.224 0 0 1 1.287 3.804 6.252 6.252 0 0 1-1.831 4.436l-3.613 3.61c.131-.646.199-1.314.199-2a9.96 9.96 0 0 0-2.66-6.793L8.594 21.7a3.555 3.555 0 1 1 5.647-4.322"/>
            <path fill="#F9683D" d="M18.451 34.57a9.96 9.96 0 0 1 2.66 6.793c0 .686-.068 1.354-.2 2l-3.552 3.552a3.553 3.553 0 0 1-5.028 0 3.556 3.556 0 0 1 0-5.026l6.643-6.64-.523-.679zM58.749 35.51a5.064 5.064 0 0 1 0-10.13 5.066 5.066 0 1 1 0 10.13"/>
            <path fill="#4855B5" d="M49.622 46.563L38.794 32.427a6.224 6.224 0 0 1-1.287-3.804c0-1.617.619-3.227 1.831-4.436l3.614-3.61c-.132.646-.2 1.314-.2 2a9.96 9.96 0 0 0 2.66 6.793l9.857 12.87a3.555 3.555 0 1 1-5.647 4.322"/>
            <path fill="#F9683D" d="M45.412 29.37a9.96 9.96 0 0 1-2.66-6.793c0-.686.068-1.354.2-2l3.552-3.552a3.556 3.556 0 0 1 5.028 5.026l-6.643 6.64.523.679z"/>
        </g>
    </g>
</svg>
