<svg xmlns="http://www.w3.org/2000/svg" width="1024" height="744" viewBox="0 0 1024 744">
    <g fill="none" fill-rule="evenodd">
        <g fill="#1B1B3F" opacity=".03">
            <path d="M329.354 283l-3.25 10.39-7.104-8.093z"/>
            <path d="M327.226 290.128l1.823-5.52-5.81 1.218 3.987 4.302zm5.906-9.128l-4.75 14.385L318 284.177 333.132 281zM260.725 14.796L244 23.18 245.345 4z"/>
            <path d="M258.098 14.535L246.093 6.07l-1.05 15.04 13.055-6.574zM243.73 1l19.774 13.942L242 25.774 243.73 1zM408.336 65.184L394 60.37 405.218 50z"/>
            <path d="M406.494 61.883l-2.218-10.652-7.972 7.276 10.19 3.376zM405.959 46l4.156 19.98L391 59.643 405.96 46zM339.116 373.778L335 353l19.91 6.792z"/>
            <path d="M351.296 361.44l-15.664-5.305 3.239 16.225 12.425-10.92zM332 352l24.69 8.362-19.586 17.211L332 352zM155 364l9.557.206-4.967 7.786z"/>
            <path d="M160.713 364.78l-4.01-.087 1.924 3.314 2.086-3.228zM152 362l13.54.29-7.036 10.898L152 362zM81 663.74l7.964-1.74-2.525 7.992z"/>
            <path d="M85.046 666.12l.903-2.66-2.844.581 1.941 2.08zm4.9-6.12l-3.79 11.188L78 662.433 89.947 660zM103.767 67.578L101 46l19.91 8.374z"/>
            <path d="M119.217 54.936l-15.868-6.575 2.207 16.95 13.66-10.375zM100 44l24.69 10.232-21.257 16.14L100 44zM185.846 482.188L177 475.276 187.354 471z"/>
            <path d="M185.256 478.915l.86-6.585-5.903 2.517 5.043 4.068zm4.08-10.915l-2.088 15.983L175 474.11 189.336 468zM34 149l19.115 8.838-17.305 11.94z"/>
            <path d="M50.615 157l-14.466-6.601 1.371 15.515L50.615 157zM33 146l23.097 10.538-20.91 14.236L33 146zM282 128l8.76.208-4.595 6.185z"/>
            <path d="M286.443 127.946l-3.085-.09 1.465 2.887 1.62-2.797zM279 125l11.947.361-6.269 10.827L279 125zM172.725 539.872l-13.133 12.509L156 534z"/>
            <path d="M171.292 540.544l-12.745-4.39 2.737 13.733 10.008-9.343zM155 532l21.504 7.407-16.885 15.769L155 532zM156 728.062l8.76-1.062-3.44 7.992z"/>
            <path d="M160.515 732.12l1.447-3.042-3.682.404 2.235 2.638zm6.024-6.12l-5.322 11.188-8.217-9.7L166.54 726zM313 667.992l1.812-7.992 6.152 5.535z"/>
            <path d="M317.19 664.141l-2.124-2.045-.625 2.956 2.75-.91zM313.543 657l8.608 8.305-11.15 3.683L313.542 657zM392.422 607.79l-5.422-7.5 8.76-1.29z"/>
            <path d="M392.624 603.78l1.531-3.557-4.017.521 2.486 3.036zm5.915-6.78l-5.161 11.988L385 598.76l13.54-1.76zM99.132 515.783L84 508.733 97.6 499z"/>
            <path d="M97.03 513.091l-1.084-12.1-9.634 7.018 10.718 5.082zM98.18 496l1.934 21.578L81 508.514 98.18 496zM98 185l11.947 3.333-8.658 9.454z"/>
            <path d="M107.633 188.792l-7.866-2.056 2.164 7.893 5.702-5.837zM96 183l16.725 4.373-12.12 12.41L96 183zM33 699.98L34.966 680l17.149 11.616z"/>
            <path d="M49.573 691.895L36.69 682.94l-1.479 15.405 14.363-6.449zM34.376 678l20.72 14.404L32 702.774 34.376 678zM17.885 243.783L8 227l19.91.077z"/>
            <path d="M25.967 227.818l-15.266-.06 7.58 13.343 7.686-13.283zM6 225l24.69.099-12.43 21.479L6 225zM10 296.79l1.05-8.79 6.914 5.323z"/>
            <path d="M14.668 292.55l-3.016-2.392-.457 3.951 3.473-1.56zM9.57 285l10.377 8.228L8 298.586 9.57 285zM287 486.997l9.617-8.997 2.33 13.586z"/>
            <path d="M297.215 487.842l-1.542-7.945-6.373 5.26 7.915 2.685zm.247-12.842l3.263 16.783-16.725-5.67L297.462 475zM142 296l16.725 7.58-14.54 11.6z"/>
            <path d="M157.2 304.133l-12.991-5.719 1.698 14.484 11.293-8.765zM141 294l21.504 9.47-18.692 14.505L141 294zM81 395.393L84.294 389l4.67 5.694z"/>
            <path d="M86.182 395.77l-1.72-2.451-1.215 2.75 2.935-.3zM83.94 388l7.006 9.97L79 399.188 83.94 388zM47 109.91l7.106-6.91 2.451 9.59z"/>
            <path d="M54.65 110.611l-1.09-4.264-3.164 3.074 4.254 1.19zm.417-9.611l3.472 13.586L45 110.793 55.067 101zM233.114 70.595l-10.073 16.188L214 70z"/>
            <path d="M231.96 72.344l-14.207-.437 6.721 12.355 7.485-11.918zM213 69l23.893.736L224.3 89.778 213 69zM399.336 501.472l-10.88 10.712L385 497z"/>
            <path d="M397.88 501.874l-10.187-3.01 2.458 10.225 7.73-7.215zM384 495l19.115 5.647-14.508 13.533L384 495zM228.022 525.184L222 510l16.725 2.59z"/>
            <path d="M236.308 512.349l-11.998-1.902 4.32 11.147 7.678-9.245zM220 507l21.504 3.41-13.76 16.57L220 507zM412.15 153.509l-7.686 8.68L401 151z"/>
            <path d="M409.717 154.026l-6.675-1.428 2.075 6.365 4.6-4.937zM399 149l15.929 3.405-10.982 11.78L399 149zM62.929 67.38L47 58.833 62.206 49z"/>
            <path d="M62.043 64.503l-.529-13.61-11.16 7.28 11.689 6.33zM64.006 46l.905 23.176L45 58.396 64.006 46zM357.725 487.273l-16.725.71L348.793 472z"/>
            <path d="M354.854 486.525l-6.626-11.017-5.784 11.531 12.41-.514zM348.018 470l11.486 19.09-21.504.89L348.018 470zM184 592.535l9.557-.535-4.33 8.79z"/>
            <path d="M189.544 598.304l2.185-4.306-4.827.26 2.642 4.046zm6.792-7.304l-6.497 12.787L182 591.772l14.336-.772zM371 332.778L374.435 312l15.68 13.462z"/>
            <path d="M389.146 324.149l-12.76-10.113-2.795 15.607 15.555-5.494zM374.434 309l20.256 16.053-24.69 8.721L374.434 309zM81.318 317.43L63 325.98 64.68 306z"/>
            <path d="M79.536 316.725l-13.04-8.81-1.313 15.396 14.353-6.586zM64.12 303l20.977 14.176L62 327.774 64.12 303zM165.76 143.798L157 147.59l1.144-9.59z"/>
            <path d="M161.772 143.003l-3.17-2.657-.473 4.39 3.643-1.733zM156.557 135l10.39 8.7L155 149.386 156.557 135zM196 649.553l6.371-3.553-.45 7.992z"/>
            <path d="M201.952 651.788l.196-3.143-2.741 1.397 2.545 1.746zM205.15 644l-.793 12.787L194 649.685 205.15 644zM94-7l7.964 2.232-5.921 5.76z"/>
            <path d="M98.785-3.34l-3.069-.86.788 3.078 2.281-2.219zM92-8l11.947 3.348-8.883 8.64L92-8zM98 126.589L111.64 118l.696 15.983z"/>
            <path d="M111.339 130.45l-.477-10.689-9.321 5.744 9.798 4.944zm2.085-15.45l.894 19.98L96 125.735 113.424 115zM174.237-2.16l-6.527-12.435-7.777 11.733 14.304.703zM167.989-20L178.893.778 155-.397 167.989-20zM165.76 202.992l-8.76-1.766 6.01-6.226z"/>
            <path d="M163.122 201.424l-1.009-3.232-2.212 2.521 3.221.711zm.073-8.424l3.752 11.988L155 202.342l8.195-9.342zM287 579.93l7.343-4.93.621 8.79z"/>
            <path d="M292.247 579.864l-.24-3.742-2.831 2.098 3.07 1.644zM294.28 571l.87 13.586L284 578.62 294.281 571zM366 657.074L376.354 655l-3.292 9.59z"/>
            <path d="M372.182 663.086l1.832-5.469-5.755 1.182 3.923 4.287zm5.95-9.086l-4.81 14.385L363 657.115 378.132 654zM131 418l9.557.922-5.57 7.869z"/>
            <path d="M138.31 420.802l-4.81-.479 2.008 4.555 2.801-4.076zM129 417l14.336 1.421-8.354 12.165L129 417zM384 6.443L388.851-1l3.91 7.992z"/>
            <path d="M389.872 4.337l-1.722-3.189-2.136 2.973 3.858.216zM388.494-4l6.045 11.188L381 6.418 388.494-4zM358.725 99.18L342 90.478 357.722 80z"/>
            <path d="M357.748 97.271l-.74-14.27-11.593 7.794 12.333 6.476zM359.468 78l1.24 23.975L340 91.094 359.468 78zM229 364.14l4.644-6.14 4.117 6.393z"/>
            <path d="M233.701 364.36l-1.722-3.025-1.94 2.906 3.662.12zM232.18 356l6.36 11.188-13.54-.443L232.18 356zM167.76 34l-3.663 7.992L159 34.824z"/>
            <path d="M163.47 37.973l1.316-2.94-3.142.306 1.826 2.634zM168.947 32l-4.994 11.188L157 33.155 168.947 32zM35.898 348l6.438 12.787L28 359.946z"/>
            <path d="M39.373 359.72l-4.176-8.166-5.123 7.63 9.3.536zM35.53 346l8.585 16.783L25 361.679 35.53 346zM247.71 570.39l-8.71-5.918 9.557-4.472z"/>
            <path d="M246.637 567.275l.487-5.8-5.48 2.494 4.993 3.306zM250.336 557l-1.272 15.184-13.064-8.65L250.336 557zM54.557 207.79L45 206.758 50.674 199z"/>
            <path d="M51.75 205.533l-1.85-4.055-2.698 3.58 4.548.475zM50.51 196l5.825 12.787L42 207.282 50.511 196zM289 223.029l9.557-1.029-3.968 9.59z"/>
            <path d="M294.844 228.898l2.002-4.571-4.823.488 2.821 4.083zm6.492-7.898l-5.953 13.586L287 222.454 301.336 221zM215.15 232.43L204 235.187 207.224 224z"/>
            <path d="M211.777 231.51l-4.9-5.209-1.994 6.91 6.894-1.702zM205.604 221l11.325 12.04L201 236.984 205.604 221zM157 93.59l4.602-9.59 5.752 8.909z"/>
            <path d="M164.61 91.148l-2.897-4.59-2.319 4.941 5.216-.35zM161.378 81l7.958 12.62-14.336.966L161.378 81zM52.392 551.18L41 532.746 62.504 532z"/>
            <path d="M51.737 549.34l7.917-15.357-16.836.6 8.919 14.756zM64.282 531l-12.359 23.975L38 531.933 64.282 531zM323 536l7.964 2.224-5.914 5.768z"/>
            <path d="M328.222 539.372l-2.665-.746.686 2.678 1.98-1.932zM322 535l11.15 3.114-8.278 8.074L322 535zM247.255 460.992L242 454.538l7.964-1.538z"/>
            <path d="M245.943 458.212l1.064-2.926-3.127.564 2.063 2.362zm5.004-6.212l-4.064 11.188-7.883-9.033L250.947 452zM20.336 47.137L6 51.385 9.443 37z"/>
            <path d="M17.723 46.259l-7.539-7.018-2.38 9.959 9.919-2.941zM8.593 34l14.522 13.517L4 53.18 8.593 34zM119 257l10.354 3.582-8.412 6.807z"/>
            <path d="M126.02 260.2l-5.54-2.022 1.04 5.866 4.5-3.844zM117 254l14.336 5.237-11.647 9.947L117 254zM280.175 379l3.382 9.59-9.557-1.7z"/>
            <path d="M282.144 387.726l-1.787-5.068-3.265 4.171 5.052.897zM281.26 377l5.076 14.385L272 388.831 281.26 377zM8.368 116.586L4 103l13.54 2.869z"/>
            <path d="M15.034 106.213l-8.868-1.716 2.864 8.123 6.004-6.407zM2 101l18.318 3.546L7.91 117.783 2 101zM251 187.783L257.148 171l12.17 13.471z"/>
            <path d="M265.576 184.518l-8.381-10.158-4.236 12.657 12.617-2.499zM256.221 169l14.283 17.316L249 190.578 256.221 169zM21.132 542.447l-14.036 9.336L6 535z"/>
            <path d="M17.748 541.93l-10.763-5.392.78 12.15 9.983-6.758zM4 532l19.115 9.576L5.38 553.578 4 532zM37.115 484.18L18 478.652 32.384 465z"/>
            <path d="M34.327 482.934l-3.471-14.566-10.564 10.366 14.035 4.2zM32.38 463l5.718 23.975L15 480.066 32.379 463zM217.83 735.18L204 719.862 224.707 716z"/>
            <path d="M216.47 734.286l5.17-15.62-15.569 3.144 10.399 12.476zM225.69 715l-8.199 24.774L201 719.986 225.69 715zM397.062 568.18L386 549.366l21.504-.366z"/>
            <path d="M399.246 565.387l8.758-15.514-18.038.294 9.28 15.22zM412.876 547l-13.536 23.975-14.34-23.52 27.875-.455zM335.418 614.39L331 604l11.15 1.342z"/>
            <path d="M338.979 607.146l-6.67-.822 2.642 6.355 4.028-5.533zM328 603l15.929 1.965-9.62 13.22L328 603zM252.747 301.783L244 285l19.115.923z"/>
            <path d="M260.727 287.689l-15.036-.722 6.88 13.141 8.156-12.42zM241 284l24.69 1.187-13.391 20.39L241 284zM266.717 621l14.008 11.627L264 639.381z"/>
            <path d="M278.117 632.827l-10.643-8.668-2.062 13.696 12.705-5.028zM265.494 619l18.01 14.665-21.504 8.51L265.494 619zM199 419.44l7.15-7.44 2.407 10.39z"/>
            <path d="M206.593 421.53l-1.35-5.378-4.01 3.85 5.36 1.529zm.134-10.53l3.609 14.385L196 421.3l10.727-10.3zM40.744 9.79L36 1l9.557.041z"/>
            <path d="M43.463 2.558l-4.612-.017 2.288 3.6 2.324-3.583zM34 0l14.336.052-7.219 11.136L34 0zM164.504 656l-10.752 19.18L143 656z"/>
            <path d="M162.53 656.793h-16.778l8.388 14.796 8.39-14.796zM141 654h26.282l-13.142 23.176L141 654zM113.645 718.18L112 699l16.725 8.105z"/>
            <path d="M127.106 708.619l-12.99-6.119 1.28 14.483 11.71-8.364zM111 698l21.504 10.127-19.39 13.848L111 698zM393.725 276.983L377 274.685 387.306 261z"/>
            <path d="M391.203 274.676l-4.672-11.317-7.51 9.689 12.182 1.628zM387.255 258l8.249 19.98L374 275.103 387.255 258zM339.275 160.385L338 146l11.947 5.975z"/>
            <path d="M349.324 153.52l-8.165-3.888.872 9.362 7.293-5.475zM338 145l16.725 7.969-14.939 11.211L338 145zM201.826 304l9.9 13.433L195 319.184z"/>
            <path d="M209.788 316.765l-6.77-9.37-4.666 10.594 11.436-1.224zM202.451 302l12.256 16.966L194 321.18l8.451-19.18zM284 61l7.964 3.415-6.859 5.376z"/>
            <path d="M290.033 64.313l-2.899-1.21.4 3.12 2.5-1.91zM284 59l11.15 4.653-9.6 7.335L284 59zM325.354 429.59L315 428.344l6.255-8.344z"/>
            <path d="M323.761 428.023l-2.27-5.46-3.47 4.748 5.74.712zM322.141 417l5.991 14.385L313 429.517 322.141 417zM389.354 435.339L379 438.389 381.51 428z"/>
            <path d="M386.736 434.456l-4.486-4.196-1.436 5.94 5.922-1.744zM380.668 425l11.464 10.728L377 440.184 380.668 425zM324.732 24.18L315 5l20.707.752z"/>
            <path d="M333.671 7.547l-16.043-.573 7.541 14.59 8.502-14.017zM313 4l25.486.91-13.508 22.266L313 4zM31.132 411.997l-14.666 8.786L16 404z"/>
            <path d="M27.802 411.426l-11.021-5.93.34 12.44 10.681-6.51zM14 401l19.115 10.281-18.524 11.297L14 401zM63.986 597.39L55 591.714 64.557 587z"/>
            <path d="M63.201 593.662l.294-5.221-4.914 2.369 4.62 2.852zM66.539 584l-.807 14.385L53 590.528 66.54 584zM11 722l8.76 3.852-7.68 5.738z"/>
            <path d="M16.76 725.432l-3.655-1.767.448 4.401 3.207-2.634zM10 719l11.947 5.778-10.476 8.607L10 719zM72.25 249l3.714 6.393-7.964-.28z"/>
            <path d="M72.505 256.228l-1.335-2.683-1.529 2.564 2.864.12zM71.375 248l5.572 11.188L65 258.695 71.376 248zM73.283 730l6.07 8.545L69 739.59z"/>
            <path d="M78.172 738.493l-3.372-4.871-2.38 5.467 5.752-.596zM74.26 728l8.872 12.818L68 742.385 74.26 728zM359 729.26l16.725-4.26-4.717 16.783z"/>
            <path d="M370.086 738.545l3.441-11.788-12.198 2.994 8.757 8.794zM377.504 723l-6.065 20.778L356 728.275 377.504 723zM327.557 710.952l-9.266 5.437L318 706z"/>
            <path d="M324.933 711.388l-5.002-2.674.154 5.608 4.848-2.934zM317 704l13.54 7.24-13.129 7.944L317 704zM284.725 739.983L268 737.716 278.278 724z"/>
            <path d="M284.158 737.651l-4.66-11.238-7.433 9.644 12.093 1.594zM280.215 721l8.289 19.98L267 738.143 280.215 721zM143.132 487.781L128 489.385 134.227 475z"/>
            <path d="M141.982 485.72l-6.242-9.08-4.364 10.22 10.606-1.14zm-6.79-14.72l11.719 17.04L127 490.18l8.192-19.18zM242.37 688.184L239 673l14.336 4.558z"/>
            <path d="M249.802 676.966l-10.086-3.04 2.372 10.122 7.714-7.082zM236 670l19.114 5.76-14.623 13.42L236 670zM116.118 629.98L112 610l19.114 6.374z"/>
            <path d="M130.192 616.019l-15.447-4.944 3.329 15.502 12.118-10.558zM111 607l24.69 7.9-19.371 16.874L111 607zM77 452.091L88.947 451l-5.057 11.188z"/>
            <path d="M84.167 457.797l3.12-6.692-7.372.655 4.252 6.037zM91.725 448l-7.08 15.184L75 449.48 91.725 448zM7.822 650.393L3 644.842l7.964-.842z"/>
            <path d="M6.402 647.625l1.092-2.557-2.77.339 1.678 2.218zM11.598 642l-4.575 10.69L0 643.409 11.598 642zM37.097 619l2.257 10.39L29 626.098z"/>
            <path d="M38.773 627.1l-1.211-5.88-4.342 4.02 5.553 1.86zm.44-11.1l3.123 15.184L28 626.377 39.213 616zM112.76 565.79l-8.76-2.72 6.788-6.07z"/>
            <path d="M111.652 564.415l-.907-4.03-3.112 2.783 4.02 1.247zm.84-9.415l3.047 13.586L102 564.382 112.492 555zM378.91 209l-8.277 18.38L359 210.954z"/>
            <path d="M369.895 224.585l6.34-14.318-15.252 1.523 8.912 12.795zM380.69 207l-10.266 23.176L356 209.466 380.69 207zM745.354 283l-3.25 10.39-7.104-8.093z"/>
            <path d="M742.226 290.128l1.823-5.52-5.81 1.218 3.987 4.302zm5.906-9.128l-4.75 14.385L733 284.177 748.132 281zM675.725 14.796L659 23.18 660.345 4z"/>
            <path d="M673.098 14.535L661.093 6.07l-1.05 15.04 13.055-6.574zM658.73 1l19.774 13.942L657 25.774 658.73 1zM823.336 65.184L809 60.37 820.218 50z"/>
            <path d="M821.494 61.883l-2.218-10.652-7.972 7.276 10.19 3.376zM820.959 46l4.156 19.98L806 59.643 820.96 46zM754.116 373.778L750 353l19.91 6.792z"/>
            <path d="M766.296 361.44l-15.664-5.305 3.239 16.225 12.425-10.92zM747 352l24.69 8.362-19.586 17.211L747 352zM570 364l9.557.206-4.967 7.786z"/>
            <path d="M575.713 364.78l-4.01-.087 1.924 3.314 2.086-3.228zM567 362l13.54.29-7.036 10.898L567 362zM496 663.74l7.964-1.74-2.525 7.992z"/>
            <path d="M500.046 666.12l.903-2.66-2.844.581 1.941 2.08zm4.9-6.12l-3.79 11.188-8.156-8.755L504.947 660zM518.767 67.578L516 46l19.91 8.374z"/>
            <path d="M535.217 54.936l-15.868-6.575 2.207 16.95 13.66-10.375zM516 44l24.69 10.232-21.257 16.14L516 44zM600.846 482.188L592 475.276 602.354 471z"/>
            <path d="M600.256 478.915l.86-6.585-5.903 2.517 5.043 4.068zm4.08-10.915l-2.088 15.983L590 474.11 604.336 468zM449 149l19.115 8.838-17.305 11.94z"/>
            <path d="M466.615 157l-14.466-6.601 1.371 15.515L466.615 157zM449 146l23.097 10.538-20.91 14.236L449 146zM697 128l8.76.208-4.595 6.185z"/>
            <path d="M701.443 127.946l-3.085-.09 1.465 2.887 1.62-2.797zM694 125l11.947.361-6.269 10.827L694 125zM587.725 539.872l-13.133 12.509L571 534z"/>
            <path d="M586.292 540.544l-12.745-4.39 2.737 13.733 10.008-9.343zM570 532l21.504 7.407-16.885 15.769L570 532zM571 728.062l8.76-1.062-3.44 7.992z"/>
            <path d="M575.515 732.12l1.447-3.042-3.682.404 2.235 2.638zm6.024-6.12l-5.322 11.188-8.217-9.7L581.54 726zM728 667.992l1.812-7.992 6.152 5.535z"/>
            <path d="M733.19 664.141l-2.124-2.045-.625 2.956 2.75-.91zM729.543 657l8.608 8.305-11.15 3.683L729.542 657zM807.422 607.79l-5.422-7.5 8.76-1.29z"/>
            <path d="M808.624 603.78l1.531-3.557-4.017.521 2.486 3.036zm5.915-6.78l-5.161 11.988L801 598.76l13.54-1.76zM514.132 515.783L499 508.733 512.6 499z"/>
            <path d="M512.03 513.091l-1.084-12.1-9.634 7.018 10.718 5.082zM513.18 496l1.935 21.578L496 508.514 513.18 496zM513 185l11.947 3.333-8.658 9.454z"/>
            <path d="M522.633 188.792l-7.866-2.056 2.164 7.893 5.702-5.837zM511 183l16.725 4.373-12.12 12.41L511 183zM448 699.98l1.966-19.98 17.149 11.616z"/>
            <path d="M464.573 691.895l-12.884-8.956-1.479 15.405 14.363-6.449zM449.376 678l20.72 14.404L447 702.774 449.376 678zM432.885 243.783L423 227l19.91.077z"/>
            <path d="M440.967 227.818l-15.266-.06 7.58 13.343 7.686-13.283zM421 225l24.69.099-12.43 21.479L421 225zM425 296.79l1.05-8.79 6.914 5.323z"/>
            <path d="M429.668 292.55l-3.016-2.392-.457 3.951 3.473-1.56zM424.57 285l10.377 8.228L423 298.586 424.57 285zM702 486.997l9.617-8.997 2.33 13.586z"/>
            <path d="M713.215 487.842l-1.542-7.945-6.373 5.26 7.915 2.685zm.247-12.842l3.263 16.783-16.725-5.67L713.462 475zM557 296l16.725 7.58-14.54 11.6z"/>
            <path d="M572.2 304.133l-12.991-5.719 1.698 14.484 11.293-8.765zM556 294l21.504 9.47-18.692 14.505L556 294zM496 395.393l3.294-6.393 4.67 5.694z"/>
            <path d="M501.182 395.77l-1.72-2.451-1.215 2.75 2.935-.3zM498.94 388l7.006 9.97L494 399.188 498.94 388zM462 109.91l7.106-6.91 2.451 9.59z"/>
            <path d="M469.65 110.611l-1.09-4.264-3.164 3.074 4.254 1.19zm.417-9.611l3.472 13.586L460 110.793 470.067 101zM648.115 70.595L638.04 86.783 629 70z"/>
            <path d="M646.96 72.344l-14.207-.437 6.721 12.355 7.485-11.918zM628 69l23.893.736L639.3 89.778 628 69zM815.336 501.472l-10.88 10.712L801 497z"/>
            <path d="M812.88 501.874l-10.187-3.01 2.458 10.225 7.73-7.215zM799 495l19.115 5.647-14.508 13.533L799 495zM643.022 525.184L637 510l16.725 2.59z"/>
            <path d="M651.308 512.349l-11.998-1.902 4.32 11.147 7.678-9.245zM635 507l21.504 3.41-13.76 16.57L635 507zM827.15 153.509l-7.686 8.68L816 151z"/>
            <path d="M824.717 154.026l-6.675-1.428 2.075 6.365 4.6-4.937zM814 149l15.929 3.405-10.982 11.78L814 149zM477.929 67.38L462 58.833 477.206 49z"/>
            <path d="M477.043 64.503l-.529-13.61-11.16 7.28 11.689 6.33zM479.006 46l.905 23.176L460 58.396 479.006 46zM772.725 487.273l-16.725.71L763.793 472z"/>
            <path d="M769.854 486.525l-6.626-11.017-5.784 11.531 12.41-.514zM763.018 470l11.486 19.09-21.504.89L763.018 470zM599 592.535l9.557-.535-4.33 8.79z"/>
            <path d="M604.544 598.304l2.185-4.306-4.827.26 2.642 4.046zm6.792-7.304l-6.497 12.787L597 591.772l14.336-.772zM786 332.778L789.435 312l15.68 13.462z"/>
            <path d="M805.146 324.149l-12.76-10.113-2.795 15.607 15.555-5.494zM790.434 309l20.256 16.053-24.69 8.721L790.434 309zM496.318 317.43L478 325.98l1.68-19.98z"/>
            <path d="M494.536 316.725l-13.04-8.81-1.313 15.396 14.353-6.586zM479.12 303l20.977 14.176L477 327.774 479.12 303zM580.76 143.798L572 147.59l1.144-9.59z"/>
            <path d="M576.772 143.003l-3.17-2.657-.473 4.39 3.643-1.733zM571.557 135l10.39 8.7L570 149.386 571.557 135zM611 649.553l6.371-3.553-.45 7.992z"/>
            <path d="M616.952 651.788l.196-3.143-2.741 1.397 2.545 1.746zM620.15 644l-.793 12.787L609 649.685 620.15 644zM509-7l7.964 2.232-5.921 5.76z"/>
            <path d="M514.785-3.34l-3.069-.86.788 3.078 2.281-2.219zM508-8l11.947 3.348-8.883 8.64L508-8zM513 126.589L526.64 118l.696 15.983z"/>
            <path d="M526.339 130.45l-.477-10.689-9.321 5.744 9.798 4.944zm2.085-15.45l.894 19.98L511 125.735 528.424 115zM589.237-2.16l-6.527-12.435-7.777 11.733 14.304.703zM582.989-20L593.893.778 570-.397 582.989-20zM580.76 202.992l-8.76-1.766 6.01-6.226z"/>
            <path d="M578.122 201.424l-1.009-3.232-2.212 2.521 3.221.711zm.073-8.424l3.752 11.988L570 202.342l8.195-9.342zM702 579.93l7.343-4.93.621 8.79z"/>
            <path d="M708.247 579.864l-.24-3.742-2.831 2.098 3.07 1.644zM710.28 571l.87 13.586L700 578.62 710.281 571zM782 657.074L792.354 655l-3.292 9.59z"/>
            <path d="M787.182 663.086l1.832-5.469-5.755 1.182 3.923 4.287zm5.95-9.086l-4.81 14.385L778 657.115 793.132 654zM547 418l9.557.922-5.57 7.869z"/>
            <path d="M553.31 420.802l-4.81-.479 2.008 4.555 2.801-4.076zM544 417l14.336 1.421-8.354 12.165L544 417zM799 6.443L803.851-1l3.91 7.992z"/>
            <path d="M804.872 4.337l-1.722-3.189-2.136 2.973 3.858.216zM803.494-4l6.045 11.188L796 6.418 803.494-4zM774.725 99.18L758 90.478 773.722 80z"/>
            <path d="M772.748 97.271l-.74-14.27-11.593 7.794 12.333 6.476zM774.468 78l1.24 23.975L755 91.094 774.468 78zM644 364.14l4.644-6.14 4.117 6.393z"/>
            <path d="M649.701 364.36l-1.722-3.025-1.94 2.906 3.662.12zM648.18 356l6.36 11.188-13.54-.443L648.18 356zM582.76 34l-3.663 7.992L574 34.824z"/>
            <path d="M578.47 37.973l1.316-2.94-3.142.306 1.826 2.634zM583.947 32l-4.994 11.188L572 33.155 583.947 32zM450.898 348l6.438 12.787-14.336-.841z"/>
            <path d="M455.373 359.72l-4.176-8.166-5.123 7.63 9.3.536zM451.53 346l8.585 16.783L441 361.679 451.53 346zM662.71 570.39l-8.71-5.918 9.557-4.472z"/>
            <path d="M661.637 567.275l.487-5.8-5.48 2.494 4.993 3.306zM665.336 557l-1.272 15.184-13.064-8.65L665.336 557zM469.557 207.79L460 206.758l5.674-7.757z"/>
            <path d="M466.75 205.533l-1.85-4.055-2.698 3.58 4.548.475zM465.51 196l5.825 12.787L457 207.282 465.511 196zM704 223.029l9.557-1.029-3.968 9.59z"/>
            <path d="M709.844 228.898l2.002-4.571-4.823.488 2.821 4.083zm6.492-7.898l-5.953 13.586L702 222.454 716.336 221zM630.15 232.43L619 235.187 622.224 224z"/>
            <path d="M627.777 231.51l-4.9-5.209-1.994 6.91 6.894-1.702zM621.604 221l11.325 12.04L617 236.984 621.604 221zM572 93.59l4.602-9.59 5.752 8.909z"/>
            <path d="M579.61 91.148l-2.897-4.59-2.319 4.941 5.216-.35zM576.378 81l7.958 12.62-14.336.966L576.378 81zM467.392 551.18L456 532.746l21.504-.746z"/>
            <path d="M466.737 549.34l7.917-15.357-16.836.6 8.919 14.756zM479.282 531l-12.359 23.975L453 531.933l26.282-.933zM739 536l7.964 2.224-5.914 5.768z"/>
            <path d="M743.222 539.372l-2.665-.746.686 2.678 1.98-1.932zM737 535l11.15 3.114-8.278 8.074L737 535zM662.255 460.992L657 454.538l7.964-1.538z"/>
            <path d="M660.943 458.212l1.064-2.926-3.127.564 2.063 2.362zm5.004-6.212l-4.064 11.188-7.883-9.033L665.947 452zM435.336 47.137L421 51.385 424.443 37z"/>
            <path d="M432.723 46.259l-7.539-7.018-2.38 9.959 9.919-2.941zM423.593 34l14.522 13.517L419 53.18 423.593 34zM534 257l10.354 3.582-8.412 6.807z"/>
            <path d="M541.02 260.2l-5.54-2.022 1.04 5.866 4.5-3.844zM532 254l14.336 5.237-11.647 9.947L532 254zM695.175 379l3.382 9.59-9.557-1.7z"/>
            <path d="M697.144 387.726l-1.787-5.068-3.265 4.171 5.052.897zM696.26 377l5.076 14.385L687 388.831 696.26 377zM423.368 116.586L419 103l13.54 2.869z"/>
            <path d="M430.034 106.213l-8.868-1.716 2.864 8.123 6.004-6.407zM417 101l18.318 3.546-12.409 13.237L417 101zM666 187.783L672.148 171l12.17 13.471z"/>
            <path d="M680.576 184.518l-8.381-10.158-4.236 12.657 12.617-2.499zM671.221 169l14.283 17.316L664 190.578 671.221 169zM436.132 542.447l-14.036 9.336L421 535z"/>
            <path d="M432.748 541.93l-10.763-5.392.78 12.15 9.983-6.758zM419 532l19.115 9.576-17.734 12.002L419 532zM453.115 484.18L434 478.652 448.384 465z"/>
            <path d="M449.327 482.934l-3.471-14.566-10.564 10.366 14.035 4.2zM447.38 463l5.718 23.975L430 480.066 447.379 463zM632.83 735.18L619 719.862 639.707 716z"/>
            <path d="M631.47 734.286l5.17-15.62-15.569 3.144 10.399 12.476zM640.69 715l-8.199 24.774L616 719.986 640.69 715zM812.062 568.18L801 549.366l21.504-.366z"/>
            <path d="M814.246 565.387l8.758-15.514-18.038.294 9.28 15.22zM827.876 547l-13.536 23.975-14.34-23.52 27.875-.455zM750.418 614.39L746 604l11.15 1.342z"/>
            <path d="M753.979 607.146l-6.67-.822 2.642 6.355 4.028-5.533zM743 603l15.929 1.965-9.62 13.22L743 603zM667.747 301.783L659 285l19.115.923z"/>
            <path d="M675.727 287.689l-15.036-.722 6.88 13.141 8.156-12.42zM656 284l24.69 1.187-13.391 20.39L656 284zM682.717 621l14.008 11.627L680 639.381z"/>
            <path d="M693.117 632.827l-10.643-8.668-2.062 13.696 12.705-5.028zM680.494 619l18.01 14.665-21.504 8.51L680.494 619zM614 419.44l7.15-7.44 2.407 10.39z"/>
            <path d="M621.593 421.53l-1.35-5.378-4.01 3.85 5.36 1.529zm.134-10.53l3.609 14.385L611 421.3l10.727-10.3zM455.744 9.79L451 1l9.557.041z"/>
            <path d="M458.463 2.558l-4.612-.017 2.288 3.6 2.324-3.583zM449 0l14.336.052-7.219 11.136L449 0zM579.504 656l-10.752 19.18L558 656z"/>
            <path d="M577.53 656.793h-16.778l8.388 14.796 8.39-14.796zM556 654h26.282l-13.142 23.176L556 654zM528.645 718.18L527 699l16.725 8.105z"/>
            <path d="M542.106 708.619l-12.99-6.119 1.28 14.483 11.71-8.364zM526 698l21.504 10.127-19.39 13.848L526 698zM808.725 276.983L792 274.685 802.306 261z"/>
            <path d="M807.203 274.676l-4.672-11.317-7.51 9.689 12.182 1.628zM803.255 258l8.249 19.98L790 275.103 803.255 258zM755.275 160.385L754 146l11.947 5.975z"/>
            <path d="M764.324 153.52l-8.165-3.888.872 9.362 7.293-5.475zM753 145l16.725 7.969-14.939 11.211L753 145zM616.826 304l9.9 13.433L610 319.184z"/>
            <path d="M624.788 316.765l-6.77-9.37-4.666 10.594 11.436-1.224zM617.451 302l12.256 16.966L609 321.18l8.451-19.18zM700 61l7.964 3.415-6.859 5.376z"/>
            <path d="M705.033 64.313l-2.899-1.21.4 3.12 2.5-1.91zM699 59l11.15 4.653-9.6 7.335L699 59zM741.354 429.59L731 428.344l6.255-8.344z"/>
            <path d="M738.761 428.023l-2.27-5.46-3.47 4.748 5.74.712zM737.141 417l5.991 14.385L728 429.517 737.141 417zM804.354 435.339L794 438.389 796.51 428z"/>
            <path d="M801.736 434.456l-4.486-4.196-1.436 5.94 5.922-1.744zM795.668 425l11.464 10.728L792 440.184 795.668 425zM740.732 24.18L731 5l20.707.752z"/>
            <path d="M748.671 7.547l-16.043-.573 7.541 14.59 8.502-14.017zM728 4l25.486.91-13.508 22.266L728 4zM446.132 411.997l-14.666 8.786L431 404z"/>
            <path d="M443.802 411.426l-11.021-5.93.34 12.44 10.681-6.51zM430 401l19.115 10.281-18.524 11.297L430 401zM478.986 597.39L470 591.714l9.557-4.715z"/>
            <path d="M478.201 593.662l.294-5.221-4.914 2.369 4.62 2.852zm3.338-9.662l-.807 14.385L468 590.528 481.54 584zM426 722l8.76 3.852-7.68 5.738z"/>
            <path d="M431.76 725.432l-3.655-1.767.448 4.401 3.207-2.634zM425 719l11.947 5.778-10.476 8.607L425 719zM487.25 249l3.714 6.393-7.964-.28z"/>
            <path d="M487.505 256.228l-1.335-2.683-1.529 2.564 2.864.12zm-1.13-8.228l5.572 11.188-11.947-.493L486.376 248zM488.283 730l6.07 8.545L484 739.59z"/>
            <path d="M493.172 738.493l-3.372-4.871-2.38 5.467 5.752-.596zM489.26 728l8.872 12.818L483 742.385 489.26 728zM774 729.26l16.725-4.26-4.717 16.783z"/>
            <path d="M785.086 738.545l3.441-11.788-12.198 2.994 8.757 8.794zM792.504 723l-6.065 20.778L771 728.275 792.504 723zM742.557 710.952l-9.266 5.437L733 706z"/>
            <path d="M739.933 711.388l-5.002-2.674.154 5.608 4.848-2.934zM732 704l13.54 7.24-13.129 7.944L732 704zM700.725 739.983L684 737.716 694.278 724z"/>
            <path d="M699.158 737.651l-4.66-11.238-7.433 9.644 12.093 1.594zM695.215 721l8.289 19.98L682 738.143 695.215 721zM558.132 487.781L543 489.385 549.227 475z"/>
            <path d="M556.982 485.72l-6.242-9.08-4.364 10.22 10.606-1.14zm-6.79-14.72l11.719 17.04L542 490.18l8.192-19.18zM657.37 688.184L654 673l14.336 4.558z"/>
            <path d="M664.802 676.966l-10.086-3.04 2.372 10.122 7.714-7.082zM651 670l19.115 5.76-14.624 13.42L651 670zM531.118 629.98L527 610l19.115 6.374z"/>
            <path d="M545.192 616.019l-15.447-4.944 3.329 15.502 12.118-10.558zM526 607l24.69 7.9-19.371 16.874L526 607zM492 452.091L503.947 451l-5.057 11.188z"/>
            <path d="M499.167 457.797l3.12-6.692-7.372.655 4.252 6.037zm7.558-9.797l-7.08 15.184L490 449.48 506.725 448zM422.822 650.393L418 644.842l7.964-.842z"/>
            <path d="M421.402 647.625l1.092-2.557-2.77.339 1.678 2.218zm5.196-5.625l-4.575 10.69-7.023-9.282L426.598 642zM453.097 619l2.257 10.39L445 626.098z"/>
            <path d="M453.773 627.1l-1.211-5.88-4.342 4.02 5.553 1.86zm.44-11.1l3.123 15.184L443 626.377 454.213 616zM527.76 565.79l-8.76-2.72 6.788-6.07z"/>
            <path d="M526.652 564.415l-.907-4.03-3.112 2.783 4.02 1.247zm.84-9.415l3.047 13.586L517 564.382 527.492 555zM793.91 209l-8.277 18.38L774 210.954z"/>
            <path d="M784.895 224.585l6.34-14.318-15.252 1.523 8.912 12.795zM795.69 207l-10.266 23.176L771 209.466 795.69 207zM986 364l9.557.206-4.967 7.786z"/>
            <path d="M990.713 364.78l-4.01-.087 1.924 3.314 2.086-3.228zM982 362l13.54.29-7.036 10.898L982 362zM912 663.74l7.964-1.74-2.525 7.992z"/>
            <path d="M915.046 666.12l.903-2.66-2.844.581 1.941 2.08zm4.9-6.12l-3.79 11.188-8.156-8.755L919.947 660zM934.767 67.578L932 46l19.91 8.374z"/>
            <path d="M950.217 54.936l-15.868-6.575 2.207 16.95 13.66-10.375zM931 44l24.69 10.232-21.257 16.14L931 44zM1015.846 482.188l-8.846-6.912 10.354-4.276z"/>
            <path d="M1016.256 478.915l.86-6.585-5.903 2.517 5.043 4.068zm4.08-10.915l-2.088 15.983L1006 474.11l14.336-6.109zM865 149l19.115 8.838-17.305 11.94z"/>
            <path d="M881.615 157l-14.466-6.601 1.371 15.515L881.615 157zM864 146l23.097 10.538-20.91 14.236L864 146zM1002.725 539.872l-13.133 12.509L986 534z"/>
            <path d="M1001.292 540.544l-12.745-4.39 2.737 13.733 10.008-9.343zM985 532l21.504 7.407-16.885 15.769L985 532zM986 728.062l8.76-1.062-3.44 7.992z"/>
            <path d="M990.515 732.12l1.447-3.042-3.682.404 2.235 2.638zm6.024-6.12l-5.322 11.188-8.217-9.7L996.54 726zM929.132 515.783L914 508.733 927.6 499z"/>
            <path d="M928.03 513.091l-1.084-12.1-9.634 7.018 10.718 5.082zM929.18 496l1.935 21.578L912 508.514 929.18 496zM928 185l11.947 3.333-8.658 9.454z"/>
            <path d="M937.633 188.792l-7.866-2.056 2.164 7.893 5.702-5.837zM926 183l16.725 4.373-12.12 12.41L926 183zM863 699.98l1.966-19.98 17.149 11.616z"/>
            <path d="M879.573 691.895l-12.884-8.956-1.479 15.405 14.363-6.449zM864.376 678l20.72 14.404L862 702.774 864.376 678zM847.885 243.783L838 227l19.91.077z"/>
            <path d="M855.967 227.818l-15.266-.06 7.58 13.343 7.686-13.283zM836 225l24.69.099-12.43 21.479L836 225zM840 296.79l1.05-8.79 6.914 5.323z"/>
            <path d="M844.668 292.55l-3.016-2.392-.457 3.951 3.473-1.56zM839.57 285l10.377 8.228L838 298.586 839.57 285zM972 296l16.725 7.58-14.54 11.6z"/>
            <path d="M987.2 304.133l-12.991-5.719 1.698 14.484 11.293-8.765zM971 294l21.504 9.47-18.692 14.505L971 294zM912 395.393l3.294-6.393 4.67 5.694z"/>
            <path d="M916.182 395.77l-1.72-2.451-1.215 2.75 2.935-.3zM913.94 388l7.006 9.97L909 399.188 913.94 388zM877 109.91l7.106-6.91 2.451 9.59z"/>
            <path d="M884.65 110.611l-1.09-4.264-3.164 3.074 4.254 1.19zm.417-9.611l3.472 13.586L875 110.793 885.067 101zM892.929 67.38L877 58.833 892.206 49z"/>
            <path d="M892.043 64.503l-.529-13.61-11.16 7.28 11.689 6.33zM894.006 46l.905 23.176L875 58.396 894.006 46zM1014 592.535l9.557-.535-4.33 8.79zM911.318 317.43L893 325.98l1.68-19.98z"/>
            <path d="M910.536 316.725l-13.04-8.81-1.313 15.396 14.353-6.586zM895.12 303l20.977 14.176L893 327.774 895.12 303zM995.76 143.798L987 147.59l1.144-9.59z"/>
            <path d="M992.772 143.003l-3.17-2.657-.473 4.39 3.643-1.733zM987.557 135l10.39 8.7L986 149.386 987.557 135zM924-7l7.964 2.232-5.921 5.76z"/>
            <path d="M929.785-3.34l-3.069-.86.788 3.078 2.281-2.219zM923-8l11.947 3.348-8.883 8.64L923-8zM928 126.589L941.64 118l.696 15.983z"/>
            <path d="M941.339 130.45l-.477-10.689-9.321 5.744 9.798 4.944zm2.085-15.45l.894 19.98L926 125.735 943.424 115zM1005.237-2.16l-6.527-12.435-7.777 11.733 14.304.703zM998.989-20L1009.893.778 986-.397 998.989-20zM995.76 202.992l-8.76-1.766 6.01-6.226z"/>
            <path d="M993.122 201.424l-1.009-3.232-2.212 2.521 3.221.711zm.073-8.424l3.752 11.988L985 202.342l8.195-9.342zM962 418l9.557.922-5.57 7.869z"/>
            <path d="M968.31 420.802l-4.81-.479 2.008 4.555 2.801-4.076zM959 417l14.336 1.421-8.354 12.165L959 417zM998.76 34l-3.663 7.992L990 34.824z"/>
            <path d="M993.47 37.973l1.316-2.94-3.142.306 1.826 2.634zM998.947 32l-4.994 11.188L987 33.155 998.947 32zM865.898 348l6.438 12.787-14.336-.841z"/>
            <path d="M870.373 359.72l-4.176-8.166-5.123 7.63 9.3.536zM866.53 346l8.585 16.783L856 361.679 866.53 346zM884.557 207.79L875 206.758l5.674-7.757z"/>
            <path d="M882.75 205.533l-1.85-4.055-2.698 3.58 4.548.475zM881.51 196l5.825 12.787L873 207.282 881.511 196zM987 93.59l4.602-9.59 5.752 8.909z"/>
            <path d="M994.61 91.148l-2.897-4.59-2.319 4.941 5.216-.35zM991.378 81l7.958 12.62-14.336.966L991.378 81zM882.392 551.18L871 532.746l21.504-.746z"/>
            <path d="M882.737 549.34l7.917-15.357-16.836.6 8.919 14.756zM895.282 531l-12.359 23.975L869 531.933l26.282-.933zM850.336 47.137L836 51.385 839.443 37z"/>
            <path d="M847.723 46.259l-7.539-7.018-2.38 9.959 9.919-2.941zM838.593 34l14.522 13.517L834 53.18 838.593 34zM949 257l10.354 3.582-8.412 6.807z"/>
            <path d="M956.02 260.2l-5.54-2.022 1.04 5.866 4.5-3.844zM947 254l14.336 5.237-11.647 9.947L947 254zM838.368 116.586L834 103l13.54 2.869z"/>
            <path d="M845.034 106.213l-8.868-1.716 2.864 8.123 6.004-6.407zM832 101l18.318 3.546-12.409 13.237L832 101zM851.132 542.447l-14.036 9.336L836 535z"/>
            <path d="M847.748 541.93l-10.763-5.392.78 12.15 9.983-6.758zM834 532l19.115 9.576-17.734 12.002L834 532zM868.115 484.18L849 478.652 863.384 465z"/>
            <path d="M865.327 482.934l-3.471-14.566-10.564 10.366 14.035 4.2zM863.38 463l5.718 23.975L846 480.066 863.379 463zM870.744 9.79L866 1l9.557.041z"/>
            <path d="M874.463 2.558l-4.612-.017 2.288 3.6 2.324-3.583zM865 0l14.336.052-7.219 11.136L865 0zM994.504 656l-10.752 19.18L973 656z"/>
            <path d="M992.53 656.793h-16.778l8.388 14.796 8.39-14.796zM971 654h26.282l-13.142 23.176L971 654zM943.645 718.18L942 699l16.725 8.105z"/>
            <path d="M957.106 708.619l-12.99-6.119 1.28 14.483 11.71-8.364zM941 698l21.504 10.127-19.39 13.848L941 698zM861.132 411.997l-14.666 8.786L846 404z"/>
            <path d="M858.802 411.426l-11.021-5.93.34 12.44 10.681-6.51zM845 401l19.115 10.281-18.524 11.297L845 401zM893.986 597.39L885 591.714l9.557-4.715z"/>
            <path d="M893.201 593.662l.294-5.221-4.914 2.369 4.62 2.852zm3.338-9.662l-.807 14.385L883 590.528 896.54 584zM842 722l8.76 3.852-7.68 5.738z"/>
            <path d="M846.76 725.432l-3.655-1.767.448 4.401 3.207-2.634zM840 719l11.947 5.778-10.476 8.607L840 719zM902.25 249l3.714 6.393-7.964-.28z"/>
            <path d="M902.505 256.228l-1.335-2.683-1.529 2.564 2.864.12zm-1.13-8.228l5.572 11.188-11.947-.493L901.376 248zM904.283 730l6.07 8.545L900 739.59z"/>
            <path d="M908.172 738.493l-3.372-4.871-2.38 5.467 5.752-.596zM904.26 728l8.872 12.818L898 742.385 904.26 728zM974.132 487.781L959 489.385 965.227 475z"/>
            <path d="M971.982 485.72l-6.242-9.08-4.364 10.22 10.606-1.14zm-6.79-14.72l11.719 17.04L957 490.18l8.192-19.18zM947.118 629.98L943 610l19.115 6.374z"/>
            <path d="M960.192 616.019l-15.447-4.944 3.329 15.502 12.118-10.558zM941 607l24.69 7.9-19.371 16.874L941 607zM908 452.091L919.947 451l-5.057 11.188z"/>
            <path d="M914.167 457.797l3.12-6.692-7.372.655 4.252 6.037zm7.558-9.797l-7.08 15.184L905 449.48 921.725 448zM838.822 650.393L834 644.842l7.964-.842z"/>
            <path d="M836.402 647.625l1.092-2.557-2.77.339 1.678 2.218zm5.196-5.625l-4.575 10.69-7.023-9.282L841.598 642zM868.097 619l2.257 10.39L860 626.098z"/>
            <path d="M868.773 627.1l-1.211-5.88-4.342 4.02 5.553 1.86zm.44-11.1l3.123 15.184L858 626.377 869.213 616zM942.76 565.79l-8.76-2.72 6.788-6.07z"/>
            <path d="M941.652 564.415l-.907-4.03-3.112 2.783 4.02 1.247zm.84-9.415l3.047 13.586L932 564.382 942.492 555z"/>
        </g>
        <path fill="#4855B5" fill-rule="nonzero" d="M0 0h1024v744H0z" opacity=".04"/>
    </g>
</svg>
