<svg xmlns="http://www.w3.org/2000/svg" width="19" height="24" viewBox="0 0 19 24">
    <g fill="#4855B5" fill-rule="evenodd">
        <path d="M11.55 21.58c0-.193-.049-.386-.098-.58H7.097a2.423 2.423 0 0 0-.097.58 2.22 2.22 0 0 0 2.226 2.227c1.356.049 2.323-.968 2.323-2.226M18.2 17.715c0-.193-.098-.338-.243-.484 0 0-1.936-2.13-1.936-7.647 0-4.308-2.904-6.099-5.276-6.68V1.646C10.745.726 10.02 0 9.1 0 8.18 0 7.454.726 7.454 1.646v1.258c-2.372.533-5.276 2.324-5.276 6.68 0 5.518-1.936 7.647-1.936 7.647-.145.146-.194.34-.242.484v1.501h18.2v-1.5z"/>
    </g>
</svg>
