<svg xmlns="http://www.w3.org/2000/svg" xmlns:xlink="http://www.w3.org/1999/xlink" width="458" height="458" viewBox="0 0 458 458">
    <defs>
        <filter id="a" width="106.8%" height="106.8%" x="-3.4%" y="-3.4%" filterUnits="objectBoundingBox">
            <feOffset in="SourceAlpha" result="shadowOffsetOuter1"/>
            <feGaussianBlur in="shadowOffsetOuter1" result="shadowBlurOuter1" stdDeviation="5"/>
            <feColorMatrix in="shadowBlurOuter1" values="0 0 0 0 0.976470588 0 0 0 0 0.407843137 0 0 0 0 0.239215686 0 0 0 0.147927989 0"/>
        </filter>
        <path id="c" d="M50.019 31.3a17.136 17.136 0 0 1-11.68 4.57c-1.18 0-2.329-.116-3.441-.342l-6.106-6.103a6.1 6.1 0 0 1 0-8.638 6.118 6.118 0 0 1 8.642 0l11.418 11.412 1.167-.898z"/>
        <path id="d" d="M31.307 59a17.121 17.121 0 0 1 4.571 11.675c0 1.179-.116 2.327-.342 3.44l-6.106 6.102a6.11 6.11 0 0 1-8.642-8.638l11.417-11.412L31.307 59z"/>
    </defs>
    <g fill="none" fill-rule="evenodd">
        <g opacity=".041">
            <use fill="#000" filter="url(#a)" xlink:href="#b"/>
            <use fill="#5050E2" xlink:href="#b"/>
        </g>
        <path fill="#28B4D2" d="M239.419 111.705a8.707 8.707 0 0 1-8.71 8.705 8.69 8.69 0 0 1-7.254-3.89 8.6 8.6 0 0 1-1.455-4.815c0-4.807 3.9-8.705 8.71-8.705 4.81 0 8.709 3.897 8.709 8.705M257.684 127.957l-24.307 18.603a10.71 10.71 0 0 1-6.54 2.211c-2.78 0-5.55-1.063-7.627-3.146l-6.21-6.207c1.112.226 2.261.342 3.44.342 4.505 0 8.612-1.729 11.68-4.57l22.132-16.934a6.121 6.121 0 0 1 8.569 1.136 6.104 6.104 0 0 1-1.137 8.565"/>
        <path fill="#E1BA23" d="M228.019 134.3a17.136 17.136 0 0 1-11.68 4.57c-1.18 0-2.329-.116-3.44-.342l-6.107-6.103a6.1 6.1 0 0 1 0-8.638 6.119 6.119 0 0 1 8.643 0l11.417 11.412 1.167-.898z"/>
        <path d="M228.019 134.3a17.136 17.136 0 0 1-11.68 4.57c-1.18 0-2.329-.116-3.441-.342l-6.106-6.103a6.1 6.1 0 0 1 0-8.638 6.118 6.118 0 0 1 8.642 0l11.418 11.412 1.167-.898z"/>
        <path fill="#F9683D" d="M239.419 111.705a8.707 8.707 0 0 1-8.71 8.705 8.69 8.69 0 0 1-7.254-3.89 8.6 8.6 0 0 1-1.455-4.815c0-4.807 3.9-8.705 8.71-8.705 4.81 0 8.709 3.897 8.709 8.705"/>
        <path fill="#4855B5" d="M257.684 127.957l-24.307 18.603a10.71 10.71 0 0 1-6.54 2.211c-2.78 0-5.55-1.063-7.627-3.146l-6.21-6.207c1.112.226 2.261.342 3.44.342 4.505 0 8.612-1.729 11.68-4.57l22.132-16.934a6.121 6.121 0 0 1 8.569 1.136 6.104 6.104 0 0 1-1.137 8.565"/>
        <path fill="#F9683D" d="M228.019 134.3a17.136 17.136 0 0 1-11.68 4.57c-1.18 0-2.329-.116-3.44-.342l-6.107-6.103a6.1 6.1 0 0 1 0-8.638 6.119 6.119 0 0 1 8.643 0l11.417 11.412 1.167-.898zM227 203.705a8.706 8.706 0 0 1 8.71-8.705 8.69 8.69 0 0 1 7.254 3.891 8.6 8.6 0 0 1 1.455 4.814c0 4.808-3.9 8.706-8.71 8.706-4.81 0-8.709-3.898-8.709-8.706"/>
        <path fill="#4855B5" d="M207.398 188.814l24.307-18.603a10.71 10.71 0 0 1 6.54-2.211c2.78 0 5.55 1.063 7.627 3.146l6.21 6.207a17.246 17.246 0 0 0-3.44-.342 17.136 17.136 0 0 0-11.68 4.57l-22.132 16.934a6.121 6.121 0 0 1-8.569-1.136 6.104 6.104 0 0 1 1.137-8.565"/>
        <path fill="#F9683D" d="M237 181.57a17.136 17.136 0 0 1 11.68-4.57c1.18 0 2.329.116 3.44.342l6.106 6.103a6.1 6.1 0 0 1 0 8.639 6.118 6.118 0 0 1-8.642 0l-11.416-11.413-1.168.899zM186.71 152a8.704 8.704 0 0 1 4.816 15.957 8.608 8.608 0 0 1-4.816 1.454c-4.81 0-8.71-3.897-8.71-8.706 0-4.807 3.9-8.705 8.71-8.705"/>
        <path fill="#28B4D2" d="M202.962 132.397l18.611 24.296a10.697 10.697 0 0 1 2.213 6.537c0 2.78-1.064 5.547-3.148 7.624l-6.21 6.207c.226-1.112.343-2.26.343-3.44a17.12 17.12 0 0 0-4.572-11.674l-16.942-22.122a6.11 6.11 0 1 1 9.706-7.429"/>
        <path fill="#E1BA23" d="M209.306 162a17.12 17.12 0 0 1 4.572 11.675c0 1.179-.116 2.327-.342 3.439l-6.106 6.103a6.107 6.107 0 0 1-8.642 0 6.112 6.112 0 0 1 0-8.638l11.417-11.412-.899-1.167z"/>
        <path d="M209.307 162a17.121 17.121 0 0 1 4.571 11.675c0 1.179-.116 2.327-.342 3.44l-6.106 6.102a6.11 6.11 0 0 1-8.642-8.638l11.417-11.412-.898-1.167z"/>
        <path fill="#4855B5" d="M202.962 132.397l18.611 24.296a10.697 10.697 0 0 1 2.213 6.537c0 2.78-1.064 5.547-3.148 7.624l-6.21 6.207c.226-1.112.343-2.26.343-3.44a17.12 17.12 0 0 0-4.572-11.674l-16.942-22.122a6.11 6.11 0 1 1 9.706-7.429"/>
        <path fill="#F9683D" d="M209.306 162a17.12 17.12 0 0 1 4.572 11.675c0 1.179-.116 2.327-.342 3.439l-6.106 6.103a6.107 6.107 0 0 1-8.642 0 6.112 6.112 0 0 1 0-8.638l11.417-11.412-.899-1.167zM278.71 164.411a8.704 8.704 0 0 1-4.816-15.957A8.608 8.608 0 0 1 278.71 147c4.81 0 8.709 3.898 8.709 8.706s-3.9 8.705-8.71 8.705"/>
        <path fill="#4855B5" d="M262.823 182.664l-18.61-24.296A10.697 10.697 0 0 1 242 151.83c0-2.78 1.064-5.547 3.148-7.624l6.21-6.207a17.208 17.208 0 0 0-.343 3.44 17.12 17.12 0 0 0 4.572 11.674l16.942 22.121a6.11 6.11 0 1 1-9.706 7.429"/>
        <path fill="#F9683D" d="M255.572 153.009A17.12 17.12 0 0 1 251 141.334c0-1.179.116-2.328.343-3.44l6.105-6.103a6.107 6.107 0 0 1 8.642 0 6.111 6.111 0 0 1 0 8.639l-11.417 11.412.899 1.167zM199.05 284.8c-4.25 0-8.75-1.6-12.05-4.7l4.2-5.05c2.35 2 5.35 3.4 8.05 3.4 3.05 0 4.55-1.2 4.55-3.15 0-2.05-1.85-2.7-4.7-3.9l-4.25-1.8c-3.35-1.35-6.55-4.15-6.55-8.9 0-5.4 4.8-9.7 11.6-9.7 3.75 0 7.7 1.5 10.5 4.3l-3.75 4.65c-2.15-1.65-4.15-2.6-6.75-2.6-2.55 0-4.15 1.1-4.15 2.95 0 2 2.15 2.7 4.95 3.85l4.2 1.7c3.95 1.6 6.45 4.25 6.45 8.85 0 5.4-4.5 10.1-12.3 10.1zm28.9 0c-6.3 0-12.1-4.75-12.1-13s5.8-13 12.1-13c6.25 0 12.05 4.75 12.05 13s-5.8 13-12.05 13zm0-5.95c3 0 4.55-2.75 4.55-7.05s-1.55-7.05-4.55-7.05c-3.05 0-4.55 2.75-4.55 7.05s1.5 7.05 4.55 7.05zm25.55 5.95c-5.4 0-7.7-3.8-7.7-10v-15.4h7.35v14.45c0 3.55.95 4.7 3.1 4.7 1.85 0 2.95-.8 4.4-2.75v-16.4H268v24.8h-6l-.55-3.45h-.15c-2.1 2.5-4.4 4.05-7.8 4.05zm21.95-.6v-24.8h6l.5 4.35h.2c1.8-3.35 4.5-4.95 7.05-4.95 1.4 0 2.25.2 2.95.5l-1.2 6.35c-.9-.25-1.65-.4-2.7-.4-1.85 0-4.15 1.2-5.45 4.55v14.4h-7.35zm31.2.6c-6.9 0-12.25-4.75-12.25-13s6.05-13 12.9-13c3.05 0 5.4 1.1 7.25 2.65l-3.45 4.75c-1.2-1-2.2-1.45-3.35-1.45-3.55 0-5.8 2.75-5.8 7.05s2.35 7.05 5.55 7.05c1.6 0 3.15-.8 4.45-1.8l2.9 4.8c-2.45 2.15-5.5 2.95-8.2 2.95zm24.65 0c-7.1 0-12.55-4.8-12.55-13 0-8.05 5.75-13 11.7-13 7.05 0 10.55 5.15 10.55 11.9 0 1.3-.15 2.65-.3 3.25h-14.85c.65 3.6 3.15 5.25 6.45 5.25 1.85 0 3.55-.55 5.35-1.65l2.45 4.45c-2.55 1.75-5.85 2.8-8.8 2.8zm-5.5-15.7h8.95c0-2.75-1.2-4.7-4.15-4.7-2.3 0-4.3 1.55-4.8 4.7z"/>
        <path fill="#4855B5" d="M113.15 284.7C104.9 284.7 98 278.95 98 268c0-10.8 7.15-17.1 15.4-17.1 4.2 0 7.6 2 9.8 4.25l-3.9 4.7c-1.65-1.5-3.4-2.6-5.75-2.6-4.45 0-8 3.95-8 10.5 0 6.7 3.1 10.6 7.9 10.6 2.65 0 4.75-1.35 6.35-3.05l3.9 4.6c-2.7 3.15-6.3 4.8-10.55 4.8zm22.65 0c-5.05 0-6.75-3.3-6.75-8.3v-27.35h7.35v27.65c0 1.55.7 2.05 1.3 2.05.3 0 .5 0 .9-.1l.9 5.45c-.8.35-2.05.6-3.7.6zm8.55-.6v-24.8h7.35v24.8h-7.35zm3.65-28.45c-2.45 0-4.25-1.6-4.25-3.85s1.8-3.8 4.25-3.8c2.5 0 4.25 1.55 4.25 3.8s-1.75 3.85-4.25 3.85zm11.15 28.45v-35.05h7.15v20.1h.2l7.85-9.85h8l-8.7 10.2 9.35 14.6h-7.95l-5.6-9.65-3.15 3.55v6.1h-7.15z"/>
        <path fill="#F9683D" d="M77.98 330.304a8.271 8.271 0 0 1-5.98-2.522l1.3-1.508c1.222 1.274 2.938 2.132 4.706 2.132 2.236 0 3.562-1.118 3.562-2.782 0-1.742-1.222-2.288-2.834-3.016l-2.444-1.066c-1.612-.676-3.458-1.898-3.458-4.394 0-2.6 2.262-4.524 5.356-4.524 2.028 0 3.822.858 5.044 2.106l-1.17 1.404c-1.04-.988-2.288-1.612-3.874-1.612-1.898 0-3.172.962-3.172 2.496 0 1.638 1.482 2.262 2.834 2.834l2.418 1.04c1.976.858 3.51 2.028 3.51 4.55 0 2.704-2.21 4.862-5.798 4.862zm8.922-.312v-12.636h1.768l.182 1.82h.078c1.092-1.196 2.418-2.132 3.926-2.132 1.924 0 2.964.91 3.484 2.418 1.326-1.43 2.626-2.418 4.16-2.418 2.6 0 3.848 1.716 3.848 4.94v8.008h-2.132v-7.722c0-2.366-.754-3.38-2.34-3.38-.988 0-2.002.65-3.172 1.95v9.152h-2.132v-7.722c0-2.366-.754-3.38-2.366-3.38-.936 0-2.002.65-3.172 1.95v9.152h-2.132zm24.445.312c-2.106 0-3.692-1.326-3.692-3.588 0-2.756 2.366-4.134 7.748-4.732 0-1.612-.52-3.172-2.6-3.172-1.456 0-2.782.676-3.77 1.352l-.832-1.482c1.17-.754 2.938-1.638 4.966-1.638 3.094 0 4.394 2.054 4.394 5.2v7.748h-1.768l-.182-1.508h-.078c-1.196.988-2.6 1.82-4.186 1.82zm.624-1.716c1.222 0 2.21-.598 3.432-1.69v-3.51c-4.212.52-5.668 1.56-5.668 3.172 0 1.43.988 2.028 2.236 2.028zm9.546 1.404v-12.636h1.768l.182 2.288h.078c.858-1.586 2.158-2.6 3.588-2.6.546 0 .936.078 1.352.26l-.416 1.872c-.416-.13-.702-.208-1.222-.208-1.066 0-2.34.78-3.198 2.912v8.112h-2.132zm12.978.312c-2.704 0-3.614-1.716-3.614-4.212v-6.994h-1.872v-1.612l1.976-.13.26-3.536h1.794v3.536h3.406v1.742h-3.406v7.02c0 1.56.494 2.444 1.95 2.444.442 0 1.014-.182 1.43-.338l.416 1.612c-.702.234-1.56.468-2.34.468zm10.175-.312v-17.056h2.158v7.15h7.93v-7.15h2.184v17.056h-2.184v-8.034h-7.93v8.034h-2.158zm16.722 0v-12.636h2.132v12.636h-2.132zm1.092-15.236c-.832 0-1.482-.572-1.482-1.378 0-.832.65-1.378 1.482-1.378s1.482.546 1.482 1.378c0 .806-.65 1.378-1.482 1.378zm5.283 15.236v-12.636h1.768l.182 2.288h.078c.858-1.586 2.158-2.6 3.588-2.6.546 0 .936.078 1.352.26l-.416 1.872c-.416-.13-.702-.208-1.222-.208-1.066 0-2.34.78-3.198 2.912v8.112h-2.132zm9 0v-12.636h2.132v12.636h-2.132zm1.092-15.236c-.832 0-1.482-.572-1.482-1.378 0-.832.65-1.378 1.482-1.378s1.482.546 1.482 1.378c0 .806-.65 1.378-1.482 1.378zm5.282 15.236v-12.636h1.768l.182 1.82h.078c1.196-1.196 2.496-2.132 4.238-2.132 2.652 0 3.848 1.716 3.848 4.94v8.008h-2.132v-7.722c0-2.366-.728-3.38-2.392-3.38-1.3 0-2.184.676-3.458 1.95v9.152h-2.132zm18.465 5.824c-3.094 0-5.226-1.222-5.226-3.406 0-1.066.702-2.08 1.846-2.86v-.104c-.624-.39-1.118-1.066-1.118-2.054 0-1.066.728-1.898 1.378-2.34v-.104c-.832-.676-1.638-1.898-1.638-3.406 0-2.756 2.184-4.498 4.758-4.498.702 0 1.326.13 1.794.312h4.394v1.638h-2.6c.598.572 1.04 1.534 1.04 2.6 0 2.704-2.054 4.394-4.628 4.394a4.414 4.414 0 0 1-1.898-.442c-.442.39-.806.806-.806 1.508 0 .806.52 1.378 2.236 1.378h2.444c2.938 0 4.42.91 4.42 3.016 0 2.34-2.47 4.368-6.396 4.368zm0-11.258c1.456 0 2.678-1.17 2.678-3.016s-1.196-2.938-2.678-2.938-2.678 1.092-2.678 2.938 1.222 3.016 2.678 3.016zm.312 9.776c2.418 0 4.004-1.248 4.004-2.574 0-1.17-.91-1.56-2.548-1.56h-2.184a6.153 6.153 0 0 1-1.638-.208c-.91.65-1.3 1.404-1.3 2.132 0 1.352 1.378 2.21 3.666 2.21zm17.064-4.03c-2.158 0-3.718-.936-4.706-2.73l1.56-1.092c.754 1.352 1.716 1.924 2.938 1.924 1.82 0 2.73-1.04 2.73-3.64v-11.83h2.184v12.038c0 2.938-1.378 5.33-4.706 5.33zm12.77 0c-2.677 0-3.873-1.716-3.873-4.94v-8.008h2.158v7.722c0 2.366.702 3.38 2.366 3.38 1.3 0 2.21-.65 3.406-2.132v-8.97h2.132v12.636h-1.768l-.182-1.976h-.078c-1.17 1.378-2.418 2.288-4.16 2.288zm13.733 0c-1.794 0-3.51-.754-4.706-1.742l1.066-1.43c1.092.884 2.21 1.508 3.718 1.508 1.664 0 2.496-.884 2.496-1.976 0-1.3-1.508-1.872-2.886-2.392-1.794-.65-3.77-1.508-3.77-3.64 0-2.028 1.612-3.588 4.342-3.588 1.586 0 2.964.65 3.926 1.43l-1.014 1.352c-.858-.65-1.768-1.118-2.886-1.118-1.586 0-2.314.858-2.314 1.82 0 1.196 1.378 1.638 2.808 2.184 1.82.676 3.848 1.43 3.848 3.822 0 2.054-1.638 3.77-4.628 3.77zm11.028 0c-2.704 0-3.614-1.716-3.614-4.212v-6.994h-1.872v-1.612l1.976-.13.26-3.536h1.794v3.536h3.406v1.742h-3.406v7.02c0 1.56.494 2.444 1.95 2.444.442 0 1.014-.182 1.43-.338l.416 1.612c-.702.234-1.56.468-2.34.468zm13.113-9.854l-.806 2.6h5.122l-.806-2.6c-.624-1.898-1.17-3.77-1.716-5.746h-.104a98.207 98.207 0 0 1-1.69 5.746zm-5.2 9.542l5.772-17.056h2.444l5.772 17.056H276.1l-1.612-5.2h-6.214l-1.638 5.2h-2.21zm25.099 0v-15.236h-5.148v-1.82h12.48v1.82h-5.148v15.236h-2.184zm11.184.312c-2.106 0-3.692-1.326-3.692-3.588 0-2.756 2.366-4.134 7.748-4.732 0-1.612-.52-3.172-2.6-3.172-1.456 0-2.782.676-3.77 1.352l-.832-1.482c1.17-.754 2.938-1.638 4.966-1.638 3.094 0 4.394 2.054 4.394 5.2v7.748h-1.768l-.182-1.508h-.078c-1.196.988-2.6 1.82-4.186 1.82zm.624-1.716c1.222 0 2.21-.598 3.432-1.69v-3.51c-4.212.52-5.668 1.56-5.668 3.172 0 1.43.988 2.028 2.236 2.028zm9.546 6.734v-17.966h1.768l.182 1.456h.078c1.144-.962 2.548-1.768 4.03-1.768 3.25 0 4.992 2.522 4.992 6.448 0 4.29-2.574 6.812-5.46 6.812-1.17 0-2.34-.546-3.51-1.456l.052 2.21v4.264h-2.132zm5.226-6.812c2.08 0 3.614-1.898 3.614-5.018 0-2.782-.936-4.654-3.328-4.654-1.066 0-2.132.598-3.38 1.716v6.63c1.144.962 2.262 1.326 3.094 1.326zm17.507-8.06l-.806 2.6h5.122l-.806-2.6c-.624-1.898-1.17-3.77-1.716-5.746h-.104a98.207 98.207 0 0 1-1.69 5.746zm-5.2 9.542l5.772-17.056h2.444l5.772 17.056h-2.314l-1.612-5.2h-6.214l-1.638 5.2h-2.21zm18.074 0l-3.51-12.636h2.184l1.872 7.306c.286 1.196.52 2.34.754 3.51h.104c.286-1.17.546-2.34.858-3.51l1.95-7.306h2.08l1.976 7.306c.312 1.196.598 2.34.884 3.51h.104c.286-1.17.52-2.314.78-3.51l1.846-7.306h2.028l-3.38 12.636h-2.6l-1.82-6.786c-.312-1.196-.546-2.366-.858-3.64h-.104c-.286 1.274-.546 2.47-.884 3.666l-1.768 6.76h-2.496zm19.297.312c-2.106 0-3.692-1.326-3.692-3.588 0-2.756 2.366-4.134 7.748-4.732 0-1.612-.52-3.172-2.6-3.172-1.456 0-2.782.676-3.77 1.352l-.832-1.482c1.17-.754 2.938-1.638 4.966-1.638 3.094 0 4.394 2.054 4.394 5.2v7.748h-1.768l-.182-1.508h-.078c-1.196.988-2.6 1.82-4.186 1.82zm.624-1.716c1.222 0 2.21-.598 3.432-1.69v-3.51c-4.212.52-5.668 1.56-5.668 3.172 0 1.43.988 2.028 2.236 2.028zm9.754 6.838a4.196 4.196 0 0 1-1.482-.26l.416-1.69c.26.078.65.182.962.182 1.43 0 2.34-1.144 2.86-2.704l.286-.936-5.07-12.662h2.21l2.574 6.994c.39 1.092.832 2.392 1.222 3.562h.104c.364-1.144.728-2.444 1.066-3.562l2.262-6.994h2.08l-4.758 13.676c-.884 2.496-2.184 4.394-4.732 4.394z"/>
    </g>
</svg>
