<svg xmlns="http://www.w3.org/2000/svg" xmlns:xlink="http://www.w3.org/1999/xlink" width="64" height="64" viewBox="0 0 64 64">
    <defs>
        <circle id="b" cx="32" cy="30" r="28"/>
        <filter id="a" width="125%" height="125%" x="-12.5%" y="-8.9%" filterUnits="objectBoundingBox">
            <feOffset dy="2" in="SourceAlpha" result="shadowOffsetOuter1"/>
            <feGaussianBlur in="shadowOffsetOuter1" result="shadowBlurOuter1" stdDeviation="2"/>
            <feColorMatrix in="shadowBlurOuter1" values="0 0 0 0 0 0 0 0 0 0 0 0 0 0 0 0 0 0 0.2 0"/>
        </filter>
    </defs>
    <g fill="none" fill-rule="evenodd">
        <g>
            <use fill="#000" filter="url(#a)" xlink:href="#b"/>
            <use fill="#606060" xlink:href="#b"/>
        </g>
        <path d="M24 22h16v16H24z"/>
        <path fill="#FFF" fill-rule="nonzero" d="M39.791 22.209c-.278-.279-.719-.279-.974 0L32 29.026l-6.817-6.817c-.279-.279-.72-.279-.974 0-.279.278-.279.719 0 .974L31.026 30l-6.817 6.817c-.279.279-.279.72 0 .974.139.14.324.209.487.209.162 0 .347-.07.487-.209L32 30.974l6.817 6.817c.14.14.325.209.487.209.163 0 .348-.07.487-.209.279-.278.279-.719 0-.974L32.974 30l6.817-6.817a.672.672 0 0 0 0-.974z"/>
    </g>
</svg>
