<svg xmlns="http://www.w3.org/2000/svg" xmlns:xlink="http://www.w3.org/1999/xlink" width="200" height="48" viewBox="0 0 200 48">
    <defs>
        <path id="a" d="M0 0h22.957v46.849H0z"/>
    </defs>
    <g fill="none" fill-rule="evenodd">
        <g transform="translate(99)">
            <mask id="b" fill="#fff">
                <use xlink:href="#a"/>
            </mask>
            <path fill="#00B8F5" d="M17.37 30.737c.016-2.564-.138-5.108-.925-7.574-.38-1.189-.885-2.305-1.839-3.16-1.663-1.49-4.933-1.553-6.72.263-.903.917-1.493 2.011-1.91 3.21-.883 2.537-1.004 5.18-.998 7.825.002 1.118.044 2.244.188 3.362.181 1.404.418 2.792.965 4.102.999 2.388 2.74 3.919 5.762 3.727 1.163-.074 2.184-.495 3.022-1.319.961-.946 1.461-2.14 1.774-3.418.565-2.305.696-4.655.681-7.018M4.967 42.449c-.163.857-.302 1.587-.443 2.317-.042.216-.078.434-.14.644-.191.64-.63 1.013-1.291 1.056-.615.04-1.236.041-1.853.01C.525 46.438.037 45.9.005 45.174c-.009-.198-.003-.397-.003-.596V1.955c0-.177-.003-.353.002-.53C.024.714.363.239 1.072.122a8.977 8.977 0 0 1 3.027.013c.592.105.938.573.974 1.173.013.22.007.441.007.662v16.98l.113.03c.271-.386.534-.78.816-1.159 1.831-2.464 4.32-3.519 7.331-3.215 3.026.304 5.408 1.759 7.068 4.347 1.29 2.008 1.964 4.219 2.267 6.567.323 2.504.323 5.018.223 7.53-.1 2.493-.444 4.96-1.315 7.32-.54 1.461-1.276 2.804-2.374 3.937-1.312 1.353-2.922 2.105-4.757 2.4a11.12 11.12 0 0 1-4.01-.087c-1.911-.387-3.402-1.406-4.576-2.928-.282-.364-.54-.746-.899-1.243" mask="url(#b)"/>
        </g>
        <path fill="#00B8F5" d="M182.238 34.268c0-.838-.007-1.677.003-2.515.004-.298-.055-.418-.41-.397-1.497.088-2.998.108-4.495.205-1.165.076-2.329.212-3.437.623-1.547.573-2.605 1.626-3.092 3.212a8.642 8.642 0 0 0-.174 4.508c.442 1.948 1.879 3.084 3.875 3.165 2.55.103 4.596-.912 6.205-2.825 1.006-1.195 1.6-2.577 1.529-4.189-.026-.594-.004-1.191-.004-1.787m.214 8.456c-.232.03-.278.195-.359.316-1.691 2.52-4.137 3.736-7.074 4.136-1.397.19-2.779.157-4.132-.22-2.64-.735-4.45-2.416-5.264-5.027-.892-2.862-.86-5.747.318-8.539 1.01-2.394 2.82-3.958 5.31-4.713 1.44-.436 2.924-.624 4.427-.701 2.047-.104 4.092-.25 6.138-.373.244-.015.426-.044.424-.361-.01-1.278.055-2.56-.178-3.826-.382-2.076-1.541-3.192-3.667-3.517a14.48 14.48 0 0 0-5.903.294c-.682.178-1.363.361-2.046.537-.191.05-.385.096-.581.121-.7.089-1.24-.213-1.416-.896a21.248 21.248 0 0 1-.473-2.462c-.087-.644.253-1.128.895-1.287 1.816-.451 3.638-.885 5.505-1.087a21.266 21.266 0 0 1 4.554.007c1.957.207 3.742.843 5.264 2.104 1.756 1.454 2.624 3.388 2.918 5.61.233 1.753.274 3.513.267 5.279-.012 3.683.041 7.367-.01 11.05-.029 2.114.297 4.168.726 6.22.04.192.08.39.078.586-.004.593-.287.921-.877.935a61.53 61.53 0 0 1-3.11 0c-.66-.018-1.03-.32-1.16-.97-.205-1.013-.355-2.038-.529-3.057-.007-.043-.023-.084-.045-.159M90.262 34.405c0-.979.007-1.794-.004-2.61-.005-.428-.03-.436-.46-.417-1.408.062-2.816.124-4.226.183-1.015.043-2.02.173-3.002.428-2.193.57-3.537 1.957-3.977 4.2-.176.897-.137 1.797-.122 2.7.01.579.141 1.136.338 1.676.478 1.312 1.428 2.095 2.775 2.382 1.735.37 3.375.071 4.903-.816 2.013-1.168 3.333-2.853 3.72-5.182.149-.894.024-1.805.055-2.544m.116 8.327c-.152.031-.198.166-.267.274-1.448 2.251-3.571 3.481-6.135 4.023-1.546.327-3.1.396-4.659.045-2.953-.664-4.887-2.455-5.77-5.328-.694-2.26-.718-4.579-.127-6.858.931-3.596 3.307-5.723 6.926-6.485 1.167-.246 2.349-.36 3.54-.42 1.981-.1 3.96-.25 5.94-.36.357-.02.44-.17.44-.49-.004-1.213-.054-2.42-.214-3.626-.288-2.157-1.66-3.262-3.662-3.587a13.966 13.966 0 0 0-5.901.292c-.745.2-1.49.4-2.238.588-1.087.272-1.668-.096-1.905-1.207-.124-.58-.25-1.162-.34-1.75-.148-.959.155-1.48 1.099-1.696 1.977-.452 3.948-.953 5.976-1.083 2.344-.15 4.69-.101 6.895.853 2.93 1.27 4.597 3.526 5.08 6.677.237 1.553.284 3.115.281 4.681-.005 2.758.012 5.516-.006 8.273-.013 1.854.07 3.704.086 5.557.013 1.356.377 2.657.612 3.977.05.282.118.564.134.848.033.608-.28.982-.886.997a56.309 56.309 0 0 1-3.11-.003c-.694-.02-1.077-.414-1.212-1.173-.15-.846-.273-1.695-.41-2.544-.026-.168.01-.359-.167-.475M135.749 28.258h1.125c1.567 0 3.134.003 4.7-.002.505-.002.522-.013.497-.521a17.533 17.533 0 0 0-.136-1.447c-.186-1.406-.492-2.777-1.193-4.031-.57-1.02-1.295-1.897-2.331-2.47-1.835-1.015-4.773-.762-6.514 1.404-1.552 1.93-2.164 4.205-2.402 6.612-.043.437-.013.452.494.453 1.92.005 3.84.002 5.76.002m2.214 4.217h-7.678c-.154 0-.31.007-.463.001-.253-.01-.357.103-.344.356.138 2.49.532 4.913 1.936 7.05.893 1.36 2.206 2.133 3.759 2.512 1.517.37 3.056.355 4.601.215 1.392-.127 2.728-.496 4.064-.871.064-.018.125-.045.19-.061 1.026-.257 1.52.005 1.89 1.005.168.454.345.906.493 1.368.287.903.053 1.404-.823 1.798-.685.308-1.388.566-2.11.772-2.385.68-4.813.789-7.272.588-1.8-.147-3.524-.564-5.142-1.368-2.338-1.162-4.022-2.969-5.175-5.294-.981-1.98-1.471-4.09-1.711-6.276a30.438 30.438 0 0 1-.095-5.543c.227-3.115.952-6.1 2.689-8.75 1.655-2.526 3.929-4.21 6.946-4.756 2.804-.507 5.505-.167 7.987 1.28 1.868 1.088 3.136 2.748 4.027 4.698 1.01 2.213 1.479 4.554 1.653 6.97.066.902.11 1.803.108 2.707-.002 1.046-.544 1.595-1.586 1.597-2.648.006-5.295.002-7.944.002M5.934 25.052c-.032 2.7.17 5.376.817 8.003.521 2.115 1.28 4.13 2.653 5.86 1.741 2.193 4.015 3.374 6.811 3.59 2.172.167 4.193-.397 6.176-1.174.937-.367 1.367-.23 1.813.68.358.733.705 1.471 1.043 2.214.303.663.138 1.196-.51 1.56-.382.216-.796.377-1.201.551-2.765 1.185-5.653 1.442-8.622 1.19-2.372-.2-4.589-.841-6.62-2.095-2.174-1.344-3.805-3.2-5.058-5.4C1.8 37.508 1 34.769.531 31.92c-.446-2.707-.59-5.434-.51-8.171.115-3.96.802-7.803 2.517-11.408 2.03-4.267 5.155-7.325 9.769-8.697 2.252-.67 4.55-.758 6.879-.536 1.436.136 2.84.37 4.168.957a8.68 8.68 0 0 1 1.222.658c.72.468.888 1.106.498 1.882-.316.631-.64 1.259-.977 1.88-.498.918-.943 1.066-1.89.651-.787-.346-1.577-.701-2.42-.884-3.718-.808-7.117-.245-9.938 2.485-1.444 1.399-2.27 3.18-2.834 5.09-.532 1.804-.79 3.652-.956 5.524-.108 1.234-.095 2.467-.125 3.7"/>
        <path fill="#00B8F5" d="M43.751 31.168a32.57 32.57 0 0 0-.118-2.903c-.133-1.41-.357-2.8-.848-4.127-.964-2.605-2.622-4.422-5.56-4.699-1.518-.143-2.94.163-4.202 1.052-1.295.913-2.063 2.208-2.595 3.664-.712 1.95-.885 3.992-.965 6.04-.075 1.94.03 3.877.376 5.79.284 1.571.753 3.07 1.68 4.409 2.252 3.252 6.72 3.11 8.924 1.327 1.29-1.042 2.033-2.415 2.508-3.956.661-2.148.808-4.364.8-6.597m5.433-.029c.05 2.707-.296 5.315-1.202 7.834-.862 2.398-2.211 4.458-4.263 6.011-1.617 1.224-3.436 1.95-5.452 2.208-1.754.225-3.48.121-5.171-.38-3.055-.907-5.284-2.847-6.833-5.594-1.108-1.965-1.696-4.1-2.008-6.325a27.124 27.124 0 0 1-.215-5.212c.143-2.703.621-5.342 1.818-7.801 1.585-3.26 4.028-5.572 7.597-6.471 5.447-1.373 10.906.734 13.66 5.975.955 1.815 1.498 3.756 1.806 5.776a23.74 23.74 0 0 1 .263 3.98M52.001 22.554V2.964c0-.132-.002-.264 0-.397.019-.942.507-1.489 1.448-1.54a23.18 23.18 0 0 1 2.184-.003c.985.04 1.523.643 1.519 1.61-.026 5.868-.013 11.736-.013 17.604 0 6.839.002 13.678 0 20.517 0 .619.007 1.234.19 1.833.212.695.467.88 1.192.895.492.01.962-.102 1.438-.2.702-.143 1.166.12 1.358.812.171.614.309 1.24.424 1.868.108.588-.184 1.051-.789 1.292-.472.188-.969.297-1.47.382-1.113.188-2.226.277-3.353.086-2.263-.382-3.705-1.863-4.017-4.13a12.896 12.896 0 0 1-.112-1.78c.002-6.42.001-12.84.001-19.259M63.001 22.605V3.08c0-.221-.004-.442.003-.662.023-.742.385-1.176 1.11-1.357.219-.054.437-.063.658-.062.485.002.97 0 1.456 0 1.452.003 1.912.456 1.912 1.887v30.775l.002 7.413c0 .486.023.969.152 1.442.196.716.483.932 1.223.95.47.012.92-.089 1.373-.181.79-.16 1.227.086 1.43.864.157.595.277 1.201.392 1.807.1.524-.08.899-.532 1.169-.095.057-.194.11-.299.143-1.69.513-3.408.743-5.155.372-1.92-.409-3.214-1.822-3.585-3.801-.127-.678-.14-1.358-.14-2.042V22.605M156.227 19.64c.26-.195.376-.51.542-.782.91-1.483 2.074-2.688 3.686-3.402 1.22-.539 2.473-.599 3.744-.186.448.145.845.378 1.15.747.283.341.413.728.302 1.17-.22.875-.445 1.75-.673 2.624a3.11 3.11 0 0 1-.156.435c-.312.729-.562.864-1.342.694-.602-.132-1.195-.296-1.802-.414-1.608-.314-2.806.322-3.731 1.568-.831 1.119-1.265 2.412-1.504 3.775-.222 1.266-.214 2.55-.22 3.825-.027 5.118-.01 10.237-.011 15.356 0 .22.007.442-.01.662-.048.65-.528 1.18-1.183 1.207a35.58 35.58 0 0 1-2.78.005c-.716-.026-1.202-.576-1.235-1.302-.007-.154-.003-.309-.003-.463v-28c0-1.37.443-1.825 1.804-1.842.397-.005.795-.002 1.19.029.67.052 1.096.414 1.269 1.067l.763 2.875c.032.122.012.272.2.351M191.738 5.252c-.008 2.008 1.488 3.524 3.49 3.537 1.99.013 3.562-1.514 3.574-3.473.012-2.01-1.548-3.594-3.538-3.592-1.975.001-3.519 1.546-3.526 3.528m3.504 4.277c-2.363-.007-4.25-1.887-4.242-4.245.007-2.255 1.663-4.242 4.285-4.284 2.314-.036 4.277 1.937 4.249 4.26-.033 2.66-2.104 4.283-4.292 4.269"/>
        <path fill="#00B8F5" d="M195.546 3.653v-.01c-.175 0-.352-.02-.524.005-.42.062-.252.41-.247.63.007.242-.2.634.235.698.362.053.745.028 1.111-.02.405-.056.635-.324.635-.639-.001-.341-.273-.614-.685-.661-.173-.02-.35-.003-.525-.003m.877 1.909c.578.574.974 1.245 1.37 1.938-.763.175-.761.174-1.125-.432-.193-.32-.387-.64-.592-.953a1.036 1.036 0 0 0-.501-.415c-.569-.215-.808-.054-.814.551-.003.33-.007.66.001.99.006.248-.094.36-.349.362-.262.003-.415-.06-.413-.364.009-1.3.007-2.6.003-3.9 0-.262.129-.343.369-.339.617.01 1.235-.011 1.85.022.727.038 1.173.412 1.305 1.006.11.495-.246 1.236-.853 1.404-.082.022-.154.078-.25.13"/>
    </g>
</svg>
