<?xml version="1.0" encoding="UTF-8"?>
<svg width="381px" height="99px" viewBox="0 0 381 99" version="1.1" xmlns="http://www.w3.org/2000/svg" xmlns:xlink="http://www.w3.org/1999/xlink">
    <!-- Generator: Sketch 59.1 (86144) - https://sketch.com -->
    <title>Group 2</title>
    <desc>Created with Sketch.</desc>
    <g id="Page-1" stroke="none" stroke-width="1" fill="none" fill-rule="evenodd">
        <g id="02-Social-Media-_-Jump_Professional" transform="translate(-131.000000, -272.000000)">
            <g id="Group-2" transform="translate(131.000000, 272.000000)">
                <g id="Group">
                    <g id="Group-3" transform="translate(0.000000, -0.000000)">
                        <g id="Group-Copy-2">
                            <path d="M54.0499125,53.9435033 C52.0615435,55.9360061 49.3777087,57.073158 46.507466,57.073158 C40.6163315,57.073158 35.8410916,52.2891185 35.8410916,46.3872255 C35.8410916,40.4859813 40.6164254,35.7020358 46.507466,35.7020358 C48.9956646,35.7020358 51.346894,36.5551843 53.2360299,38.0954345 L56.2205327,34.4219794 C53.495708,32.2003753 50.0929814,30.9656889 46.507466,30.9656889 C38.0051777,30.9656889 31.1130848,37.8702107 31.1130848,46.3872255 C31.1130848,54.9048474 38.0050423,61.8095049 46.507466,61.8095049 C50.6446531,61.8095049 54.5272503,60.1644325 57.3936437,57.2920798 L54.0499125,53.9435033 Z" id="Stroke-1" fill="#E16240" fill-rule="nonzero"></path>
                            <path d="M36.4709931,27.5500477 L34.2613727,23.3639524 C37.9574622,21.393037 42.0864744,20.3478176 46.3607675,20.3478176 C60.6369671,20.3478176 72.2103514,31.9804575 72.2103514,46.3291863 C72.2103514,60.6785317 60.6370929,72.311298 46.3607675,72.311298 C32.0844422,72.311298 20.5111837,60.6785317 20.5111837,46.3291863 L25.2258946,46.3291863 C25.2258946,58.06144 34.6883511,67.5725508 46.3607675,67.5725508 C58.033184,67.5725508 67.4956405,58.06144 67.4956405,46.3291863 C67.4956405,34.5975723 58.0330812,25.0865648 46.3607675,25.0865648 C42.8615178,25.0865648 39.4905364,25.9398961 36.4709931,27.5500477 Z M24.4795459,68.9076568 L21.189514,72.3018821 C14.2656135,65.521921 10.2869815,56.2409042 10.2869815,46.3291863 C10.2869815,26.3049066 26.4380567,10.0714909 46.3607675,10.0714909 C66.2839704,10.0714909 82.4345536,26.304658 82.4345536,46.3291863 C82.4345536,61.0150463 73.6677135,74.0772364 60.4480755,79.7188175 L58.6054567,75.356963 C70.0986458,70.4521571 77.7198427,59.0969231 77.7198427,46.3291863 C77.7198427,28.9217798 63.6800914,14.8102381 46.3607675,14.8102381 C29.0419197,14.8102381 15.0016924,28.9220445 15.0016924,46.3291863 C15.0016924,54.9494371 18.457462,63.0107646 24.4795459,68.9076568 Z" id="Stroke-2" fill="#465191" fill-rule="nonzero"></path>
                            <path d="M72.5943531,78.2664111 C65.2299508,84.4276289 55.9735079,87.8565198 46.1861525,87.8565198 C23.3834055,87.8565198 4.89802186,69.2901924 4.89802186,46.3875969 C4.89802186,23.4850014 23.3834055,4.91867395 46.1861525,4.91867395 C55.8429361,4.91867395 64.9841808,8.25638768 72.3047383,14.2686048 L75.1711703,10.7477655 C67.0490038,4.07720397 56.8974883,0.370613284 46.1861525,0.370613284 C20.8825318,0.370613284 0.369789404,20.9731768 0.369789404,46.3875969 C0.369789404,71.802017 20.8825318,92.4045805 46.1861525,92.4045805 C57.0423949,92.4045805 67.3217883,88.596755 75.4925192,81.7609453 L72.5943531,78.2664111 Z" id="Stroke-3" fill="#465191" fill-rule="nonzero"></path>
                            <path d="M61.1125907,39.1744921 C61.1125907,41.7840862 59.003381,43.9001924 56.4015574,43.9001924 C53.800468,43.9001924 51.6912583,41.7840862 51.6912583,39.1744921 C51.6912583,36.5641613 53.800468,34.4480552 56.4015574,34.4480552 C59.003381,34.4480552 61.1125907,36.5641613 61.1125907,39.1744921" id="Fill-4" fill="#E16240"></path>
                            <path d="M40.5344172,26.2399886 C40.5344172,28.8503193 38.4259417,30.9656889 35.8241181,30.9656889 C33.2222945,30.9656889 31.1130848,28.8503193 31.1130848,26.2399886 C31.1130848,23.6296578 33.2222945,21.5135517 35.8241181,21.5135517 C38.4259417,21.5135517 40.5344172,23.6296578 40.5344172,26.2399886" id="Fill-5" fill="#E16240"></path>
                            <path d="M64.0877483,77.2317812 C64.0877483,79.8421119 61.9792728,81.9574815 59.3774492,81.9574815 C56.7756256,81.9574815 54.6664159,79.8421119 54.6664159,77.2317812 C54.6664159,74.6214505 56.7756256,72.5053444 59.3774492,72.5053444 C61.9792728,72.5053444 64.0877483,74.6214505 64.0877483,77.2317812" id="Fill-6" fill="#E16240"></path>
                            <path d="M81.4428344,14.0517064 C81.4428344,16.6620371 79.3336247,18.7774067 76.7325353,18.7774067 C74.1307117,18.7774067 72.021502,16.6620371 72.021502,14.0517064 C72.021502,11.4413757 74.1307117,9.32526955 76.7325353,9.32526955 C79.3336247,9.32526955 81.4428344,11.4413757 81.4428344,14.0517064" id="Fill-7" fill="#E16240"></path>
                            <path d="M81.4428344,77.4797851 C81.4428344,80.0901158 79.3336247,82.206222 76.7325353,82.206222 C74.1307117,82.206222 72.021502,80.0901158 72.021502,77.4797851 C72.021502,74.8694544 74.1307117,72.7540848 76.7325353,72.7540848 C79.3336247,72.7540848 81.4428344,74.8694544 81.4428344,77.4797851" id="Fill-8" fill="#E16240"></path>
                            <path d="M61.1125907,53.3526978 C61.1125907,55.9630286 59.003381,58.0783981 56.4015574,58.0783981 C53.800468,58.0783981 51.6912583,55.9630286 51.6912583,53.3526978 C51.6912583,50.7423671 53.800468,48.626261 56.4015574,48.626261 C59.003381,48.626261 61.1125907,50.7423671 61.1125907,53.3526978" id="Fill-9" fill="#E16240"></path>
                            <path d="M27.6420675,46.3872286 C27.6420675,48.9975593 25.5328578,51.1136655 22.9310343,51.1136655 C20.3292107,51.1136655 18.2207351,48.9975593 18.2207351,46.3872286 C18.2207351,43.7776345 20.3292107,41.6615283 22.9310343,41.6615283 C25.5328578,41.6615283 27.6420675,43.7776345 27.6420675,46.3872286" id="Fill-10" fill="#E16240"></path>
                            <path d="M27.6420675,70.7645295 C27.6420675,73.3741236 25.5328578,75.4902298 22.9310343,75.4902298 C20.3292107,75.4902298 18.2207351,73.3741236 18.2207351,70.7645295 C18.2207351,68.1541987 20.3292107,66.0380926 22.9310343,66.0380926 C25.5328578,66.0380926 27.6420675,68.1541987 27.6420675,70.7645295" id="Fill-11" fill="#E16240"></path>
                            <path d="M122.651554,26.9858416 C127.378983,26.9858416 131.347945,29.3255122 133.915748,31.9582926 L129.188319,37.282624 C127.262467,35.5276851 125.453131,34.4155046 122.76807,34.4155046 C117.45732,34.4155046 113.313213,39.0375629 113.313213,46.7023088 C113.313213,54.5418791 116.990514,59.1051666 122.535039,59.1051666 C125.686163,59.1051666 127.904418,57.760135 129.772383,55.7120863 L134.499812,60.9196202 C131.347945,64.6050663 127.145951,66.5355735 122.418523,66.5355735 C112.554746,66.5355735 104.500306,59.8074398 104.500306,46.9946746 C104.500306,34.3574778 112.846407,26.9858416 122.651554,26.9858416" id="Fill-12" fill="#465191"></path>
                            <path d="M139.458408,24.995918 L148.002905,24.995918 L148.002905,57.4068349 C148.002905,59.223754 148.816702,59.8095204 149.514453,59.8095204 C149.863329,59.8095204 150.096159,59.8095204 150.56108,59.6925162 L151.606968,66.0807981 C150.677126,66.4914308 149.22397,66.784314 147.305154,66.784314 C141.434138,66.784314 139.458408,62.9164671 139.458408,57.0550769 L139.458408,24.995918" id="Fill-13" fill="#465191"></path>
                            <path d="M156.026127,66.0380926 L164.601494,66.0380926 L164.601494,36.9888473 L156.026127,36.9888473 L156.026127,66.0380926 Z M155.325915,28.2033999 C155.325915,25.5678401 157.42655,23.7522158 160.284511,23.7522158 C163.201812,23.7522158 165.243107,25.5678401 165.243107,28.2033999 C165.243107,30.8389596 163.201812,32.7134168 160.284511,32.7134168 C157.42655,32.7134168 155.325915,30.8389596 155.325915,28.2033999 L155.325915,28.2033999 Z" id="Fill-14" fill="#465191"></path>
                            <polyline id="Fill-15" fill="#465191" points="171.937212 24.995918 180.261805 24.995918 180.261805 48.5317577 180.494237 48.5317577 189.63382 36.9983476 198.948097 36.9983476 188.81883 48.9419636 199.70535 66.0380926 190.44881 66.0380926 183.92889 54.7384477 180.261805 58.8948528 180.261805 66.0380926 171.937212 66.0380926 171.937212 24.995918"></polyline>
                            <path d="M207.117804,55.1273547 C209.788424,57.4670252 213.270044,59.1051666 216.404093,59.1051666 C219.944011,59.1051666 221.685559,57.7006203 221.685559,55.4197205 C221.685559,53.0205353 219.538141,52.2602353 216.229938,50.855689 L211.355079,48.7496135 C207.408554,47.1702429 203.694481,43.8939602 203.694481,38.3360337 C203.694481,32.0170633 209.323519,26.9858416 217.158272,26.9858416 C221.510666,26.9858416 226.095513,28.7407806 229.346157,32.0170633 L225.050584,37.4581923 C222.555595,35.5276851 220.176463,34.4155046 217.158272,34.4155046 C214.256675,34.4155046 212.34171,35.7032533 212.34171,37.8673556 C212.34171,40.2077701 214.836699,41.0268408 218.144903,42.3726164 L222.961464,44.3618943 C227.546311,46.2336308 230.448645,49.3343452 230.448645,54.7174474 C230.448645,61.0364177 225.225477,66.5355735 216.229938,66.5355735 C211.296782,66.5355735 206.073613,64.6638371 202.184648,61.0364177 L207.117804,55.1273547" id="Fill-16" fill="#E16240"></path>
                            <path d="M248.700987,59.5906817 C252.180685,59.5906817 253.978799,56.3812943 253.978799,51.362777 C253.978799,46.3435176 252.180685,43.1341302 248.700987,43.1341302 C245.162286,43.1341302 243.421699,46.3435176 243.421699,51.362777 C243.421699,56.3812943 245.162286,59.5906817 248.700987,59.5906817 Z M248.700987,36.1892384 C255.950972,36.1892384 262.679519,41.7331305 262.679519,51.362777 C262.679519,60.9916814 255.950972,66.5355735 248.700987,66.5355735 C241.392736,66.5355735 234.663452,60.9916814 234.663452,51.362777 C234.663452,41.7331305 241.392736,36.1892384 248.700987,36.1892384 L248.700987,36.1892384 Z" id="Fill-17" fill="#E16240"></path>
                            <path d="M268.133975,36.9354597 L276.670292,36.9354597 L276.670292,53.7748727 C276.670292,57.9121167 277.773515,59.2516828 280.270905,59.2516828 C282.419753,59.2516828 283.697247,58.3203583 285.381619,56.047245 L285.381619,36.9354597 L293.918674,36.9354597 L293.918674,65.836154 L286.949318,65.836154 L286.310571,61.8159739 L286.137038,61.8159739 C283.697247,64.7292338 281.026325,66.5355735 277.07717,66.5355735 C270.804897,66.5355735 268.133975,62.1071517 268.133975,54.8817929 L268.133975,36.9354597" id="Fill-18" fill="#E16240"></path>
                            <path d="M301.604498,36.8886578 L308.55229,36.8886578 L309.131702,41.9579672 L309.362878,41.9579672 C311.447142,38.05411 314.573906,36.1892384 317.52692,36.1892384 C319.148096,36.1892384 320.132434,36.4226252 320.943023,36.7723349 L319.553022,44.1718077 C318.511258,43.8806299 317.642508,43.705775 316.426994,43.705775 C314.284568,43.705775 311.620892,45.1046139 310.11604,49.0084711 L310.11604,65.7893522 L301.604498,65.7893522 L301.604498,36.8886578" id="Fill-19" fill="#E16240"></path>
                            <path d="M337.40816,36.1892384 C340.949008,36.1892384 343.90968,37.5316157 345.825148,39.5158705 L341.935899,44.8260154 C340.543032,43.658763 339.265315,43.1341302 337.930762,43.1341302 C333.808999,43.1341302 331.19599,46.3435176 331.19599,51.362777 C331.19599,56.3812943 333.924887,59.5906817 337.639936,59.5906817 C339.729604,59.5906817 341.413297,58.5985543 342.806902,57.4899243 L346.231862,62.9173138 C343.444653,65.3683212 339.787917,66.5355735 336.653045,66.5355735 C328.642771,66.5355735 322.430601,60.9916814 322.430601,51.362777 C322.430601,41.7331305 329.454723,36.1892384 337.40816,36.1892384" id="Fill-20" fill="#E16240"></path>
                            <path d="M366.508896,48.3856527 C366.508896,45.0597626 365.117876,42.7252579 361.700005,42.7252579 C359.034376,42.7252579 356.716501,44.5343878 356.137401,48.3856527 L366.508896,48.3856527 Z M361.525391,36.1892384 C369.695421,36.1892384 373.75207,42.2006251 373.75207,50.079022 C373.75207,51.5965243 373.578193,52.9960398 373.403579,53.6972817 L356.195605,53.6972817 C356.947846,58.0739215 359.845558,59.9995539 363.669389,59.9995539 C365.814123,59.9995539 367.783506,59.3576765 369.869298,58.0739215 L372.708806,63.2675637 C369.753626,65.3096988 365.929795,66.5355735 362.510451,66.5355735 C354.282953,66.5355735 347.967371,60.9338011 347.967371,51.362777 C347.967371,41.9668778 354.630708,36.1892384 361.525391,36.1892384 L361.525391,36.1892384 Z" id="Fill-21" fill="#E16240"></path>
                        </g>
                    </g>
                    <g id="Group-Copy" transform="translate(106.069767, 90.077519)" stroke="#465191" stroke-linecap="square" stroke-width="3">
                        <line x1="0.930232558" y1="0.858742463" x2="16.7302326" y2="0.858742463" id="Line-13"></line>
                        <line x1="256.930233" y1="0.858742463" x2="272.727391" y2="0.858742463" id="Line-13-Copy"></line>
                    </g>
                </g>
                <path d="M136.620117,98.1855469 C134.832673,98.1855469 133.38233,97.5206772 132.269043,96.190918 L134.105957,94.140625 C134.507977,94.5859397 134.90226,94.9199208 135.288818,95.1425781 C135.675376,95.3652355 136.091306,95.4765625 136.536621,95.4765625 C137.105634,95.4765625 137.546304,95.2956561 137.858643,94.9338379 C138.170981,94.5720197 138.327148,94.0169308 138.327148,93.2685547 L138.327148,84.6962891 L141.333008,84.6962891 L141.333008,93.3984375 C141.333008,94.9261144 140.912439,96.1105101 140.071289,96.9516602 C139.248694,97.7742554 138.098315,98.1855469 136.620117,98.1855469 Z M150.143054,98.2133789 C148.324685,98.2133789 146.911451,97.7108611 145.903308,96.7058105 C144.895165,95.7007599 144.391101,94.2334081 144.391101,92.3037109 L144.391101,84.6962891 L147.313464,84.6962891 L147.313464,92.2202148 C147.313464,93.2902072 147.56395,94.1066053 148.064929,94.6694336 C148.565908,95.2322619 149.270979,95.5136719 150.180163,95.5136719 C151.089347,95.5136719 151.794418,95.2415392 152.295397,94.6972656 C152.796377,94.1529921 153.046862,93.3613333 153.046862,92.3222656 L153.046862,84.6962891 L155.978503,84.6962891 L155.978503,92.2016602 C155.978503,94.1746518 155.463616,95.6698354 154.433825,96.6872559 C153.404035,97.7046763 151.973792,98.2133789 150.143054,98.2133789 Z M159.240697,98 L159.240697,84.6962891 L162.394994,84.6962891 L165.892553,90.3276367 L169.390111,84.6962891 L172.544408,84.6962891 L172.544408,98 L169.631322,98 L169.631322,89.3164062 L165.892553,94.9941406 L165.818334,94.9941406 L162.107396,89.3720703 L162.107396,98 L159.240697,98 Z M176.010704,98 L176.010704,84.6962891 L181.447228,84.6962891 C183.012014,84.6962891 184.252073,85.118404 185.167442,85.9626465 C186.021787,86.7506062 186.477431,87.7715718 186.534387,89.0255707 L186.540489,89.3349609 C186.540489,90.0833371 186.401331,90.757484 186.123009,91.3574219 C185.844687,91.9573598 185.459681,92.4490541 184.96798,92.8325195 C184.476278,93.215985 183.907273,93.5082184 183.260948,93.7092285 C182.614623,93.9102386 181.914191,94.0107422 181.15963,94.0107422 L178.933067,94.0107422 L178.933067,98 L176.010704,98 Z M178.933067,91.4038086 L181.252403,91.4038086 C181.969855,91.4038086 182.535767,91.2151712 182.950157,90.8378906 C183.318504,90.5025302 183.523139,90.0840988 183.564065,89.5825866 L183.571739,89.3535156 C183.571739,88.7102832 183.361455,88.2139503 182.94088,87.864502 C182.520305,87.5150536 181.93893,87.340332 181.196739,87.340332 L178.933067,87.340332 L178.933067,91.4038086 Z M194.966733,98 L194.966733,84.6962891 L200.403257,84.6962891 C201.968043,84.6962891 203.208103,85.118404 204.123472,85.9626465 C204.977816,86.7506062 205.433461,87.7715718 205.490416,89.0255707 L205.496519,89.3349609 C205.496519,90.0833371 205.35736,90.757484 205.079038,91.3574219 C204.800716,91.9573598 204.415711,92.4490541 203.924009,92.8325195 C203.432307,93.215985 202.863302,93.5082184 202.216978,93.7092285 C201.570653,93.9102386 200.87022,94.0107422 200.115659,94.0107422 L197.889097,94.0107422 L197.889097,98 L194.966733,98 Z M197.889097,91.4038086 L200.208433,91.4038086 C200.925884,91.4038086 201.491796,91.2151712 201.906187,90.8378906 C202.274533,90.5025302 202.479168,90.0840988 202.520095,89.5825866 L202.527769,89.3535156 C202.527769,88.7102832 202.317484,88.2139503 201.896909,87.864502 C201.476334,87.5150536 200.89496,87.340332 200.152769,87.340332 L197.889097,87.340332 L197.889097,91.4038086 Z M207.942307,98 L207.942307,84.6962891 L214.018967,84.6962891 C215.701267,84.6962891 216.993897,85.1477819 217.896897,86.0507812 C218.603304,86.7571882 218.981731,87.6795655 219.032188,88.8179372 L219.03801,89.1308594 C219.03801,90.1637421 218.784432,91.0265265 218.277268,91.7192383 C217.770104,92.4119501 217.07431,92.9221989 216.189865,93.25 L219.436936,98 L216.013596,98 L213.165451,93.7416992 L210.86467,93.7416992 L210.86467,98 L207.942307,98 Z M210.86467,91.1625977 L213.83342,91.1625977 C214.538502,91.1625977 215.088952,90.9909685 215.484787,90.6477051 C215.836641,90.342582 216.032113,89.9482793 216.071207,89.4647872 L216.078537,89.2421875 C216.078537,88.6236948 215.875984,88.1521012 215.470871,87.8273926 C215.065758,87.5026839 214.501392,87.340332 213.777756,87.340332 L210.86467,87.340332 L210.86467,91.1625977 Z M231.243564,97.6845703 C230.359119,98.049481 229.415932,98.2319336 228.413974,98.2319336 C227.412016,98.2319336 226.470375,98.0525734 225.589023,97.6938477 C224.70767,97.3351219 223.960852,96.8480662 223.348544,96.232666 C222.736236,95.6172658 222.253819,94.8890016 221.901278,94.0478516 C221.592805,93.3118453 221.419291,92.5403342 221.380732,91.7333004 L221.37247,91.3481445 C221.37247,90.4142206 221.550284,89.5251507 221.905917,88.6809082 C222.26155,87.8366657 222.748606,87.1053091 223.367099,86.4868164 C223.985591,85.8683237 224.737049,85.3781756 225.621493,85.0163574 C226.505938,84.6545392 227.449125,84.4736328 228.451083,84.4736328 C229.787027,84.4736328 230.996162,84.7797821 232.078524,85.3920898 C233.160887,86.0043976 234.002024,86.8316191 234.601962,87.8737793 C235.14736,88.8211976 235.444846,89.8542195 235.494427,90.9728709 L235.501864,91.3481445 C235.501864,92.2820685 235.322504,93.1711384 234.963778,94.0153809 C234.605053,94.8596234 234.116451,95.59098 233.497958,96.2094727 C232.879465,96.8279653 232.128008,97.3196596 231.243564,97.6845703 Z M226.372958,94.9663086 C226.991451,95.3435891 227.684152,95.5322266 228.451083,95.5322266 C229.218014,95.5322266 229.909169,95.3451353 230.524569,94.9709473 C231.13997,94.5967592 231.614656,94.0942414 231.948642,93.4633789 C232.240879,92.9113742 232.405261,92.3120241 232.441791,91.6653147 L232.449618,91.3481445 C232.449618,90.1915632 232.067705,89.2066284 231.303866,88.3933105 C230.540028,87.5799927 229.57674,87.1733398 228.413974,87.1733398 C227.647043,87.1733398 226.957434,87.3588849 226.345126,87.7299805 C225.732818,88.1010761 225.259678,88.6020476 224.925692,89.2329102 C224.633455,89.7849149 224.469073,90.384265 224.432544,91.0309744 L224.424716,91.3481445 C224.424716,92.1027056 224.594799,92.7984994 224.93497,93.4355469 C225.275141,94.0725943 225.754465,94.5828431 226.372958,94.9663086 Z M238.383688,98 L238.383688,84.6962891 L248.514547,84.6962891 L248.514547,87.3588867 L241.306051,87.3588867 L241.306051,90.1884766 L247.651754,90.1884766 L247.651754,92.8510742 L241.306051,92.8510742 L241.306051,98 L238.383688,98 Z M251.127327,98 L251.127327,84.6962891 L261.156136,84.6962891 L261.156136,87.3032227 L254.031136,87.3032227 L254.031136,90.0029297 L260.30262,90.0029297 L260.30262,92.6005859 L254.031136,92.6005859 L254.031136,95.3930664 L261.258187,95.3930664 L261.258187,98 L251.127327,98 Z M268.871455,98.1855469 C267.844757,98.1855469 266.842814,98.0061867 265.865596,97.6474609 C264.888377,97.2887352 264.010131,96.7599319 263.23083,96.0610352 L264.956416,93.9921875 C266.267621,95.0683648 267.591175,95.6064453 268.927119,95.6064453 C269.527057,95.6064453 269.997104,95.4951183 270.337275,95.2724609 C270.677446,95.0498036 270.847529,94.7436543 270.847529,94.3540039 L270.847529,94.3168945 C270.847529,94.0571276 270.779496,93.8406584 270.643428,93.6674805 C270.507359,93.4943025 270.24605,93.3226734 269.859492,93.1525879 C269.521254,93.0037631 269.046882,92.8490212 268.436363,92.6883585 L267.68915,92.4951952 C267.464268,92.434336 267.259981,92.3751468 267.076289,92.317627 C266.770135,92.2217606 266.453163,92.1073412 266.125361,91.9743652 C265.79756,91.8413893 265.522335,91.7037768 265.299678,91.5615234 C265.07702,91.4192701 264.862097,91.2491872 264.654902,91.0512695 C264.447707,90.8533519 264.282263,90.6353365 264.158565,90.3972168 C264.034866,90.1590971 263.937455,89.8854182 263.866328,89.5761719 C263.812983,89.3442371 263.779643,89.0949101 263.766307,88.8281866 L263.759639,88.5185547 C263.759639,87.3186789 264.194123,86.3507524 265.063106,85.6147461 C265.932088,84.8787398 267.049996,84.5107422 268.416865,84.5107422 C270.309453,84.5107422 271.954619,85.0735621 273.352412,86.1992188 L271.830928,88.4072266 C270.563018,87.528967 269.412639,87.0898438 268.379756,87.0898438 C267.835482,87.0898438 267.413367,87.1980783 267.113399,87.4145508 C266.81343,87.6310232 266.663447,87.9093407 266.663447,88.2495117 L266.663447,88.2866211 C266.663447,88.713381 266.848992,89.0380848 267.220088,89.2607422 C267.534092,89.4491446 268.135925,89.6641137 269.0256,89.9056544 L269.539424,90.0400391 C270.25069,90.2255869 270.852166,90.4250478 271.343867,90.6384277 C271.835569,90.8518077 272.270054,91.1131169 272.647334,91.4223633 C273.024615,91.7316096 273.302932,92.1011534 273.482295,92.5310059 C273.631764,92.8892162 273.718953,93.2957411 273.743865,93.7505892 L273.751338,94.0664062 C273.751338,95.3590559 273.304484,96.3687301 272.410762,97.095459 C271.51704,97.8221879 270.337283,98.1855469 268.871455,98.1855469 Z M281.123396,98.1855469 C280.096698,98.1855469 279.094755,98.0061867 278.117536,97.6474609 C277.140318,97.2887352 276.262071,96.7599319 275.482771,96.0610352 L277.208357,93.9921875 C278.519561,95.0683648 279.843115,95.6064453 281.17906,95.6064453 C281.778998,95.6064453 282.249045,95.4951183 282.589216,95.2724609 C282.929387,95.0498036 283.09947,94.7436543 283.09947,94.3540039 L283.09947,94.3168945 C283.09947,94.0571276 283.031437,93.8406584 282.895368,93.6674805 C282.7593,93.4943025 282.497991,93.3226734 282.111433,93.1525879 C281.773195,93.0037631 281.298822,92.8490212 280.688304,92.6883585 L279.94109,92.4951952 C279.716208,92.434336 279.511922,92.3751468 279.32823,92.317627 C279.022076,92.2217606 278.705103,92.1073412 278.377302,91.9743652 C278.049501,91.8413893 277.774276,91.7037768 277.551618,91.5615234 C277.328961,91.4192701 277.114038,91.2491872 276.906843,91.0512695 C276.699648,90.8533519 276.534204,90.6353365 276.410505,90.3972168 C276.286806,90.1590971 276.189395,89.8854182 276.118269,89.5761719 C276.064924,89.3442371 276.031583,89.0949101 276.018247,88.8281866 L276.011579,88.5185547 C276.011579,87.3186789 276.446064,86.3507524 277.315046,85.6147461 C278.184028,84.8787398 279.301937,84.5107422 280.668806,84.5107422 C282.561393,84.5107422 284.206559,85.0735621 285.604353,86.1992188 L284.082868,88.4072266 C282.814958,87.528967 281.664579,87.0898438 280.631696,87.0898438 C280.087423,87.0898438 279.665308,87.1980783 279.365339,87.4145508 C279.06537,87.6310232 278.915388,87.9093407 278.915388,88.2495117 L278.915388,88.2866211 C278.915388,88.713381 279.100933,89.0380848 279.472028,89.2607422 C279.786032,89.4491446 280.387865,89.6641137 281.27754,89.9056544 L281.791364,90.0400391 C282.502631,90.2255869 283.104106,90.4250478 283.595808,90.6384277 C284.087509,90.8518077 284.521994,91.1131169 284.899274,91.4223633 C285.276555,91.7316096 285.554873,92.1011534 285.734235,92.5310059 C285.883705,92.8892162 285.970894,93.2957411 285.995805,93.7505892 L286.003278,94.0664062 C286.003278,95.3590559 285.556424,96.3687301 284.662702,97.095459 C283.76898,97.8221879 282.589223,98.1855469 281.123396,98.1855469 Z M288.95932,98 L288.95932,84.6962891 L291.890961,84.6962891 L291.890961,98 L288.95932,98 Z M304.783038,97.6845703 C303.898594,98.049481 302.955406,98.2319336 301.953448,98.2319336 C300.95149,98.2319336 300.009849,98.0525734 299.128497,97.6938477 C298.247145,97.3351219 297.500326,96.8480662 296.888019,96.232666 C296.275711,95.6172658 295.793294,94.8890016 295.440753,94.0478516 C295.13228,93.3118453 294.958766,92.5403342 294.920207,91.7333004 L294.911944,91.3481445 C294.911944,90.4142206 295.089758,89.5251507 295.445392,88.6809082 C295.801025,87.8366657 296.288081,87.1053091 296.906573,86.4868164 C297.525066,85.8683237 298.276523,85.3781756 299.160968,85.0163574 C300.045412,84.6545392 300.9886,84.4736328 301.990558,84.4736328 C303.326502,84.4736328 304.535637,84.7797821 305.617999,85.3920898 C306.700361,86.0043976 307.541499,86.8316191 308.141437,87.8737793 C308.686835,88.8211976 308.984321,89.8542195 309.033902,90.9728709 L309.041339,91.3481445 C309.041339,92.2820685 308.861979,93.1711384 308.503253,94.0153809 C308.144527,94.8596234 307.655925,95.59098 307.037433,96.2094727 C306.41894,96.8279653 305.667483,97.3196596 304.783038,97.6845703 Z M299.912433,94.9663086 C300.530925,95.3435891 301.223627,95.5322266 301.990558,95.5322266 C302.757489,95.5322266 303.448644,95.3451353 304.064044,94.9709473 C304.679444,94.5967592 305.15413,94.0942414 305.488116,93.4633789 C305.780354,92.9113742 305.944736,92.3120241 305.981265,91.6653147 L305.989093,91.3481445 C305.989093,90.1915632 305.607179,89.2066284 304.843341,88.3933105 C304.079502,87.5799927 303.116215,87.1733398 301.953448,87.1733398 C301.186517,87.1733398 300.496908,87.3588849 299.884601,87.7299805 C299.272293,88.1010761 298.799153,88.6020476 298.465167,89.2329102 C298.172929,89.7849149 298.008547,90.384265 297.972018,91.0309744 L297.964191,91.3481445 C297.964191,92.1027056 298.134273,92.7984994 298.474444,93.4355469 C298.814615,94.0725943 299.29394,94.5828431 299.912433,94.9663086 Z M311.923162,98 L311.923162,84.6962891 L314.622869,84.6962891 L320.857244,92.8881836 L320.857244,84.6962891 L323.742498,84.6962891 L323.742498,98 L321.25617,98 L314.808416,89.5483398 L314.808416,98 L311.923162,98 Z M326.067681,98 L331.773247,84.6035156 L334.463677,84.6035156 L340.169243,98 L337.10772,98 L335.892388,95.0126953 L330.270317,95.0126953 L329.054985,98 L326.067681,98 Z M331.30938,92.4335938 L334.844048,92.4335938 L333.081353,88.1196289 L331.30938,92.4335938 Z M342.494426,98 L342.494426,84.6962891 L345.416789,84.6962891 L345.416789,95.3374023 L352.05009,95.3374023 L352.05009,98 L342.494426,98 Z" id="JUMPPROFESSIONAL" fill="#465191" fill-rule="nonzero"></path>
            </g>
        </g>
    </g>
</svg>