<?xml version="1.0" encoding="UTF-8"?>
<svg width="105px" height="106px" viewBox="0 0 105 106" version="1.1" xmlns="http://www.w3.org/2000/svg" xmlns:xlink="http://www.w3.org/1999/xlink">
    <!-- Generator: Sketch 55.2 (78181) - https://sketchapp.com -->
    <title>CS_new_logo 105x106</title>
    <desc>Created with Sketch.</desc>
    <g id="CS_new_logo-105x106" stroke="none" stroke-width="1" fill="none" fill-rule="evenodd">
        <g id="Group-2" transform="translate(11.000000, 6.000000)">
            <path d="M54.1784416,54.1822062 C52.1716144,56.197371 49.4628652,57.3474563 46.5659777,57.3474563 C40.6201552,57.3474563 35.8005862,52.5090052 35.8005862,46.5399864 C35.8005862,40.5716238 40.6202499,35.7332677 46.5659777,35.7332677 C49.0772746,35.7332677 51.4503306,36.5961196 53.3570036,38.153888 L56.3692119,34.4386525 C53.6190923,32.1917808 50.1847778,30.9430515 46.5659777,30.9430515 C37.9847618,30.9430515 31.0286888,37.9261026 31.0286888,46.5399864 C31.0286888,55.1544842 37.9846251,62.1376725 46.5659777,62.1376725 C50.7415707,62.1376725 54.6602106,60.4738897 57.553213,57.5688681 L54.1784416,54.1822062 Z" id="Stroke-1" fill="#E16240" fill-rule="nonzero"></path>
            <path d="M36.4363351,27.4885622 L34.2062026,23.254856 C37.9366033,21.2615242 42.1039456,20.2044169 46.4179175,20.2044169 C60.8266445,20.2044169 72.5074659,31.9693617 72.5074659,46.4812871 C72.5074659,60.9938361 60.8267715,72.7589088 46.4179175,72.7589088 C32.0090635,72.7589088 20.3283691,60.9938361 20.3283691,46.4812871 L25.0868472,46.4812871 C25.0868472,58.3469786 34.6371447,67.966265 46.4179175,67.966265 C58.1986903,67.966265 67.7489877,58.3469786 67.7489877,46.4812871 C67.7489877,34.6162425 58.1985865,24.9970607 46.4179175,24.9970607 C42.8861838,24.9970607 39.4839092,25.8600974 36.4363351,27.4885622 Z M24.3335701,69.3165559 L21.0129964,72.7493858 C14.0248205,65.8923122 10.0092544,56.5057368 10.0092544,46.4812871 C10.0092544,26.2292594 26.3102619,9.81121145 46.4179175,9.81121145 C66.5260696,9.81121145 82.8265805,26.229008 82.8265805,46.4812871 C82.8265805,61.3341781 73.9783568,74.5449322 60.6359994,80.2506783 L58.7762754,75.8392139 C70.3761571,70.8786227 78.0681024,59.3942389 78.0681024,46.4812871 C78.0681024,28.8758958 63.8980185,14.6038552 46.4179175,14.6038552 C28.9382968,14.6038552 14.7677326,28.8761635 14.7677326,46.4812871 C14.7677326,55.1995811 18.2555824,63.3525948 24.3335701,69.3165559 Z" id="Stroke-2" fill="#465191" fill-rule="nonzero"></path>
            <path d="M72.8950322,78.7817529 C65.4622654,85.0130458 56.119894,88.4809356 46.2416814,88.4809356 C23.2272541,88.4809356 4.57026853,69.7034423 4.57026853,46.540362 C4.57026853,23.3772817 23.2272541,4.59978845 46.2416814,4.59978845 C55.9881101,4.59978845 65.214214,7.97546398 72.6027289,14.0560617 L75.4957703,10.4951777 C67.2982049,3.74874794 57.0524518,2.13162821e-14 46.2416814,2.13162821e-14 C20.7031645,2.13162821e-14 1.77635684e-14,20.8368887 1.77635684e-14,46.540362 C1.77635684e-14,72.2438354 20.7031645,93.0807241 46.2416814,93.0807241 C57.1987036,93.0807241 67.5735217,89.2295899 75.8201024,82.3160325 L72.8950322,78.7817529 Z" id="Stroke-3" fill="#465191" fill-rule="nonzero"></path>
            <path d="M61.3066834,39.2452183 C61.3066834,41.8844929 59.1778937,44.0246668 56.5519171,44.0246668 C53.9266815,44.0246668 51.7978917,41.8844929 51.7978917,39.2452183 C51.7978917,36.6051987 53.9266815,34.4650249 56.5519171,34.4650249 C59.1778937,34.4650249 61.3066834,36.6051987 61.3066834,39.2452183" id="Fill-4" fill="#E16240"></path>
            <path d="M40.5374805,26.163603 C40.5374805,28.8036226 38.4094317,30.9430515 35.7834551,30.9430515 C33.1574785,30.9430515 31.0286888,28.8036226 31.0286888,26.163603 C31.0286888,23.5235834 33.1574785,21.3834096 35.7834551,21.3834096 C38.4094317,21.3834096 40.5374805,23.5235834 40.5374805,26.163603" id="Fill-5" fill="#E16240"></path>
            <path d="M64.3094598,77.7353555 C64.3094598,80.3753751 62.181411,82.514804 59.5554344,82.514804 C56.9294578,82.514804 54.8006681,80.3753751 54.8006681,77.7353555 C54.8006681,75.095336 56.9294578,72.9551621 59.5554344,72.9551621 C62.181411,72.9551621 64.3094598,75.095336 64.3094598,77.7353555" id="Fill-6" fill="#E16240"></path>
            <path d="M81.825655,13.8366963 C81.825655,16.4767159 79.6968653,18.6161448 77.0716297,18.6161448 C74.4456531,18.6161448 72.3168633,16.4767159 72.3168633,13.8366963 C72.3168633,11.1966768 74.4456531,9.05650288 77.0716297,9.05650288 C79.6968653,9.05650288 81.825655,11.1966768 81.825655,13.8366963" id="Fill-7" fill="#E16240"></path>
            <path d="M81.825655,77.9861801 C81.825655,80.6261997 79.6968653,82.7663736 77.0716297,82.7663736 C74.4456531,82.7663736 72.3168633,80.6261997 72.3168633,77.9861801 C72.3168633,75.3461606 74.4456531,73.2067316 77.0716297,73.2067316 C79.6968653,73.2067316 81.825655,75.3461606 81.825655,77.9861801" id="Fill-8" fill="#E16240"></path>
            <path d="M61.3066834,53.5846812 C61.3066834,56.2247007 59.1778937,58.3641297 56.5519171,58.3641297 C53.9266815,58.3641297 51.7978917,56.2247007 51.7978917,53.5846812 C51.7978917,50.9446616 53.9266815,48.8044877 56.5519171,48.8044877 C59.1778937,48.8044877 61.3066834,50.9446616 61.3066834,53.5846812" id="Fill-9" fill="#E16240"></path>
            <path d="M27.5254497,46.5399896 C27.5254497,49.1800091 25.39666,51.320183 22.7706834,51.320183 C20.1447068,51.320183 18.016658,49.1800091 18.016658,46.5399896 C18.016658,43.9007149 20.1447068,41.7605411 22.7706834,41.7605411 C25.39666,41.7605411 27.5254497,43.9007149 27.5254497,46.5399896" id="Fill-10" fill="#E16240"></path>
            <path d="M27.5254497,71.1945479 C27.5254497,73.8338225 25.39666,75.9739964 22.7706834,75.9739964 C20.1447068,75.9739964 18.016658,73.8338225 18.016658,71.1945479 C18.016658,68.5545283 20.1447068,66.4143545 22.7706834,66.4143545 C25.39666,66.4143545 27.5254497,68.5545283 27.5254497,71.1945479" id="Fill-11" fill="#E16240"></path>
        </g>
        <rect id="Rectangle" fill-opacity="0" fill="#FFFFFF" x="-106" y="-60" width="316" height="225"></rect>
    </g>
</svg>