<?xml version="1.0" encoding="UTF-8"?>
<svg width="315px" height="86px" viewBox="0 0 315 86" version="1.1" xmlns="http://www.w3.org/2000/svg" xmlns:xlink="http://www.w3.org/1999/xlink">
    <!-- Generator: Sketch 55.2 (78181) - https://sketchapp.com -->
    <title>CS_new_logo 315x86</title>
    <desc>Created with Sketch.</desc>
    <g id="CS_new_logo-315x86" stroke="none" stroke-width="1" fill="none" fill-rule="evenodd">
        <rect id="Rectangle" fill-opacity="0" fill="#FFFFFF" x="-17" y="-53" width="394" height="225"></rect>
        <g id="Group-Copy-2" transform="translate(15.000000, 8.000000)">
            <path d="M41.0432491,40.9624464 C39.5333646,42.4754699 37.4953724,43.3389756 35.3158298,43.3389756 C30.842348,43.3389756 27.21623,39.7061756 27.21623,35.2245242 C27.21623,30.7433654 30.8424193,27.1106368 35.3158298,27.1106368 C37.205264,27.1106368 38.9906895,27.7584822 40.4252206,28.928084 L42.6915275,26.1386154 C40.6224093,24.4516219 38.0385206,23.5140525 35.3158298,23.5140525 C28.8595467,23.5140525 23.6259788,28.7570584 23.6259788,35.2245242 C23.6259788,41.6924509 28.8594439,46.9355599 35.3158298,46.9355599 C38.4574371,46.9355599 41.4057195,45.6863605 43.5823391,43.5052157 L41.0432491,40.9624464 Z" id="Stroke-1" fill="#E16240" fill-rule="nonzero"></path>
            <path d="M27.6945509,20.920357 L26.0166573,17.7416109 C28.8233136,16.24498 31.9587132,15.4512839 35.2044331,15.4512839 C46.0451835,15.4512839 54.8335289,24.2846255 54.8335289,35.1804516 C54.8335289,46.076746 46.0452791,54.9101835 35.2044331,54.9101835 C24.3635872,54.9101835 15.5753374,46.076746 15.5753374,35.1804516 L19.1554922,35.1804516 C19.1554922,44.0894357 26.3408869,51.3117766 35.2044331,51.3117766 C44.0679793,51.3117766 51.253374,44.0894357 51.253374,35.1804516 C51.253374,26.2719533 44.0679012,19.0496909 35.2044331,19.0496909 C32.5472488,19.0496909 29.9874661,19.6976751 27.6945509,20.920357 Z M18.5887461,52.3256003 L16.0904331,54.9030335 C10.8327118,49.7546138 7.81150464,42.7069967 7.81150464,35.1804516 C7.81150464,19.9748489 20.0759575,7.6478701 35.2044331,7.6478701 C50.3332823,7.6478701 62.5973616,19.9746601 62.5973616,35.1804516 C62.5973616,46.3322812 55.9401888,56.2511634 45.9017471,60.5351448 L44.5025393,57.2229345 C53.2299878,53.4984295 59.0172068,44.8757384 59.0172068,35.1804516 C59.0172068,21.9619932 48.3560052,11.2462771 35.2044331,11.2462771 C22.0532224,11.2462771 11.3916595,21.9621942 11.3916595,35.1804516 C11.3916595,41.7263105 14.0158267,47.8477463 18.5887461,52.3256003 Z" id="Stroke-2" fill="#465191" fill-rule="nonzero"></path>
            <path d="M55.1251237,59.432248 C49.5329038,64.1108198 42.5039472,66.7145766 35.0718377,66.7145766 C17.7563828,66.7145766 3.7193535,52.6160819 3.7193535,35.2248062 C3.7193535,17.8335305 17.7563828,3.73503583 35.0718377,3.73503583 C42.4047964,3.73503583 49.3462764,6.26955642 54.9052023,10.8349834 L57.0818512,8.16140482 C50.9142168,3.09605863 43.2055794,0.281428269 35.0718377,0.281428269 C15.8573236,0.281428269 0.280802649,15.9261557 0.280802649,35.2248062 C0.280802649,54.5234567 15.8573236,70.1681841 35.0718377,70.1681841 C43.3156154,70.1681841 51.121358,67.2766803 57.3258702,62.0858515 L55.1251237,59.432248 Z" id="Stroke-3" fill="#465191" fill-rule="nonzero"></path>
            <path d="M46.4063523,29.7474753 C46.4063523,31.7290922 44.8047064,33.335975 42.8289901,33.335975 C40.8538313,33.335975 39.2521854,31.7290922 39.2521854,29.7474753 C39.2521854,27.765299 40.8538313,26.1584163 42.8289901,26.1584163 C44.8047064,26.1584163 46.4063523,27.765299 46.4063523,29.7474753" id="Fill-4" fill="#E16240"></path>
            <path d="M30.7801457,19.9255528 C30.7801457,21.9077291 29.1790573,23.5140525 27.203341,23.5140525 C25.2276247,23.5140525 23.6259788,21.9077291 23.6259788,19.9255528 C23.6259788,17.9433765 25.2276247,16.3364938 27.203341,16.3364938 C29.1790573,16.3364938 30.7801457,17.9433765 30.7801457,19.9255528" id="Fill-5" fill="#E16240"></path>
            <path d="M48.6655629,58.6465932 C48.6655629,60.6287695 47.0644745,62.2350929 45.0887582,62.2350929 C43.1130419,62.2350929 41.511396,60.6287695 41.511396,58.6465932 C41.511396,56.664417 43.1130419,55.0575342 45.0887582,55.0575342 C47.0644745,55.0575342 48.6655629,56.664417 48.6655629,58.6465932" id="Fill-6" fill="#E16240"></path>
            <path d="M61.8442914,10.6702797 C61.8442914,12.652456 60.2426455,14.2587794 58.2674867,14.2587794 C56.2917704,14.2587794 54.6901245,12.652456 54.6901245,10.6702797 C54.6901245,8.68810347 56.2917704,7.08122073 58.2674867,7.08122073 C60.2426455,7.08122073 61.8442914,8.68810347 61.8442914,10.6702797" id="Fill-7" fill="#E16240"></path>
            <path d="M61.8442914,58.834917 C61.8442914,60.8170933 60.2426455,62.4239761 58.2674867,62.4239761 C56.2917704,62.4239761 54.6901245,60.8170933 54.6901245,58.834917 C54.6901245,56.8527408 56.2917704,55.2464173 58.2674867,55.2464173 C60.2426455,55.2464173 61.8442914,56.8527408 61.8442914,58.834917" id="Fill-8" fill="#E16240"></path>
            <path d="M46.4063523,40.5138133 C46.4063523,42.4959896 44.8047064,44.102313 42.8289901,44.102313 C40.8538313,44.102313 39.2521854,42.4959896 39.2521854,40.5138133 C39.2521854,38.5316371 40.8538313,36.9247543 42.8289901,36.9247543 C44.8047064,36.9247543 46.4063523,38.5316371 46.4063523,40.5138133" id="Fill-9" fill="#E16240"></path>
            <path d="M20.9902331,35.2245265 C20.9902331,37.2067028 19.3885872,38.8135856 17.4128709,38.8135856 C15.4371546,38.8135856 13.8360662,37.2067028 13.8360662,35.2245265 C13.8360662,33.2429096 15.4371546,31.6360268 17.4128709,31.6360268 C19.3885872,31.6360268 20.9902331,33.2429096 20.9902331,35.2245265" id="Fill-10" fill="#E16240"></path>
            <path d="M20.9902331,53.735632 C20.9902331,55.717249 19.3885872,57.3241317 17.4128709,57.3241317 C15.4371546,57.3241317 13.8360662,55.717249 13.8360662,53.735632 C13.8360662,51.7534557 15.4371546,50.146573 17.4128709,50.146573 C19.3885872,50.146573 20.9902331,51.7534557 20.9902331,53.735632" id="Fill-11" fill="#E16240"></path>
            <path d="M93.1364745,20.4919225 C96.7262867,20.4919225 99.740151,22.2685708 101.690033,24.2677943 L98.1002211,28.3108695 C96.6378094,26.9782421 95.263875,26.1336987 93.2249518,26.1336987 C89.1921894,26.1336987 86.0453274,29.6434969 86.0453274,35.4637853 C86.0453274,41.416828 88.8377166,44.8819982 93.0479972,44.8819982 C95.4408296,44.8819982 97.12528,43.8606373 98.5437348,42.3054345 L102.133547,46.2598185 C99.740151,49.0583926 96.5493321,50.5243392 92.9595198,50.5243392 C85.4693795,50.5243392 79.3531735,45.4152751 79.3531735,35.6857957 C79.3531735,26.0896356 85.6908545,20.4919225 93.1364745,20.4919225" id="Fill-12" fill="#465191"></path>
            <path d="M105.898898,18.9808575 L112.387233,18.9808575 L112.387233,43.5923559 C112.387233,44.9720485 113.005196,45.4168551 113.535039,45.4168551 C113.799961,45.4168551 113.976763,45.4168551 114.329804,45.328007 L115.124008,50.1790018 C114.417924,50.4908191 113.314459,50.7132224 111.85739,50.7132224 C107.399185,50.7132224 105.898898,47.7761408 105.898898,43.3252456 L105.898898,18.9808575" id="Fill-13" fill="#465191"></path>
            <path d="M118.479733,50.146573 L124.991509,50.146573 L124.991509,28.0877878 L118.479733,28.0877878 L118.479733,50.146573 Z M117.948021,21.4164855 C117.948021,19.4151513 119.543156,18.0364419 121.713372,18.0364419 C123.928649,18.0364419 125.478723,19.4151513 125.478723,21.4164855 C125.478723,23.4178196 123.928649,24.8412042 121.713372,24.8412042 C119.543156,24.8412042 117.948021,23.4178196 117.948021,21.4164855 L117.948021,21.4164855 Z" id="Fill-14" fill="#465191"></path>
            <polyline id="Fill-15" fill="#465191" points="130.561947 18.9808575 136.883296 18.9808575 136.883296 36.8529925 137.059795 36.8529925 144.000013 28.0950019 151.072887 28.0950019 143.381144 37.1644857 151.647913 50.146573 144.618883 50.146573 139.667927 41.566094 136.883296 44.7222947 136.883296 50.146573 130.561947 50.146573 130.561947 18.9808575"></polyline>
            <path d="M157.276621,41.8614137 C159.304578,43.6380619 161.948376,44.8819982 164.328242,44.8819982 C167.016308,44.8819982 168.338767,43.8154443 168.338767,42.0834241 C168.338767,40.2615829 166.708107,39.6842429 164.195996,38.617689 L160.494231,37.0184231 C157.497405,35.8191149 154.677093,33.3312425 154.677093,29.1107849 C154.677093,24.3124224 158.951549,20.4919225 164.900934,20.4919225 C168.20596,20.4919225 171.687502,21.8245499 174.155905,24.3124224 L170.894026,28.4441888 C168.999436,26.9782421 167.192822,26.1336987 164.900934,26.1336987 C162.697582,26.1336987 161.243438,27.1115614 161.243438,28.7548904 C161.243438,30.5321035 163.138028,31.1540716 165.65014,32.1759974 L169.307636,33.6865721 C172.789177,35.1078907 174.993089,37.462444 174.993089,41.5501472 C174.993089,46.3485097 171.026833,50.5243392 164.195996,50.5243392 C160.449962,50.5243392 156.483706,49.1030206 153.530588,46.3485097 L157.276621,41.8614137" id="Fill-16" fill="#E16240"></path>
            <path d="M188.853156,45.2506781 C191.495493,45.2506781 192.860906,42.8136031 192.860906,39.0027504 C192.860906,35.1913342 191.495493,32.7542593 188.853156,32.7542593 C186.166014,32.7542593 184.844285,35.1913342 184.844285,39.0027504 C184.844285,42.8136031 186.166014,45.2506781 188.853156,45.2506781 Z M188.853156,27.4805981 C194.358492,27.4805981 199.46787,31.6903986 199.46787,39.0027504 C199.46787,46.3145388 194.358492,50.5243392 188.853156,50.5243392 C183.303575,50.5243392 178.193637,46.3145388 178.193637,39.0027504 C178.193637,31.6903986 183.303575,27.4805981 188.853156,27.4805981 L188.853156,27.4805981 Z" id="Fill-17" fill="#E16240"></path>
            <path d="M203.609756,28.0472475 L210.09188,28.0472475 L210.09188,40.8343953 C210.09188,43.9760458 210.929621,44.9932564 212.826035,44.9932564 C214.45778,44.9932564 215.427856,44.2860475 216.706897,42.5599401 L216.706897,28.0472475 L223.189581,28.0472475 L223.189581,49.9932293 L217.897343,49.9932293 L217.412305,46.9404721 L217.280532,46.9404721 C215.427856,49.1526802 213.399669,50.5243392 210.400846,50.5243392 C205.637943,50.5243392 203.609756,47.1615804 203.609756,41.6749443 L203.609756,28.0472475" id="Fill-18" fill="#E16240"></path>
            <path d="M229.025875,28.0117081 L234.301739,28.0117081 L234.74172,31.8611302 L234.917266,31.8611302 C236.499969,28.8967038 238.874303,27.4805981 241.116699,27.4805981 C242.347752,27.4805981 243.095218,27.6578223 243.710744,27.9233773 L242.655236,33.5422283 C241.864164,33.32112 241.204472,33.1883425 240.281461,33.1883425 C238.654592,33.1883425 236.631907,34.2505625 235.489186,37.2149888 L235.489186,49.9576899 L229.025875,49.9576899 L229.025875,28.0117081" id="Fill-19" fill="#E16240"></path>
            <path d="M256.213683,27.4805981 C258.902456,27.4805981 261.150666,28.4999435 262.605193,30.0067038 L259.651859,34.0390063 C258.594174,33.1526436 257.623929,32.7542593 256.610525,32.7542593 C253.48063,32.7542593 251.496421,35.1913342 251.496421,39.0027504 C251.496421,42.8136031 253.568631,45.2506781 256.389684,45.2506781 C257.976491,45.2506781 259.255017,44.4972979 260.313262,43.6554505 L262.914034,47.7767838 C260.797544,49.6379765 258.020771,50.5243392 255.64028,50.5243392 C249.557612,50.5243392 244.84035,46.3145388 244.84035,39.0027504 C244.84035,31.6903986 250.174175,27.4805981 256.213683,27.4805981" id="Fill-20" fill="#E16240"></path>
            <path d="M278.311568,36.7420464 C278.311568,34.2165043 277.255286,32.4437787 274.659897,32.4437787 C272.635729,32.4437787 270.875632,33.8175565 270.435887,36.7420464 L278.311568,36.7420464 Z M274.527302,27.4805981 C280.731282,27.4805981 283.811732,32.0453945 283.811732,38.0279204 C283.811732,39.1802484 283.679697,40.2429821 283.547102,40.7754759 L270.480085,40.7754759 C271.051306,44.0989136 273.251707,45.5611586 276.155365,45.5611586 C277.783986,45.5611586 279.279454,45.0737436 280.863317,44.0989136 L283.019521,48.0427489 C280.77548,49.5934611 277.871823,50.5243392 275.275316,50.5243392 C269.027697,50.5243392 264.231907,46.2705869 264.231907,39.0027504 C264.231907,31.8678965 269.291768,27.4805981 274.527302,27.4805981 L274.527302,27.4805981 Z" id="Fill-21" fill="#E16240"></path>
        </g>
    </g>
</svg>