<?xml version="1.0" encoding="UTF-8"?>
<svg width="16px" height="16px" viewBox="0 0 16 16" version="1.1" xmlns="http://www.w3.org/2000/svg" xmlns:xlink="http://www.w3.org/1999/xlink">
    <!-- Generator: Sketch 55.2 (78181) - https://sketchapp.com -->
    <title>CS_new_logo 16x16</title>
    <desc>Created with Sketch.</desc>
    <g id="CS_new_logo-16x16" stroke="none" stroke-width="1" fill="none" fill-rule="evenodd">
        <g id="Group-2" transform="translate(1.000000, 1.000000)">
            <path d="M8.50412471,8.3834579 C8.18339503,8.69381757 7.75048468,8.87094459 7.2875062,8.87094459 C6.33724911,8.87094459 5.56698904,8.12576476 5.56698904,7.20646389 C5.56698904,6.28726407 6.33726425,5.54209889 7.2875062,5.54209889 C7.68885986,5.54209889 8.06811998,5.67498848 8.37284308,5.9149036 L8.85425205,5.34271253 C8.41472991,4.99666719 7.86586024,4.80434783 7.2875062,4.80434783 C5.91606243,4.80434783 4.80434783,5.87982191 4.80434783,7.20646389 C4.80434783,8.53320044 5.91604058,9.60869565 7.2875062,9.60869565 C7.95484648,9.60869565 8.58112068,9.35245303 9.04347826,8.90504467 L8.50412471,8.3834579 Z" id="Stroke-1" fill="#E16240" fill-rule="nonzero"></path>
            <path d="M5.79825973,4.17903756 L5.45204825,3.51658499 C6.0311652,3.20468623 6.67811406,3.03927951 7.34782609,3.03927951 C9.5846737,3.03927951 11.3980343,4.88015308 11.3980343,7.15084964 C11.3980343,9.42164379 9.58469341,11.2625374 7.34782609,11.2625374 C5.11095876,11.2625374 3.29761791,9.42164379 3.29761791,7.15084964 L4.03633622,7.15084964 C4.03633622,9.00748716 5.51894881,10.5126272 7.34782609,10.5126272 C9.17670337,10.5126272 10.659316,9.00748716 10.659316,7.15084964 C10.659316,5.29431336 9.17668725,3.78918964 7.34782609,3.78918964 C6.79955072,3.78918964 6.27137291,3.92422992 5.79825973,4.17903756 Z M3.91939555,10.7239087 L3.4039012,11.2610473 C2.31903892,10.1881136 1.69565217,8.71938607 1.69565217,7.15084964 C1.69565217,3.9819931 4.22626224,1.41304348 7.34782609,1.41304348 C10.469467,1.41304348 13,3.98195376 13,7.15084964 C13,9.47489748 11.6263791,11.5419984 9.55507747,12.4347826 L9.26636916,11.744516 C11.0671644,10.968327 12.2612817,9.17135311 12.2612817,7.15084964 C12.2612817,4.39611514 10.0614817,2.16295361 7.34782609,2.16295361 C4.6342451,2.16295361 2.43437048,4.39615703 2.43437048,7.15084964 C2.43437048,8.51501048 2.97583321,9.79072131 3.91939555,10.7239087 Z" id="Stroke-2" fill="#465191" fill-rule="nonzero"></path>
            <path d="M11.4116483,12.1989256 C10.2480556,13.1638074 8.78551625,13.7007913 7.23909143,13.7007913 C3.63620462,13.7007913 0.71547121,10.7931986 0.71547121,7.20652174 C0.71547121,3.61984483 3.63620462,0.712252205 7.23909143,0.712252205 C8.7648856,0.712252205 10.2092234,1.23495719 11.3658884,2.17650464 L11.8187913,1.62512114 C10.5354702,0.580473213 8.93150729,0 7.23909143,0 C3.24106079,0 0,3.2264788 0,7.20652174 C0,11.1865647 3.24106079,14.4130435 7.23909143,14.4130435 C8.95440287,14.4130435 10.5785708,13.8167163 11.8695652,12.7461896 L11.4116483,12.1989256 Z" id="Stroke-3" fill="#465191" fill-rule="nonzero"></path>
            <path d="M9.60869565,6.07614201 C9.60869565,6.46626225 9.29234921,6.7826087 8.90211886,6.7826087 C8.51199862,6.7826087 8.19565217,6.46626225 8.19565217,6.07614201 C8.19565217,5.68591166 8.51199862,5.36956522 8.90211886,5.36956522 C9.29234921,5.36956522 9.60869565,5.68591166 9.60869565,6.07614201" id="Fill-4" fill="#E16240"></path>
            <path d="M6.2173913,4.09788114 C6.2173913,4.48811149 5.90115497,4.80434783 5.51092462,4.80434783 C5.12069427,4.80434783 4.80434783,4.48811149 4.80434783,4.09788114 C4.80434783,3.70765079 5.12069427,3.39130435 5.51092462,3.39130435 C5.90115497,3.39130435 6.2173913,3.70765079 6.2173913,4.09788114" id="Fill-5" fill="#E16240"></path>
            <path d="M10.173913,12.2935333 C10.173913,12.6837637 9.85767671,13 9.46744636,13 C9.07721601,13 8.76086957,12.6837637 8.76086957,12.2935333 C8.76086957,11.903303 9.07721601,11.5869565 9.46744636,11.5869565 C9.85767671,11.5869565 10.173913,11.903303 10.173913,12.2935333" id="Fill-6" fill="#E16240"></path>
            <path d="M12.7173913,2.11962027 C12.7173913,2.50985062 12.4010449,2.82608696 12.0109246,2.82608696 C11.6206943,2.82608696 11.3043478,2.50985062 11.3043478,2.11962027 C11.3043478,1.72938992 11.6206943,1.41304348 12.0109246,1.41304348 C12.4010449,1.41304348 12.7173913,1.72938992 12.7173913,2.11962027" id="Fill-7" fill="#E16240"></path>
            <path d="M12.7173913,12.2934232 C12.7173913,12.6836536 12.4010449,13 12.0109246,13 C11.6206943,13 11.3043478,12.6836536 11.3043478,12.2934232 C11.3043478,11.9031929 11.6206943,11.5869565 12.0109246,11.5869565 C12.4010449,11.5869565 12.7173913,11.9031929 12.7173913,12.2934232" id="Fill-8" fill="#E16240"></path>
            <path d="M9.60869565,8.33701158 C9.60869565,8.72724193 9.29234921,9.04347826 8.90211886,9.04347826 C8.51199862,9.04347826 8.19565217,8.72724193 8.19565217,8.33701158 C8.19565217,7.94678123 8.51199862,7.63043478 8.90211886,7.63043478 C9.29234921,7.63043478 9.60869565,7.94678123 9.60869565,8.33701158" id="Fill-9" fill="#E16240"></path>
            <path d="M4.23913043,7.20646668 C4.23913043,7.59669703 3.92278399,7.91304348 3.53255364,7.91304348 C3.14232329,7.91304348 2.82608696,7.59669703 2.82608696,7.20646668 C2.82608696,6.81634644 3.14232329,6.5 3.53255364,6.5 C3.92278399,6.5 4.23913043,6.81634644 4.23913043,7.20646668" id="Fill-10" fill="#E16240"></path>
            <path d="M4.23913043,11.1630985 C4.23913043,11.5532188 3.92278399,11.8695652 3.53255364,11.8695652 C3.14232329,11.8695652 2.82608696,11.5532188 2.82608696,11.1630985 C2.82608696,10.7728682 3.14232329,10.4565217 3.53255364,10.4565217 C3.92278399,10.4565217 4.23913043,10.7728682 4.23913043,11.1630985" id="Fill-11" fill="#E16240"></path>
        </g>
        <rect id="Rectangle" fill-opacity="0" fill="#FFFFFF" x="-150" y="-105" width="316" height="225"></rect>
    </g>
</svg>