<?xml version="1.0" encoding="UTF-8"?>
<svg width="240px" height="64px" viewBox="0 0 240 64" version="1.1" xmlns="http://www.w3.org/2000/svg" xmlns:xlink="http://www.w3.org/1999/xlink">
    <!-- Generator: Sketch 55.2 (78181) - https://sketchapp.com -->
    <title>CS_new_logo 240x64</title>
    <desc>Created with Sketch.</desc>
    <g id="CS_new_logo-240x64" stroke="none" stroke-width="1" fill="none" fill-rule="evenodd">
        <g id="Group-Copy-2" transform="translate(8.000000, 4.000000)">
            <path d="M32.3721401,32.3084084 C31.1812453,33.5017791 29.5738148,34.182854 27.854739,34.182854 C24.326359,34.182854 21.4663222,31.3175469 21.4663222,27.7827233 C21.4663222,24.2482882 24.3264152,21.3830375 27.854739,21.3830375 C29.344997,21.3830375 30.7532199,21.8940141 31.884681,22.8165169 L33.6721907,20.6163727 C32.0402101,19.2857863 30.0022134,18.5462949 27.854739,18.5462949 C22.7624594,18.5462949 18.6345748,22.6816236 18.6345748,27.7827233 C18.6345748,32.8841867 22.7623783,37.0195965 27.854739,37.0195965 C30.3326264,37.0195965 32.6580323,36.0343125 34.3748026,34.3139729 L32.3721401,32.3084084 Z" id="Stroke-1" fill="#E16240" fill-rule="nonzero"></path>
            <path d="M21.8435894,16.5005633 L20.5201804,13.9933833 C22.7338811,12.8129419 25.2068724,12.1869282 27.7668768,12.1869282 C36.3173279,12.1869282 43.2489805,19.1540708 43.2489805,27.7479618 C43.2489805,36.3422222 36.3174032,43.3094405 27.7668768,43.3094405 C19.2163504,43.3094405 12.2847731,36.3422222 12.2847731,27.7479618 L15.1085572,27.7479618 C15.1085572,34.7747662 20.7759108,40.4712604 27.7668768,40.4712604 C34.7578428,40.4712604 40.4251964,34.7747662 40.4251964,27.7479618 C40.4251964,20.7215406 34.7577812,15.0251083 27.7668768,15.0251083 C25.6710695,15.0251083 23.652086,15.5361944 21.8435894,16.5005633 Z M14.6615462,41.270896 L12.6910458,43.3038011 C8.54411075,39.2430757 6.16118675,33.6843918 6.16118675,27.7479618 C6.16118675,15.7548104 15.834558,6.0321229 27.7668768,6.0321229 C39.6994903,6.0321229 49.3725669,15.7546615 49.3725669,27.7479618 C49.3725669,36.5437711 44.1218391,44.3671148 36.2041949,47.7460297 L35.1005944,45.1335821 C41.9842157,42.1959444 46.5487828,35.3949486 46.5487828,27.7479618 C46.5487828,17.3221355 38.1399478,8.87030305 27.7668768,8.87030305 C17.3940909,8.87030305 8.98497085,17.322294 8.98497085,27.7479618 C8.98497085,32.9108928 11.0547366,37.7390675 14.6615462,41.270896 Z" id="Stroke-2" fill="#465191" fill-rule="nonzero"></path>
            <path d="M43.4789708,46.8761393 C39.0682058,50.5662804 33.52424,52.6199477 27.6622945,52.6199477 C14.0050343,52.6199477 2.93357459,41.5000083 2.93357459,27.7829457 C2.93357459,14.0658832 14.0050343,2.94594376 27.6622945,2.94594376 C33.4460366,2.94594376 38.9210067,4.94500225 43.3055117,8.54590237 L45.0223052,6.43716437 C40.1576921,2.44196173 34.0776401,0.221971592 27.6622945,0.221971592 C12.5071848,0.221971592 0.221478146,12.5614749 0.221478146,27.7829457 C0.221478146,43.0044166 12.5071848,55.3439199 27.6622945,55.3439199 C34.1644291,55.3439199 40.3210711,53.0632971 45.2147709,48.9691223 L43.4789708,46.8761393 Z" id="Stroke-3" fill="#465191" fill-rule="nonzero"></path>
            <path d="M36.6021934,23.4627974 C36.6021934,25.0257629 35.3389234,26.2931634 33.7806119,26.2931634 C32.2227402,26.2931634 30.9594702,25.0257629 30.9594702,23.4627974 C30.9594702,21.8993908 32.2227402,20.6319903 33.7806119,20.6319903 C35.3389234,20.6319903 36.6021934,21.8993908 36.6021934,23.4627974" id="Fill-4" fill="#E16240"></path>
            <path d="M24.277298,15.715929 C24.277298,17.2793356 23.0144677,18.5462949 21.4561563,18.5462949 C19.8978448,18.5462949 18.6345748,17.2793356 18.6345748,15.715929 C18.6345748,14.1525223 19.8978448,12.8851219 21.4561563,12.8851219 C23.0144677,12.8851219 24.277298,14.1525223 24.277298,15.715929" id="Fill-5" fill="#E16240"></path>
            <path d="M38.384106,46.2564679 C38.384106,47.8198745 37.1212757,49.0868339 35.5629642,49.0868339 C34.0046528,49.0868339 32.7413828,47.8198745 32.7413828,46.2564679 C32.7413828,44.6930613 34.0046528,43.4256608 35.5629642,43.4256608 C37.1212757,43.4256608 38.384106,44.6930613 38.384106,46.2564679" id="Fill-6" fill="#E16240"></path>
            <path d="M48.778596,8.41599529 C48.778596,9.97940192 47.515326,11.2463613 45.9574543,11.2463613 C44.3991428,11.2463613 43.1358728,9.97940192 43.1358728,8.41599529 C43.1358728,6.85258865 44.3991428,5.58518818 45.9574543,5.58518818 C47.515326,5.58518818 48.778596,6.85258865 48.778596,8.41599529" id="Fill-7" fill="#E16240"></path>
            <path d="M48.778596,46.405005 C48.778596,47.9684116 47.515326,49.2358121 45.9574543,49.2358121 C44.3991428,49.2358121 43.1358728,47.9684116 43.1358728,46.405005 C43.1358728,44.8415984 44.3991428,43.574639 45.9574543,43.574639 C47.515326,43.574639 48.778596,44.8415984 48.778596,46.405005" id="Fill-8" fill="#E16240"></path>
            <path d="M36.6021934,31.954557 C36.6021934,33.5179636 35.3389234,34.784923 33.7806119,34.784923 C32.2227402,34.784923 30.9594702,33.5179636 30.9594702,31.954557 C30.9594702,30.3911504 32.2227402,29.1237499 33.7806119,29.1237499 C35.3389234,29.1237499 36.6021934,30.3911504 36.6021934,31.954557" id="Fill-9" fill="#E16240"></path>
            <path d="M16.5556768,27.7827252 C16.5556768,29.3461318 15.2924068,30.6135323 13.7340954,30.6135323 C12.1757839,30.6135323 10.9129536,29.3461318 10.9129536,27.7827252 C10.9129536,26.2197597 12.1757839,24.9523592 13.7340954,24.9523592 C15.2924068,24.9523592 16.5556768,26.2197597 16.5556768,27.7827252" id="Fill-10" fill="#E16240"></path>
            <path d="M16.5556768,42.3830337 C16.5556768,43.9459992 15.2924068,45.2133997 13.7340954,45.2133997 C12.1757839,45.2133997 10.9129536,43.9459992 10.9129536,42.3830337 C10.9129536,40.8196271 12.1757839,39.5522266 13.7340954,39.5522266 C15.2924068,39.5522266 16.5556768,40.8196271 16.5556768,42.3830337" id="Fill-11" fill="#E16240"></path>
            <path d="M73.4597545,16.1626431 C76.2911557,16.1626431 78.6682881,17.5639431 80.2062235,19.1407955 L77.3748223,22.3296999 C76.2213708,21.2786135 75.1377042,20.6124947 73.5295395,20.6124947 C70.3487691,20.6124947 67.8667371,23.3807863 67.8667371,27.9714363 C67.8667371,32.6667939 70.0691849,35.3998859 73.3899696,35.3998859 C75.2772741,35.3998859 76.6058546,34.5943055 77.7246359,33.3676667 L80.5560371,36.4866174 C78.6682881,38.6939435 76.1515859,39.8501831 73.3201847,39.8501831 C67.4124683,39.8501831 62.5884185,35.8204987 62.5884185,28.1465431 C62.5884185,20.5777407 67.5871529,16.1626431 73.4597545,16.1626431" id="Fill-12" fill="#465191"></path>
            <path d="M83.5258914,14.9708172 L88.6434512,14.9708172 L88.6434512,34.3827032 C88.6434512,35.4709115 89.130859,35.8217449 89.5487635,35.8217449 C89.7577158,35.8217449 89.8971649,35.8217449 90.1756203,35.7516675 L90.8020344,39.5778042 C90.2451235,39.8237446 89.3747842,39.9991613 88.2255467,39.9991613 C84.7092164,39.9991613 83.5258914,37.6825899 83.5258914,34.1720247 L83.5258914,14.9708172" id="Fill-13" fill="#465191"></path>
            <path d="M93.4488032,39.5522266 L98.584852,39.5522266 L98.584852,22.1537481 L93.4488032,22.1537481 L93.4488032,39.5522266 Z M93.0294252,16.8918759 C93.0294252,15.3133588 94.2875594,14.225926 95.9992795,14.225926 C97.7465401,14.225926 98.9691338,15.3133588 98.9691338,16.8918759 C98.9691338,18.4703929 97.7465401,19.5930625 95.9992795,19.5930625 C94.2875594,19.5930625 93.0294252,18.4703929 93.0294252,16.8918759 L93.0294252,16.8918759 Z" id="Fill-14" fill="#465191"></path>
            <polyline id="Fill-15" fill="#465191" points="102.978437 14.9708172 107.96429 14.9708172 107.96429 29.067149 108.1035 29.067149 113.577475 22.1594381 119.15608 22.1594381 113.089353 29.3128338 119.609621 39.5522266 114.065598 39.5522266 110.160619 32.7845248 107.96429 35.2739226 107.96429 39.5522266 102.978437 39.5522266 102.978437 14.9708172"></polyline>
            <path d="M124.049166,33.0174531 C125.648682,34.4187531 127.73393,35.3998859 129.611007,35.3998859 C131.731172,35.3998859 132.774238,34.5586603 132.774238,33.1925599 C132.774238,31.7556147 131.488085,31.3002479 129.506701,30.4590223 L126.586999,29.1976295 C124.223305,28.2516963 121.998834,26.2894307 121.998834,22.9606191 C121.998834,19.1759951 125.370236,16.1626431 130.062708,16.1626431 C132.66949,16.1626431 135.415494,17.2137295 137.362404,19.1759951 L134.789655,22.4348531 C133.29533,21.2786135 131.870395,20.6124947 130.062708,20.6124947 C128.324854,20.6124947 127.177923,21.3837667 127.177923,22.6799135 C127.177923,24.0816591 128.672248,24.5722255 130.653632,25.3782515 L133.538417,26.5696907 C136.284421,27.6907307 138.022718,29.5478431 138.022718,32.7719471 C138.022718,36.5565711 134.894403,39.8501831 129.506701,39.8501831 C126.552083,39.8501831 123.423768,38.729143 121.094548,36.5565711 L124.049166,33.0174531" id="Fill-16" fill="#E16240"></path>
            <path d="M148.954602,35.6906757 C151.038699,35.6906757 152.115644,33.7684757 152.115644,30.7627327 C152.115644,27.7565453 151.038699,25.8343453 148.954602,25.8343453 C146.835166,25.8343453 145.792676,27.7565453 145.792676,30.7627327 C145.792676,33.7684757 146.835166,35.6906757 148.954602,35.6906757 Z M148.954602,21.674838 C153.296839,21.674838 157.326771,24.995244 157.326771,30.7627327 C157.326771,36.5297771 153.296839,39.8501831 148.954602,39.8501831 C144.577468,39.8501831 140.547094,36.5297771 140.547094,30.7627327 C140.547094,24.995244 144.577468,21.674838 148.954602,21.674838 L148.954602,21.674838 Z" id="Fill-17" fill="#E16240"></path>
            <path d="M160.593611,22.1217727 L165.706271,22.1217727 L165.706271,32.2074104 C165.706271,34.6853319 166.367025,35.4876389 167.862788,35.4876389 C169.149798,35.4876389 169.914928,34.9298403 170.92375,33.5684034 L170.92375,22.1217727 L176.036853,22.1217727 L176.036853,39.4312794 L171.862693,39.4312794 L171.480128,37.023471 L171.376194,37.023471 C169.914928,38.7683112 168.315232,39.8501831 165.949963,39.8501831 C162.193307,39.8501831 160.593611,37.1978663 160.593611,32.8703786 L160.593611,22.1217727" id="Fill-18" fill="#E16240"></path>
            <path d="M180.640127,22.0937416 L184.801372,22.0937416 L185.148399,25.1299055 L185.286858,25.1299055 C186.535187,22.7917664 188.407901,21.674838 190.176551,21.674838 C191.147523,21.674838 191.737073,21.8146204 192.222559,22.0240722 L191.390045,26.455842 C190.766101,26.2814468 190.24578,26.1767208 189.517772,26.1767208 C188.234608,26.1767208 186.639251,27.0145281 185.737949,29.3526672 L185.737949,39.4032483 L180.640127,39.4032483 L180.640127,22.0937416" id="Fill-19" fill="#E16240"></path>
            <path d="M202.084032,21.674838 C204.204754,21.674838 205.97799,22.4788286 207.125222,23.6672593 L204.795832,26.8476669 C203.961602,26.1485639 203.196339,25.8343453 202.397034,25.8343453 C199.928385,25.8343453 198.363374,27.7565453 198.363374,30.7627327 C198.363374,33.7684757 199.997793,35.6906757 202.222849,35.6906757 C203.474415,35.6906757 204.48283,35.0964603 205.317503,34.432468 L207.368816,37.683097 C205.699471,39.15108 203.509341,39.8501831 201.63177,39.8501831 C196.834173,39.8501831 193.113515,36.5297771 193.113515,30.7627327 C193.113515,24.995244 197.320476,21.674838 202.084032,21.674838" id="Fill-20" fill="#E16240"></path>
            <path d="M219.513349,28.9796423 C219.513349,26.9876653 218.680225,25.5894593 216.633158,25.5894593 C215.036631,25.5894593 213.648386,26.6730023 213.301545,28.9796423 L219.513349,28.9796423 Z M216.528577,21.674838 C221.421856,21.674838 223.851507,25.2752407 223.851507,29.9938527 C223.851507,30.9027311 223.747367,31.7409436 223.642785,32.1609388 L213.336405,32.1609388 C213.786945,34.7822417 215.522473,35.9355617 217.812682,35.9355617 C219.097229,35.9355617 220.276752,35.5511217 221.525997,34.7822417 L223.226664,37.8928724 C221.456717,39.1159693 219.166508,39.8501831 217.118559,39.8501831 C212.19086,39.8501831 208.408265,36.4951108 208.408265,30.7627327 C208.408265,25.1352423 212.399141,21.674838 216.528577,21.674838 L216.528577,21.674838 Z" id="Fill-21" fill="#E16240"></path>
        </g>
        <rect id="Rectangle" fill-opacity="0" fill="#FFFFFF" x="-38" y="-81" width="316" height="225"></rect>
    </g>
</svg>