<svg xmlns="http://www.w3.org/2000/svg" width="24" height="24" viewBox="0 0 24 24">
    <g fill="#000" fill-rule="nonzero">
        <path d="M23.826 21.627L13.465.905A1.628 1.628 0 0 0 12 0c-.624 0-1.185.347-1.465.905L.175 21.627a1.63 1.63 0 0 0 .07 1.594c.302.486.822.776 1.394.776h20.722c.572 0 1.093-.29 1.393-.776.3-.487.327-1.083.072-1.594zm-.899 1.083a.661.661 0 0 1-.566.315H1.64a.668.668 0 0 1-.566-.315.671.671 0 0 1-.029-.648L11.405 1.34A.66.66 0 0 1 12 .972a.66.66 0 0 1 .595.368l10.36 20.722a.66.66 0 0 1-.028.648z"/>
        <path d="M12 9h1v7h-1zM11.972 18a.973.973 0 0 0 0 1.944.973.973 0 0 0 .973-.972.974.974 0 0 0-.973-.972z"/>
    </g>
</svg>
