<svg xmlns="http://www.w3.org/2000/svg" width="24" height="24" viewBox="0 0 24 24">
    <g fill="#000" fill-rule="nonzero">
        <path stroke="#FFF" d="M12.333 21.915c-5.324 0-9.654-4.33-9.654-9.655 0-4.896 3.666-8.942 8.395-9.563V1C5.408 1.627 1 6.427 1 12.26c0 6.259 5.074 11.333 11.333 11.333 5.834 0 10.634-4.408 11.26-10.074h-1.697c-.62 4.73-4.667 8.396-9.563 8.396z"/>
        <path d="M20.235 11.556H13.44a1.252 1.252 0 0 0-.762-.763V4h-.84v6.793a1.256 1.256 0 1 0 1.602 1.602h6.794v-.84z"/>
        <path stroke="#FFF" d="M16.553 4.277l.843-1.46A11.23 11.23 0 0 0 15.435 2L15 3.625c.54.17 1.058.392 1.553.652zM22.213 12.105h1.68A11.358 11.358 0 0 0 23.621 10L22 10.435c.12.54.188 1.1.213 1.67zM19.333 5.483l1.19-1.19A11.349 11.349 0 0 0 18.842 3L18 4.456c.475.304.92.649 1.333 1.027zM20.027 7.523l1.456-.84A11.362 11.362 0 0 0 20.19 5L19 6.19c.379.413.723.858 1.027 1.333zM14.67 2.892l.435-1.622A11.278 11.278 0 0 0 13 1v1.679c.57.025 1.13.094 1.67.213zM21.651 9.397l1.626-.435c-.211-.684-.487-1.34-.818-1.962L21 7.843a9.52 9.52 0 0 1 .651 1.554z"/>
    </g>
</svg>
