<svg xmlns="http://www.w3.org/2000/svg" width="24" height="24" viewBox="0 0 24 24">
    <g fill="#000" fill-rule="nonzero">
        <path d="M17.938 17.518a.38.38 0 0 0-.371.37v4.95H.742V.717h12.965V4.23h3.86v4.825a.38.38 0 0 0 .371.37.38.38 0 0 0 .371-.37V3.489h-.024c-.025-.075-.05-.149-.1-.198L14.648.074A.28.28 0 0 0 14.45 0H0v23.604h18.31v-5.69c0-.223-.174-.396-.372-.396zm-.618-14.03h-2.87V.892l2.87 2.598z"/>
        <path d="M14 15.511l.05 3.217 3.191-.52 6.953-8.511L20.904 7 14 15.511zm2.97 1.856l-2.104-1.757 5.394-6.655 2.128 1.781-5.419 6.631zm-2.203-.866l1.36 1.138-1.36.223V16.5zm8.388-6.705l-.297.371L20.73 8.41l.297-.346 2.128 1.732zM14.282 14.371a.38.38 0 0 0-.37-.371H3.371a.38.38 0 0 0-.372.371.38.38 0 0 0 .371.371h10.54a.364.364 0 0 0 .371-.37zM13.911 9H3.371A.38.38 0 0 0 3 9.371a.38.38 0 0 0 .371.371h10.54a.38.38 0 0 0 .371-.37.38.38 0 0 0-.37-.372zM3.371 19a.38.38 0 0 0-.371.371.38.38 0 0 0 .371.371h9.353a.38.38 0 0 0 .37-.37.38.38 0 0 0-.37-.372H3.37zM3.371 4.742h6.087a.38.38 0 0 0 .37-.37.38.38 0 0 0-.37-.372H3.37A.38.38 0 0 0 3 4.371c0 .198.148.371.371.371z"/>
    </g>
</svg>
