<svg xmlns="http://www.w3.org/2000/svg" width="24" height="24" viewBox="0 0 24 24">
    <g fill="#FFF" fill-rule="nonzero" stroke="#515CB1" stroke-width=".6">
        <path d="M10.104 3.375h9.511v19.23h-9.511a.695.695 0 0 0-.692.697c0 .386.31.698.692.698h10.204a.695.695 0 0 0 .692-.698V2.677a.695.695 0 0 0-.692-.698H10.104a.695.695 0 0 0-.692.698c0 .385.31.698.692.698z"/>
        <path d="M3.821 13.434l4.327 4.362c.27.272.709.272.98 0a.702.702 0 0 0 0-.987l-3.19-3.214h7.37a.695.695 0 0 0 .692-.698.695.695 0 0 0-.692-.698h-7.37l3.189-3.214a.702.702 0 0 0 0-.987.687.687 0 0 0-.98 0L3.82 12.36a.69.69 0 0 0-.194.537.693.693 0 0 0 .195.537z"/>
    </g>
</svg>
