<svg xmlns="http://www.w3.org/2000/svg" width="24" height="24" viewBox="0 0 24 24">
    <g fill="#FFF" fill-rule="nonzero">
        <path d="M10.376 1h-8.84A.536.536 0 0 0 1 1.536v8.84c0 .296.24.535.536.535h8.84c.296 0 .536-.24.536-.535v-8.84A.535.535 0 0 0 10.376 1zm-.535 8.84H2.07V2.071h7.77v7.77zM23.377 1h-8.842a.536.536 0 0 0-.535.536v8.84c0 .296.24.535.535.535h8.842c.295 0 .535-.24.535-.535v-8.84A.536.536 0 0 0 23.377 1zm-.536 8.84h-7.77V2.071h7.77v7.77zM10.376 14h-8.84a.536.536 0 0 0-.536.535v8.84c0 .296.24.536.536.536h8.84c.296 0 .536-.24.536-.535v-8.84a.535.535 0 0 0-.536-.536zm-.535 8.84H2.07V15.07h7.77v7.769zM23.377 14h-8.842a.536.536 0 0 0-.535.535v8.84c0 .296.24.536.535.536h8.842c.295 0 .535-.24.535-.535v-8.84a.536.536 0 0 0-.535-.536zm-.536 8.84h-7.77V15.07h7.77v7.769z"/>
    </g>
</svg>
