<svg xmlns="http://www.w3.org/2000/svg" width="24" height="24" viewBox="0 0 24 24">
    <path fill="#FFF" fill-rule="nonzero" d="M23.488 6.374c0-.647-.54-1.174-1.206-1.174h-6.287V3.621c0-.894-.747-1.621-1.666-1.621h-4.157c-.92 0-1.667.727-1.667 1.621v1.58H2.22c-.665 0-1.207.526-1.207 1.172L1 11.958c0 .181.106.347.273.426.256.12.52.232.785.343v7.599c0 .647.54 1.174 1.206 1.174h17.972c.665 0 1.206-.527 1.206-1.174v-7.713c.272-.122.539-.248.8-.382a.47.47 0 0 0 .258-.418l-.012-5.439zM9.475 3.621c0-.373.313-.677.697-.677h4.157c.377 0 .696.31.696.677v1.58h-5.55V3.62zm11.998 16.705a.24.24 0 0 1-.237.23H3.264a.237.237 0 0 1-.236-.23V13.1c2.11.754 4.47 1.207 7.041 1.346v.654c0 .475.397.861.885.861h2.593a.874.874 0 0 0 .884-.86v-.662c2.606-.154 4.965-.632 7.041-1.425v7.31zm-10.434-5.307v-1.566h2.423v1.566h-2.423zm3.392-1.528v-.12a.874.874 0 0 0-.884-.862h-2.593a.874.874 0 0 0-.885.862v.13c-3.038-.17-5.76-.786-8.098-1.84l.011-5.287c0-.124.109-.23.237-.23h20.063c.128 0 .237.105.237.231l.01 5.151c-2.28 1.118-5.004 1.775-8.098 1.965z"/>
</svg>
