<svg xmlns="http://www.w3.org/2000/svg" width="24" height="24" viewBox="0 0 24 24">
    <path fill="#FFF" fill-rule="nonzero" d="M12.292 12.983c1.142-.125 2.093-.56 2.822-1.37 1.807-2.022 1.522-5.476 1.49-5.787-.19-3.92-3.107-4.885-4.85-4.823-1.713-.062-4.661.902-4.851 4.823-.032.311-.35 3.765 1.49 5.788.729.809 1.648 1.244 2.821 1.369v.03H11.817l.475-.03zm-.539-1.027h-.063c-1.078 0-1.934-.342-2.568-1.058-1.554-1.712-1.237-4.979-1.205-5.01v-.031c.063-1.65.698-2.8 1.839-3.392.793-.435 1.617-.466 1.87-.466h.159c.095 0 1.046-.032 1.934.466 1.141.591 1.744 1.743 1.839 3.392v.031c0 .031.349 3.298-1.205 5.01-.666.716-1.522 1.058-2.6 1.058zm9.734 6.908v.062c0 .249 0 1.462-.222 2.085l-.064.155-.126.094c-.159.093-3.551 2.24-9.29 2.24v-1.027c4.756 0 7.863-1.587 8.56-1.96.064-.218.096-.56.096-.903h-.032l.032-.684c.063-.903-.032-2.49-1.332-2.8-2.378-.592-4.28-1.899-4.375-1.96l.317-.437.317-.435c.031 0 1.839 1.244 4.026 1.805 1.427.342 2.22 1.711 2.093 3.765zm-19.467.093c-.159-2.085.634-3.485 2.124-3.858 2.188-.56 3.995-1.774 4.027-1.805l.602.84c-.095.062-1.997 1.37-4.375 1.96-1.332.343-1.395 1.898-1.332 2.8v.063c0 .436.032 1.151.127 1.525.73.404 3.836 1.96 8.56 1.96v1.027c-5.738 0-9.162-2.147-9.29-2.24l-.126-.094-.063-.155c-.254-.56-.254-1.743-.254-2.023z"/>
</svg>
