<svg xmlns="http://www.w3.org/2000/svg" width="24" height="24" viewBox="0 0 24 24">
    <g fill="#FFF" fill-rule="nonzero">
        <path d="M17.817 17.423a.357.357 0 0 0-.348.348v4.639H1.696V1.673H13.85v3.293h3.618V9.49c0 .185.162.348.348.348a.357.357 0 0 0 .348-.348V4.27h-.023c-.023-.069-.047-.139-.093-.185L14.732 1.07a.263.263 0 0 0-.186-.07H1v22.129h17.165v-5.335c0-.209-.162-.371-.348-.371zm-.58-13.152h-2.69V1.835l2.69 2.436z"/>
        <path d="M14 15.98l.046 3.015 2.993-.487 6.518-7.98L20.472 8 14 15.98zm2.784 1.74l-1.972-1.648 5.057-6.24 1.994 1.67-5.08 6.217zm-2.065-.813l1.276 1.067-1.276.209v-1.276zm7.863-6.286l-.278.348-1.995-1.647.279-.325 1.994 1.624zM14.577 14.348A.357.357 0 0 0 14.23 14H4.348a.357.357 0 0 0-.348.348c0 .186.162.348.348.348h9.881c.186 0 .348-.14.348-.348zM14.23 10H4.347a.357.357 0 0 0-.348.348c0 .186.162.348.348.348h9.881a.357.357 0 0 0 .348-.348.357.357 0 0 0-.348-.348zM4.348 18a.357.357 0 0 0-.348.348c0 .186.162.348.348.348h8.768a.357.357 0 0 0 .348-.348.357.357 0 0 0-.348-.348H4.348zM4.348 5.696h5.706a.357.357 0 0 0 .348-.348.357.357 0 0 0-.348-.348H4.348A.357.357 0 0 0 4 5.348c0 .186.14.348.348.348z"/>
    </g>
</svg>
