<svg xmlns="http://www.w3.org/2000/svg" width="24" height="24" viewBox="0 0 24 24">
    <path fill="#FFF" fill-rule="nonzero" d="M3.938 18.392c-.83 0-1.506.687-1.506 1.532 0 .844.676 1.53 1.506 1.53.831 0 1.507-.686 1.507-1.53s-.676-1.532-1.507-1.532zm0 2.342a.805.805 0 0 1-.797-.81c0-.447.358-.811.797-.811.44 0 .798.364.798.81 0 .448-.358.811-.798.811zm19.552-9.21c.057-.66-.123-1.244-.52-1.685-.492-.547-1.26-.796-1.764-.796h-1.95l-4.39-.001c.28-.972.5-2.739.067-5.016C14.7 2.796 13.951 2 13.024 2h-.029c-.82.015-1.551.659-1.63 1.436a20.166 20.166 0 0 1-.377 2.236c-.435 1.851-2.655 4.27-4.235 5.351a1.068 1.068 0 0 0-1.028-.805H2.063C1.477 10.218 1 10.703 1 11.3v10.488c0 .596.477 1.08 1.063 1.08h3.662c.416 0 .777-.244.951-.598.973.491 2.07.731 3.335.731.067 0 .134 0 .202-.002.677-.013 1.83-.02 3.525-.02 1.133 0 2.316.003 3.306.005 1.03.003 1.85.005 2.188.003 1.021-.007 1.823-.563 2.199-1.526.302-.772.072-1.388-.275-1.809.479-.166 1.023-.534 1.225-1.339.191-.765-.071-1.342-.429-1.728.504-.177.921-.517 1.106-1.216.209-.79-.072-1.52-.76-2.052.519-.266 1.104-.786 1.192-1.791zM6.08 21.788c0 .199-.16.36-.355.36H2.063a.358.358 0 0 1-.354-.36V11.3c0-.198.159-.36.354-.36h3.662c.196 0 .355.162.355.36v10.488zm16.704-10.326c-.11 1.26-1.376 1.403-1.389 1.404a.361.361 0 0 0-.104.69c.506.22 1.32.723 1.083 1.626-.147.554-.47.763-1.333.858a.357.357 0 0 0-.313.31.36.36 0 0 0 .221.384c.04.016.993.412.745 1.401-.217.865-1.073.934-1.354.934h-.002a.354.354 0 0 0-.36.27.363.363 0 0 0 .187.413c.04.02.977.498.608 1.443-.362.926-1.124 1.069-1.545 1.072-.337.002-1.156 0-2.182-.003-.99-.002-2.174-.005-3.308-.005-1.698 0-2.856.007-3.538.02-1.32.023-2.442-.227-3.411-.767v-9.66c1.68-1.007 4.364-3.781 4.888-6.012.159-.674.324-1.654.393-2.329.042-.412.48-.78.955-.789.57 0 1.047.566 1.213 1.442.49 2.583.106 4.414-.199 5.088a.365.365 0 0 0 .024.345.352.352 0 0 0 .298.166c1.631.002 3.263.002 4.895.002h1.95c.284 0 .873.153 1.241.562.263.292.377.674.337 1.135z"/>
</svg>
