<svg xmlns="http://www.w3.org/2000/svg" width="24" height="24" viewBox="0 0 24 24">
    <path fill="#FFF" fill-rule="nonzero" d="M23.78 22.772l-6.42-6.42a9.698 9.698 0 0 0 2.388-6.379c0-5.372-4.37-9.742-9.742-9.742C4.634.23.265 4.6.265 9.973c0 5.372 4.37 9.742 9.741 9.742a9.697 9.697 0 0 0 6.379-2.388l6.42 6.42a.688.688 0 0 0 .975 0 .69.69 0 0 0 0-.975zM1.644 9.973c0-4.611 3.751-8.363 8.362-8.363 4.612 0 8.363 3.752 8.363 8.363s-3.751 8.362-8.363 8.362c-4.61 0-8.362-3.751-8.362-8.362z"/>
</svg>
