<svg xmlns="http://www.w3.org/2000/svg" width="24" height="24" viewBox="0 0 24 24">
    <path fill="gray" fill-rule="nonzero" d="M22.847 7.367c0-.646-.526-1.172-1.172-1.172h-6.108V4.619A1.62 1.62 0 0 0 13.95 3h-4.04a1.62 1.62 0 0 0-1.618 1.619v1.576H2.184c-.646 0-1.172.526-1.172 1.17L1 12.942c0 .181.103.346.265.425.25.12.505.232.762.343v7.586c0 .646.526 1.172 1.173 1.172h17.459c.646 0 1.172-.525 1.172-1.172v-7.7c.263-.122.523-.248.776-.38a.47.47 0 0 0 .251-.418l-.011-5.43zM9.233 4.62c0-.373.304-.677.677-.677h4.039c.366 0 .676.31.676.677v1.576H9.233V4.619zM20.89 21.295c0 .123-.108.23-.23.23H3.199a.233.233 0 0 1-.23-.23v-7.212c2.052.753 4.343 1.204 6.841 1.343v.654c0 .474.386.86.86.86h2.519a.86.86 0 0 0 .859-.86v-.661c2.531-.154 4.823-.631 6.84-1.423v7.3zm-10.137-5.298v-1.563h2.354v1.563h-2.354zm3.296-1.525v-.12a.86.86 0 0 0-.859-.86h-2.52a.86.86 0 0 0-.859.86v.13c-2.95-.17-5.596-.785-7.867-1.837l.011-5.278c0-.125.106-.23.23-.23h19.49c.126 0 .23.105.23.23l.012 5.143c-2.217 1.117-4.863 1.773-7.868 1.962z"/>
</svg>
