<svg xmlns="http://www.w3.org/2000/svg" width="16" height="16" viewBox="0 0 16 16">
    <path fill="#3EC82C" fill-rule="nonzero" d="M13.333 2H2.667C1.194 2 0 3.151 0 4.571v6.858C0 12.849 1.194 14 2.667 14h10.666C14.806 14 16 12.849 16 11.429V4.57C16 3.151 14.806 2 13.333 2zm-10.666.857h10.666c.982.001 1.777.768 1.778 1.714v.17L8 8.373.889 4.742v-.17c.001-.947.796-1.714 1.778-1.715zm10.666 10.286H2.667c-.982-.001-1.777-.768-1.778-1.714V5.712l6.903 3.524a.46.46 0 0 0 .416 0l6.903-3.524v5.717c-.001.946-.796 1.713-1.778 1.714z"/>
</svg>
