<svg xmlns="http://www.w3.org/2000/svg" xmlns:xlink="http://www.w3.org/1999/xlink" width="159" height="56" viewBox="0 0 159 56">
    <defs>
        <path id="b" d="M0 3.005A2 2 0 0 1 2.003 1h147.819c1.106 0 2.003.896 2.003 2.005v45.193a2 2 0 0 1-2.003 2.005H2.003A2.003 2.003 0 0 1 0 48.198V3.005z"/>
        <filter id="a" width="109.1%" height="129%" x="-4.6%" y="-10.2%" filterUnits="objectBoundingBox">
            <feOffset dy="2" in="SourceAlpha" result="shadowOffsetOuter1"/>
            <feGaussianBlur in="shadowOffsetOuter1" result="shadowBlurOuter1" stdDeviation="2"/>
            <feColorMatrix in="shadowBlurOuter1" values="0 0 0 0 0 0 0 0 0 0 0 0 0 0 0 0 0 0 0.15 0"/>
        </filter>
    </defs>
    <g fill="none" fill-rule="evenodd">
        <g transform="translate(3 1)">
            <use fill="#000" filter="url(#a)" xlink:href="#b"/>
            <use fill="#507CC0" xlink:href="#b"/>
        </g>
        <path fill="#FFF" fill-rule="nonzero" d="M8 5h40.169a2 2 0 0 1 2 2v39.38a2 2 0 0 1-2 2H8a2 2 0 0 1-2-2V7a2 2 0 0 1 2-2z"/>
        <path fill="#507CC0" d="M31.288 18.986c-.467 0-.934.561-.934 1.328v2.606h4.618V26.7h-4.618v11.292h-4.41V26.701H22V22.92h3.944v-2.197c0-3.168 2.283-5.723 5.344-5.723h3.684v3.986h-3.684"/>
        <path fill="#FFF" d="M71 32.25V20.903h6.854v1.7h-4.841v3.211h4.13v1.7h-4.13v4.738H71zm10.116.209c-1.492 0-2.516-1.007-2.516-2.499 0-1.822 1.51-2.776 5.015-3.158-.035-.902-.4-1.666-1.562-1.666-.833 0-1.63.382-2.394.833l-.73-1.336c.938-.59 2.153-1.11 3.506-1.11 2.117 0 3.175 1.3 3.175 3.678v5.05h-1.648l-.139-.937h-.07c-.763.642-1.63 1.145-2.637 1.145zm.642-1.562c.694 0 1.215-.347 1.857-.937v-1.909c-2.325.295-3.089.903-3.089 1.753 0 .763.52 1.093 1.232 1.093zm9.804 1.562c-2.325 0-4.112-1.631-4.112-4.46 0-2.845 1.995-4.477 4.268-4.477 1.094 0 1.874.417 2.5.955l-.973 1.301c-.45-.399-.885-.624-1.422-.624-1.371 0-2.326 1.127-2.326 2.845 0 1.7.937 2.829 2.273 2.829.66 0 1.267-.33 1.753-.73l.816 1.32a4.255 4.255 0 0 1-2.777 1.04zm7.687 0c-2.36 0-4.199-1.649-4.199-4.46 0-2.776 1.926-4.477 3.922-4.477 2.307 0 3.522 1.666 3.522 4.044 0 .381-.035.763-.087.971h-5.414c.174 1.51 1.146 2.377 2.517 2.377.728 0 1.353-.225 1.978-.624l.676 1.25c-.815.537-1.839.919-2.915.919zm-2.273-5.275h3.783c0-1.319-.573-2.117-1.735-2.117-1.007 0-1.874.746-2.048 2.117zm11.557 5.275c-.781 0-1.614-.4-2.326-1.11h-.052l-.173.902h-1.58V20h1.996v3.158l-.052 1.423c.712-.625 1.597-1.059 2.464-1.059 2.135 0 3.367 1.701 3.367 4.321 0 2.933-1.753 4.616-3.644 4.616zm-.417-1.649c1.128 0 1.996-1.006 1.996-2.932 0-1.7-.556-2.707-1.84-2.707-.624 0-1.214.312-1.874.954V30.1c.608.52 1.215.711 1.718.711zm9.544 1.649c-2.117 0-4.043-1.631-4.043-4.46 0-2.845 1.926-4.477 4.043-4.477 2.134 0 4.06 1.632 4.06 4.477 0 2.829-1.926 4.46-4.06 4.46zm0-1.631c1.25 0 2.013-1.128 2.013-2.829 0-1.718-.764-2.845-2.013-2.845-1.25 0-1.996 1.127-1.996 2.845 0 1.7.746 2.829 1.996 2.829zm9.526 1.63c-2.117 0-4.043-1.63-4.043-4.459 0-2.845 1.926-4.477 4.043-4.477 2.134 0 4.06 1.632 4.06 4.477 0 2.829-1.926 4.46-4.06 4.46zm0-1.63c1.25 0 2.013-1.128 2.013-2.829 0-1.718-.764-2.845-2.013-2.845-1.25 0-1.995 1.127-1.995 2.845 0 1.7.746 2.829 1.995 2.829zm6.039 1.423V20h1.96v7.652h.053l3.158-3.921h2.186l-2.915 3.47 3.21 5.05h-2.17l-2.185-3.696-1.337 1.527v2.169h-1.96z"/>
    </g>
</svg>
