<svg xmlns="http://www.w3.org/2000/svg" xmlns:xlink="http://www.w3.org/1999/xlink" width="160" height="56" viewBox="0 0 160 56">
    <defs>
        <path id="b" d="M0 3.005C0 1.898.9 1 1.996 1H151.41a2 2 0 0 1 1.995 2.005v45.193c0 1.107-.9 2.005-1.995 2.005H1.996A2 2 0 0 1 0 48.198V3.005z"/>
        <filter id="a" width="109.4%" height="129%" x="-4.6%" y="-10.2%" filterUnits="objectBoundingBox">
            <feOffset dy="2" in="SourceAlpha" result="shadowOffsetOuter1"/>
            <feGaussianBlur in="shadowOffsetOuter1" result="shadowBlurOuter1" stdDeviation="2"/>
            <feColorMatrix in="shadowBlurOuter1" values="0 0 0 0 0 0 0 0 0 0 0 0 0 0 0 0 0 0 0.153164629 0"/>
        </filter>
    </defs>
    <g fill="none" fill-rule="evenodd">
        <g transform="translate(4)">
            <use fill="#000" filter="url(#a)" xlink:href="#b"/>
            <use fill="#2286FC" xlink:href="#b"/>
        </g>
        <path fill="#FFF" fill-rule="nonzero" d="M9 4h40.169a2 2 0 0 1 2 2v39.38a2 2 0 0 1-2 2H9a2 2 0 0 1-2-2V6a2 2 0 0 1 2-2z"/>
        <path fill="#3E82F1" d="M29 24v4.646h6.472a5.526 5.526 0 0 1-2.4 3.625v3.013h3.886c2.273-2.09 3.585-5.17 3.585-8.827 0-.852-.076-1.67-.218-2.457H29z"/>
        <path fill="#32A753" d="M18 28v3.134c1.985 3.951 6.066 6.661 10.783 6.661 3.258 0 5.99-1.083 7.986-2.93l-3.9-3.034c-1.08.726-2.462 1.155-4.086 1.155-3.143 0-5.803-2.128-6.752-4.986H18z"/>
        <path fill="#F9BB00" d="M18.275 21A12.12 12.12 0 0 0 17 26.417c0 1.947.463 3.79 1.275 5.417l4.002-3.125a7.294 7.294 0 0 1-.376-2.292c0-.795.137-1.568.376-2.292V21h-4.002z"/>
        <path fill="#E74133" d="M18 20.612l4.033 3.11c.949-2.837 3.61-4.949 6.754-4.949 1.772 0 3.363.606 4.614 1.796l3.462-3.443C34.773 15.189 32.04 14 28.787 14c-4.72 0-8.801 2.69-10.787 6.612"/>
        <path fill="#FFF" d="M84.344 32.459c-3.07 0-5.344-2.082-5.344-5.848 0-3.713 2.343-5.917 5.362-5.917 1.614 0 2.724.712 3.436 1.44l-1.076 1.302c-.573-.556-1.232-.99-2.29-.99-2.014 0-3.367 1.562-3.367 4.113 0 2.586 1.197 4.147 3.47 4.147.642 0 1.267-.173 1.631-.503v-2.447h-2.151v-1.648h3.956v4.997c-.763.764-2.082 1.354-3.627 1.354zm9.457 0c-2.117 0-4.043-1.631-4.043-4.46 0-2.845 1.926-4.477 4.043-4.477 2.135 0 4.06 1.632 4.06 4.477 0 2.829-1.925 4.46-4.06 4.46zm0-1.631c1.25 0 2.013-1.128 2.013-2.829 0-1.718-.763-2.845-2.013-2.845-1.249 0-1.995 1.127-1.995 2.845 0 1.7.746 2.829 1.995 2.829zm9.527 1.63c-2.117 0-4.043-1.63-4.043-4.459 0-2.845 1.926-4.477 4.043-4.477 2.134 0 4.06 1.632 4.06 4.477 0 2.829-1.926 4.46-4.06 4.46zm0-1.63c1.249 0 2.013-1.128 2.013-2.829 0-1.718-.764-2.845-2.013-2.845-1.25 0-1.996 1.127-1.996 2.845 0 1.7.746 2.829 1.996 2.829zm9.005 5.188c-2.03 0-3.54-.729-3.54-2.221 0-.712.434-1.336 1.215-1.822v-.07c-.434-.277-.763-.728-.763-1.422 0-.66.45-1.232.937-1.58v-.069a2.877 2.877 0 0 1-1.11-2.256c0-1.96 1.578-3.054 3.366-3.054.468 0 .902.087 1.249.209h3.054v1.475h-1.562c.278.33.486.85.486 1.44 0 1.891-1.423 2.898-3.227 2.898-.365 0-.781-.07-1.163-.226-.26.226-.417.434-.417.816 0 .485.348.78 1.389.78h1.51c2.047 0 3.123.625 3.123 2.1 0 1.683-1.77 3.002-4.547 3.002zm.105-7.722c.815 0 1.474-.624 1.474-1.718 0-1.058-.642-1.683-1.474-1.683-.833 0-1.493.608-1.493 1.683 0 1.094.66 1.718 1.493 1.718zm.208 6.42c1.37 0 2.308-.641 2.308-1.37 0-.66-.538-.85-1.51-.85h-1.163c-.468 0-.833-.035-1.162-.122-.451.347-.66.729-.66 1.128 0 .763.833 1.215 2.187 1.215zm7.687-2.255c-1.423 0-1.944-.92-1.944-2.395V20h1.996v10.168c0 .486.225.66.434.66.086 0 .156 0 .312-.035l.26 1.492c-.243.104-.59.174-1.058.174zm6.403 0c-2.36 0-4.2-1.649-4.2-4.46 0-2.776 1.927-4.477 3.922-4.477 2.308 0 3.523 1.666 3.523 4.044 0 .381-.035.763-.087.971h-5.414c.173 1.51 1.145 2.377 2.516 2.377.729 0 1.353-.225 1.978-.624l.677 1.25c-.816.537-1.84.919-2.915.919zm-2.273-5.275h3.782c0-1.319-.572-2.117-1.735-2.117-1.006 0-1.874.746-2.047 2.117z"/>
    </g>
</svg>
