<svg xmlns="http://www.w3.org/2000/svg" width="32" height="32" viewBox="0 0 32 32">
    <path fill="#4855B5" fill-rule="nonzero" d="M26.923 12.9h-.39v-.39C26.533 6.71 21.821 2 16.02 2S5.505 6.71 5.505 12.51v.39h-.39A3.124 3.124 0 0 0 2 16.012v5.06a3.124 3.124 0 0 0 3.115 3.115H8.62V12.899H7.062v-.389c0-4.944 4.011-8.953 8.957-8.953 4.946 0 8.957 4.01 8.957 8.953v.39h-1.558v11.288h2.22a3.142 3.142 0 0 1-3.038 2.335h-2.22a3.681 3.681 0 0 0-3.621-2.919c-2.025 0-3.7 1.674-3.7 3.698S14.734 31 16.76 31a3.681 3.681 0 0 0 3.622-2.92h2.22a4.654 4.654 0 0 0 4.594-3.892A3.128 3.128 0 0 0 30 21.074v-5.06c.04-1.713-1.324-3.115-3.076-3.115z"/>
</svg>
