<svg xmlns="http://www.w3.org/2000/svg" width="24" height="24" viewBox="0 0 24 24">
    <g fill="none" fill-rule="evenodd">
        <path d="M0 0h24v24H0z"/>
        <path fill="#000" fill-rule="nonzero" stroke="#FFF" stroke-width=".4" d="M19.824 3.643H16.87V1.64A.631.631 0 0 0 16.25 1a.631.631 0 0 0-.622.64v2.003H8.373V1.64A.631.631 0 0 0 7.751 1a.631.631 0 0 0-.621.64v2.003H4.176C2.976 3.643 2 4.648 2 5.883V20.76C2 21.995 2.976 23 4.176 23h15.648c1.2 0 2.176-1.005 2.176-2.24V5.884c0-1.236-.976-2.24-2.176-2.24zM4.176 4.923H7.13v2.158c0 .353.278.64.621.64a.631.631 0 0 0 .622-.64V4.923h7.254v2.158c0 .353.278.64.622.64a.631.631 0 0 0 .621-.64V4.923h2.954c.514 0 .932.431.932.96v4.725H3.244V5.884c0-.53.418-.96.932-.96zM19.824 21.72H4.176c-.514 0-.932-.43-.932-.96v-8.872h17.512v8.872c0 .53-.418.96-.932.96z" opacity=".502"/>
    </g>
</svg>
