<svg xmlns="http://www.w3.org/2000/svg" width="16" height="16" viewBox="0 0 16 16">
    <path fill="#F9683D" fill-rule="nonzero" stroke="#FB6733" stroke-width=".5" d="M13.833 1.776v-.578a.543.543 0 0 0-.553-.531h-.458a.543.543 0 0 0-.553.53v.568H8.705v-.567A.543.543 0 0 0 8.15.667h-.457a.543.543 0 0 0-.554.53v.568H3.576v-.567a.543.543 0 0 0-.553-.531h-.458a.543.543 0 0 0-.553.53v.59c-.769.12-1.345.754-1.345 1.522v10.914c0 .852.721 1.544 1.608 1.544h11.37c.886 0 1.607-.693 1.607-1.544V3.31c0-.79-.621-1.442-1.419-1.533zm-1.144-.578c0-.07.06-.128.133-.128h.458a.13.13 0 0 1 .133.128v1.537a.13.13 0 0 1-.133.128h-.458a.13.13 0 0 1-.133-.128V1.198zm-5.128 0c0-.07.06-.128.133-.128h.457a.13.13 0 0 1 .134.128v1.537a.13.13 0 0 1-.134.128h-.457a.13.13 0 0 1-.133-.128V1.198zm-5.129 0c0-.07.06-.128.133-.128h.458a.13.13 0 0 1 .133.128v1.537a.13.13 0 0 1-.133.128h-.458a.13.13 0 0 1-.133-.128V1.198zm-.42 1v.537c0 .293.248.531.553.531h.458a.543.543 0 0 0 .553-.53v-.568h3.565v.567c0 .293.248.531.553.531h.458a.543.543 0 0 0 .553-.53v-.568h3.565v.567c0 .293.248.531.553.531h.457a.543.543 0 0 0 .554-.53v-.552c.565.087.999.558.999 1.125V5.27H1.087V3.309c0-.545.392-.998.925-1.112zm11.632 13.166H2.274c-.654 0-1.187-.512-1.187-1.14v-8.55h13.745v8.55c0 .628-.533 1.14-1.188 1.14z"/>
</svg>
