<svg xmlns="http://www.w3.org/2000/svg" width="24" height="24" viewBox="0 0 24 24">
    <path fill="#FFF" fill-rule="nonzero" d="M17.87 15.176c-1.031 0-1.944.508-2.515 1.286L9.12 12.685a3.192 3.192 0 0 0 0-1.87l6.234-3.777a3.116 3.116 0 0 0 2.514 1.286C19.595 8.324 21 6.906 21 5.162S19.596 2 17.87 2s-3.131 1.418-3.131 3.162c0 .325.048.64.14.935L8.645 9.875a3.114 3.114 0 0 0-2.514-1.287C4.405 8.588 3 10.006 3 11.75s1.404 3.162 3.13 3.162c1.031 0 1.944-.508 2.515-1.286l6.234 3.777c-.09.296-.14.61-.14.935 0 1.744 1.404 3.162 3.13 3.162S21 20.082 21 18.338s-1.405-3.162-3.13-3.162zm0-12.121a2.1 2.1 0 0 1 2.086 2.108 2.1 2.1 0 0 1-2.087 2.108 2.1 2.1 0 0 1-2.087-2.108 2.1 2.1 0 0 1 2.087-2.108zM6.13 13.858a2.1 2.1 0 0 1-2.086-2.108A2.1 2.1 0 0 1 6.13 9.642a2.1 2.1 0 0 1 2.087 2.108 2.1 2.1 0 0 1-2.087 2.108zm11.74 6.587a2.1 2.1 0 0 1-2.088-2.108 2.1 2.1 0 0 1 2.087-2.108 2.1 2.1 0 0 1 2.087 2.108 2.1 2.1 0 0 1-2.087 2.108z"/>
</svg>
