<svg xmlns="http://www.w3.org/2000/svg" width="24" height="24" viewBox="0 0 24 24">
    <path fill="#FFF" fill-rule="nonzero" d="M13.23 10.034h-2.455v1.457h.495v5.226h-.495v1.457h2.95v-1.457h-.496v-6.683zM23.5 12.25C23.5 6.037 18.463 1 12.25 1S1 6.037 1 12.25 6.037 23.5 12.25 23.5 23.5 18.463 23.5 12.25zM12.25 2.274a9.975 9.975 0 0 1 9.977 9.976 9.975 9.975 0 0 1-9.977 9.977 9.975 9.975 0 0 1-9.976-9.977 9.975 9.975 0 0 1 9.976-9.976zm-1.137 5.19a1.136 1.136 0 1 0 2.273-.002 1.136 1.136 0 0 0-2.273.001z"/>
</svg>
