<svg xmlns="http://www.w3.org/2000/svg" width="24" height="24" viewBox="0 0 24 24">
    <g fill="none" fill-rule="evenodd" opacity=".497">
        <path d="M0 0h24v24H0z"/>
        <path fill="#000" fill-rule="nonzero" stroke="#020202" stroke-width=".5" d="M12 0c-1.116 0-2.027.878-2.027 1.953 0 .981.758 1.791 1.737 1.928a.27.27 0 0 0 0 .026v3.628a.27.27 0 0 0 0 .017 4.66 4.66 0 0 0-3.546 1.954c-.011.016-.016.036-.027.052a.289.289 0 0 0-.036-.026L4.943 7.596c.297-.86-.059-1.84-.904-2.311-.966-.538-2.21-.216-2.769.715-.557.931-.224 2.13.742 2.669.916.509 2.084.245 2.678-.576l3.103 1.91a.288.288 0 0 0 .045.035 4.308 4.308 0 0 0 .01 3.933.294.294 0 0 0-.055.026l-3.13 1.919c-.603-.79-1.75-1.033-2.65-.532-.967.537-1.3 1.737-.743 2.668.558.932 1.803 1.253 2.769.715.863-.48 1.217-1.48.886-2.354l3.176-1.945a.294.294 0 0 0 .036-.017 4.656 4.656 0 0 0 3.573 1.997v3.645a.27.27 0 0 0 0 .026c-.979.137-1.737.947-1.737 1.928C9.973 23.122 10.884 24 12 24s2.027-.878 2.027-1.953c0-.981-.758-1.791-1.737-1.928v-3.654-.017a4.656 4.656 0 0 0 3.573-1.997.294.294 0 0 0 .036.017l3.176 1.945c-.331.873.023 1.874.886 2.354.966.538 2.21.217 2.769-.715.557-.931.224-2.13-.742-2.668-.9-.501-2.048-.257-2.65.532l-3.131-1.919a.294.294 0 0 0-.054-.026 4.304 4.304 0 0 0 .009-3.933.288.288 0 0 0 .045-.035l3.103-1.91c.594.821 1.762 1.085 2.678.576.966-.538 1.3-1.738.742-2.669s-1.803-1.253-2.769-.715a1.929 1.929 0 0 0-.904 2.31l-3.158 1.937a.289.289 0 0 0-.036.026 4.65 4.65 0 0 0-3.573-2.006.27.27 0 0 0 0-.017V3.907 3.88c.979-.137 1.737-.947 1.737-1.928C14.027.878 13.116 0 12 0zm0 .558c.803 0 1.448.622 1.448 1.395 0 .774-.645 1.396-1.448 1.396-.803 0-1.448-.622-1.448-1.396 0-.773.645-1.395 1.448-1.395zM2.926 5.581a1.48 1.48 0 0 1 .823.183c.695.387.935 1.24.534 1.91-.401.67-1.286.902-1.981.515-.695-.387-.935-1.24-.534-1.91.25-.419.695-.667 1.158-.698zm18.148 0c.463.031.907.28 1.158.698.401.67.161 1.523-.534 1.91-.695.387-1.58.155-1.981-.515s-.161-1.523.534-1.91a1.48 1.48 0 0 1 .823-.183zM12 8.093c2.242 0 4.053 1.746 4.053 3.907S14.242 15.907 12 15.907 7.947 14.16 7.947 12c0-.135.004-.27.018-.401C8.172 9.626 9.898 8.093 12 8.093zM3.125 15.68c.463.031.907.279 1.158.698.401.67.161 1.523-.534 1.91-.695.387-1.58.155-1.981-.515s-.161-1.514.534-1.901c.26-.145.545-.21.823-.192zm17.75 0c.278-.019.563.047.823.192.695.387.935 1.23.534 1.901-.401.67-1.286.902-1.981.515-.695-.387-.935-1.24-.534-1.91.25-.42.695-.667 1.158-.698zM12 20.651c.803 0 1.448.621 1.448 1.395s-.645 1.396-1.448 1.396c-.803 0-1.448-.622-1.448-1.396 0-.774.645-1.395 1.448-1.395z"/>
    </g>
</svg>
