<svg xmlns="http://www.w3.org/2000/svg" width="22" height="22" viewBox="0 0 22 22">
    <path fill="#FFF" fill-rule="evenodd" d="M19.936 5.422l-.646.646-3.355-3.354.643-.65a2.374 2.374 0 1 1 3.358 3.358zM3.356 15.857l2.787 2.787-4.327 1.54 1.54-4.327zm4.042 2.097l-3.355-3.355 10.92-10.912 3.354 3.354-10.92 10.913zM20.905 1.095a3.75 3.75 0 0 0-5.296 0l-13.02 13.02a.7.7 0 0 0-.092.113l-.018.034a.68.68 0 0 0-.048.096L.04 21.085a.687.687 0 0 0 .876.876l6.716-2.385a.64.64 0 0 0 .093-.045l.035-.017a.682.682 0 0 0 .113-.093L19.771 7.526l1.13-1.131a3.75 3.75 0 0 0 .004-5.3z"/>
</svg>
