<svg xmlns="http://www.w3.org/2000/svg" width="25" height="18" viewBox="0 0 25 18">
    <path fill="#4855B5" fill-rule="evenodd" d="M17.12 14.625H1.63c-.9 0-1.63.755-1.63 1.687C0 17.245.73 18 1.63 18h15.49c.9 0 1.63-.755 1.63-1.688 0-.932-.73-1.687-1.63-1.687m3.124-7.312H1.63C.73 7.313 0 8.068 0 9s.73 1.687 1.63 1.687h18.614c.901 0 1.631-.755 1.631-1.687s-.73-1.687-1.63-1.687M0 1.688C0 .755.73 0 1.63 0h21.74c.9 0 1.63.755 1.63 1.688 0 .932-.73 1.687-1.63 1.687H1.63C.73 3.375 0 2.62 0 1.688"/>
</svg>
