<svg xmlns="http://www.w3.org/2000/svg" width="24" height="24" viewBox="0 0 24 24">
    <path fill="#F9683D" fill-rule="evenodd" d="M19.792 22.081a2.272 2.272 0 0 1-2.292-2.296 2.271 2.271 0 0 1 2.292-2.296 2.271 2.271 0 0 1 2.291 2.296 2.272 2.272 0 0 1-2.291 2.296m-2.842-3.72c0 .046-.046.046-.046.092 0-.046 0-.092.046-.092M4.208 14.273a2.272 2.272 0 0 1-2.291-2.296 2.272 2.272 0 0 1 2.291-2.296A2.272 2.272 0 0 1 6.5 11.977a2.272 2.272 0 0 1-2.292 2.296m12.742-8.68c0-.046-.046-.046-.046-.092 0 .046 0 .092.046.092m2.842-3.72a2.272 2.272 0 0 1 2.291 2.296 2.272 2.272 0 0 1-2.291 2.297A2.272 2.272 0 0 1 17.5 4.169a2.272 2.272 0 0 1 2.292-2.296m0 14.697c-1.1 0-2.063.551-2.659 1.424l-9.945-4.869c.137-.367.229-.735.229-1.148 0-.413-.092-.827-.23-1.148l9.946-4.823c.596.872 1.559 1.424 2.659 1.424A3.192 3.192 0 0 0 23 4.215 3.192 3.192 0 0 0 19.792 1a3.192 3.192 0 0 0-3.209 3.215c0 .322.046.689.138.965l-9.992 4.822c-.596-.735-1.466-1.24-2.52-1.24A3.192 3.192 0 0 0 1 11.977c0 1.79 1.42 3.215 3.208 3.215 1.054 0 1.925-.506 2.521-1.24l9.992 4.868a3.276 3.276 0 0 0-.138.965c0 1.79 1.421 3.215 3.209 3.215A3.192 3.192 0 0 0 23 19.785a3.192 3.192 0 0 0-3.208-3.215"/>
</svg>
