<svg xmlns="http://www.w3.org/2000/svg" width="32" height="32" viewBox="0 0 32 32">
    <path fill="#4754B4" fill-rule="nonzero" d="M9.076 21.56C5.328 22.224 3 23.37 3 25.018c0 2.455 5.667 4 12.77 4s12.77-1.545 12.77-4c0-1.646-2.32-2.79-6.055-3.456a.712.712 0 1 0-.25 1.403c3.034.541 4.88 1.451 4.88 2.053 0 .424-1.058 1.106-3.007 1.638-2.18.595-5.156.938-8.338.938-3.182 0-6.158-.343-8.338-.938-1.95-.532-3.007-1.214-3.007-1.638 0-.603 1.855-1.516 4.9-2.056a.712.712 0 0 0-.25-1.404zM15.843 2c-4.876 0-8.842 3.966-8.842 8.842 0 6.13 7.981 14.182 8.32 14.522a.74.74 0 0 0 1.044 0c.339-.34 8.32-8.393 8.32-14.522C24.685 5.966 20.72 2 15.843 2zm0 21.777c-1.76-1.884-7.368-8.253-7.368-12.935 0-4.063 3.305-7.368 7.368-7.368 4.063 0 7.369 3.305 7.369 7.368 0 4.678-5.61 11.051-7.369 12.935zm0-17.356a4.426 4.426 0 0 0-4.421 4.421 4.426 4.426 0 0 0 4.421 4.421 4.426 4.426 0 0 0 4.421-4.42 4.426 4.426 0 0 0-4.42-4.422zm0 7.369a2.95 2.95 0 0 1-2.947-2.948 2.95 2.95 0 0 1 2.947-2.947 2.95 2.95 0 0 1 2.947 2.947 2.95 2.95 0 0 1-2.947 2.948z"/>
</svg>
