<svg xmlns="http://www.w3.org/2000/svg" width="24" height="24" viewBox="0 0 24 24">
    <g fill="#FFF" fill-rule="nonzero">
        <path d="M4.01 11.533A.534.534 0 0 0 3.477 11H.533a.534.534 0 0 0 0 1.067h2.944a.533.533 0 0 0 .533-.534zM23.477 11h-2.944a.534.534 0 0 0 0 1.067h2.944a.534.534 0 0 0 0-1.067zM3.91 3.156a.533.533 0 1 0-.754.754l2.082 2.082a.531.531 0 0 0 .754 0 .533.533 0 0 0 0-.754L3.91 3.156zM17.91 17.156a.533.533 0 1 0-.754.754l2.082 2.082a.531.531 0 0 0 .754 0 .533.533 0 0 0 0-.754l-2.082-2.082zM11.533 4.01a.534.534 0 0 0 .534-.533V.533a.534.534 0 0 0-1.067 0v2.944c0 .294.239.533.533.533zM11.533 20a.534.534 0 0 0-.533.533v2.944a.534.534 0 0 0 1.067 0v-2.944a.534.534 0 0 0-.534-.533zM17.533 6.148a.531.531 0 0 0 .377-.156l2.082-2.082a.533.533 0 1 0-.754-.754l-2.082 2.082a.533.533 0 0 0 .377.91zM5.238 17.156l-2.082 2.082a.533.533 0 1 0 .754.754l2.082-2.082a.533.533 0 1 0-.754-.754zM17.233 10.314l-2.545-.649-1.403-2.22A.952.952 0 0 0 12.477 7a.952.952 0 0 0-.809.445l-1.403 2.22-2.545.649a.951.951 0 0 0-.673.63.952.952 0 0 0 .174.907l1.678 2.02-.17 2.621a.947.947 0 0 0 .255.715.97.97 0 0 0 1.053.235l2.44-.971 2.44.971a.954.954 0 0 0 1.307-.95l-.17-2.62 1.678-2.021a.952.952 0 0 0 .174-.906.95.95 0 0 0-.673-.631zm-2.135 3.04a.533.533 0 0 0-.122.375l.173 2.658-2.475-.986a.532.532 0 0 0-.395 0l-2.474.986.172-2.658a.533.533 0 0 0-.122-.376l-1.702-2.049 2.582-.657a.532.532 0 0 0 .319-.232l1.423-2.252 1.423 2.252a.532.532 0 0 0 .318.232l2.582.657-1.702 2.05z"/>
    </g>
</svg>
