<svg xmlns="http://www.w3.org/2000/svg" width="24" height="24" viewBox="0 0 24 24">
    <path fill="#000" fill-rule="nonzero" d="M16.977 4.04c2.01.002 3.821 1.196 4.588 3.027a4.84 4.84 0 0 1-1.086 5.333l-.21.207-5.42 5.348-.965.954-.353.347-.5.493a.77.77 0 0 1-1.07 0l-.511-.51-.042-.043-1.26-1.24-.31-.303-5.108-5.032-.21-.207A4.842 4.842 0 0 1 3.422 7.07c.769-1.836 2.587-3.033 4.603-3.03a4.973 4.973 0 0 1 3.51 1.431l.21.207.755.738.743-.732.21-.207a4.984 4.984 0 0 1 3.521-1.43l.003-.007zm-.003-1.028a6.057 6.057 0 0 0-4.264 1.73l-.21.206-.21-.207c-2.352-2.32-6.168-2.322-8.522-.005a5.873 5.873 0 0 0-.006 8.394l.21.207L9.4 18.686l1.26 1.24.021.023.538.532a1.832 1.832 0 0 0 2.555 0l.5-.49 1.319-1.3 5.422-5.346.21-.207a5.865 5.865 0 0 0 1.318-6.47C21.611 4.447 19.41 3 16.97 3.004l.004.008z"/>
</svg>
