<svg xmlns="http://www.w3.org/2000/svg" width="20" height="20" viewBox="0 0 20 20">
    <g fill="#FFF" fill-rule="nonzero">
        <path d="M10 20C4.486 20 0 15.514 0 10S4.486 0 10 0s10 4.486 10 10-4.486 10-10 10zM10 .889C4.976.889.889 4.976.889 10c0 5.024 4.087 9.111 9.111 9.111 5.024 0 9.111-4.087 9.111-9.111 0-5.024-4.087-9.111-9.111-9.111z"/>
        <path d="M8.04 13.773a.443.443 0 0 1-.294-.112L4.15 10.476a.444.444 0 0 1 .59-.665l3.272 2.899 6.178-6.57a.444.444 0 1 1 .647.609l-6.472 6.884a.444.444 0 0 1-.324.14z"/>
    </g>
</svg>
