<svg xmlns="http://www.w3.org/2000/svg" width="24" height="24" viewBox="0 0 24 24">
    <g fill="#FFF" fill-rule="nonzero">
        <path stroke="#FFF" stroke-width=".5" d="M12 23C5.935 23 1 18.065 1 12S5.935 1 12 1s11 4.935 11 11-4.935 11-11 11zm0-21.022C6.474 1.978 1.978 6.474 1.978 12S6.474 22.022 12 22.022 22.022 17.526 22.022 12 17.526 1.978 12 1.978z"/>
        <path d="M17.026 7.983a.738.738 0 1 1 1.077 1.012l-7.12 7.573a.738.738 0 0 1-1.028.047L5.999 13.11a.739.739 0 1 1 .98-1.106l3.418 3.028 6.63-7.05z"/>
    </g>
</svg>
