<?xml version="1.0" encoding="utf-8"?>
<!-- Generator: Adobe Illustrator 22.0.1, SVG Export Plug-In . SVG Version: 6.00 Build 0)  -->
<svg version="1.1" id="Layer_1" xmlns="http://www.w3.org/2000/svg" xmlns:xlink="http://www.w3.org/1999/xlink" x="0px" y="0px"
	 viewBox="0 0 61 87" style="enable-background:new 0 0 61 87;" xml:space="preserve">
<style type="text/css">
	.st0{opacity:0.294;enable-background:new    ;}
	.st1{fill:#8D8EB9;}
	.st2{fill:#3EC82C;stroke:#FFFFFF;}
</style>
<g>
	<ellipse class="st0" cx="29.5" cy="83" rx="19.5" ry="3"/>
	<path class="st1" d="M30.1,0C19.8,0,10.2,5.3,4.7,14c-5.5,8.7-6.2,19.7-1.8,29c0.6,1.2,1.3,2.4,2.1,3.5l22.9,34.3
		c0.8,1.2,2.5,1.6,3.8,0.7c0.3-0.2,0.5-0.5,0.7-0.8l22.8-34.1c6.2-9.2,6.7-21.1,1.5-30.9C51.4,6.1,41.2,0,30.1,0L30.1,0z"/>
	<ellipse class="st2" cx="30" cy="30.5" rx="23" ry="23.5"/>
</g>
</svg>
