<svg xmlns="http://www.w3.org/2000/svg" width="24" height="24" viewBox="0 0 24 24">
    <path fill="#000" fill-rule="nonzero" d="M4.06 2c-1.044 0-1.895.864-1.895 1.923 0 .537.221 1.022.575 1.373h-.034c-.866 0-1.624.58-1.624 1.373v3.57H.271a.267.267 0 0 0-.051 0 .274.274 0 0 0-.22.275v2.197c0 .152.121.275.27.275h1.895v7.965c0 .151.121.274.27.274h18.402c.15 0 .27-.123.27-.274v-7.965h1.895c.15 0 .27-.123.27-.275v-2.197a.273.273 0 0 0-.27-.275h-.812V6.67c0-.793-.758-1.373-1.623-1.373h-.034c.354-.35.575-.836.575-1.373 0-1.059-.851-1.923-1.894-1.923s-1.895.864-1.895 1.923c0 .537.221 1.022.575 1.373h-.033c-.866 0-1.624.58-1.624 1.373v3.57h-1.624V6.67c0-.793-.758-1.373-1.624-1.373h-.033c.353-.35.575-.836.575-1.373C13.53 2.864 12.679 2 11.636 2c-1.043 0-1.894.864-1.894 1.923 0 .537.221 1.022.575 1.373h-.034c-.865 0-1.623.58-1.623 1.373v3.57H7.036V6.67c0-.793-.758-1.373-1.624-1.373h-.034c.354-.35.576-.836.576-1.373C5.954 2.864 5.102 2 4.059 2zm0 .55c.75 0 1.352.61 1.352 1.373A1.36 1.36 0 0 1 4.06 5.296a1.36 1.36 0 0 1-1.353-1.373A1.36 1.36 0 0 1 4.06 2.549zm7.576 0c.75 0 1.353.61 1.353 1.373a1.36 1.36 0 0 1-1.353 1.373 1.36 1.36 0 0 1-1.353-1.373 1.36 1.36 0 0 1 1.353-1.374zm7.578 0c.75 0 1.353.61 1.353 1.373a1.36 1.36 0 0 1-1.353 1.373 1.36 1.36 0 0 1-1.353-1.373 1.36 1.36 0 0 1 1.353-1.374zM2.706 5.844h2.706c.634 0 1.083.4 1.083.824v3.57H1.624V6.67c0-.424.449-.824 1.082-.824zm7.577 0h2.706c.634 0 1.083.4 1.083.824v3.57H9.2V6.67c0-.424.449-.824 1.082-.824zm7.578 0h2.706c.633 0 1.082.4 1.082.824v3.57h-4.87V6.67c0-.424.448-.824 1.082-.824zM.54 10.79h22.19v1.648H.542v-1.648zm2.165 2.197h17.86v7.69H2.707v-7.69z"/>
</svg>
