<svg xmlns="http://www.w3.org/2000/svg" width="24" height="24" viewBox="0 0 24 24">
    <path fill="#FFF" fill-rule="nonzero" d="M3.921 17.512c-.826 0-1.497.65-1.497 1.448 0 .8.671 1.45 1.497 1.45.826 0 1.497-.65 1.497-1.45 0-.798-.671-1.448-1.497-1.448zm0 2.216a.781.781 0 0 1-.792-.768c0-.422.355-.767.792-.767.437 0 .793.345.793.767a.78.78 0 0 1-.793.767zm19.437-8.715c.057-.626-.122-1.178-.517-1.595-.49-.518-1.252-.753-1.754-.753h-1.939c-1.455 0-2.91 0-4.364-.002.28-.92.498-2.591.068-4.746C14.62 2.753 13.875 2 12.954 2h-.03c-.814.014-1.541.623-1.62 1.358a18.243 18.243 0 0 1-.375 2.117c-.432 1.752-2.639 4.041-4.21 5.063a1.053 1.053 0 0 0-1.022-.761h-3.64C1.474 9.777 1 10.236 1 10.8v9.924c0 .564.474 1.023 1.057 1.023h3.64c.414 0 .773-.232.946-.567.967.465 2.057.692 3.315.692l.2-.002c.674-.013 1.82-.019 3.505-.019 1.127 0 2.303.003 3.287.005 1.024.002 1.84.004 2.175.002 1.015-.006 1.812-.533 2.186-1.444.3-.73.072-1.313-.274-1.711.477-.158 1.018-.505 1.218-1.268.19-.723-.07-1.27-.426-1.635.501-.168.916-.49 1.1-1.15.207-.748-.072-1.439-.756-1.943.516-.25 1.097-.742 1.185-1.694zM6.05 20.723c0 .189-.158.342-.353.342h-3.64a.347.347 0 0 1-.352-.341V10.8c0-.188.158-.341.352-.341h3.64c.195 0 .353.153.353.34v9.925zm16.606-9.77c-.11 1.192-1.368 1.327-1.38 1.328a.347.347 0 0 0-.315.287.339.339 0 0 0 .21.366c.504.208 1.314.684 1.077 1.539-.145.524-.467.722-1.325.812a.347.347 0 0 0-.31.293.339.339 0 0 0 .22.363c.04.015.986.39.74 1.326-.216.819-1.067.884-1.347.884h-.001a.35.35 0 0 0-.359.255.338.338 0 0 0 .187.392c.04.018.97.47.604 1.365-.36.876-1.117 1.011-1.536 1.014-.335.002-1.149 0-2.169-.002-.984-.003-2.161-.005-3.288-.005-1.69 0-2.84.006-3.518.018-1.312.022-2.427-.214-3.391-.726v-9.14c1.67-.953 4.339-3.578 4.86-5.689a19.08 19.08 0 0 0 .39-2.204c.042-.39.477-.739.949-.747.567 0 1.041.536 1.206 1.365.488 2.444.106 4.176-.197 4.815a.33.33 0 0 0 .023.326.355.355 0 0 0 .297.157c1.621.002 3.244.002 4.866.002h1.938c.283 0 .868.144 1.235.531.261.277.374.638.334 1.075z"/>
</svg>
