<svg xmlns="http://www.w3.org/2000/svg" width="24" height="24" viewBox="0 0 24 24">
    <path fill="#FFF" fill-rule="nonzero" d="M4.146 2C3.08 2 2.21 2.91 2.21 4.024c0 .566.226 1.076.587 1.445h-.034c-.884 0-1.658.611-1.658 1.446v3.758h-.83a.264.264 0 0 0-.051 0 .286.286 0 0 0-.225.29v2.312c0 .16.124.29.276.29h1.935v8.383c0 .16.124.29.276.29h18.794c.152 0 .276-.13.276-.29v-8.384h1.935c.152 0 .276-.13.276-.289v-2.313c0-.16-.124-.289-.276-.289h-.83V6.915c0-.835-.774-1.446-1.658-1.446h-.034a2.06 2.06 0 0 0 .587-1.445c0-1.115-.87-2.024-1.935-2.024s-1.934.91-1.934 2.024c0 .566.226 1.076.587 1.445h-.034c-.885 0-1.659.611-1.659 1.446v3.758h-1.658V6.915c0-.835-.774-1.446-1.658-1.446h-.035a2.06 2.06 0 0 0 .588-1.445c0-1.115-.87-2.024-1.935-2.024s-1.935.91-1.935 2.024c0 .566.226 1.076.588 1.445h-.035c-.884 0-1.658.611-1.658 1.446v3.758H7.186V6.915c0-.835-.774-1.446-1.659-1.446h-.034a2.06 2.06 0 0 0 .587-1.445C6.08 2.909 5.21 2 4.146 2zm0 .578c.766 0 1.381.644 1.381 1.446 0 .801-.615 1.445-1.381 1.445-.767 0-1.382-.644-1.382-1.445 0-.802.615-1.446 1.382-1.446zm7.738 0c.766 0 1.382.644 1.382 1.446 0 .801-.616 1.445-1.382 1.445-.766 0-1.382-.644-1.382-1.445 0-.802.616-1.446 1.382-1.446zm7.738 0c.767 0 1.382.644 1.382 1.446 0 .801-.615 1.445-1.382 1.445-.766 0-1.381-.644-1.381-1.445 0-.802.615-1.446 1.381-1.446zM2.764 6.048h2.763c.647 0 1.106.42 1.106.867v3.758H1.658V6.915c0-.447.459-.868 1.106-.868zm7.738 0h2.764c.647 0 1.105.42 1.105.867v3.758H9.397V6.915c0-.447.458-.868 1.105-.868zm7.739 0h2.763c.647 0 1.106.42 1.106.867v3.758h-4.975V6.915c0-.447.459-.868 1.106-.868zM.553 11.25h22.662v1.735H.553V11.25zm2.21 2.313h18.241v8.095H2.764v-8.095z"/>
</svg>
