<svg xmlns="http://www.w3.org/2000/svg" width="24" height="24" viewBox="0 0 24 24">
    <path fill="#000" fill-rule="nonzero" d="M4.72 17.124c-.768 0-1.394.634-1.394 1.412 0 .78.626 1.413 1.395 1.413s1.394-.633 1.394-1.413c0-.778-.625-1.412-1.394-1.412zm0 2.16a.744.744 0 0 1-.737-.748c0-.412.33-.747.738-.747.407 0 .738.335.738.747a.744.744 0 0 1-.738.748zm18.104-8.497c.053-.61-.113-1.148-.481-1.555-.456-.504-1.167-.734-1.634-.734h-1.806l-4.065-.001c.26-.897.464-2.527.063-4.628C14.685 2.734 13.991 2 13.134 2h-.027c-.76.014-1.436.608-1.51 1.324a18.544 18.544 0 0 1-.349 2.064c-.403 1.708-2.458 3.94-3.921 4.937a.989.989 0 0 0-.952-.743h-3.39A.992.992 0 0 0 2 10.58v9.676c0 .55.442.997.984.997h3.391c.385 0 .72-.226.88-.553.901.454 1.917.675 3.089.675.062 0 .124 0 .187-.002a194.91 194.91 0 0 1 3.264-.018c1.049 0 2.144.003 3.061.005.953.002 1.713.004 2.026.002.945-.006 1.687-.52 2.036-1.408.28-.712.067-1.28-.255-1.669.444-.154.947-.492 1.134-1.235.178-.706-.065-1.238-.397-1.595.467-.163.853-.477 1.025-1.122.192-.729-.068-1.402-.704-1.893.48-.245 1.022-.725 1.103-1.653zm-16.12 9.469a.33.33 0 0 1-.329.332h-3.39a.33.33 0 0 1-.329-.332V10.58a.33.33 0 0 1 .329-.333h3.39c.181 0 .328.15.328.333v9.676zm15.466-9.527c-.101 1.162-1.274 1.294-1.286 1.295a.333.333 0 0 0-.097.636c.47.203 1.224.668 1.004 1.5-.136.512-.436.705-1.234.793a.33.33 0 0 0-.29.286.332.332 0 0 0 .205.353c.037.015.919.38.69 1.294-.201.798-.994.86-1.254.86h-.002a.327.327 0 0 0-.334.25.334.334 0 0 0 .174.382c.037.018.904.459.562 1.33-.335.855-1.04.987-1.43.99-.312.001-1.07 0-2.02-.003-.917-.002-2.013-.004-3.063-.004-1.573 0-2.645.006-3.276.018-1.222.021-2.261-.21-3.16-.708v-8.912c1.557-.93 4.042-3.489 4.528-5.547.146-.622.299-1.526.363-2.149.039-.38.445-.72.884-.728.528 0 .97.522 1.123 1.33.455 2.384.099 4.073-.184 4.695a.335.335 0 0 0 .023.318c.06.096.164.153.276.153 1.51.002 3.021.002 4.532.002h1.805c.264 0 .809.14 1.15.518.243.27.348.622.311 1.048z"/>
</svg>
