<svg xmlns="http://www.w3.org/2000/svg" width="24" height="24" viewBox="0 0 24 24">
    <path fill="#999" fill-rule="nonzero" d="M11.8 2C6.393 2 2 6.388 2 11.789c0 5.4 4.393 9.788 9.8 9.788 5.408 0 9.8-4.388 9.8-9.788C21.6 6.388 17.209 2 11.8 2zm0 .89c4.926 0 8.91 3.979 8.91 8.899 0 4.92-3.984 8.898-8.91 8.898-4.925 0-8.91-3.978-8.91-8.898s3.985-8.9 8.91-8.9zM8.41 8a.445.445 0 0 0-.264.764l3.028 3.025-3.028 3.017a.445.445 0 1 0 .627.633l3.027-3.025 3.028 3.025a.446.446 0 1 0 .627-.633l-3.028-3.017 3.028-3.025a.445.445 0 1 0-.627-.632L11.8 11.156 8.773 8.132A.446.446 0 0 0 8.41 8z"/>
</svg>
