<svg xmlns="http://www.w3.org/2000/svg" width="20" height="18" viewBox="0 0 20 18">
    <path fill="#FFF" fill-rule="nonzero" d="M14.263 1.001a4.732 4.732 0 0 1 4.37 2.915A4.698 4.698 0 0 1 17.6 9.052l-.2.199-5.161 5.15-.92.919-.336.334-.476.474a.728.728 0 0 1-1.02 0L9 15.638l-.04-.041-1.2-1.196-.296-.29L2.6 9.265l-.2-.2A4.7 4.7 0 0 1 1.355 3.92a4.734 4.734 0 0 1 4.383-2.918A4.71 4.71 0 0 1 9.082 2.38l.2.199.718.71.708-.704.2-.2a4.72 4.72 0 0 1 3.353-1.378l.002-.006zm-.002-.99A5.735 5.735 0 0 0 10.2 1.678l-.2.199-.2-.2a5.756 5.756 0 0 0-8.117-.004 5.7 5.7 0 0 0-.005 8.083l.2.199 5.17 5.15 1.2 1.196.02.021.512.512a1.73 1.73 0 0 0 2.434 0l.476-.472 1.255-1.25 5.164-5.149.2-.2a5.693 5.693 0 0 0 1.256-6.23A5.734 5.734 0 0 0 14.257.004l.004.008z"/>
</svg>
