<svg xmlns="http://www.w3.org/2000/svg" width="24" height="24" viewBox="0 0 24 24">
    <path fill="#FFF" fill-rule="nonzero" d="M16.69 3.16c2.106.001 4.003 1.334 4.806 3.375.804 2.04.355 4.388-1.137 5.946l-.22.23-5.678 5.964-1.012 1.064-.37.387-.523.549a.773.773 0 0 1-1.122 0l-.534-.567-.044-.049-1.32-1.384-.326-.336-5.35-5.611-.22-.23c-1.5-1.559-1.955-3.913-1.15-5.96C3.295 4.49 5.2 3.156 7.312 3.16a5.052 5.052 0 0 1 3.678 1.595l.22.231.79.823.778-.816.22-.23a5.062 5.062 0 0 1 3.69-1.597l.002-.006zm-.002-1.147c-1.675-.005-3.283.688-4.468 1.928l-.22.23-.22-.23c-2.464-2.586-6.461-2.588-8.928-.005-2.467 2.583-2.47 6.773-.006 9.36l.22.23 5.687 5.963 1.32 1.384.022.026.563.592c.74.772 1.936.772 2.677 0l.524-.546 1.381-1.449 5.68-5.961.22-.23c1.812-1.89 2.358-4.74 1.381-7.215-.976-2.477-3.282-4.09-5.838-4.086l.005.01z"/>
</svg>
