<svg xmlns="http://www.w3.org/2000/svg" width="24" height="24" viewBox="0 0 24 24">
    <path fill="#FFF" fill-rule="nonzero" d="M20.26 4.472l-3.239 1.3-.362-.278a7.966 7.966 0 0 0-1.843-1.07l-.424-.173-.065-.453L13.897.8H9.454l-.495 3.45-.423.174A8.401 8.401 0 0 0 6.683 5.5l-.36.27-.418-.168-2.815-1.13L.863 8.326l2.746 2.147-.056.45A8.636 8.636 0 0 0 3.475 12c0 .32.026.664.078 1.077l.056.45-.357.28-2.39 1.867 2.228 3.854 3.239-1.3.362.278a7.966 7.966 0 0 0 1.844 1.07l.423.173.065.453.43 2.998h4.444l.495-3.45.424-.174a8.401 8.401 0 0 0 1.851-1.076l.36-.27.418.168 2.815 1.13 2.228-3.853-2.747-2.148.056-.45c.053-.421.078-.749.078-1.077 0-.328-.025-.656-.078-1.077l-.056-.45.357-.28 2.39-1.867-2.228-3.854zm2.863 10.684c.228.18.288.504.144.768l-2.4 4.152a.585.585 0 0 1-.732.264l-2.988-1.2a9.22 9.22 0 0 1-2.028 1.176l-.456 3.18a.585.585 0 0 1-.588.504h-4.8a.585.585 0 0 1-.588-.504l-.456-3.18a8.767 8.767 0 0 1-2.028-1.176l-2.988 1.2a.603.603 0 0 1-.732-.264l-2.4-4.152a.605.605 0 0 1 .144-.768l2.532-1.98A9.517 9.517 0 0 1 2.675 12c0-.396.036-.792.084-1.176L.227 8.844a.592.592 0 0 1-.144-.768l2.4-4.152a.585.585 0 0 1 .732-.264l2.988 1.2a9.22 9.22 0 0 1 2.028-1.176l.456-3.18A.585.585 0 0 1 9.275 0h4.8c.3 0 .552.216.588.504l.456 3.18c.732.3 1.404.696 2.028 1.176l2.988-1.2a.603.603 0 0 1 .732.264l2.4 4.152a.605.605 0 0 1-.144.768l-2.532 1.98c.048.384.084.768.084 1.176 0 .408-.036.792-.084 1.176l2.532 1.98zm-11.448.705A3.866 3.866 0 0 0 15.536 12a3.866 3.866 0 0 0-3.86-3.86A3.866 3.866 0 0 0 7.813 12a3.866 3.866 0 0 0 3.861 3.86zm0 .908c-2.63 0-4.77-2.139-4.77-4.769 0-2.63 2.14-4.77 4.77-4.77 2.63 0 4.77 2.14 4.77 4.77 0 2.63-2.14 4.77-4.77 4.77z"/>
</svg>
