<svg xmlns="http://www.w3.org/2000/svg" width="21" height="22" viewBox="0 0 21 22">
    <path fill="#4855B5" fill-rule="evenodd" d="M9.085 1.873c-3.982 0-7.221 3.268-7.221 7.286 0 4.017 3.24 7.286 7.22 7.286 3.982 0 7.222-3.27 7.222-7.286 0-4.018-3.24-7.286-7.221-7.286M20.069 22a.91.91 0 0 1-.669-.29l-4.93-5.206a8.882 8.882 0 0 1-5.393 1.813C4.072 18.317 0 14.208 0 9.16 0 4.109 4.072 0 9.077 0c5.004 0 9.076 4.108 9.076 9.159 0 2.242-.82 4.398-2.31 6.08l4.903 5.17a.947.947 0 0 1-.037 1.33.893.893 0 0 1-.64.261"/>
</svg>
