<svg xmlns="http://www.w3.org/2000/svg" xmlns:xlink="http://www.w3.org/1999/xlink" width="458" height="458" viewBox="0 0 458 458">
    <defs>
        <circle id="b" cx="229" cy="229" r="219"/>
        <filter id="a" width="106.8%" height="106.8%" x="-3.4%" y="-3.4%" filterUnits="objectBoundingBox">
            <feOffset in="SourceAlpha" result="shadowOffsetOuter1"/>
            <feGaussianBlur in="shadowOffsetOuter1" result="shadowBlurOuter1" stdDeviation="5"/>
            <feColorMatrix in="shadowBlurOuter1" values="0 0 0 0 0.976470588 0 0 0 0 0.407843137 0 0 0 0 0.239215686 0 0 0 0.147927989 0"/>
        </filter>
    </defs>
    <g fill="none" fill-rule="evenodd">
        <g opacity=".041">
            <use fill="#000" filter="url(#a)" xlink:href="#b"/>
            <use xlink:href="#b"/>
        </g>
        <path fill="#F9683D" d="M239.419 111.705a8.707 8.707 0 0 1-8.71 8.705 8.69 8.69 0 0 1-7.254-3.89 8.6 8.6 0 0 1-1.455-4.815c0-4.807 3.9-8.705 8.71-8.705 4.81 0 8.709 3.897 8.709 8.705zm-12.419 92a8.706 8.706 0 0 1 8.71-8.705 8.69 8.69 0 0 1 7.254 3.891 8.6 8.6 0 0 1 1.455 4.814c0 4.808-3.9 8.706-8.71 8.706-4.81 0-8.709-3.898-8.709-8.706zM186.71 152a8.704 8.704 0 0 1 4.816 15.957 8.608 8.608 0 0 1-4.816 1.454c-4.81 0-8.71-3.897-8.71-8.706 0-4.807 3.9-8.705 8.71-8.705zm92 12.411a8.704 8.704 0 0 1-4.816-15.957A8.608 8.608 0 0 1 278.71 147c4.81 0 8.709 3.898 8.709 8.706s-3.9 8.705-8.71 8.705zm-50.691-30.11a17.136 17.136 0 0 1-11.68 4.57c-1.18 0-2.329-.117-3.44-.343l-6.107-6.103a6.1 6.1 0 0 1 0-8.638 6.119 6.119 0 0 1 8.643 0l11.417 11.412 1.167-.898zM237 181.57a17.136 17.136 0 0 1 11.68-4.57c1.18 0 2.329.116 3.44.342l6.106 6.103a6.1 6.1 0 0 1 0 8.639 6.118 6.118 0 0 1-8.642 0l-11.416-11.413-1.168.899zM209.306 162a17.12 17.12 0 0 1 4.572 11.675c0 1.179-.116 2.327-.342 3.439l-6.106 6.103a6.107 6.107 0 0 1-8.642 0 6.112 6.112 0 0 1 0-8.638l11.417-11.412-.899-1.167zm46.266-8.991A17.12 17.12 0 0 1 251 141.334c0-1.179.116-2.328.343-3.44l6.105-6.103a6.107 6.107 0 0 1 8.642 0 6.111 6.111 0 0 1 0 8.639l-11.417 11.412.899 1.167z"/>
        <path fill="#4855B5" d="M257.684 127.957l-24.307 18.603a10.71 10.71 0 0 1-6.54 2.211c-2.78 0-5.55-1.063-7.627-3.146l-6.21-6.207c1.112.226 2.261.342 3.44.342 4.505 0 8.612-1.729 11.68-4.57l22.132-16.934a6.121 6.121 0 0 1 8.569 1.136 6.104 6.104 0 0 1-1.137 8.565zm-50.286 60.857l24.307-18.603a10.71 10.71 0 0 1 6.54-2.211c2.78 0 5.55 1.063 7.627 3.146l6.21 6.207a17.246 17.246 0 0 0-3.44-.342 17.136 17.136 0 0 0-11.68 4.57l-22.132 16.934a6.121 6.121 0 0 1-8.569-1.136 6.104 6.104 0 0 1 1.137-8.565zm-4.436-56.417l18.611 24.296a10.697 10.697 0 0 1 2.213 6.537c0 2.78-1.064 5.547-3.148 7.624l-6.21 6.207c.226-1.112.343-2.26.343-3.44a17.12 17.12 0 0 0-4.572-11.674l-16.942-22.122a6.11 6.11 0 1 1 9.706-7.429zm59.861 50.267l-18.61-24.296A10.697 10.697 0 0 1 242 151.83c0-2.78 1.064-5.547 3.147-7.624l6.21-6.207a17.208 17.208 0 0 0-.342 3.44 17.12 17.12 0 0 0 4.572 11.674l16.942 22.121a6.11 6.11 0 1 1-9.706 7.429z"/>
        <path fill="#F9683D" d="M199.05 284.8c-4.25 0-8.75-1.6-12.05-4.7l4.2-5.05c2.35 2 5.35 3.4 8.05 3.4 3.05 0 4.55-1.2 4.55-3.15 0-2.05-1.85-2.7-4.7-3.9l-4.25-1.8c-3.35-1.35-6.55-4.15-6.55-8.9 0-5.4 4.8-9.7 11.6-9.7 3.75 0 7.7 1.5 10.5 4.3l-3.75 4.65c-2.15-1.65-4.15-2.6-6.75-2.6-2.55 0-4.15 1.1-4.15 2.95 0 2 2.15 2.7 4.95 3.85l4.2 1.7c3.95 1.6 6.45 4.25 6.45 8.85 0 5.4-4.5 10.1-12.3 10.1zm28.9 0c-6.3 0-12.1-4.75-12.1-13s5.8-13 12.1-13c6.25 0 12.05 4.75 12.05 13s-5.8 13-12.05 13zm0-5.95c3 0 4.55-2.75 4.55-7.05s-1.55-7.05-4.55-7.05c-3.05 0-4.55 2.75-4.55 7.05s1.5 7.05 4.55 7.05zm25.55 5.95c-5.4 0-7.7-3.8-7.7-10v-15.4h7.35v14.45c0 3.55.95 4.7 3.1 4.7 1.85 0 2.95-.8 4.4-2.75v-16.4H268v24.8h-6l-.55-3.45h-.15c-2.1 2.5-4.4 4.05-7.8 4.05zm21.95-.6v-24.8h6l.5 4.35h.2c1.8-3.35 4.5-4.95 7.05-4.95 1.4 0 2.25.2 2.95.5l-1.2 6.35c-.9-.25-1.65-.4-2.7-.4-1.85 0-4.15 1.2-5.45 4.55v14.4h-7.35zm31.2.6c-6.9 0-12.25-4.75-12.25-13s6.05-13 12.9-13c3.05 0 5.4 1.1 7.25 2.65l-3.45 4.75c-1.2-1-2.2-1.45-3.35-1.45-3.55 0-5.8 2.75-5.8 7.05s2.35 7.05 5.55 7.05c1.6 0 3.15-.8 4.45-1.8l2.9 4.8c-2.45 2.15-5.5 2.95-8.2 2.95zm24.65 0c-7.1 0-12.55-4.8-12.55-13 0-8.05 5.75-13 11.7-13 7.05 0 10.55 5.15 10.55 11.9 0 1.3-.15 2.65-.3 3.25h-14.85c.65 3.6 3.15 5.25 6.45 5.25 1.85 0 3.55-.55 5.35-1.65l2.45 4.45c-2.55 1.75-5.85 2.8-8.8 2.8zm-5.5-15.7h8.95c0-2.75-1.2-4.7-4.15-4.7-2.3 0-4.3 1.55-4.8 4.7z"/>
        <path fill="#4855B5" d="M113.15 284.7C104.9 284.7 98 278.95 98 268c0-10.8 7.15-17.1 15.4-17.1 4.2 0 7.6 2 9.8 4.25l-3.9 4.7c-1.65-1.5-3.4-2.6-5.75-2.6-4.45 0-8 3.95-8 10.5 0 6.7 3.1 10.6 7.9 10.6 2.65 0 4.75-1.35 6.35-3.05l3.9 4.6c-2.7 3.15-6.3 4.8-10.55 4.8zm22.65 0c-5.05 0-6.75-3.3-6.75-8.3v-27.35h7.35v27.65c0 1.55.7 2.05 1.3 2.05.3 0 .5 0 .9-.1l.9 5.45c-.8.35-2.05.6-3.7.6zm8.55-.6v-24.8h7.35v24.8h-7.35zm3.65-28.45c-2.45 0-4.25-1.6-4.25-3.85s1.8-3.8 4.25-3.8c2.5 0 4.25 1.55 4.25 3.8s-1.75 3.85-4.25 3.85zm11.15 28.45v-35.05h7.15v20.1h.2l7.85-9.85h8l-8.7 10.2 9.35 14.6h-7.95l-5.6-9.65-3.15 3.55v6.1h-7.15z"/>
        <path fill="#F9683D" d="M81.8 330.3c-2.3 0-4.325-.95-5.75-2.425l1.25-1.45c1.175 1.225 2.825 2.05 4.525 2.05 2.15 0 3.425-1.075 3.425-2.675 0-1.675-1.175-2.2-2.725-2.9l-2.35-1.025c-1.55-.65-3.325-1.825-3.325-4.225 0-2.5 2.175-4.35 5.15-4.35 1.95 0 3.675.825 4.85 2.025l-1.125 1.35c-1-.95-2.2-1.55-3.725-1.55-1.825 0-3.05.925-3.05 2.4 0 1.575 1.425 2.175 2.725 2.725l2.325 1c1.9.825 3.375 1.95 3.375 4.375 0 2.6-2.125 4.675-5.575 4.675zm8.577-.3v-12.15h1.7l.175 1.75h.075c1.05-1.15 2.325-2.05 3.775-2.05 1.85 0 2.85.875 3.35 2.325 1.275-1.375 2.525-2.325 4-2.325 2.5 0 3.7 1.65 3.7 4.75v7.7h-2.05v-7.425c0-2.275-.725-3.25-2.25-3.25-.95 0-1.925.625-3.05 1.875v8.8h-2.05v-7.425c0-2.275-.725-3.25-2.275-3.25-.9 0-1.925.625-3.05 1.875v8.8h-2.05zm23.501.3c-2.025 0-3.55-1.275-3.55-3.45 0-2.65 2.275-3.975 7.45-4.55 0-1.55-.5-3.05-2.5-3.05-1.4 0-2.675.65-3.625 1.3l-.8-1.425c1.125-.725 2.825-1.575 4.775-1.575 2.975 0 4.225 1.975 4.225 5V330h-1.7l-.175-1.45h-.075c-1.15.95-2.5 1.75-4.025 1.75zm.6-1.65c1.175 0 2.125-.575 3.3-1.625v-3.375c-4.05.5-5.45 1.5-5.45 3.05 0 1.375.95 1.95 2.15 1.95zm9.177 1.35v-12.15h1.7l.175 2.2h.075c.825-1.525 2.075-2.5 3.45-2.5.525 0 .9.075 1.3.25l-.4 1.8c-.4-.125-.675-.2-1.175-.2-1.025 0-2.25.75-3.075 2.8v7.8h-2.05zm12.476.3c-2.6 0-3.475-1.65-3.475-4.05v-6.725h-1.8v-1.55l1.9-.125.25-3.4h1.725v3.4h3.275v1.675h-3.275v6.75c0 1.5.475 2.35 1.875 2.35.425 0 .975-.175 1.375-.325l.4 1.55c-.675.225-1.5.45-2.25.45zm9.778-.3v-16.4h2.075v6.875h7.625V313.6h2.1V330h-2.1v-7.725h-7.625V330h-2.075zm16.077 0v-12.15h2.05V330h-2.05zm1.05-14.65c-.8 0-1.425-.55-1.425-1.325 0-.8.625-1.325 1.425-1.325s1.425.525 1.425 1.325c0 .775-.625 1.325-1.425 1.325zm5.077 14.65v-12.15h1.7l.175 2.2h.075c.825-1.525 2.075-2.5 3.45-2.5.524 0 .9.075 1.3.25l-.4 1.8c-.4-.125-.675-.2-1.175-.2-1.025 0-2.25.75-3.076 2.8v7.8h-2.05zm8.651 0v-12.15h2.05V330h-2.05zm1.05-14.65c-.8 0-1.425-.55-1.425-1.325 0-.8.625-1.325 1.425-1.325s1.425.525 1.425 1.325c0 .775-.625 1.325-1.425 1.325zm5.077 14.65v-12.15h1.7l.175 1.75h.075c1.15-1.15 2.4-2.05 4.075-2.05 2.55 0 3.7 1.65 3.7 4.75v7.7h-2.05v-7.425c0-2.275-.7-3.25-2.3-3.25-1.25 0-2.1.65-3.325 1.875v8.8h-2.05zm17.751 5.6c-2.975 0-5.025-1.175-5.025-3.275 0-1.025.675-2 1.775-2.75v-.1c-.6-.375-1.075-1.025-1.075-1.975 0-1.025.7-1.825 1.325-2.25v-.1c-.8-.65-1.575-1.825-1.575-3.275 0-2.65 2.1-4.325 4.575-4.325.675 0 1.275.125 1.725.3h4.225v1.575h-2.5c.575.55 1 1.475 1 2.5 0 2.6-1.975 4.225-4.45 4.225-.6 0-1.275-.15-1.825-.425-.425.375-.775.775-.775 1.45 0 .775.5 1.325 2.15 1.325h2.35c2.825 0 4.25.875 4.25 2.9 0 2.25-2.375 4.2-6.15 4.2zm0-10.825c1.4 0 2.575-1.125 2.575-2.9s-1.15-2.825-2.575-2.825c-1.425 0-2.575 1.05-2.575 2.825 0 1.775 1.175 2.9 2.575 2.9zm.3 9.4c2.325 0 3.85-1.2 3.85-2.475 0-1.125-.875-1.5-2.45-1.5h-2.1c-.475 0-1.05-.05-1.575-.2-.875.625-1.25 1.35-1.25 2.05 0 1.3 1.325 2.125 3.525 2.125zm16.403-3.875c-2.075 0-3.575-.9-4.525-2.625l1.5-1.05c.725 1.3 1.65 1.85 2.825 1.85 1.75 0 2.625-1 2.625-3.5V313.6h2.1v11.575c0 2.825-1.325 5.125-4.525 5.125zm12.277 0c-2.575 0-3.725-1.65-3.725-4.75v-7.7h2.075v7.425c0 2.275.675 3.25 2.275 3.25 1.25 0 2.125-.625 3.275-2.05v-8.625h2.05V330h-1.7l-.175-1.9h-.075c-1.125 1.325-2.325 2.2-4 2.2zm13.201 0c-1.725 0-3.375-.725-4.525-1.675l1.025-1.375c1.05.85 2.125 1.45 3.575 1.45 1.6 0 2.4-.85 2.4-1.9 0-1.25-1.45-1.8-2.775-2.3-1.725-.625-3.625-1.45-3.625-3.5 0-1.95 1.55-3.45 4.175-3.45 1.525 0 2.85.625 3.775 1.375l-.975 1.3c-.825-.625-1.7-1.075-2.775-1.075-1.525 0-2.225.825-2.225 1.75 0 1.15 1.325 1.575 2.7 2.1 1.75.65 3.7 1.375 3.7 3.675 0 1.975-1.575 3.625-4.45 3.625zm10.602 0c-2.6 0-3.475-1.65-3.475-4.05v-6.725h-1.8v-1.55l1.9-.125.25-3.4h1.725v3.4h3.275v1.675h-3.275v6.75c0 1.5.475 2.35 1.875 2.35.425 0 .975-.175 1.375-.325l.4 1.55c-.675.225-1.5.45-2.25.45zm12.603-9.475l-.775 2.5h4.925l-.775-2.5c-.6-1.825-1.125-3.625-1.65-5.525h-.1c-.5 1.9-1.025 3.7-1.625 5.525zm-5 9.175l5.55-16.4h2.35l5.55 16.4h-2.225l-1.55-5h-5.975l-1.575 5h-2.125zm26.928.3c-4.1 0-7.15-3.15-7.15-8.5 0-5.275 3.1-8.5 7.275-8.5 2 0 3.55.95 4.5 2.025l-1.125 1.35c-.875-.925-1.95-1.55-3.35-1.55-3.1 0-5.15 2.55-5.15 6.625 0 4.125 1.975 6.725 5.075 6.725 1.575 0 2.75-.7 3.8-1.85l1.15 1.3c-1.3 1.5-2.9 2.375-5.025 2.375zm10.027 0c-1.55 0-2.175-.975-2.175-2.75V312.2h2.05v15.5c0 .65.275.9.575.9.125 0 .225 0 .45-.05l.275 1.55c-.275.125-.625.2-1.175.2zm4.176-.3v-12.15h2.05V330h-2.05zm1.05-14.65c-.8 0-1.425-.55-1.425-1.325 0-.8.625-1.325 1.425-1.325s1.425.525 1.425 1.325c0 .775-.625 1.325-1.425 1.325zm5.077 14.65v-17.8h2.025v12.05h.075l5.175-6.4h2.275l-4.075 4.875 4.625 7.275h-2.25l-3.55-5.85-2.275 2.65v3.2h-2.025zm20.353-9.175l-.775 2.5h4.925l-.775-2.5c-.6-1.825-1.125-3.625-1.65-5.525h-.1c-.5 1.9-1.025 3.7-1.625 5.525zm-5 9.175l5.55-16.4h2.35l5.55 16.4h-2.225l-1.55-5h-5.975l-1.575 5h-2.125zm17.377 0l-3.375-12.15h2.1l1.8 7.025c.275 1.15.5 2.25.725 3.375h.1c.275-1.125.525-2.25.825-3.375l1.875-7.025h2l1.9 7.025c.3 1.15.575 2.25.85 3.375h.1c.275-1.125.5-2.225.75-3.375l1.775-7.025h1.95L351.14 330h-2.5l-1.75-6.525c-.3-1.15-.525-2.275-.825-3.5h-.1c-.275 1.225-.525 2.375-.85 3.525l-1.7 6.5h-2.4zm18.551.3c-2.025 0-3.55-1.275-3.55-3.45 0-2.65 2.275-3.975 7.45-4.55 0-1.55-.5-3.05-2.5-3.05-1.4 0-2.675.65-3.625 1.3l-.8-1.425c1.125-.725 2.825-1.575 4.775-1.575 2.975 0 4.225 1.975 4.225 5V330h-1.7l-.175-1.45h-.075c-1.15.95-2.5 1.75-4.025 1.75zm.6-1.65c1.175 0 2.125-.575 3.3-1.625v-3.375c-4.05.5-5.45 1.5-5.45 3.05 0 1.375.95 1.95 2.15 1.95zm9.377 6.575c-.55 0-1.025-.1-1.425-.25l.4-1.625c.25.075.625.175.925.175 1.375 0 2.25-1.1 2.75-2.6l.275-.9-4.875-12.175h2.125l2.475 6.725c.375 1.05.8 2.3 1.175 3.425h.1c.35-1.1.7-2.35 1.025-3.425l2.175-6.725h2L374.094 331c-.85 2.4-2.1 4.225-4.55 4.225z"/>
    </g>
</svg>
