<svg xmlns="http://www.w3.org/2000/svg" width="105" height="106" viewBox="0 0 105 106">
    <defs>
        <path id="a" d="M47.958 30.734a16.347 16.347 0 0 1-11.142 4.359c-1.125 0-2.22-.11-3.282-.326l-5.824-5.822a5.82 5.82 0 0 1 0-8.24 5.836 5.836 0 0 1 8.244 0l10.89 10.885 1.114-.856z"/>
        <path id="b" d="M30.74 57a16.332 16.332 0 0 1 4.36 11.137c0 1.125-.11 2.22-.326 3.28l-5.825 5.822A5.83 5.83 0 0 1 20.705 69l10.891-10.886L30.74 57z"/>
    </defs>
    <g fill="none" fill-rule="evenodd">
        <path fill="#28B4D2" d="M58.616 9.304a8.305 8.305 0 0 1-8.308 8.304 8.29 8.29 0 0 1-6.92-3.712A8.204 8.204 0 0 1 42 9.304 8.306 8.306 0 0 1 50.308 1a8.306 8.306 0 0 1 8.308 8.304M76.625 24.452L53.438 42.198a10.216 10.216 0 0 1-6.239 2.11 10.258 10.258 0 0 1-7.276-3.002L34 35.385c1.06.216 2.157.326 3.282.326 4.297 0 8.215-1.649 11.142-4.359l21.111-16.154a5.84 5.84 0 0 1 8.174 1.084 5.822 5.822 0 0 1-1.084 8.17"/>
        <path fill="#E1BA23" d="M47.958 31.734a16.347 16.347 0 0 1-11.142 4.359c-1.125 0-2.22-.11-3.282-.326l-5.824-5.822a5.82 5.82 0 0 1 0-8.24 5.837 5.837 0 0 1 8.244 0l10.89 10.886 1.114-.857z"/>
        <path d="M47.958 31.734a16.347 16.347 0 0 1-11.142 4.359c-1.125 0-2.22-.11-3.282-.326l-5.824-5.822a5.82 5.82 0 0 1 0-8.24 5.836 5.836 0 0 1 8.244 0l10.89 10.885 1.114-.856z"/>
        <path fill="#F9683D" d="M58.616 9.304a8.305 8.305 0 0 1-8.308 8.304 8.29 8.29 0 0 1-6.92-3.712A8.204 8.204 0 0 1 42 9.304 8.306 8.306 0 0 1 50.308 1a8.306 8.306 0 0 1 8.308 8.304"/>
        <path fill="#4855B5" d="M76.625 24.452L53.438 42.198a10.216 10.216 0 0 1-6.239 2.11 10.258 10.258 0 0 1-7.276-3.002L34 35.385c1.06.216 2.157.326 3.282.326 4.297 0 8.215-1.649 11.142-4.359l21.111-16.154a5.84 5.84 0 0 1 8.174 1.084 5.822 5.822 0 0 1-1.084 8.17"/>
        <path fill="#F9683D" d="M47.958 31.734a16.347 16.347 0 0 1-11.142 4.359c-1.125 0-2.22-.11-3.282-.326l-5.824-5.822a5.82 5.82 0 0 1 0-8.24 5.837 5.837 0 0 1 8.244 0l10.89 10.886 1.114-.857zM47 97.304A8.305 8.305 0 0 1 55.308 89a8.29 8.29 0 0 1 6.92 3.712 8.204 8.204 0 0 1 1.388 4.592 8.306 8.306 0 0 1-8.308 8.304A8.306 8.306 0 0 1 47 97.304"/>
        <path fill="#4855B5" d="M28.287 82.855L51.474 65.11A10.217 10.217 0 0 1 57.713 63c2.653 0 5.294 1.014 7.276 3.001l5.923 5.921a16.451 16.451 0 0 0-3.282-.326c-4.297 0-8.215 1.65-11.142 4.359l-21.11 16.154a5.84 5.84 0 0 1-8.175-1.084 5.822 5.822 0 0 1 1.084-8.17"/>
        <path fill="#F9683D" d="M57 75.36A16.346 16.346 0 0 1 68.141 71c1.126 0 2.222.11 3.283.326l5.824 5.822a5.82 5.82 0 0 1 0 8.24 5.836 5.836 0 0 1-8.244 0l-10.89-10.886L57 75.36zM8.308 48a8.303 8.303 0 0 1 4.594 15.222 8.212 8.212 0 0 1-4.594 1.387A8.306 8.306 0 0 1 0 56.304 8.306 8.306 0 0 1 8.308 48"/>
        <path fill="#28B4D2" d="M23.457 29.286L41.21 52.463a10.204 10.204 0 0 1 2.11 6.235 10.25 10.25 0 0 1-3.002 7.273l-5.923 5.921a16.44 16.44 0 0 0 .326-3.28 16.33 16.33 0 0 0-4.36-11.137L14.198 36.373a5.828 5.828 0 1 1 9.258-7.086"/>
        <path fill="#E1BA23" d="M30.74 58a16.33 16.33 0 0 1 4.36 11.137c0 1.124-.11 2.22-.326 3.28l-5.825 5.822a5.826 5.826 0 0 1-8.244 0 5.83 5.83 0 0 1 0-8.24l10.891-10.886L30.74 58z"/>
        <path d="M30.74 58a16.332 16.332 0 0 1 4.36 11.137c0 1.125-.11 2.22-.326 3.28l-5.825 5.822A5.83 5.83 0 0 1 20.705 70l10.891-10.886L30.74 58z"/>
        <path fill="#4855B5" d="M23.457 29.286L41.21 52.463a10.204 10.204 0 0 1 2.11 6.235 10.25 10.25 0 0 1-3.002 7.273l-5.923 5.921a16.44 16.44 0 0 0 .326-3.28 16.33 16.33 0 0 0-4.36-11.137L14.198 36.373a5.828 5.828 0 1 1 9.258-7.086"/>
        <path fill="#F9683D" d="M30.74 58a16.33 16.33 0 0 1 4.36 11.137c0 1.124-.11 2.22-.326 3.28l-5.825 5.822a5.826 5.826 0 0 1-8.244 0 5.83 5.83 0 0 1 0-8.24l10.891-10.886L30.74 58zM96.308 59.609a8.303 8.303 0 0 1-4.594-15.222A8.212 8.212 0 0 1 96.308 43a8.306 8.306 0 0 1 8.308 8.305 8.306 8.306 0 0 1-8.308 8.304"/>
        <path fill="#4855B5" d="M80.864 77.606L63.11 54.429A10.204 10.204 0 0 1 61 48.194a10.25 10.25 0 0 1 3.002-7.273L69.926 35a16.415 16.415 0 0 0-.326 3.28 16.33 16.33 0 0 0 4.36 11.137L90.123 70.52a5.828 5.828 0 1 1-9.258 7.086"/>
        <path fill="#F9683D" d="M74.361 48.948A16.33 16.33 0 0 1 70 37.812c0-1.125.11-2.22.327-3.281l5.824-5.822a5.826 5.826 0 0 1 8.244 0 5.83 5.83 0 0 1 0 8.24L73.504 47.835l.857 1.113z"/>
    </g>
</svg>
