<?xml version="1.0" encoding="UTF-8"?>
<svg width="316px" height="225px" viewBox="0 0 316 225" version="1.1" xmlns="http://www.w3.org/2000/svg" xmlns:xlink="http://www.w3.org/1999/xlink">
    <!-- Generator: Sketch 55.1 (78136) - https://sketchapp.com -->
    <title>logo_blurb</title>
    <desc>Created with Sketch.</desc>
    <defs>
        <path d="M23.2685714,12.5035714 C20.2003571,15.3442857 16.0932143,17.0732143 11.5885714,17.0732143 C10.4089286,17.0732143 9.26,16.9571429 8.1475,16.7310714 L2.04178571,10.6278571 C-0.347857143,8.24535714 -0.347857143,4.37214286 2.04178571,1.98964286 C4.43178571,-0.392857143 8.30035714,-0.392857143 10.6839286,1.98964286 L22.1010714,13.4014286 L23.2685714,12.5035714 Z" id="path-1"></path>
        <path d="M12.4271429,0.131785714 C15.2689286,3.19857143 16.9989286,7.30392857 16.9989286,11.8064286 C16.9989286,12.9857143 16.8825,14.1339286 16.6564286,15.2460714 L10.5507143,21.3489286 C8.16714286,23.7378571 4.29214286,23.7378571 1.90857143,21.3489286 C-0.475357143,18.9603571 -0.475357143,15.0932143 1.90857143,12.7107143 L13.3253571,1.29892857 L12.4271429,0.131785714 Z" id="path-3"></path>
    </defs>
    <g id="iPAD-Screens" stroke="none" stroke-width="1" fill="none" fill-rule="evenodd" opacity="0.949999988">
        <g id="01-ClikSource_ClientApp_TabletVersion_SplashScreen" transform="translate(-355.000000, -246.000000)">
            <g id="logo_blurb" transform="translate(283.000000, 130.000000)">
                <g transform="translate(10.000000, 10.000000)">
                    <path d="M113.45,285.6 C105.2,285.6 98.3,279.85 98.3,268.9 C98.3,258.1 105.45,251.8 113.7,251.8 C117.9,251.8 121.3,253.8 123.5,256.05 L119.6,260.75 C117.95,259.25 116.2,258.15 113.85,258.15 C109.4,258.15 105.85,262.1 105.85,268.65 C105.85,275.35 108.95,279.25 113.75,279.25 C116.4,279.25 118.5,277.9 120.1,276.2 L124,280.8 C121.3,283.95 117.7,285.6 113.45,285.6 Z M136.1,285.6 C131.05,285.6 129.35,282.3 129.35,277.3 L129.35,249.95 L136.7,249.95 L136.7,277.6 C136.7,279.15 137.4,279.65 138,279.65 C138.3,279.65 138.5,279.65 138.9,279.55 L139.8,285 C139,285.35 137.75,285.6 136.1,285.6 Z M144.65,285 L144.65,260.2 L152,260.2 L152,285 L144.65,285 Z M148.3,256.55 C145.85,256.55 144.05,254.95 144.05,252.7 C144.05,250.45 145.85,248.9 148.3,248.9 C150.8,248.9 152.55,250.45 152.55,252.7 C152.55,254.95 150.8,256.55 148.3,256.55 Z M159.45,285 L159.45,249.95 L166.6,249.95 L166.6,270.05 L166.8,270.05 L174.65,260.2 L182.65,260.2 L173.95,270.4 L183.3,285 L175.35,285 L169.75,275.35 L166.6,278.9 L166.6,285 L159.45,285 Z" id="Clik" fill="#4855B5"></path>
                    <path d="M199.2,285.6 C194.95,285.6 190.45,284 187.15,280.9 L191.35,275.85 C193.7,277.85 196.7,279.25 199.4,279.25 C202.45,279.25 203.95,278.05 203.95,276.1 C203.95,274.05 202.1,273.4 199.25,272.2 L195,270.4 C191.65,269.05 188.45,266.25 188.45,261.5 C188.45,256.1 193.25,251.8 200.05,251.8 C203.8,251.8 207.75,253.3 210.55,256.1 L206.8,260.75 C204.65,259.1 202.65,258.15 200.05,258.15 C197.5,258.15 195.9,259.25 195.9,261.1 C195.9,263.1 198.05,263.8 200.85,264.95 L205.05,266.65 C209,268.25 211.5,270.9 211.5,275.5 C211.5,280.9 207,285.6 199.2,285.6 Z M228.1,285.6 C221.8,285.6 216,280.85 216,272.6 C216,264.35 221.8,259.6 228.1,259.6 C234.35,259.6 240.15,264.35 240.15,272.6 C240.15,280.85 234.35,285.6 228.1,285.6 Z M228.1,279.65 C231.1,279.65 232.65,276.9 232.65,272.6 C232.65,268.3 231.1,265.55 228.1,265.55 C225.05,265.55 223.55,268.3 223.55,272.6 C223.55,276.9 225.05,279.65 228.1,279.65 Z M253.65,285.6 C248.25,285.6 245.95,281.8 245.95,275.6 L245.95,260.2 L253.3,260.2 L253.3,274.65 C253.3,278.2 254.25,279.35 256.4,279.35 C258.25,279.35 259.35,278.55 260.8,276.6 L260.8,260.2 L268.15,260.2 L268.15,285 L262.15,285 L261.6,281.55 L261.45,281.55 C259.35,284.05 257.05,285.6 253.65,285.6 Z M275.6,285 L275.6,260.2 L281.6,260.2 L282.1,264.55 L282.3,264.55 C284.1,261.2 286.8,259.6 289.35,259.6 C290.75,259.6 291.6,259.8 292.3,260.1 L291.1,266.45 C290.2,266.2 289.45,266.05 288.4,266.05 C286.55,266.05 284.25,267.25 282.95,270.6 L282.95,285 L275.6,285 Z M306.8,285.6 C299.9,285.6 294.55,280.85 294.55,272.6 C294.55,264.35 300.6,259.6 307.45,259.6 C310.5,259.6 312.85,260.7 314.7,262.25 L311.25,267 C310.05,266 309.05,265.55 307.9,265.55 C304.35,265.55 302.1,268.3 302.1,272.6 C302.1,276.9 304.45,279.65 307.65,279.65 C309.25,279.65 310.8,278.85 312.1,277.85 L315,282.65 C312.55,284.8 309.5,285.6 306.8,285.6 Z M331.45,285.6 C324.35,285.6 318.9,280.8 318.9,272.6 C318.9,264.55 324.65,259.6 330.6,259.6 C337.65,259.6 341.15,264.75 341.15,271.5 C341.15,272.8 341,274.15 340.85,274.75 L326,274.75 C326.65,278.35 329.15,280 332.45,280 C334.3,280 336,279.45 337.8,278.35 L340.25,282.8 C337.7,284.55 334.4,285.6 331.45,285.6 Z M325.95,269.9 L334.9,269.9 C334.9,267.15 333.7,265.2 330.75,265.2 C328.45,265.2 326.45,266.75 325.95,269.9 Z" id="Source" fill="#F9683D"></path>
                    <path d="M68.072,325.312 C65.68,325.312 63.574,324.324 62.092,322.79 L63.392,321.282 C64.614,322.556 66.33,323.414 68.098,323.414 C70.334,323.414 71.66,322.296 71.66,320.632 C71.66,318.89 70.438,318.344 68.826,317.616 L66.382,316.55 C64.77,315.874 62.924,314.652 62.924,312.156 C62.924,309.556 65.186,307.632 68.28,307.632 C70.308,307.632 72.102,308.49 73.324,309.738 L72.154,311.142 C71.114,310.154 69.866,309.53 68.28,309.53 C66.382,309.53 65.108,310.492 65.108,312.026 C65.108,313.664 66.59,314.288 67.942,314.86 L70.36,315.9 C72.336,316.758 73.87,317.928 73.87,320.45 C73.87,323.154 71.66,325.312 68.072,325.312 Z M77.016,325 L77.016,312.364 L78.784,312.364 L78.966,314.184 L79.044,314.184 C80.136,312.988 81.462,312.052 82.97,312.052 C84.894,312.052 85.934,312.962 86.454,314.47 C87.78,313.04 89.08,312.052 90.614,312.052 C93.214,312.052 94.462,313.768 94.462,316.992 L94.462,325 L92.33,325 L92.33,317.278 C92.33,314.912 91.576,313.898 89.99,313.898 C89.002,313.898 87.988,314.548 86.818,315.848 L86.818,325 L84.686,325 L84.686,317.278 C84.686,314.912 83.932,313.898 82.32,313.898 C81.384,313.898 80.318,314.548 79.148,315.848 L79.148,325 L77.016,325 Z M101.482,325.312 C99.376,325.312 97.79,323.986 97.79,321.724 C97.79,318.968 100.156,317.59 105.538,316.992 C105.538,315.38 105.018,313.82 102.938,313.82 C101.482,313.82 100.156,314.496 99.168,315.172 L98.336,313.69 C99.506,312.936 101.274,312.052 103.302,312.052 C106.396,312.052 107.696,314.106 107.696,317.252 L107.696,325 L105.928,325 L105.746,323.492 L105.668,323.492 C104.472,324.48 103.068,325.312 101.482,325.312 Z M102.106,323.596 C103.328,323.596 104.316,322.998 105.538,321.906 L105.538,318.396 C101.326,318.916 99.87,319.956 99.87,321.568 C99.87,322.998 100.858,323.596 102.106,323.596 Z M111.674,325 L111.674,312.364 L113.442,312.364 L113.624,314.652 L113.702,314.652 C114.56,313.066 115.86,312.052 117.29,312.052 C117.836,312.052 118.226,312.13 118.642,312.312 L118.226,314.184 C117.81,314.054 117.524,313.976 117.004,313.976 C115.938,313.976 114.664,314.756 113.806,316.888 L113.806,325 L111.674,325 Z M124.674,325.312 C121.97,325.312 121.06,323.596 121.06,321.1 L121.06,314.106 L119.188,314.106 L119.188,312.494 L121.164,312.364 L121.424,308.828 L123.218,308.828 L123.218,312.364 L126.624,312.364 L126.624,314.106 L123.218,314.106 L123.218,321.126 C123.218,322.686 123.712,323.57 125.168,323.57 C125.61,323.57 126.182,323.388 126.598,323.232 L127.014,324.844 C126.312,325.078 125.454,325.312 124.674,325.312 Z M134.892,325 L134.892,307.944 L137.05,307.944 L137.05,315.094 L144.98,315.094 L144.98,307.944 L147.164,307.944 L147.164,325 L144.98,325 L144.98,316.966 L137.05,316.966 L137.05,325 L134.892,325 Z M151.636,325 L151.636,312.364 L153.768,312.364 L153.768,325 L151.636,325 Z M152.728,309.764 C151.896,309.764 151.246,309.192 151.246,308.386 C151.246,307.554 151.896,307.008 152.728,307.008 C153.56,307.008 154.21,307.554 154.21,308.386 C154.21,309.192 153.56,309.764 152.728,309.764 Z M158.032,325 L158.032,312.364 L159.8,312.364 L159.982,314.652 L160.06,314.652 C160.918,313.066 162.218,312.052 163.648,312.052 C164.194,312.052 164.584,312.13 165,312.312 L164.584,314.184 C164.168,314.054 163.882,313.976 163.362,313.976 C162.296,313.976 161.022,314.756 160.164,316.888 L160.164,325 L158.032,325 Z M167.054,325 L167.054,312.364 L169.186,312.364 L169.186,325 L167.054,325 Z M168.146,309.764 C167.314,309.764 166.664,309.192 166.664,308.386 C166.664,307.554 167.314,307.008 168.146,307.008 C168.978,307.008 169.628,307.554 169.628,308.386 C169.628,309.192 168.978,309.764 168.146,309.764 Z M173.45,325 L173.45,312.364 L175.218,312.364 L175.4,314.184 L175.478,314.184 C176.674,312.988 177.974,312.052 179.716,312.052 C182.368,312.052 183.564,313.768 183.564,316.992 L183.564,325 L181.432,325 L181.432,317.278 C181.432,314.912 180.704,313.898 179.04,313.898 C177.74,313.898 176.856,314.574 175.582,315.848 L175.582,325 L173.45,325 Z M191.936,330.824 C188.842,330.824 186.71,329.602 186.71,327.418 C186.71,326.352 187.412,325.338 188.556,324.558 L188.556,324.454 C187.932,324.064 187.438,323.388 187.438,322.4 C187.438,321.334 188.166,320.502 188.816,320.06 L188.816,319.956 C187.984,319.28 187.178,318.058 187.178,316.55 C187.178,313.794 189.362,312.052 191.936,312.052 C192.638,312.052 193.262,312.182 193.73,312.364 L198.124,312.364 L198.124,314.002 L195.524,314.002 C196.122,314.574 196.564,315.536 196.564,316.602 C196.564,319.306 194.51,320.996 191.936,320.996 C191.312,320.996 190.61,320.84 190.038,320.554 C189.596,320.944 189.232,321.36 189.232,322.062 C189.232,322.868 189.752,323.44 191.468,323.44 L193.912,323.44 C196.85,323.44 198.332,324.35 198.332,326.456 C198.332,328.796 195.862,330.824 191.936,330.824 Z M191.936,319.566 C193.392,319.566 194.614,318.396 194.614,316.55 C194.614,314.704 193.418,313.612 191.936,313.612 C190.454,313.612 189.258,314.704 189.258,316.55 C189.258,318.396 190.48,319.566 191.936,319.566 Z M192.248,329.342 C194.666,329.342 196.252,328.094 196.252,326.768 C196.252,325.598 195.342,325.208 193.704,325.208 L191.52,325.208 C191.026,325.208 190.428,325.156 189.882,325 C188.972,325.65 188.582,326.404 188.582,327.132 C188.582,328.484 189.96,329.342 192.248,329.342 Z M209.356,325.312 C207.198,325.312 205.638,324.376 204.65,322.582 L206.21,321.49 C206.964,322.842 207.926,323.414 209.148,323.414 C210.968,323.414 211.878,322.374 211.878,319.774 L211.878,307.944 L214.062,307.944 L214.062,319.982 C214.062,322.92 212.684,325.312 209.356,325.312 Z M222.148,325.312 C219.47,325.312 218.274,323.596 218.274,320.372 L218.274,312.364 L220.432,312.364 L220.432,320.086 C220.432,322.452 221.134,323.466 222.798,323.466 C224.098,323.466 225.008,322.816 226.204,321.334 L226.204,312.364 L228.336,312.364 L228.336,325 L226.568,325 L226.386,323.024 L226.308,323.024 C225.138,324.402 223.89,325.312 222.148,325.312 Z M235.902,325.312 C234.108,325.312 232.392,324.558 231.196,323.57 L232.262,322.14 C233.354,323.024 234.472,323.648 235.98,323.648 C237.644,323.648 238.476,322.764 238.476,321.672 C238.476,320.372 236.968,319.8 235.59,319.28 C233.796,318.63 231.82,317.772 231.82,315.64 C231.82,313.612 233.432,312.052 236.162,312.052 C237.748,312.052 239.126,312.702 240.088,313.482 L239.074,314.834 C238.216,314.184 237.306,313.716 236.188,313.716 C234.602,313.716 233.874,314.574 233.874,315.536 C233.874,316.732 235.252,317.174 236.682,317.72 C238.502,318.396 240.53,319.15 240.53,321.542 C240.53,323.596 238.892,325.312 235.902,325.312 Z M247.472,325.312 C244.768,325.312 243.858,323.596 243.858,321.1 L243.858,314.106 L241.986,314.106 L241.986,312.494 L243.962,312.364 L244.222,308.828 L246.016,308.828 L246.016,312.364 L249.422,312.364 L249.422,314.106 L246.016,314.106 L246.016,321.126 C246.016,322.686 246.51,323.57 247.966,323.57 C248.408,323.57 248.98,323.388 249.396,323.232 L249.812,324.844 C249.11,325.078 248.252,325.312 247.472,325.312 Z M260.394,325.312 C258.288,325.312 256.702,323.986 256.702,321.724 C256.702,318.968 259.068,317.59 264.45,316.992 C264.45,315.38 263.93,313.82 261.85,313.82 C260.394,313.82 259.068,314.496 258.08,315.172 L257.248,313.69 C258.418,312.936 260.186,312.052 262.214,312.052 C265.308,312.052 266.608,314.106 266.608,317.252 L266.608,325 L264.84,325 L264.658,323.492 L264.58,323.492 C263.384,324.48 261.98,325.312 260.394,325.312 Z M261.018,323.596 C262.24,323.596 263.228,322.998 264.45,321.906 L264.45,318.396 C260.238,318.916 258.782,319.956 258.782,321.568 C258.782,322.998 259.77,323.596 261.018,323.596 Z M282.442,325.312 C278.178,325.312 275.006,322.036 275.006,316.472 C275.006,310.986 278.23,307.632 282.572,307.632 C284.652,307.632 286.264,308.62 287.252,309.738 L286.082,311.142 C285.172,310.18 284.054,309.53 282.598,309.53 C279.374,309.53 277.242,312.182 277.242,316.42 C277.242,320.71 279.296,323.414 282.52,323.414 C284.158,323.414 285.38,322.686 286.472,321.49 L287.668,322.842 C286.316,324.402 284.652,325.312 282.442,325.312 Z M292.894,325.312 C291.282,325.312 290.632,324.298 290.632,322.452 L290.632,306.488 L292.764,306.488 L292.764,322.608 C292.764,323.284 293.05,323.544 293.362,323.544 C293.492,323.544 293.596,323.544 293.83,323.492 L294.116,325.104 C293.83,325.234 293.466,325.312 292.894,325.312 Z M297.262,325 L297.262,312.364 L299.394,312.364 L299.394,325 L297.262,325 Z M298.354,309.764 C297.522,309.764 296.872,309.192 296.872,308.386 C296.872,307.554 297.522,307.008 298.354,307.008 C299.186,307.008 299.836,307.554 299.836,308.386 C299.836,309.192 299.186,309.764 298.354,309.764 Z M303.658,325 L303.658,306.488 L305.764,306.488 L305.764,319.02 L305.842,319.02 L311.224,312.364 L313.59,312.364 L309.352,317.434 L314.162,325 L311.822,325 L308.13,318.916 L305.764,321.672 L305.764,325 L303.658,325 Z M324.874,315.458 L324.068,318.058 L329.19,318.058 L328.384,315.458 C327.76,313.56 327.214,311.688 326.668,309.712 L326.564,309.712 C326.044,311.688 325.498,313.56 324.874,315.458 Z M319.674,325 L325.446,307.944 L327.89,307.944 L333.662,325 L331.348,325 L329.736,319.8 L323.522,319.8 L321.884,325 L319.674,325 Z M337.874,325 L334.364,312.364 L336.548,312.364 L338.42,319.67 C338.706,320.866 338.94,322.01 339.174,323.18 L339.278,323.18 C339.564,322.01 339.824,320.84 340.136,319.67 L342.086,312.364 L344.166,312.364 L346.142,319.67 C346.454,320.866 346.74,322.01 347.026,323.18 L347.13,323.18 C347.416,322.01 347.65,320.866 347.91,319.67 L349.756,312.364 L351.784,312.364 L348.404,325 L345.804,325 L343.984,318.214 C343.672,317.018 343.438,315.848 343.126,314.574 L343.022,314.574 C342.736,315.848 342.476,317.044 342.138,318.24 L340.37,325 L337.874,325 Z M357.452,325.312 C355.346,325.312 353.76,323.986 353.76,321.724 C353.76,318.968 356.126,317.59 361.508,316.992 C361.508,315.38 360.988,313.82 358.908,313.82 C357.452,313.82 356.126,314.496 355.138,315.172 L354.306,313.69 C355.476,312.936 357.244,312.052 359.272,312.052 C362.366,312.052 363.666,314.106 363.666,317.252 L363.666,325 L361.898,325 L361.716,323.492 L361.638,323.492 C360.442,324.48 359.038,325.312 357.452,325.312 Z M358.076,323.596 C359.298,323.596 360.286,322.998 361.508,321.906 L361.508,318.396 C357.296,318.916 355.84,319.956 355.84,321.568 C355.84,322.998 356.828,323.596 358.076,323.596 Z M367.852,330.434 C367.28,330.434 366.786,330.33 366.37,330.174 L366.786,328.484 C367.046,328.562 367.436,328.666 367.748,328.666 C369.178,328.666 370.088,327.522 370.608,325.962 L370.894,325.026 L365.824,312.364 L368.034,312.364 L370.608,319.358 C370.998,320.45 371.44,321.75 371.83,322.92 L371.934,322.92 C372.298,321.776 372.662,320.476 373,319.358 L375.262,312.364 L377.342,312.364 L372.584,326.04 C371.7,328.536 370.4,330.434 367.852,330.434 Z" id="Smart-Hiring-Just-a" fill="#F9683D"></path>
                    <g id="logo" transform="translate(164.000000, 106.000000)">
                        <g>
                            <path d="M60.9703571,8.87742857 C60.9703571,9.48814286 60.9092857,10.081 60.7871429,10.6552857 C59.9678571,14.6138571 56.4596429,17.5827857 52.2607143,17.5827857 C49.2292857,17.5827857 46.5646429,16.0374286 45.0060714,13.6913571 C44.0832143,12.3167143 43.5514286,10.6613571 43.5514286,8.87742857 C43.5514286,4.06957143 47.4507143,0.172071429 52.2607143,0.172071429 C57.0710714,0.172071429 60.9703571,4.06957143 60.9703571,8.87742857" id="Fill-2" fill="#28B4D2"></path>
                            <path d="M79.9745714,24.556 L55.6674286,43.1585 C53.7363571,44.6427857 51.426,45.3699286 49.1277857,45.3699286 C46.3470714,45.3699286 43.5781429,44.3067143 41.5002857,42.2235 L35.2906429,36.0167143 C36.4027857,36.2427857 37.5517143,36.3588571 38.7313571,36.3588571 C43.236,36.3588571 47.3431429,34.6299286 50.4113571,31.7892143 L72.5424286,14.8545714 C75.2256429,12.8081429 79.0577857,13.3152857 81.1113571,15.991 C83.1649286,18.6727857 82.6577857,22.5035 79.9745714,24.556" id="Fill-4" fill="#28B4D2"></path>
                            <path d="M50.4113929,31.7892143 C47.3431786,34.6299286 43.2360357,36.3588571 38.7313929,36.3588571 C37.55175,36.3588571 36.4028214,36.2427857 35.2906786,36.0167143 L29.1846071,29.9138571 C26.7949643,27.531 26.7949643,23.6577857 29.1846071,21.2752857 C31.5746071,18.8927857 35.4431786,18.8927857 37.8271071,21.2752857 L49.2438929,32.6874286 L50.4113929,31.7892143 Z" id="Fill-6" fill="#E1BA23"></path>
                            <g id="Group-10" transform="translate(27.142857, 19.285714)">
                                <mask id="mask-2" fill="white">
                                    <use xlink:href="#path-1"></use>
                                </mask>
                                <g id="Clip-9"></g>
                                <path d="M23.2685714,12.5035714 C20.2003571,15.3442857 16.0932143,17.0732143 11.5885714,17.0732143 C10.4089286,17.0732143 9.26,16.9571429 8.1475,16.7310714 L2.04178571,10.6278571 C-0.347857143,8.24535714 -0.347857143,4.37214286 2.04178571,1.98964286 C4.43178571,-0.392857143 8.30035714,-0.392857143 10.6839286,1.98964286 L22.1010714,13.4014286 L23.2685714,12.5035714 Z" id="Fill-8" mask="url(#mask-2)"></path>
                            </g>
                            <path d="M60.9703571,8.87742857 C60.9703571,9.48814286 60.9092857,10.081 60.7871429,10.6552857 C59.9678571,14.6138571 56.4596429,17.5827857 52.2607143,17.5827857 C49.2292857,17.5827857 46.5646429,16.0374286 45.0060714,13.6913571 C44.0832143,12.3167143 43.5514286,10.6613571 43.5514286,8.87742857 C43.5514286,4.06957143 47.4507143,0.172071429 52.2607143,0.172071429 C57.0710714,0.172071429 60.9703571,4.06957143 60.9703571,8.87742857" id="Fill-11" fill="#F9683D"></path>
                            <path d="M79.9745714,24.556 L55.6674286,43.1585 C53.7363571,44.6427857 51.426,45.3699286 49.1277857,45.3699286 C46.3470714,45.3699286 43.5781429,44.3067143 41.5002857,42.2235 L35.2906429,36.0167143 C36.4027857,36.2427857 37.5517143,36.3588571 38.7313571,36.3588571 C43.236,36.3588571 47.3431429,34.6299286 50.4113571,31.7892143 L72.5424286,14.8545714 C75.2256429,12.8081429 79.0577857,13.3152857 81.1113571,15.991 C83.1649286,18.6727857 82.6577857,22.5035 79.9745714,24.556" id="Fill-13" fill="#4855B5"></path>
                            <path d="M50.4113929,31.7892143 C47.3431786,34.6299286 43.2360357,36.3588571 38.7313929,36.3588571 C37.55175,36.3588571 36.4028214,36.2427857 35.2906786,36.0167143 L29.1846071,29.9138571 C26.7949643,27.531 26.7949643,23.6577857 29.1846071,21.2752857 C31.5746071,18.8927857 35.4431786,18.8927857 37.8271071,21.2752857 L49.2438929,32.6874286 L50.4113929,31.7892143 Z" id="Fill-15" fill="#F9683D"></path>
                            <path d="M48.7946071,101.019643 C48.7946071,100.408571 48.8556786,99.8160714 48.9778214,99.2417857 C49.7971071,95.2832143 53.3053214,92.3142857 57.5038929,92.3142857 C60.5356786,92.3142857 63.2003214,93.8596429 64.7588929,96.2057143 C65.68175,97.5803571 66.2135357,99.2357143 66.2135357,101.019643 C66.2135357,105.8275 62.3138929,109.725 57.5038929,109.725 C52.6938929,109.725 48.7946071,105.8275 48.7946071,101.019643" id="Fill-17" fill="#F9683D"></path>
                            <path d="M29.7902857,85.341 L54.0974286,66.7385 C56.0288571,65.2542143 58.3388571,64.5270714 60.6370714,64.5270714 C63.4181429,64.5270714 66.1867143,65.5902857 68.2645714,67.6735 L74.4742143,73.8802857 C73.3620714,73.6542143 72.2131429,73.5381429 71.0335,73.5381429 C66.5288571,73.5381429 62.4217143,75.2670714 59.3535,78.1077857 L37.2224286,95.0424286 C34.5392143,97.0888571 30.7070714,96.5817143 28.6535,93.906 C26.5999286,91.2242143 27.1070714,87.3938571 29.7902857,85.341" id="Fill-19" fill="#4855B5"></path>
                            <path d="M59.3536071,78.1078214 C62.4218214,75.2671071 66.5289643,73.5381786 71.03325,73.5381786 C72.2128929,73.5381786 73.3621786,73.65425 74.4743214,73.8803214 L80.5800357,79.9831786 C82.9700357,82.3660357 82.9700357,86.23925 80.5800357,88.62175 C78.1903929,91.00425 74.3214643,91.00425 71.9378929,88.62175 L60.5211071,77.2096071 L59.3536071,78.1078214 Z" id="Fill-21" fill="#F9683D"></path>
                            <path d="M8.79067857,48.8633571 C9.40175,48.8633571 9.99460714,48.9244286 10.56925,49.0465714 C14.5296071,49.8651429 17.4999643,53.3719286 17.4999643,57.5687143 C17.4999643,60.5990714 15.9538929,63.2626429 13.60675,64.8205 C12.23175,65.743 10.5753214,66.2744286 8.79067857,66.2744286 C3.98067857,66.2744286 0.0810357143,62.3769286 0.0810357143,57.5687143 C0.0810357143,52.7608571 3.98067857,48.8633571 8.79067857,48.8633571" id="Fill-23" fill="#F9683D"></path>
                            <path d="M24.4762143,29.8676786 L43.0869286,54.16375 C44.5722857,56.0941071 45.2994286,58.4033929 45.2994286,60.7005357 C45.2994286,63.4801786 44.2358571,66.2476786 42.1519286,68.3248214 L35.9422857,74.5316071 C36.1683571,73.4198214 36.2844286,72.27125 36.2844286,71.0923214 C36.2844286,66.5898214 34.5547857,62.4844643 31.7126429,59.4176786 L14.7705,37.29625 C12.723,34.6144643 13.2305,30.7841071 15.9072857,28.73125 C18.5905,26.67875 22.4226429,27.1855357 24.4762143,29.8676786" id="Fill-25" fill="#28B4D2"></path>
                            <path d="M31.71275,59.4176429 C34.5548929,62.4844286 36.2845357,66.5897857 36.2845357,71.0922857 C36.2845357,72.2712143 36.1684643,73.4197857 35.9423929,74.5315714 L29.8363214,80.6347857 C27.45275,83.0233571 23.57775,83.0233571 21.1941786,80.6347857 C18.8106071,78.2458571 18.8106071,74.3790714 21.1941786,71.9962143 L32.6113214,60.5844286 L31.71275,59.4176429 Z" id="Fill-27" fill="#E1BA23"></path>
                            <g id="Group-31" transform="translate(19.285714, 59.285714)">
                                <mask id="mask-4" fill="white">
                                    <use xlink:href="#path-3"></use>
                                </mask>
                                <g id="Clip-30"></g>
                                <path d="M12.4271429,0.131785714 C15.2689286,3.19857143 16.9989286,7.30392857 16.9989286,11.8064286 C16.9989286,12.9857143 16.8825,14.1339286 16.6564286,15.2460714 L10.5507143,21.3489286 C8.16714286,23.7378571 4.29214286,23.7378571 1.90857143,21.3489286 C-0.475357143,18.9603571 -0.475357143,15.0932143 1.90857143,12.7107143 L13.3253571,1.29892857 L12.4271429,0.131785714 Z" id="Fill-29" mask="url(#mask-4)"></path>
                            </g>
                            <path d="M24.4762143,29.8676786 L43.0869286,54.16375 C44.5722857,56.0941071 45.2994286,58.4033929 45.2994286,60.7005357 C45.2994286,63.4801786 44.2358571,66.2476786 42.1519286,68.3248214 L35.9422857,74.5316071 C36.1683571,73.4198214 36.2844286,72.27125 36.2844286,71.0923214 C36.2844286,66.5898214 34.5547857,62.4844643 31.7126429,59.4176786 L14.7705,37.29625 C12.723,34.6144643 13.2305,30.7841071 15.9072857,28.73125 C18.5905,26.67875 22.4226429,27.1855357 24.4762143,29.8676786" id="Fill-32" fill="#4855B5"></path>
                            <path d="M31.71275,59.4176429 C34.5548929,62.4844286 36.2845357,66.5897857 36.2845357,71.0922857 C36.2845357,72.2712143 36.1684643,73.4197857 35.9423929,74.5315714 L29.8363214,80.6347857 C27.45275,83.0233571 23.57775,83.0233571 21.1941786,80.6347857 C18.8106071,78.2458571 18.8106071,74.3790714 21.1941786,71.9962143 L32.6113214,60.5844286 L31.71275,59.4176429 Z" id="Fill-34" fill="#F9683D"></path>
                            <path d="M100.974286,61.0336786 C100.363214,61.0336786 99.7703571,60.9726071 99.1957143,60.8504643 C95.2353571,60.0318929 92.2646429,56.5251071 92.2646429,52.3283214 C92.2646429,49.2979643 93.8110714,46.6343929 96.1582143,45.0765357 C97.5332143,44.1540357 99.1896429,43.6226071 100.974286,43.6226071 C105.784286,43.6226071 109.683571,47.5201071 109.683571,52.3283214 C109.683571,57.1361786 105.784286,61.0336786 100.974286,61.0336786" id="Fill-36" fill="#F9683D"></path>
                            <path d="M85.2886429,80.0293571 L66.6779286,55.7332857 C65.1925714,53.8029286 64.4654286,51.4936429 64.4654286,49.1965 C64.4654286,46.4168571 65.529,43.6493571 67.6129286,41.5722143 L73.8229286,35.3654286 C73.5965,36.4772143 73.4804286,37.6257857 73.4804286,38.8047143 C73.4804286,43.3072143 75.2100714,47.4125714 78.0522143,50.4793571 L94.9943571,72.6007857 C97.0418571,75.2825714 96.5347143,79.1129286 93.8575714,81.1657857 C91.1743571,83.2182857 87.3422143,82.7115 85.2886429,80.0293571" id="Fill-38" fill="#4855B5"></path>
                            <path d="M78.0521786,50.4794286 C75.2100357,47.4126429 73.4803929,43.3072857 73.4803929,38.8047857 C73.4803929,37.6258571 73.5964643,36.4772857 73.8228929,35.3655 L79.9286071,29.2622857 C82.3121786,26.8737143 86.1871786,26.8737143 88.57075,29.2622857 C90.9543214,31.6512143 90.9543214,35.518 88.57075,37.9005 L77.1536071,49.3126429 L78.0521786,50.4794286 Z" id="Fill-40" fill="#F9683D"></path>
                        </g>
                    </g>
                </g>
            </g>
        </g>
    </g>
</svg>