<svg xmlns="http://www.w3.org/2000/svg" width="24" height="24" viewBox="0 0 24 24">
    <g fill="#FFF" fill-rule="nonzero" opacity=".73">
        <path d="M8.904 20.13c.274 1.52 1.617 2.621 3.233 2.621s2.986-1.1 3.233-2.62H19.945c.548 0 1.041-.236 1.37-.63a1.66 1.66 0 0 0 .356-1.415c-.137-.681-.767-1.231-1.507-1.336l-.356-5.032c0-2.201-.822-4.219-2.274-5.686l-.329-.315-.11-.105c-.081-.052-.136-.13-.218-.183-.055-.026-.11-.079-.137-.105-.082-.052-.137-.105-.22-.157-.054-.026-.109-.079-.164-.105-.082-.052-.137-.105-.219-.131-.055-.026-.11-.053-.164-.105-.083-.052-.137-.079-.22-.13-.054-.027-.11-.053-.191-.08-.083-.026-.137-.078-.22-.104-.054-.027-.137-.053-.191-.079-.083-.026-.165-.052-.22-.079-.054-.026-.136-.052-.191-.078-.055-.026-.11-.053-.165-.053.11-.367.11-.76.028-1.153-.22-.89-.987-1.598-1.918-1.782a2.6 2.6 0 0 0-2.055.498c-.63.472-.959 1.127-.959 1.835 0 .21.028.419.082.602l-.246.079c-.11.026-.192.052-.302.105-.11.026-.191.078-.3.13-.083.053-.193.08-.275.132-.11.052-.192.105-.274.157-.082.052-.164.079-.246.131-.083.053-.192.105-.274.184l-.247.157c-.082.052-.164.13-.247.183a1.356 1.356 0 0 0-.219.184c-.082.078-.164.13-.246.21l-.192.183c-.082.078-.137.157-.22.236-.054.078-.136.13-.191.21-.082.078-.137.183-.192.261-.055.079-.11.131-.164.21-.055.079-.11.183-.192.262-.055.079-.11.157-.137.236-.055.105-.11.183-.164.288-.055.079-.083.157-.137.236-.055.105-.083.21-.137.314-.028.08-.083.158-.11.263-.055.104-.082.21-.11.314-.027.079-.054.183-.082.262-.027.105-.054.236-.082.34-.027.08-.055.184-.082.263-.027.13-.055.236-.082.367-.028.078-.028.183-.055.262-.027.13-.027.288-.055.42 0 .078-.027.156-.027.235v.681l-.384 5.032c-.74.105-1.37.629-1.507 1.336a1.66 1.66 0 0 0 .357 1.415c.328.394.849.63 1.37.63h4.602zm3.233 1.573c-1.014 0-1.89-.655-2.11-1.573h4.247c-.247.918-1.123 1.573-2.137 1.573zM11.26 2.599c.247-.21.548-.289.877-.289.082 0 .192 0 .274.027.52.104.959.497 1.068.97a1.15 1.15 0 0 1-.027.68 7.72 7.72 0 0 0-1.425-.13c-.41 0-.849.052-1.205.104a1.275 1.275 0 0 1-.055-.34c0-.393.192-.76.493-1.022zM5.562 11.77v-.027c0-.21 0-.393.027-.576.22-2.883 1.973-5.189 4.63-5.949.302-.078 1.069-.288 1.808-.288.877 0 1.836.236 2.055.288a6.176 6.176 0 0 1 2.658 1.573c1.26 1.257 1.972 3.04 1.972 4.979l.384 4.979H5.178l.384-4.98zm-1.754 7.075a.577.577 0 0 1-.137-.55c.055-.288.384-.524.74-.524h15.507c.356 0 .657.21.74.524.054.21 0 .393-.137.55a.855.855 0 0 1-.576.236H4.33c-.192 0-.411-.078-.52-.236zM17.973 3.463c-.247-.157-.603-.104-.768.158a.507.507 0 0 0 .165.733 8.94 8.94 0 0 1 1.562 1.258c.849.839 1.506 1.835 2 2.962.082.21.3.314.493.314.082 0 .137 0 .219-.052a.524.524 0 0 0 .301-.682c-.548-1.258-1.287-2.358-2.219-3.276a8.16 8.16 0 0 0-1.753-1.415zM2.603 8.81c.082.026.137.052.219.052.22 0 .41-.131.493-.315.767-1.755 2-3.223 3.562-4.219.246-.157.328-.498.164-.734a.584.584 0 0 0-.767-.157c-1.753 1.1-3.123 2.726-3.973 4.665a.544.544 0 0 0 .302.707z"/>
    </g>
</svg>
