<svg xmlns="http://www.w3.org/2000/svg" width="16" height="16" viewBox="0 0 16 16">
    <path fill="#3EC82C" fill-rule="nonzero" d="M1.147 2.862c.05-.216.097-.354.133-.44.192-.503.489-.954.867-1.322l.083-.092L2.237 1l.006.008.082.09 2.217 2.168.037.03-1.766 2.086.28.584a14.211 14.211 0 0 0 2.88 4.028l.094.097a13.235 13.235 0 0 0 4.124 2.802l.616.265.479-.469 1.439-1.41 2.175 2.157.078.07c.011.008.021.028.022.052a.078.078 0 0 1-.02.058l-.074.077c-.33.386-.738.688-1.265.922-.06.031-.222.1-.475.173-2.297.671-5.156.008-8.354-3.173l-.082-.074-.093-.073C1.35 8.24.582 5.26 1.147 2.862zm2.827 9.356l.133.106c5.57 5.542 10.005 3.173 10.005 3.173a4.32 4.32 0 0 0 1.554-1.153c.223-.21.345-.512.333-.824a1.07 1.07 0 0 0-.395-.794l-2.187-2.169a.87.87 0 0 0-.645-.34.864.864 0 0 0-.673.277l-1.513 1.48a12.235 12.235 0 0 1-3.812-2.59l-.081-.085a13.263 13.263 0 0 1-2.698-3.765l1.38-1.63a.907.907 0 0 0-.134-1.353L3.024.383A1.009 1.009 0 0 0 2.237 0c-.304 0-.593.14-.787.383A4.675 4.675 0 0 0 .346 2.064s-2.003 4.654 3.628 10.154z"/>
</svg>
