<svg xmlns="http://www.w3.org/2000/svg" width="24" height="25" viewBox="0 0 24 25">
    <g fill="none" fill-rule="evenodd">
        <path d="M0 0h24v25H0z"/>
        <g fill="#363636" fill-rule="nonzero">
            <path d="M18.158 2.58H5.842c-1.305 0-2.368 1.111-2.368 2.48v14.88c0 1.369 1.063 2.48 2.368 2.48h12.316c1.305 0 2.368-1.111 2.368-2.48V5.06c0-1.369-1.063-2.48-2.368-2.48zm1.42 17.36c0 .82-.637 1.489-1.42 1.489H5.842c-.783 0-1.42-.668-1.42-1.489V5.06c0-.82.637-1.489 1.42-1.489h12.316c.783 0 1.42.668 1.42 1.489v14.88z"/>
            <path d="M8.684 7.54h-.947a.485.485 0 0 0-.474.496c0 .274.212.496.474.496h.947a.485.485 0 0 0 .474-.496.485.485 0 0 0-.474-.496zM16.263 7.54H10.58a.485.485 0 0 0-.474.496c0 .274.212.496.474.496h5.684a.485.485 0 0 0 .474-.496.485.485 0 0 0-.474-.496zM8.684 11.508h-.947a.485.485 0 0 0-.474.496c0 .274.212.496.474.496h.947a.485.485 0 0 0 .474-.496.485.485 0 0 0-.474-.496zM16.263 11.508H10.58a.485.485 0 0 0-.474.496c0 .274.212.496.474.496h5.684a.485.485 0 0 0 .474-.496.485.485 0 0 0-.474-.496zM8.684 15.476h-.947a.485.485 0 0 0-.474.496c0 .274.212.496.474.496h.947a.485.485 0 0 0 .474-.496.485.485 0 0 0-.474-.496zM16.263 15.476H10.58a.485.485 0 0 0-.474.496c0 .274.212.496.474.496h5.684a.485.485 0 0 0 .474-.496.485.485 0 0 0-.474-.496z"/>
        </g>
    </g>
</svg>
