<svg xmlns="http://www.w3.org/2000/svg" width="24" height="24" viewBox="0 0 24 24">
    <path fill="#4855B5" fill-rule="evenodd" d="M11.085 2.873c-3.982 0-7.221 3.268-7.221 7.286 0 4.017 3.24 7.286 7.22 7.286 3.982 0 7.222-3.27 7.222-7.286 0-4.018-3.24-7.286-7.221-7.286M22.069 23a.91.91 0 0 1-.669-.29l-4.93-5.206a8.882 8.882 0 0 1-5.393 1.813C6.072 19.317 2 15.208 2 10.16 2 5.109 6.072 1 11.077 1c5.004 0 9.076 4.108 9.076 9.159 0 2.242-.82 4.398-2.31 6.08l4.903 5.17a.947.947 0 0 1-.037 1.33.893.893 0 0 1-.64.261"/>
</svg>
