<svg xmlns="http://www.w3.org/2000/svg" xmlns:xlink="http://www.w3.org/1999/xlink" width="704" height="104" viewBox="0 0 704 104">
    <defs>
        <path id="b" d="M0 0h704v99H0z"/>
        <filter id="a" width="101.7%" height="112.1%" x="-.9%" y="-6.1%" filterUnits="objectBoundingBox">
            <feOffset in="SourceAlpha" result="shadowOffsetOuter1"/>
            <feGaussianBlur in="shadowOffsetOuter1" result="shadowBlurOuter1" stdDeviation="2"/>
            <feColorMatrix in="shadowBlurOuter1" values="0 0 0 0 0 0 0 0 0 0 0 0 0 0 0 0 0 0 0.2 0"/>
        </filter>
    </defs>
    <g fill="none" fill-rule="evenodd">
        <g fill-rule="nonzero">
            <use fill="#000" filter="url(#a)" xlink:href="#b"/>
            <use fill="#FFF" xlink:href="#b"/>
        </g>
        <path fill="#000" fill-opacity=".03" d="M683.862 12.1h10.069V4.6h-10.07v7.5zm0 8.4h10.069V13h-10.07v7.5zm0 8.5h10.069v-7.5h-10.07V29zm0 8.5h10.069V30h-10.07v7.5zm0 8.4h10.069v-7.5h-10.07v7.5zm0 8.5h10.069v-7.5h-10.07v7.5zm0 8.4h10.069v-7.5h-10.07v7.5zm0 8.5h10.069v-7.5h-10.07v7.5zm0 8.4h10.069v-7.5h-10.07v7.5zm0 8.5h10.069v-7.5h-10.07v7.5zm0 8.899h10.069V89.2h-10.07v7.899zm-11.277 0h10.069V89.2h-10.07v7.899zm-11.412 0h10.069V89.2h-10.069v7.899zm-11.412 0h10.07V89.2h-10.07v7.899zm-11.277 0h10.07V89.2h-10.07v7.899zm-11.412 0h10.07V89.2h-10.07v7.899zm-11.277 0h10.07V89.2h-10.07v7.899zm-11.411 0h10.069V89.2h-10.07v7.899zm-11.278 0h10.07V89.2h-10.07v7.899zm-11.411 0h10.069V89.2h-10.07v7.899zm-11.412 0h10.07V89.2h-10.07v7.899zm-11.277 0h10.069V89.2h-10.07v7.899zm-11.412 0h10.07V89.2h-10.07v7.899zm-11.277 0h10.069V89.2h-10.07v7.899zm-11.412 0h10.07V89.2h-10.07v7.899zm-11.277 0h10.069V89.2h-10.07v7.899zm-11.412 0h10.07V89.2h-10.07v7.899zm-12.485 0h11.277V89.2h-11.277v7.899zm-11.412 0h10.07V89.2h-10.07v7.899zm-11.411 0h10.069V89.2h-10.07v7.899zm-11.278 0h10.07V89.2h-10.07v7.899zm-11.411 0h10.069V89.2h-10.07v7.899zm-11.278 0h10.07V89.2h-10.07v7.899zm-11.411 0h10.069V89.2h-10.07v7.899zm-11.278 0h10.07V89.2h-10.07v7.899zm-11.411 0h10.069V89.2h-10.07v7.899zm-11.412 0h10.07V89.2h-10.07v7.899zm-11.277 0h10.069V89.2h-10.07v7.899zm-11.412 0h10.07V89.2h-10.07v7.899zm-11.277 0h10.069V89.2h-10.069v7.899zm-11.412 0h10.07V89.2h-10.07v7.899zm-11.277 0h10.07V89.2h-10.07v7.899zm-11.412 0h10.07V89.2h-10.07v7.899zm-11.411 0h10.069V89.2h-10.07v7.899zm-11.277 0h10.069V89.2h-10.07v7.899zm-12.889 0h11.546V89.2h-11.546v7.899zm-11.411 0h10.069V89.2h-10.07v7.899zm-11.278 0h10.07V89.2h-10.07v7.899zm-11.411 0h10.069V89.2h-10.07v7.899zm-11.278 0h10.07V89.2h-10.07v7.899zm-11.411 0h10.069V89.2h-10.07v7.899zm-11.278 0h10.07V89.2h-10.07v7.899zm-11.411 0h10.069V89.2h-10.07v7.899zm-11.412 0h10.07V89.2h-10.07v7.899zm-11.277 0h10.069V89.2h-10.069v7.899zm-11.412 0h10.07V89.2h-10.07v7.899zm-11.277 0h10.07V89.2h-10.07v7.899zm-11.412 0h10.07V89.2h-10.07v7.899zm-11.277 0h10.07V89.2h-10.07v7.899zm-11.411 0h10.069V89.2h-10.07v7.899zm-11.412 0h10.069V89.2h-10.069v7.899zm-11.277 0h10.069V89.2h-10.07v7.899zm-11.412 0h10.07V89.2h-10.07v7.899zm-12.486 0H89.52V89.2H78.242v7.899zm-11.411 0H76.9V89.2H66.83v7.899zm-11.277 0h10.069V89.2h-10.07v7.899zm-11.412 0H54.21V89.2h-10.07v7.899zm-11.412 0H42.8V89.2H32.73v7.899zm-11.277 0h10.07V89.2h-10.07v7.899zm-11.412.001h10.07v-7.899H10.04V97.1zm0-8.9h10.07v-7.5H10.04v7.5zm0-8.4h10.07v-7.5H10.04v7.5zm0-8.5h10.07v-7.5H10.04v7.5zm0-8.4h10.07v-7.5H10.04v7.5zm0-8.5h10.07v-7.5H10.04v7.5zm0-8.4h10.07v-7.5H10.04V46zm0-8.5h10.07V30H10.04v7.5zm0-8.5h10.07v-7.5H10.04V29zm0-8.4h10.07v-7.5H10.04v7.5zm0-8.5h10.07V4.6H10.04v7.5zm11.278 0h10.069V4.6h-10.07v7.5zm11.411 0H42.8V4.6H32.73v7.5zm11.412 0H54.21V4.6h-10.07v7.5zm11.277 0h10.07V4.6h-10.07v7.5zm11.412 0H76.9V4.6H66.83v7.5zm11.277 0h11.278V4.6H78.108v7.5zm12.62 0h10.07V4.6h-10.07v7.5zm11.277 0h10.07V4.6h-10.07v7.5zm11.412 0h10.069V4.6h-10.069v7.5zm11.412 0h10.069V4.6h-10.07v7.5zm11.277 0h10.069V4.6h-10.07v7.5zm11.411 0h10.07V4.6h-10.07v7.5zm11.278 0h10.069V4.6h-10.07v7.5zm11.411 0h10.07V4.6h-10.07v7.5zm11.278 0h10.069V4.6h-10.07v7.5zm11.411 0h10.07V4.6h-10.07v7.5zm11.412 0h10.069V4.6h-10.07v7.5zm11.277 0h10.07V4.6h-10.07v7.5zm11.412 0h10.069V4.6h-10.07v7.5zm11.277 0h10.07V4.6h-10.07v7.5zm11.412 0h10.069V4.6h-10.07v7.5zm11.277 0h10.07V4.6h-10.07v7.5zm11.412 0h10.069V4.6h-10.07v7.5zm11.411 0h11.546V4.6h-11.546v7.5zm12.754 0h10.07V4.6h-10.07v7.5zm11.412 0h10.069V4.6h-10.07v7.5zm11.411 0h10.07V4.6h-10.07v7.5zm11.278 0h10.069V4.6h-10.07v7.5zm11.411 0h10.07V4.6h-10.07v7.5zm11.278 0h10.069V4.6h-10.07v7.5zm11.411 0h10.07V4.6h-10.07v7.5zm21.347 0h-9.935V4.6h10.069v7.5h-.134zm1.342 0h10.07V4.6h-10.07v7.5zm11.412 0h10.069V4.6h-10.07v7.5zm11.277 0h10.07V4.6h-10.07v7.5zm11.412 0h10.069V4.6h-10.07v7.5zm11.277 0h10.07V4.6h-10.07v7.5zm11.412 0h10.069V4.6h-10.07v7.5zm11.277 0h10.069V4.6h-10.069v7.5zm11.412 0h10.069V4.6h-10.07v7.5zm11.411 0h10.07V4.6h-10.07v7.5zm11.277 0h11.278V4.6h-11.278v7.5zm12.62 0h10.07V4.6h-10.07v7.5zm11.278 0h10.069V4.6h-10.07v7.5zm11.411 0h10.07V4.6h-10.07v7.5zm11.278 0h10.069V4.6h-10.07v7.5zm11.411 0h10.07V4.6h-10.07v7.5zm11.277 0h10.07V4.6h-10.07v7.5zm11.412 0h10.07V4.6h-10.07v7.5zm11.412 0h10.069V4.6h-10.07v7.5zm11.277 0h10.069V4.6h-10.069v7.5zm11.412 0h10.069V4.6h-10.07v7.5zm11.277 0h10.069V4.6h-10.07v7.5zm11.411 0h10.07V4.6h-10.07v7.5zm11.278 0h10.069V4.6h-10.07v7.5zm11.411 0h10.07V4.6h-10.07v7.5zm11.412 0h10.069V4.6h-10.069v7.5zm11.277 0h10.07V4.6h-10.07v7.5zm.135 8.4h10.069V13h-10.07v7.5zm0 8.5h10.069v-7.5h-10.07V29zm0 8.5h10.069V30h-10.07v7.5zm0 8.4h10.069v-7.5h-10.07v7.5zm0 8.5h10.069v-7.5h-10.07v7.5zm0 8.4h10.069v-7.5h-10.07v7.5zm0 8.5h10.069v-7.5h-10.07v7.5zm0 8.4h10.069v-7.5h-10.07v7.5zm0 8.5h10.069v-7.5h-10.07v7.5zm-11.412 0h10.069v-7.5h-10.069v7.5zm-11.412 0h10.07v-7.5h-10.07v7.5zm-11.277 0h10.07v-7.5h-10.07v7.5zm-11.412 0h10.07v-7.5h-10.07v7.5zm-11.277 0h10.07v-7.5h-10.07v7.5zm-11.411 0h10.069v-7.5h-10.07v7.5zm-11.278 0h10.07v-7.5h-10.07v7.5zm-11.411 0h10.069v-7.5h-10.07v7.5zm-11.412 0h10.07v-7.5h-10.07v7.5zm-11.277 0h10.069v-7.5h-10.07v7.5zm-11.412 0h10.07v-7.5h-10.07v7.5zm-11.277 0h10.069v-7.5h-10.07v7.5zm-11.412 0h10.07v-7.5h-10.07v7.5zm-11.277 0h10.069v-7.5h-10.07v7.5zm-11.412 0h10.07v-7.5h-10.07v7.5zm-12.485 0h11.277v-7.5h-11.277v7.5zm-11.412 0h10.07v-7.5h-10.07v7.5zm-11.411 0h10.069v-7.5h-10.07v7.5zm-11.278 0h10.07v-7.5h-10.07v7.5zm-11.411 0h10.069v-7.5h-10.07v7.5zm-11.278 0h10.07v-7.5h-10.07v7.5zm-11.411 0h10.069v-7.5h-10.07v7.5zm-11.278 0h10.07v-7.5h-10.07v7.5zm-11.411 0h10.069v-7.5h-10.07v7.5zm-11.412 0h10.07v-7.5h-10.07v7.5zm-11.277 0h10.069v-7.5h-10.07v7.5zm-11.412 0h10.07v-7.5h-10.07v7.5zm-11.277 0h10.069v-7.5h-10.069v7.5zm-11.412 0h10.07v-7.5h-10.07v7.5zm-11.277 0h10.07v-7.5h-10.07v7.5zm-11.412 0h10.07v-7.5h-10.07v7.5zm-11.411 0h10.069v-7.5h-10.07v7.5zm-11.277 0h10.069v-7.5h-10.07v7.5zm-12.889 0h11.546v-7.5h-11.546v7.5zm-11.411 0h10.069v-7.5h-10.07v7.5zm-11.278 0h10.07v-7.5h-10.07v7.5zm-11.411 0h10.069v-7.5h-10.07v7.5zm-11.278 0h10.07v-7.5h-10.07v7.5zm-11.411 0h10.069v-7.5h-10.07v7.5zm-11.278 0h10.07v-7.5h-10.07v7.5zm-11.411 0h10.069v-7.5h-10.07v7.5zm-11.412 0h10.07v-7.5h-10.07v7.5zm-11.277 0h10.069v-7.5h-10.069v7.5zm-11.412 0h10.07v-7.5h-10.07v7.5zm-11.277 0h10.07v-7.5h-10.07v7.5zm-11.412 0h10.07v-7.5h-10.07v7.5zm-11.277 0h10.07v-7.5h-10.07v7.5zm-11.411 0h10.069v-7.5h-10.07v7.5zm-11.412 0h10.069v-7.5h-10.069v7.5zm-11.277 0h10.069v-7.5h-10.07v7.5zm-11.412 0h10.07v-7.5h-10.07v7.5zm-12.486 0H89.52v-7.5H78.242v7.5zm-11.411 0H76.9v-7.5H66.83v7.5zm-11.277 0h10.069v-7.5h-10.07v7.5zm-11.412 0H54.21v-7.5h-10.07v7.5zm-11.412 0H42.8v-7.5H32.73v7.5zm-11.411 0h10.069v-7.5h-10.07v7.5zm0-8.4h10.069v-7.5h-10.07v7.5zm0-8.5h10.069v-7.5h-10.07v7.5zm0-8.4h10.069v-7.5h-10.07v7.5zm0-8.5h10.069v-7.5h-10.07v7.5zm0-8.4h10.069v-7.5h-10.07V46zm0-8.5h10.069V30h-10.07v7.5zm0-8.5h10.069v-7.5h-10.07V29zm0-8.5h10.069V13h-10.07v7.5zm11.411 0H42.8V13H32.73v7.5zm11.412 0H54.21V13h-10.07v7.5zm11.277 0h10.07V13h-10.07v7.5zm11.412 0H76.9V13H66.83v7.5zm11.277 0h11.278V13H78.108v7.5zm12.62 0h10.07V13h-10.07v7.5zm11.277 0h10.07V13h-10.07v7.5zm11.412 0h10.069V13h-10.069v7.5zm11.412 0h10.069V13h-10.07v7.5zm11.277 0h10.069V13h-10.07v7.5zm11.411 0h10.07V13h-10.07v7.5zm11.278 0h10.069V13h-10.07v7.5zm11.411 0h10.07V13h-10.07v7.5zm11.278 0h10.069V13h-10.07v7.5zm11.411 0h10.07V13h-10.07v7.5zm11.412 0h10.069V13h-10.07v7.5zm11.277 0h10.07V13h-10.07v7.5zm11.412 0h10.069V13h-10.07v7.5zm11.277 0h10.07V13h-10.07v7.5zm11.412 0h10.069V13h-10.07v7.5zm11.277 0h10.07V13h-10.07v7.5zm11.412 0h10.069V13h-10.07v7.5zm11.411 0h11.546V13h-11.546v7.5zm12.754 0h10.07V13h-10.07v7.5zm11.412 0h10.069V13h-10.07v7.5zm11.411 0h10.07V13h-10.07v7.5zm11.278 0h10.069V13h-10.07v7.5zm11.411 0h10.07V13h-10.07v7.5zm11.278 0h10.069V13h-10.07v7.5zm11.411 0h10.07V13h-10.07v7.5zm21.347 0h-9.935V13h10.069v7.5h-.134zm1.342 0h10.07V13h-10.07v7.5zm11.412 0h10.069V13h-10.07v7.5zm11.277 0h10.07V13h-10.07v7.5zm11.412 0h10.069V13h-10.07v7.5zm11.277 0h10.07V13h-10.07v7.5zm11.412 0h10.069V13h-10.07v7.5zm11.277 0h10.069V13h-10.069v7.5zm11.412 0h10.069V13h-10.07v7.5zm11.411 0h10.07V13h-10.07v7.5zm11.277 0h11.278V13h-11.278v7.5zm12.62 0h10.07V13h-10.07v7.5zm11.278 0h10.069V13h-10.07v7.5zm11.411 0h10.07V13h-10.07v7.5zm11.278 0h10.069V13h-10.07v7.5zm11.411 0h10.07V13h-10.07v7.5zm11.277 0h10.07V13h-10.07v7.5zm11.412 0h10.07V13h-10.07v7.5zm11.412 0h10.069V13h-10.07v7.5zm11.277 0h10.069V13h-10.069v7.5zm11.412 0h10.069V13h-10.07v7.5zm11.277 0h10.069V13h-10.07v7.5zm11.411 0h10.07V13h-10.07v7.5zm11.278 0h10.069V13h-10.07v7.5zm11.411 0h10.07V13h-10.07v7.5zm11.412 0h10.069V13h-10.069v7.5zm0 8.5h10.069v-7.5h-10.069V29zm0 8.5h10.069V30h-10.069v7.5zm0 8.4h10.069v-7.5h-10.069v7.5zm0 8.5h10.069v-7.5h-10.069v7.5zm0 8.4h10.069v-7.5h-10.069v7.5zm0 8.5h10.069v-7.5h-10.069v7.5zm0 8.5h10.069v-7.5h-10.069v7.5zm-11.412 0h10.07v-7.5h-10.07v7.5zm-11.277 0h10.07v-7.5h-10.07v7.5zm-11.412 0h10.07v-7.5h-10.07v7.5zm-11.277 0h10.07v-7.5h-10.07v7.5zm-11.411 0h10.069v-7.5h-10.07v7.5zm-11.278 0h10.07v-7.5h-10.07v7.5zm-11.411 0h10.069v-7.5h-10.07v7.5zm-11.412 0h10.07v-7.5h-10.07v7.5zm-11.277 0h10.069v-7.5h-10.07v7.5zm-11.412 0h10.07v-7.5h-10.07v7.5zm-11.277 0h10.069v-7.5h-10.07v7.5zm-11.412 0h10.07v-7.5h-10.07v7.5zm-11.277 0h10.069v-7.5h-10.07v7.5zm-11.412 0h10.07v-7.5h-10.07v7.5zm-12.485 0h11.277v-7.5h-11.277v7.5zm-11.412 0h10.07v-7.5h-10.07v7.5zm-11.411 0h10.069v-7.5h-10.07v7.5zm-11.278 0h10.07v-7.5h-10.07v7.5zm-11.411 0h10.069v-7.5h-10.07v7.5zm-11.278 0h10.07v-7.5h-10.07v7.5zm-11.411 0h10.069v-7.5h-10.07v7.5zm-11.278 0h10.07v-7.5h-10.07v7.5zm-11.411 0h10.069v-7.5h-10.07v7.5zm-11.412 0h10.07v-7.5h-10.07v7.5zm-11.277 0h10.069v-7.5h-10.07v7.5zm-11.412 0h10.07v-7.5h-10.07v7.5zm-11.277 0h10.069v-7.5h-10.069v7.5zm-11.412 0h10.07v-7.5h-10.07v7.5zm-11.277 0h10.07v-7.5h-10.07v7.5zm-11.412 0h10.07v-7.5h-10.07v7.5zm-11.411 0h10.069v-7.5h-10.07v7.5zm-11.277 0h10.069v-7.5h-10.07v7.5zm-12.889 0h11.546v-7.5h-11.546v7.5zm-11.411 0h10.069v-7.5h-10.07v7.5zm-11.278 0h10.07v-7.5h-10.07v7.5zm-11.411 0h10.069v-7.5h-10.07v7.5zm-11.278 0h10.07v-7.5h-10.07v7.5zm-11.411 0h10.069v-7.5h-10.07v7.5zm-11.278 0h10.07v-7.5h-10.07v7.5zm-11.411 0h10.069v-7.5h-10.07v7.5zm-11.412 0h10.07v-7.5h-10.07v7.5zm-11.277 0h10.069v-7.5h-10.069v7.5zm-11.412 0h10.07v-7.5h-10.07v7.5zm-11.277 0h10.07v-7.5h-10.07v7.5zm-11.412 0h10.07v-7.5h-10.07v7.5zm-11.277 0h10.07v-7.5h-10.07v7.5zm-11.411 0h10.069v-7.5h-10.07v7.5zm-11.412 0h10.069v-7.5h-10.069v7.5zm-11.277 0h10.069v-7.5h-10.07v7.5zm-11.412 0h10.07v-7.5h-10.07v7.5zm-12.486 0H89.52v-7.5H78.242v7.5zm-11.411 0H76.9v-7.5H66.83v7.5zm-11.277 0h10.069v-7.5h-10.07v7.5zm-11.412 0H54.21v-7.5h-10.07v7.5zm-11.412 0H42.8v-7.5H32.73v7.5zm0-8.5H42.8v-7.5H32.73v7.5zm0-8.4H42.8v-7.5H32.73v7.5zm0-8.5H42.8v-7.5H32.73v7.5zm0-8.4H42.8v-7.5H32.73V46zm0-8.5H42.8V30H32.73v7.5zm0-8.5H42.8v-7.5H32.73V29zm11.412 0H54.21v-7.5h-10.07V29zm11.277 0h10.07v-7.5h-10.07V29zm11.412 0H76.9v-7.5H66.83V29zm11.277 0h11.278v-7.5H78.108V29zm12.62 0h10.07v-7.5h-10.07V29zm11.277 0h10.07v-7.5h-10.07V29zm11.412 0h10.069v-7.5h-10.069V29zm11.412 0h10.069v-7.5h-10.07V29zm11.277 0h10.069v-7.5h-10.07V29zm11.411 0h10.07v-7.5h-10.07V29zm11.278 0h10.069v-7.5h-10.07V29zm11.411 0h10.07v-7.5h-10.07V29zm11.278 0h10.069v-7.5h-10.07V29zm11.411 0h10.07v-7.5h-10.07V29zm11.412 0h10.069v-7.5h-10.07V29zm11.277 0h10.07v-7.5h-10.07V29zm11.412 0h10.069v-7.5h-10.07V29zm11.277 0h10.07v-7.5h-10.07V29zm11.412 0h10.069v-7.5h-10.07V29zm11.277 0h10.07v-7.5h-10.07V29zm11.412 0h10.069v-7.5h-10.07V29zm11.411 0h11.546v-7.5h-11.546V29zm12.754 0h10.07v-7.5h-10.07V29zm11.412 0h10.069v-7.5h-10.07V29zm11.411 0h10.07v-7.5h-10.07V29zm11.278 0h10.069v-7.5h-10.07V29zm11.411 0h10.07v-7.5h-10.07V29zm11.278 0h10.069v-7.5h-10.07V29zm11.411 0h10.07v-7.5h-10.07V29zm21.347 0h-9.935v-7.5h10.069V29h-.134zm1.342 0h10.07v-7.5h-10.07V29zm11.412 0h10.069v-7.5h-10.07V29zm11.277 0h10.07v-7.5h-10.07V29zm11.412 0h10.069v-7.5h-10.07V29zm11.277 0h10.07v-7.5h-10.07V29zm11.412 0h10.069v-7.5h-10.07V29zm11.277 0h10.069v-7.5h-10.069V29zm11.412 0h10.069v-7.5h-10.07V29zm11.411 0h10.07v-7.5h-10.07V29zm11.277 0h11.278v-7.5h-11.278V29zm12.62 0h10.07v-7.5h-10.07V29zm11.278 0h10.069v-7.5h-10.07V29zm11.411 0h10.07v-7.5h-10.07V29zm11.278 0h10.069v-7.5h-10.07V29zm11.411 0h10.07v-7.5h-10.07V29zm11.277 0h10.07v-7.5h-10.07V29zm11.412 0h10.07v-7.5h-10.07V29zm11.412 0h10.069v-7.5h-10.07V29zm11.277 0h10.069v-7.5h-10.069V29zm11.412 0h10.069v-7.5h-10.07V29zm11.277 0h10.069v-7.5h-10.07V29zm11.411 0h10.07v-7.5h-10.07V29zm11.278 0h10.069v-7.5h-10.07V29zm11.411 0h10.07v-7.5h-10.07V29zm0 8.5h10.07V30h-10.07v7.5zm0 8.4h10.07v-7.5h-10.07v7.5zm0 8.5h10.07v-7.5h-10.07v7.5zm0 8.4h10.07v-7.5h-10.07v7.5zm0 8.5h10.07v-7.5h-10.07v7.5zm-11.277 0h10.07v-7.5h-10.07v7.5zm-11.412 0h10.07v-7.5h-10.07v7.5zm-11.277 0h10.07v-7.5h-10.07v7.5zm-11.411 0h10.069v-7.5h-10.07v7.5zm-11.278 0h10.07v-7.5h-10.07v7.5zm-11.411 0h10.069v-7.5h-10.07v7.5zm-11.412 0h10.07v-7.5h-10.07v7.5zm-11.277 0h10.069v-7.5h-10.07v7.5zm-11.412 0h10.07v-7.5h-10.07v7.5zm-11.277 0h10.069v-7.5h-10.07v7.5zm-11.412 0h10.07v-7.5h-10.07v7.5zm-11.277 0h10.069v-7.5h-10.07v7.5zm-11.412 0h10.07v-7.5h-10.07v7.5zm-12.485 0h11.277v-7.5h-11.277v7.5zm-11.412 0h10.07v-7.5h-10.07v7.5zm-11.411 0h10.069v-7.5h-10.07v7.5zm-11.278 0h10.07v-7.5h-10.07v7.5zm-11.411 0h10.069v-7.5h-10.07v7.5zm-11.278 0h10.07v-7.5h-10.07v7.5zm-11.411 0h10.069v-7.5h-10.07v7.5zm-11.278 0h10.07v-7.5h-10.07v7.5zm-11.411 0h10.069v-7.5h-10.07v7.5zm-11.412 0h10.07v-7.5h-10.07v7.5zm-11.277 0h10.069v-7.5h-10.07v7.5zm-11.412 0h10.07v-7.5h-10.07v7.5zm-11.277 0h10.069v-7.5h-10.069v7.5zm-11.412 0h10.07v-7.5h-10.07v7.5zm-11.277 0h10.07v-7.5h-10.07v7.5zm-11.412 0h10.07v-7.5h-10.07v7.5zm-11.411 0h10.069v-7.5h-10.07v7.5zm-11.277 0h10.069v-7.5h-10.07v7.5zm-12.889 0h11.546v-7.5h-11.546v7.5zm-11.411 0h10.069v-7.5h-10.07v7.5zm-11.278 0h10.07v-7.5h-10.07v7.5zm-11.411 0h10.069v-7.5h-10.07v7.5zm-11.278 0h10.07v-7.5h-10.07v7.5zm-11.411 0h10.069v-7.5h-10.07v7.5zm-11.278 0h10.07v-7.5h-10.07v7.5zm-11.411 0h10.069v-7.5h-10.07v7.5zm-11.412 0h10.07v-7.5h-10.07v7.5zm-11.277 0h10.069v-7.5h-10.069v7.5zm-11.412 0h10.07v-7.5h-10.07v7.5zm-11.277 0h10.07v-7.5h-10.07v7.5zm-11.412 0h10.07v-7.5h-10.07v7.5zm-11.277 0h10.07v-7.5h-10.07v7.5zm-11.411 0h10.069v-7.5h-10.07v7.5zm-11.412 0h10.069v-7.5h-10.069v7.5zm-11.277 0h10.069v-7.5h-10.07v7.5zm-11.412 0h10.07v-7.5h-10.07v7.5zm-12.486 0H89.52v-7.5H78.242v7.5zm-11.411 0H76.9v-7.5H66.83v7.5zm-11.277 0h10.069v-7.5h-10.07v7.5zm-11.412 0H54.21v-7.5h-10.07v7.5zm0-8.4H54.21v-7.5h-10.07v7.5zm0-8.5H54.21v-7.5h-10.07v7.5zm0-8.4H54.21v-7.5h-10.07V46zm0-8.5H54.21V30h-10.07v7.5zm11.277 0h10.07V30h-10.07v7.5zm11.412 0H76.9V30H66.83v7.5zm11.277 0h11.278V30H78.108v7.5zm12.62 0h10.07V30h-10.07v7.5zm11.277 0h10.07V30h-10.07v7.5zm11.412 0h10.069V30h-10.069v7.5zm11.412 0h10.069V30h-10.07v7.5zm11.277 0h10.069V30h-10.07v7.5zm11.411 0h10.07V30h-10.07v7.5zm11.278 0h10.069V30h-10.07v7.5zm11.411 0h10.07V30h-10.07v7.5zm11.278 0h10.069V30h-10.07v7.5zm11.411 0h10.07V30h-10.07v7.5zm11.412 0h10.069V30h-10.07v7.5zm11.277 0h10.07V30h-10.07v7.5zm11.412 0h10.069V30h-10.07v7.5zm11.277 0h10.07V30h-10.07v7.5zm11.412 0h10.069V30h-10.07v7.5zm11.277 0h10.07V30h-10.07v7.5zm11.412 0h10.069V30h-10.07v7.5zm11.411 0h11.546V30h-11.546v7.5zm12.754 0h10.07V30h-10.07v7.5zm11.412 0h10.069V30h-10.07v7.5zm11.411 0h10.07V30h-10.07v7.5zm11.278 0h10.069V30h-10.07v7.5zm11.411 0h10.07V30h-10.07v7.5zm11.278 0h10.069V30h-10.07v7.5zm11.411 0h10.07V30h-10.07v7.5zm21.347 0h-9.935V30h10.069v7.5h-.134zm1.342 0h10.07V30h-10.07v7.5zm11.412 0h10.069V30h-10.07v7.5zm11.277 0h10.07V30h-10.07v7.5zm11.412 0h10.069V30h-10.07v7.5zm11.277 0h10.07V30h-10.07v7.5zm11.412 0h10.069V30h-10.07v7.5zm11.277 0h10.069V30h-10.069v7.5zm11.412 0h10.069V30h-10.07v7.5zm11.411 0h10.07V30h-10.07v7.5zm11.277 0h11.278V30h-11.278v7.5zm12.62 0h10.07V30h-10.07v7.5zm11.278 0h10.069V30h-10.07v7.5zm11.411 0h10.07V30h-10.07v7.5zm11.278 0h10.069V30h-10.07v7.5zm11.411 0h10.07V30h-10.07v7.5zm11.277 0h10.07V30h-10.07v7.5zm11.412 0h10.07V30h-10.07v7.5zm11.412 0h10.069V30h-10.07v7.5zm11.277 0h10.069V30h-10.069v7.5zm11.412 0h10.069V30h-10.07v7.5zm11.277 0h10.069V30h-10.07v7.5zm11.411 0h10.07V30h-10.07v7.5zm11.278 0h10.069V30h-10.07v7.5zm.134 8.4h10.07v-7.5h-10.07v7.5zm0 8.5h10.07v-7.5h-10.07v7.5zm0 8.5h10.07v-7.5h-10.07v7.5zm-11.412 0h10.07v-7.5h-10.07v7.5zm-11.277 0h10.07v-7.5h-10.07v7.5zm-11.411 0h10.069v-7.5h-10.07v7.5zm-11.278 0h10.07v-7.5h-10.07v7.5zm-11.411 0h10.069v-7.5h-10.07v7.5zm-11.412 0h10.07v-7.5h-10.07v7.5zm-11.277 0h10.069v-7.5h-10.07v7.5zm-11.412 0h10.07v-7.5h-10.07v7.5zm-11.277 0h10.069v-7.5h-10.07v7.5zm-11.412 0h10.07v-7.5h-10.07v7.5zm-11.277 0h10.069v-7.5h-10.07v7.5zm-11.412 0h10.07v-7.5h-10.07v7.5zm-12.485 0h11.277v-7.5h-11.277v7.5zm-11.412 0h10.07v-7.5h-10.07v7.5zm-11.411 0h10.069v-7.5h-10.07v7.5zm-11.278 0h10.07v-7.5h-10.07v7.5zm-11.411 0h10.069v-7.5h-10.07v7.5zm-11.278 0h10.07v-7.5h-10.07v7.5zm-11.411 0h10.069v-7.5h-10.07v7.5zm-11.278 0h10.07v-7.5h-10.07v7.5zm-11.411 0h10.069v-7.5h-10.07v7.5zm-11.412 0h10.07v-7.5h-10.07v7.5zm-11.277 0h10.069v-7.5h-10.07v7.5zm-11.412 0h10.07v-7.5h-10.07v7.5zm-11.277 0h10.069v-7.5h-10.069v7.5zm-11.412 0h10.07v-7.5h-10.07v7.5zm-11.277 0h10.07v-7.5h-10.07v7.5zm-11.412 0h10.07v-7.5h-10.07v7.5zm-11.411 0h10.069v-7.5h-10.07v7.5zm-11.277 0h10.069v-7.5h-10.07v7.5zm-12.889 0h11.546v-7.5h-11.546v7.5zm-11.411 0h10.069v-7.5h-10.07v7.5zm-11.278 0h10.07v-7.5h-10.07v7.5zm-11.411 0h10.069v-7.5h-10.07v7.5zm-11.278 0h10.07v-7.5h-10.07v7.5zm-11.411 0h10.069v-7.5h-10.07v7.5zm-11.278 0h10.07v-7.5h-10.07v7.5zm-11.411 0h10.069v-7.5h-10.07v7.5zm-11.412 0h10.07v-7.5h-10.07v7.5zm-11.277 0h10.069v-7.5h-10.069v7.5zm-11.412 0h10.07v-7.5h-10.07v7.5zm-11.277 0h10.07v-7.5h-10.07v7.5zm-11.412 0h10.07v-7.5h-10.07v7.5zm-11.277 0h10.07v-7.5h-10.07v7.5zm-11.411 0h10.069v-7.5h-10.07v7.5zm-11.412 0h10.069v-7.5h-10.069v7.5zm-11.277 0h10.069v-7.5h-10.07v7.5zm-11.412 0h10.07v-7.5h-10.07v7.5zm-12.486 0H89.52v-7.5H78.242v7.5zm-11.411 0H76.9v-7.5H66.83v7.5zm-11.412 0h10.07v-7.5h-10.07v7.5zm0-8.5h10.07v-7.5h-10.07v7.5zm0-8.5h10.07v-7.5h-10.07v7.5zm11.412 0H76.9v-7.5H66.83v7.5zm11.277 0h11.278v-7.5H78.108v7.5zm12.62 0h10.07v-7.5h-10.07v7.5zm11.277 0h10.07v-7.5h-10.07v7.5zm11.412 0h10.069v-7.5h-10.069v7.5zm11.412 0h10.069v-7.5h-10.07v7.5zm11.277 0h10.069v-7.5h-10.07v7.5zm11.411 0h10.07v-7.5h-10.07v7.5zm11.278 0h10.069v-7.5h-10.07v7.5zm11.411 0h10.07v-7.5h-10.07v7.5zm11.278 0h10.069v-7.5h-10.07v7.5zm11.411 0h10.07v-7.5h-10.07v7.5zm11.412 0h10.069v-7.5h-10.07v7.5zm11.277 0h10.07v-7.5h-10.07v7.5zm11.412 0h10.069v-7.5h-10.07v7.5zm11.277 0h10.07v-7.5h-10.07v7.5zm11.412 0h10.069v-7.5h-10.07v7.5zm11.277 0h10.07v-7.5h-10.07v7.5zm11.412 0h10.069v-7.5h-10.07v7.5zm11.411 0h11.546v-7.5h-11.546v7.5zm12.754 0h10.07v-7.5h-10.07v7.5zm11.412 0h10.069v-7.5h-10.07v7.5zm11.411 0h10.07v-7.5h-10.07v7.5zm11.278 0h10.069v-7.5h-10.07v7.5zm11.411 0h10.07v-7.5h-10.07v7.5zm11.278 0h10.069v-7.5h-10.07v7.5zm11.411 0h10.07v-7.5h-10.07v7.5zm21.347 0h-9.935v-7.5h10.069v7.5h-.134zm1.342 0h10.07v-7.5h-10.07v7.5zm11.412 0h10.069v-7.5h-10.07v7.5zm11.277 0h10.07v-7.5h-10.07v7.5zm11.412 0h10.069v-7.5h-10.07v7.5zm11.277 0h10.07v-7.5h-10.07v7.5zm11.412 0h10.069v-7.5h-10.07v7.5zm11.277 0h10.069v-7.5h-10.069v7.5zm11.412 0h10.069v-7.5h-10.07v7.5zm11.411 0h10.07v-7.5h-10.07v7.5zm11.277 0h11.278v-7.5h-11.278v7.5zm12.62 0h10.07v-7.5h-10.07v7.5zm11.278 0h10.069v-7.5h-10.07v7.5zm11.411 0h10.07v-7.5h-10.07v7.5zm11.278 0h10.069v-7.5h-10.07v7.5zm11.411 0h10.07v-7.5h-10.07v7.5zm11.277 0h10.07v-7.5h-10.07v7.5zm11.412 0h10.07v-7.5h-10.07v7.5zm11.412 0h10.069v-7.5h-10.07v7.5zm11.277 0h10.069v-7.5h-10.069v7.5zm11.412 0h10.069v-7.5h-10.07v7.5zm11.277 0h10.069v-7.5h-10.07v7.5zm11.411 0h10.07v-7.5h-10.07v7.5zm0 8.5h10.07v-7.5h-10.07v7.5zm-11.277 0h10.07v-7.5h-10.07v7.5zm-11.411 0h10.069v-7.5h-10.07v7.5zm-11.278 0h10.07v-7.5h-10.07v7.5zm-11.411 0h10.069v-7.5h-10.07v7.5zm-11.412 0h10.07v-7.5h-10.07v7.5zm-11.277 0h10.069v-7.5h-10.07v7.5zm-11.412 0h10.07v-7.5h-10.07v7.5zm-11.277 0h10.069v-7.5h-10.07v7.5zm-11.412 0h10.07v-7.5h-10.07v7.5zm-11.277 0h10.069v-7.5h-10.07v7.5zm-11.412 0h10.07v-7.5h-10.07v7.5zm-12.485 0h11.277v-7.5h-11.277v7.5zm-11.412 0h10.07v-7.5h-10.07v7.5zm-11.411 0h10.069v-7.5h-10.07v7.5zm-11.278 0h10.07v-7.5h-10.07v7.5zm-11.411 0h10.069v-7.5h-10.07v7.5zm-11.278 0h10.07v-7.5h-10.07v7.5zm-11.411 0h10.069v-7.5h-10.07v7.5zm-11.278 0h10.07v-7.5h-10.07v7.5zm-11.411 0h10.069v-7.5h-10.07v7.5zm-11.412 0h10.07v-7.5h-10.07v7.5zm-11.277 0h10.069v-7.5h-10.07v7.5zm-11.412 0h10.07v-7.5h-10.07v7.5zm-11.277 0h10.069v-7.5h-10.069v7.5zm-11.412 0h10.07v-7.5h-10.07v7.5zm-11.277 0h10.07v-7.5h-10.07v7.5zm-11.412 0h10.07v-7.5h-10.07v7.5zm-11.411 0h10.069v-7.5h-10.07v7.5zm-11.277 0h10.069v-7.5h-10.07v7.5zm-12.889 0h11.546v-7.5h-11.546v7.5zm-11.411 0h10.069v-7.5h-10.07v7.5zm-11.278 0h10.07v-7.5h-10.07v7.5zm-11.411 0h10.069v-7.5h-10.07v7.5zm-11.278 0h10.07v-7.5h-10.07v7.5zm-11.411 0h10.069v-7.5h-10.07v7.5zm-11.278 0h10.07v-7.5h-10.07v7.5zm-11.411 0h10.069v-7.5h-10.07v7.5zm-11.412 0h10.07v-7.5h-10.07v7.5zm-11.277 0h10.069v-7.5h-10.069v7.5zm-11.412 0h10.07v-7.5h-10.07v7.5zm-11.277 0h10.07v-7.5h-10.07v7.5zm-11.412 0h10.07v-7.5h-10.07v7.5zm-11.277 0h10.07v-7.5h-10.07v7.5zm-11.411 0h10.069v-7.5h-10.07v7.5zm-11.412 0h10.069v-7.5h-10.069v7.5zm-11.277 0h10.069v-7.5h-10.07v7.5zm-11.412 0h10.07v-7.5h-10.07v7.5zm-12.486 0H89.52v-7.5H78.242v7.5zm-11.411 0H76.9v-7.5H66.83v7.5zM695.273 3.6V0h-1.342v3.6h-10.07V0h-1.342v3.6H672.45V0h-1.342v3.6h-10.07V0h-1.342v3.6h-10.069V0h-1.342v3.6h-10.07V0h-1.342v3.6h-10.069V0h-1.343v3.6h-9.733V0h-1.342v3.6h-9.667V0h-1.342v3.6h-10.07V0h-1.342v3.6h-10.069V0h-1.342v3.6h-10.07V0h-1.342v3.6h-10.07V0h-1.342v3.6h-10.069V0h-1.342v3.6h-10.07V0h-1.342v3.6h-10.069V0h-1.342v3.6h-10.07V0h-1.342v3.6h-10.069V0h-1.343v3.6h-11.277V0h-1.342v3.6h-10.07V0h-1.342v3.6h-10.07V0h-1.342v3.6H455.16V0h-1.342v3.6h-10.07V0h-1.342v3.6h-10.069V0h-1.342v3.6h-10.07V0h-1.342v3.6h-10.069V0h-1.343v3.6h-10.069V0h-1.342v3.6h-10.07V0h-1.342v3.6h-8.86V0h-1.343v3.6h-10.07V0h-1.342v3.6h-10.069V0h-1.342v3.6h-10.07V0h-1.342v3.6h-10.069V0H329.5v3.6h-10.07V0h-1.342v3.6h-10.069V0h-1.343v3.6h-10.069V0h-1.342v3.6h-11.546V0h-1.342v3.6H271.97V0h-1.343v3.6H260.56V0h-1.342v3.6h-10.07V0h-1.342v3.6h-10.069V0h-1.342v3.6h-10.07V0h-1.342v3.6h-10.07V0h-1.342v3.6h-9.263V0h-1.343v3.6h-10.069V0h-1.342v3.6h-10.07V0h-1.342v3.6h-10.069V0h-1.342v3.6h-10.07V0h-1.342v3.6h-10.07V0h-1.342v3.6h-10.069V0h-1.342v3.6h-10.07V0h-1.342v3.6h-10.069V0h-1.342v3.6h-10.07V0h-1.342v3.6H90.191V0h-1.343v3.6H77.571V0H76.23v3.6h-10.07V0h-1.342v3.6H54.748V0h-1.343v3.6H43.336V0h-1.342v3.6h-10.07V0h-1.342v3.6H20.513V0h-1.342v3.6h-9.13V0H8.7v3.6H4v1h4.699v7.5H4v1h4.699v7.5H4v1h4.699V29H4v1h4.699v7.5H4v1h4.699V46H4v1h4.699v7.5H4v1h4.699V63H4v1h4.699v7.5H4v1h4.699V80H4v1h4.699v7.5H4v1h4.699v7.9H4v1h4.699v.6h1.342v-.8h10.07v.8h1.342v-.8h10.07v.8h1.342v-.8h10.069v.8h1.342v-.8h10.07v.8h1.342v-.8h10.069v.8h1.342v-.8h10.07v.8h1.342v-.8h11.277v.8h1.343v-.8H101.2v.8h1.342v-.8h10.07v.8h1.342v-.8h10.069v.8h1.343v-.8h10.069v.8h1.342v-.8h10.07v.8h1.342v-.8h10.069v.8h1.342v-.8h10.07v.8h1.342v-.8h9.263v.8h1.343v-.8h10.069v.8h1.343v-.8h9.934v.8h1.343v-.8h10.069v.8h1.342v-.8h10.07v.8h1.342v-.8h9.935v.8h1.342v-.8h10.07v.8h1.342v-.8h9.935v.8h1.342v-.8h10.07v.8h1.342v-.8h9.935v.8h1.342v-.8h11.546v.8h1.343v-.8h10.069v.8h1.342v-.8h9.935v.8h1.342v-.8h10.07v.8h1.342v-.8h10.07v.8h1.342v-.8h9.934v.8h1.343v-.8h10.069v.8h1.343v-.8h9.934v.8h1.343v-.8h10.069v.8h1.342v-.8h9.935v.8h1.343v-.8h10.069v.8h1.342v-.8h10.07v.8h1.342v-.8h9.935v.8h1.342v-.8h10.07v.8h1.342v-.8h9.935v.8h1.342v-.8h10.07v.8h1.342v-.8h9.935v.8h1.342v-.8h10.07v.8h1.342v-.8h11.143v.8h1.342v-.8h10.07v.8h1.342v-.8h10.069v.8h1.343v-.8h9.934v.8h1.343v-.8h10.069v.8h1.342v-.8h9.935v.8h1.343v-.8h10.069v.8h1.342v-.8h9.935v.8h1.343v-.8h10.069v.8h1.342v-.8h10.07v.8h1.342v-.8h9.935v.8h1.342v-.8h10.07v.8h1.342v-.8h9.935v.8h1.342v-.8h10.07v.8h1.342v-.8h9.934v.8h1.343v-.8h10.069v.8h1.343v-.8h10.069v.8h1.342v-.8h9.935v.8h1.342v-.8H704v-1h-8.727v-7.9H704v-1h-8.727v-7.5H704v-1h-8.727v-7.5H704v-1h-8.727v-7.5H704v-1h-8.727v-7.5H704v-1h-8.727v-7.5H704v-1h-8.727v-7.5H704v-1h-8.727V30H704v-1h-8.727v-7.5H704v-1h-8.727V13H704v-1h-8.727V4.6H704v-1h-8.727z"/>
        <path fill="#3EC82C" fill-rule="nonzero" d="M0 0h200c-13.439 46-38.21 79-74.312 99H0V0z"/>
        <g fill="#FFF">
            <path d="M116.323 48.105l-1.03-1.068c.551-.371 1.056-.77 1.5-1.184l1.224.914c-.503.47-1.073.92-1.694 1.338zm-3.933 1.99l-.675-1.25c.653-.246 1.28-.52 1.865-.813l.845 1.176c-.64.32-1.324.619-2.035.887zm-21.946 1.091l-.114-1.368c.526-.03 1.052-.046 1.566-.046.243.002.479.003.717.01l-.052 1.37a24.925 24.925 0 0 0-2.116.034zm17.626.116l-.373-1.336c.7-.136 1.388-.298 2.046-.48l.518 1.301a28.54 28.54 0 0 1-2.191.515zm-11.242.314c-.485-.06-.976-.13-1.457-.207a20.416 20.416 0 0 0-.713-.1l.24-1.358c.263.033.524.07.782.111.458.074.925.14 1.388.197l-.24 1.357zm-10.582.137l-.399-1.33c.74-.156 1.488-.285 2.223-.385l.264 1.354c-.69.094-1.392.215-2.088.36zm17.342.1l-.11-1.37c.717-.04 1.431-.102 2.125-.187l.237 1.357a34.71 34.71 0 0 1-2.252.2zm-2.26.055a38.75 38.75 0 0 1-2.257-.081l.128-1.368c.714.047 1.434.073 2.141.077l-.012 1.372zm-19.136.976l-.634-1.265c.699-.244 1.41-.468 2.116-.666l.521 1.301c-.667.187-1.34.399-2.003.63zm-3.829 1.61l-.836-1.181c.646-.32 1.312-.624 1.98-.904l.738 1.224c-.634.268-1.268.557-1.882.86zm-34.56.88a15.009 15.009 0 0 0-2.049-.205l.052-1.37c.741.019 1.521.096 2.318.229l-.32 1.345zm-6 .415l-.63-1.267a13.494 13.494 0 0 1 2.26-.572l.314 1.347c-.657.107-1.31.272-1.943.492zm9.98.699a21.552 21.552 0 0 0-1.958-.659l.526-1.299c.708.2 1.423.44 2.126.715l-.695 1.243zm27.041.032l-1.016-1.078c.59-.388 1.202-.764 1.817-1.116l.928 1.131c-.585.336-1.167.693-1.729 1.063zm-40.455 1.128l-1.11-1.01c.582-.447 1.201-.85 1.84-1.198l.897 1.15c-.563.306-1.11.662-1.627 1.058zm17.05.652a22.462 22.462 0 0 0-1.766-.982l.841-1.178c.648.324 1.288.679 1.9 1.056l-.976 1.104zm20.22.62l-1.18-.954a31.66 31.66 0 0 1 1.624-1.309l1.1 1.019c-.53.399-1.049.818-1.544 1.244zm-39.885 1.422l-1.407-.707c.4-.555.845-1.088 1.325-1.583l1.277.862c-.432.446-.834.927-1.195 1.428zm22.81.325c-.47-.431-.975-.851-1.502-1.248l1.099-1.02c.568.428 1.112.88 1.618 1.345l-1.215.923zm14.318.991l-1.329-.806a27.58 27.58 0 0 1 1.394-1.486l1.255.884c-.46.456-.904.93-1.32 1.408zM57.055 63.51a16.054 16.054 0 0 0-1.152-1.475l1.324-.811c.454.517.875 1.057 1.251 1.602l-1.423.684zm-26.954.03l-1.582-.368c.205-.614.465-1.227.772-1.82l1.507.544c-.278.537-.512 1.09-.697 1.645zm36.528 1.155l-1.457-.633c.345-.554.722-1.107 1.12-1.643l1.395.724a22.954 22.954 0 0 0-1.058 1.552zm-7.923 2.036a12.99 12.99 0 0 0-.71-1.65l1.51-.54c.302.589.563 1.196.776 1.806l-1.576.384zm-30.767.281a10.453 10.453 0 0 1 .117-1.943l1.629.176a9.271 9.271 0 0 0-.105 1.726l-1.641.041zm36.953 1.01l-1.505-.548c.126-.242.246-.49.358-.74.143-.32.298-.643.46-.962l1.512.537c-.153.3-.3.605-.434.906-.122.272-.253.543-.391.807zm-5.518 2.16a12.022 12.022 0 0 0-.207-1.743l1.622-.219c.121.627.197 1.27.226 1.911l-1.641.051zm-30.45.654a8.837 8.837 0 0 1-.71-1.88l1.607-.283c.142.564.348 1.109.612 1.62l-1.508.543zm33.635.488l-1.3-.837c.424-.46.82-.948 1.174-1.45l1.415.696a15.66 15.66 0 0 1-1.29 1.591zm-30.907 2.72c-.587-.45-1.114-.949-1.568-1.482l1.34-.795c.386.456.837.882 1.34 1.268l-1.112 1.01zm27.674.004l-1.017-1.078c.337-.221.664-.454.98-.695.014-.113.026-.225.037-.338l.36.025.191-.158.225.186.861.059c-.02.198-.043.397-.071.596l.15.125-.193.16a15.11 15.11 0 0 1-.199 1.014l-.944-.153c-.126.087-.252.172-.38.257zm-3.895 2.006l-.702-1.24a20.8 20.8 0 0 0 1.856-.839l.86 1.169c-.643.33-1.32.636-2.014.91zm-19.907.111a19.107 19.107 0 0 1-2.015-.936l.891-1.152a17.41 17.41 0 0 0 1.83.85l-.706 1.238zm15.608 1.156l-.39-1.332c.688-.141 1.372-.311 2.031-.504l.545 1.293c-.71.209-1.445.391-2.186.543zm-11.285.086a25.522 25.522 0 0 1-2.198-.521l.531-1.298c.655.187 1.34.349 2.033.482l-.366 1.337zm19.496.18l-1.523-.515c.27-.557.508-1.12.708-1.673l1.572.396a18.85 18.85 0 0 1-.757 1.791zm-12.71.29l-.09-1.37a27.882 27.882 0 0 0 2.114-.178l.24 1.357c-.745.092-1.506.156-2.263.191zm-2.274.019a29.547 29.547 0 0 1-2.268-.155l.21-1.36a27.22 27.22 0 0 0 2.117.144l-.059 1.37zm12.961 3.069l-1.41-.701c.37-.522.717-1.05 1.03-1.569l1.467.615c-.33.549-.695 1.106-1.087 1.655zm-2.555 3.107l-1.28-.859c.25-.262.499-.534.737-.81.182-.21.358-.42.53-.628l1.354.775a32.52 32.52 0 0 1-.553.656c-.254.295-.52.586-.788.866zm-3.156 2.73l-1.072-1.038a22.209 22.209 0 0 0 1.543-1.219l1.182.952c-.524.454-1.08.893-1.653 1.306zm-3.684 2.211l-.84-1.178a26.07 26.07 0 0 0 1.781-.973l.957 1.115c-.607.363-1.246.712-1.898 1.036zm-41.412 1.53c-.722-.158-1.443-.324-2.142-.492l.456-1.318c.686.165 1.394.328 2.104.484l-.418 1.327zm37.353.138l-.612-1.273a32.34 32.34 0 0 0 1.955-.725l.723 1.231c-.667.273-1.362.531-2.066.767zm-33.033.723c-.716-.128-1.444-.265-2.166-.41l.381-1.333c.71.14 1.426.276 2.13.402l-.345 1.341zm28.747.44l-.408-1.328c.705-.151 1.4-.319 2.065-.499l.506 1.305c-.698.189-1.426.365-2.163.523zm-24.383.253c-.72-.1-1.456-.209-2.187-.325l.307-1.347c.718.114 1.44.221 2.148.319l-.268 1.353zm19.978.474l-.234-1.358a49.375 49.375 0 0 0 2.129-.301l.317 1.346c-.718.118-1.462.223-2.212.313zM19.6 92.61a99.365 99.365 0 0 1-2.206-.233l.227-1.358c.721.084 1.449.16 2.163.228l-.184 1.363zm4.435.31a87.525 87.525 0 0 1-2.221-.128l.137-1.367c.73.051 1.46.093 2.172.125l-.088 1.37zm6.686.012l-.088-1.37a61.999 61.999 0 0 0 2.16-.134l.158 1.365c-.73.059-1.48.106-2.23.14zM27.584 93c-.443 0-.884-.004-1.324-.012l.035-1.37c.72.012 1.443.014 2.17.005l.024 1.372c-.302.003-.604.005-.905.005zM1.688 89.368c-.446-.18-.688-.29-.688-.29l.358-1.26c.004.001.235.104.656.275l-.326 1.275zm117.895-44.582l-1.539-.86c.186-.302.354-.613.5-.926l1.628.696c-.173.368-.371.735-.59 1.09z"/>
            <path fill-opacity=".9" d="M123.36 36.19l-1.717 5.686 5.162-3.434-3.445-2.252zm-2.731 4.162l.158-.003c.471-1.536.899-3.086 1.438-4.597.191-.535.56-1.098 1.008-1.435 3.187-2.4 6.416-4.745 9.632-7.108l4.25-3.124c-.155-.028-.187-.044-.205-.035-5.706 2.915-11.41 5.835-17.122 8.74-.408.207-.485.457-.4.87.178.872.317 1.753.48 2.63.25 1.355.507 2.708.761 4.062zm18.906-19.1c-.015-.033-.03-.067-.043-.102l-29.788 6.162c2.924 1.543 5.614 2.945 8.283 4.386.478.258.836.226 1.297-.011 6.541-3.366 13.091-6.714 19.638-10.07.21-.108.409-.242.613-.364zm-15.44 13.944l11.171 7.254 7.818-21.224-18.99 13.97zm-16.833-8.351c.313-.163.608-.406.94-.476 11.861-2.469 23.725-4.927 35.595-7.356.366-.074.8.183 1.203.285v.503c-.888 2.336-1.79 4.665-2.66 7.008-2.012 5.428-4.007 10.863-6.012 16.295-.39 1.057-.6 1.121-1.567.493-2.058-1.335-4.127-2.656-6.163-4.025-.502-.338-.84-.304-1.321.026-2.001 1.372-4.031 2.702-6.054 4.044-.876.582-1.213.417-1.388-.592a635.902 635.902 0 0 0-1.715-9.54c-.05-.26-.37-.534-.633-.675-2.996-1.606-6.007-3.185-9.01-4.778-.414-.22-.81-.472-1.215-.71v-.502z"/>
        </g>
        <path fill="#3EC82C" d="M247.042 47.336c-2.464 0-4.872-.98-6.608-2.688l1.904-2.212c1.316 1.232 3.08 2.072 4.76 2.072 2.072 0 3.192-.924 3.192-2.352 0-1.512-1.176-1.988-2.828-2.688l-2.52-1.092c-1.792-.756-3.696-2.184-3.696-4.872 0-2.912 2.576-5.152 6.16-5.152 2.128 0 4.2.896 5.628 2.324l-1.652 2.072c-1.176-.98-2.408-1.568-3.976-1.568-1.736 0-2.884.812-2.884 2.156 0 1.428 1.4 1.96 2.912 2.576l2.492 1.036c2.156.924 3.696 2.296 3.696 4.956 0 2.968-2.464 5.432-6.58 5.432zm16.772 0c-4.228 0-6.944-2.352-6.944-8.372V28.688h3.248v10.528c0 3.976 1.484 5.292 3.696 5.292 2.24 0 3.808-1.316 3.808-5.292V28.688h3.108v10.276c0 6.02-2.66 8.372-6.916 8.372zm18.788 0c-4.62 0-8.26-3.36-8.26-9.436 0-5.992 3.752-9.548 8.372-9.548 2.296 0 4.144 1.092 5.292 2.324l-1.736 2.1c-.952-.952-2.044-1.596-3.472-1.596-2.996 0-5.124 2.52-5.124 6.636 0 4.172 1.96 6.692 5.04 6.692 1.624 0 2.884-.756 3.92-1.876l1.736 2.044c-1.484 1.708-3.416 2.66-5.768 2.66zm16.128 0c-4.62 0-8.26-3.36-8.26-9.436 0-5.992 3.752-9.548 8.372-9.548 2.296 0 4.144 1.092 5.292 2.324l-1.736 2.1c-.952-.952-2.044-1.596-3.472-1.596-2.996 0-5.124 2.52-5.124 6.636 0 4.172 1.96 6.692 5.04 6.692 1.624 0 2.884-.756 3.92-1.876l1.736 2.044c-1.484 1.708-3.416 2.66-5.768 2.66zm8.82-.336V28.688h11.032v2.744h-7.784v4.676h6.58v2.744h-6.58v5.404h8.064V47H307.55zm20.412.336c-2.464 0-4.872-.98-6.608-2.688l1.904-2.212c1.316 1.232 3.08 2.072 4.76 2.072 2.072 0 3.192-.924 3.192-2.352 0-1.512-1.176-1.988-2.828-2.688l-2.52-1.092c-1.792-.756-3.696-2.184-3.696-4.872 0-2.912 2.576-5.152 6.16-5.152 2.128 0 4.2.896 5.628 2.324l-1.652 2.072c-1.176-.98-2.408-1.568-3.976-1.568-1.736 0-2.884.812-2.884 2.156 0 1.428 1.4 1.96 2.912 2.576l2.492 1.036c2.156.924 3.696 2.296 3.696 4.956 0 2.968-2.464 5.432-6.58 5.432zm15.26 0c-2.464 0-4.872-.98-6.608-2.688l1.904-2.212c1.316 1.232 3.08 2.072 4.76 2.072 2.072 0 3.192-.924 3.192-2.352 0-1.512-1.176-1.988-2.828-2.688l-2.52-1.092c-1.792-.756-3.696-2.184-3.696-4.872 0-2.912 2.576-5.152 6.16-5.152 2.128 0 4.2.896 5.628 2.324l-1.652 2.072c-1.176-.98-2.408-1.568-3.976-1.568-1.736 0-2.884.812-2.884 2.156 0 1.428 1.4 1.96 2.912 2.576l2.492 1.036c2.156.924 3.696 2.296 3.696 4.956 0 2.968-2.464 5.432-6.58 5.432zm10.92-6.356l-.448-9.548-.084-3.192h3.248l-.112 3.192-.448 9.548h-2.156zm1.092 6.356c-1.176 0-2.1-.924-2.1-2.184 0-1.26.924-2.184 2.1-2.184 1.176 0 2.072.924 2.072 2.184 0 1.26-.896 2.184-2.072 2.184z"/>
        <path fill="#666" d="M242.136 71v-4.064l-3.152-6.432h1.424l1.36 2.96c.336.768.656 1.504 1.008 2.288h.064c.368-.784.736-1.52 1.056-2.288l1.344-2.96h1.392l-3.152 6.432V71h-1.344zm8.816.192c-1.904 0-3.6-1.488-3.6-4.064 0-2.608 1.696-4.096 3.6-4.096 1.904 0 3.6 1.488 3.6 4.096 0 2.576-1.696 4.064-3.6 4.064zm0-1.088c1.344 0 2.24-1.2 2.24-2.976 0-1.792-.896-3.008-2.24-3.008-1.328 0-2.24 1.216-2.24 3.008 0 1.776.912 2.976 2.24 2.976zm7.92 1.088c-1.648 0-2.384-1.056-2.384-3.04v-4.928h1.328v4.752c0 1.456.432 2.08 1.456 2.08.8 0 1.36-.4 2.096-1.312v-5.52h1.312V71h-1.088l-.112-1.216h-.048c-.72.848-1.488 1.408-2.56 1.408zm6.432-.192v-7.776h1.088l.112 1.408h.048c.528-.976 1.328-1.6 2.208-1.6.336 0 .576.048.832.16l-.256 1.152a2.176 2.176 0 0 0-.752-.128c-.656 0-1.44.48-1.968 1.792V71h-1.312zm10.544.192c-1.296 0-2.272-.816-2.272-2.208 0-1.696 1.456-2.544 4.768-2.912 0-.992-.32-1.952-1.6-1.952-.896 0-1.712.416-2.32.832l-.512-.912c.72-.464 1.808-1.008 3.056-1.008 1.904 0 2.704 1.264 2.704 3.2V71h-1.088l-.112-.928h-.048c-.736.608-1.6 1.12-2.576 1.12zm.384-1.056c.752 0 1.36-.368 2.112-1.04v-2.16c-2.592.32-3.488.96-3.488 1.952 0 .88.608 1.248 1.376 1.248zm5.888 4.144V63.224h1.088l.112.896h.048c.704-.592 1.568-1.088 2.48-1.088 2 0 3.072 1.552 3.072 3.968 0 2.64-1.584 4.192-3.36 4.192-.72 0-1.44-.336-2.16-.896l.032 1.36v2.624h-1.312zm3.216-4.192c1.28 0 2.224-1.168 2.224-3.088 0-1.712-.576-2.864-2.048-2.864-.656 0-1.312.368-2.08 1.056v4.08c.704.592 1.392.816 1.904.816zM291 74.28V63.224h1.088l.112.896h.048c.704-.592 1.568-1.088 2.48-1.088 2 0 3.072 1.552 3.072 3.968 0 2.64-1.584 4.192-3.36 4.192-.72 0-1.44-.336-2.16-.896l.032 1.36v2.624H291zm3.216-4.192c1.28 0 2.224-1.168 2.224-3.088 0-1.712-.576-2.864-2.048-2.864-.656 0-1.312.368-2.08 1.056v4.08c.704.592 1.392.816 1.904.816zm7.056 1.104c-.992 0-1.392-.624-1.392-1.76v-9.824h1.312v9.92c0 .416.176.576.368.576.08 0 .144 0 .288-.032l.176.992c-.176.08-.4.128-.752.128zM303.96 71v-7.776h1.312V71h-1.312zm.672-9.376c-.512 0-.912-.352-.912-.848 0-.512.4-.848.912-.848s.912.336.912.848c0 .496-.4.848-.912.848zm6.336 9.568c-2.064 0-3.648-1.488-3.648-4.064 0-2.608 1.744-4.096 3.744-4.096 1.024 0 1.728.416 2.272.912l-.672.864c-.448-.4-.928-.688-1.552-.688-1.408 0-2.432 1.216-2.432 3.008 0 1.776.976 2.976 2.4 2.976.72 0 1.344-.352 1.824-.784l.576.88c-.704.624-1.584.992-2.512.992zm6.016 0c-1.296 0-2.272-.816-2.272-2.208 0-1.696 1.456-2.544 4.768-2.912 0-.992-.32-1.952-1.6-1.952-.896 0-1.712.416-2.32.832l-.512-.912c.72-.464 1.808-1.008 3.056-1.008 1.904 0 2.704 1.264 2.704 3.2V71h-1.088l-.112-.928h-.048c-.736.608-1.6 1.12-2.576 1.12zm.384-1.056c.752 0 1.36-.368 2.112-1.04v-2.16c-2.592.32-3.488.96-3.488 1.952 0 .88.608 1.248 1.376 1.248zm8.336 1.056c-1.664 0-2.224-1.056-2.224-2.592v-4.304h-1.152v-.992l1.216-.08.16-2.176h1.104v2.176h2.096v1.072h-2.096v4.32c0 .96.304 1.504 1.2 1.504.272 0 .624-.112.88-.208l.256.992c-.432.144-.96.288-1.44.288zm2.96-.192v-7.776h1.312V71h-1.312zm.672-9.376c-.512 0-.912-.352-.912-.848 0-.512.4-.848.912-.848s.912.336.912.848c0 .496-.4.848-.912.848zm6.288 9.568c-1.904 0-3.6-1.488-3.6-4.064 0-2.608 1.696-4.096 3.6-4.096 1.904 0 3.6 1.488 3.6 4.096 0 2.576-1.696 4.064-3.6 4.064zm0-1.088c1.344 0 2.24-1.2 2.24-2.976 0-1.792-.896-3.008-2.24-3.008-1.328 0-2.24 1.216-2.24 3.008 0 1.776.912 2.976 2.24 2.976zm5.648.896v-7.776h1.088l.112 1.12h.048c.736-.736 1.536-1.312 2.608-1.312 1.632 0 2.368 1.056 2.368 3.04V71h-1.312v-4.752c0-1.456-.448-2.08-1.472-2.08-.8 0-1.344.416-2.128 1.2V71h-1.312zm11.952 0V59.608h1.312v3.104l-.048 1.6c.736-.704 1.52-1.28 2.592-1.28 1.632 0 2.368 1.056 2.368 3.04V71h-1.312v-4.752c0-1.456-.448-2.08-1.472-2.08-.8 0-1.344.416-2.128 1.2V71h-1.312zm10.496.192c-1.296 0-2.272-.816-2.272-2.208 0-1.696 1.456-2.544 4.768-2.912 0-.992-.32-1.952-1.6-1.952-.896 0-1.712.416-2.32.832l-.512-.912c.72-.464 1.808-1.008 3.056-1.008 1.904 0 2.704 1.264 2.704 3.2V71h-1.088l-.112-.928h-.048c-.736.608-1.6 1.12-2.576 1.12zm.384-1.056c.752 0 1.36-.368 2.112-1.04v-2.16c-2.592.32-3.488.96-3.488 1.952 0 .88.608 1.248 1.376 1.248zm7.92 1.056c-1.104 0-2.16-.464-2.896-1.072l.656-.88c.672.544 1.36.928 2.288.928 1.024 0 1.536-.544 1.536-1.216 0-.8-.928-1.152-1.776-1.472-1.104-.4-2.32-.928-2.32-2.24 0-1.248.992-2.208 2.672-2.208.976 0 1.824.4 2.416.88l-.624.832c-.528-.4-1.088-.688-1.776-.688-.976 0-1.424.528-1.424 1.12 0 .736.848 1.008 1.728 1.344 1.12.416 2.368.88 2.368 2.352 0 1.264-1.008 2.32-2.848 2.32zm11.312 0c-.72 0-1.536-.368-2.224-.992h-.048l-.112.8h-1.056V59.608h1.312v3.104l-.032 1.408c.704-.624 1.568-1.088 2.432-1.088 2.016 0 3.088 1.552 3.088 3.952 0 2.656-1.584 4.208-3.36 4.208zm-.224-1.104c1.28 0 2.224-1.168 2.224-3.088 0-1.712-.576-2.864-2.048-2.864-.656 0-1.344.368-2.08 1.056v4.08c.688.592 1.392.816 1.904.816zm8.784 1.104c-2.08 0-3.728-1.52-3.728-4.064s1.712-4.096 3.488-4.096c1.984 0 3.104 1.424 3.104 3.648 0 .272-.016.56-.048.752h-5.248c.096 1.648 1.104 2.704 2.592 2.704.736 0 1.36-.24 1.936-.608l.464.864c-.672.432-1.504.8-2.56.8zm-2.448-4.704h4.16c0-1.568-.704-2.416-1.92-2.416-1.088 0-2.08.88-2.24 2.416zm10.384 4.704c-2.08 0-3.728-1.52-3.728-4.064s1.712-4.096 3.488-4.096c1.984 0 3.104 1.424 3.104 3.648 0 .272-.016.56-.048.752H397.4c.096 1.648 1.104 2.704 2.592 2.704.736 0 1.36-.24 1.936-.608l.464.864c-.672.432-1.504.8-2.56.8zm-2.448-4.704h4.16c0-1.568-.704-2.416-1.92-2.416-1.088 0-2.08.88-2.24 2.416zM404.616 71v-7.776h1.088l.112 1.12h.048c.736-.736 1.536-1.312 2.608-1.312 1.632 0 2.368 1.056 2.368 3.04V71h-1.312v-4.752c0-1.456-.448-2.08-1.472-2.08-.8 0-1.344.416-2.128 1.2V71h-1.312zm13.984.192c-1.104 0-2.16-.464-2.896-1.072l.656-.88c.672.544 1.36.928 2.288.928 1.024 0 1.536-.544 1.536-1.216 0-.8-.928-1.152-1.776-1.472-1.104-.4-2.32-.928-2.32-2.24 0-1.248.992-2.208 2.672-2.208.976 0 1.824.4 2.416.88l-.624.832c-.528-.4-1.088-.688-1.776-.688-.976 0-1.424.528-1.424 1.12 0 .736.848 1.008 1.728 1.344 1.12.416 2.368.88 2.368 2.352 0 1.264-1.008 2.32-2.848 2.32zm6.944 0c-1.648 0-2.384-1.056-2.384-3.04v-4.928h1.328v4.752c0 1.456.432 2.08 1.456 2.08.8 0 1.36-.4 2.096-1.312v-5.52h1.312V71h-1.088l-.112-1.216h-.048c-.72.848-1.488 1.408-2.56 1.408zm9.872 0c-.72 0-1.536-.368-2.224-.992h-.048l-.112.8h-1.056V59.608h1.312v3.104l-.032 1.408c.704-.624 1.568-1.088 2.432-1.088 2.016 0 3.088 1.552 3.088 3.952 0 2.656-1.584 4.208-3.36 4.208zm-.224-1.104c1.28 0 2.224-1.168 2.224-3.088 0-1.712-.576-2.864-2.048-2.864-.656 0-1.344.368-2.08 1.056v4.08c.688.592 1.392.816 1.904.816zm5.632.912v-7.776h1.088l.112 1.12h.048c.672-.736 1.488-1.312 2.416-1.312 1.184 0 1.824.56 2.144 1.488.816-.88 1.616-1.488 2.56-1.488 1.6 0 2.368 1.056 2.368 3.04V71h-1.312v-4.752c0-1.456-.464-2.08-1.44-2.08-.608 0-1.232.4-1.952 1.2V71h-1.312v-4.752c0-1.456-.464-2.08-1.456-2.08-.576 0-1.232.4-1.952 1.2V71h-1.312zm13.264 0v-7.776h1.312V71h-1.312zm.672-9.376c-.512 0-.912-.352-.912-.848 0-.512.4-.848.912-.848s.912.336.912.848c0 .496-.4.848-.912.848zm5.712 9.568c-1.664 0-2.224-1.056-2.224-2.592v-4.304h-1.152v-.992l1.216-.08.16-2.176h1.104v2.176h2.096v1.072h-2.096v4.32c0 .96.304 1.504 1.2 1.504.272 0 .624-.112.88-.208l.256.992c-.432.144-.96.288-1.44.288zm5.408 0c-1.664 0-2.224-1.056-2.224-2.592v-4.304h-1.152v-.992l1.216-.08.16-2.176h1.104v2.176h2.096v1.072h-2.096v4.32c0 .96.304 1.504 1.2 1.504.272 0 .624-.112.88-.208l.256.992c-.432.144-.96.288-1.44.288zm6.112 0c-2.08 0-3.728-1.52-3.728-4.064s1.712-4.096 3.488-4.096c1.984 0 3.104 1.424 3.104 3.648 0 .272-.016.56-.048.752h-5.248c.096 1.648 1.104 2.704 2.592 2.704.736 0 1.36-.24 1.936-.608l.464.864c-.672.432-1.504.8-2.56.8zm-2.448-4.704h4.16c0-1.568-.704-2.416-1.92-2.416-1.088 0-2.08.88-2.24 2.416zm9.888 4.704c-1.952 0-3.216-1.472-3.216-4.064 0-2.528 1.6-4.096 3.376-4.096.896 0 1.488.336 2.176.896l-.064-1.328v-2.992h1.328V71h-1.088l-.112-.912h-.048c-.608.592-1.44 1.104-2.352 1.104zm.288-1.104c.72 0 1.344-.352 1.984-1.072v-4.064c-.656-.592-1.248-.816-1.888-.816-1.248 0-2.24 1.2-2.24 2.976 0 1.856.784 2.976 2.144 2.976z"/>
    </g>
</svg>
