<svg xmlns="http://www.w3.org/2000/svg" width="24" height="25" viewBox="0 0 24 25">
    <g fill="none" fill-rule="evenodd">
        <path d="M0 0h24v25H0z"/>
        <path fill="#7E7E7E" fill-rule="nonzero" d="M12 3.211c-4.962 0-9 4.153-9 9.256 0 5.104 4.038 9.257 9 9.257s9-4.153 9-9.257c0-5.103-4.038-9.256-9-9.256zm0 1.424c4.214 0 7.615 3.498 7.615 7.832S16.214 20.3 12 20.3 4.385 16.8 4.385 12.467 7.786 4.635 12 4.635zm0 1.187a.702.702 0 0 0-.692.712v5.933c0 .264.14.493.346.616l4.594 2.73c.33.196.76.08.952-.26a.724.724 0 0 0-.26-.972l-4.248-2.522V6.534A.702.702 0 0 0 12 5.822z"/>
    </g>
</svg>
