<svg xmlns="http://www.w3.org/2000/svg" width="32" height="32" viewBox="0 0 32 32">
    <g fill="none" fill-rule="nonzero">
        <path fill="#B8E986" d="M29.636 14.576c0 7.498-6.185 13.576-13.818 13.576C8.186 28.152 2 22.074 2 14.576 2 7.077 8.186 1 15.818 1c7.633 0 13.818 6.077 13.818 13.576z"/>
        <path fill="#7ED321" d="M24.948 14.816c0-5.227-4.56-9.368-10.018-8.756-4.145.475-7.462 3.734-7.875 7.806-.346 3.121.966 5.905 3.176 7.668.97.817 1.59 1.97 1.59 3.26v.203h8.291v-.069c0-1.22.553-2.442 1.52-3.256 2.005-1.63 3.316-4.072 3.316-6.856z"/>
        <path fill="#FFF" d="M20.327 13.459l-2.072-1.358a.765.765 0 0 0-.762 0l-1.727 1.088L14.11 12.1a.765.765 0 0 0-.761 0l-2.073 1.358c-.137.135-.275.273-.275.475 0 .204 0 .408.138.543l2.626 3.19v7.196h1.381v-7.467c0-.135-.07-.27-.14-.408l-2.278-2.781 1.037-.68 1.657 1.085a.752.752 0 0 0 .76 0l1.658-1.084 1.036.679-2.28 2.781c-.068.138-.138.273-.138.408v7.467h1.382v-7.196l2.626-3.19a.52.52 0 0 0 .138-.543c-.07-.202-.138-.406-.276-.475z"/>
        <path fill="#9B9B9B" d="M18.145 29.036c0 1.125-.928 2.037-2.072 2.037-1.145 0-2.073-.912-2.073-2.037 0-1.124.928-2.036 2.073-2.036 1.144 0 2.072.912 2.072 2.036z"/>
        <path fill="#4A4A4A" d="M17.527 30.11h-2.763c-1.52 0-2.764-1.223-2.764-2.716V24h8.29v3.394c0 1.493-1.243 2.715-2.763 2.715z"/>
        <path fill="#9B9B9B" d="M20.016 27L12 28.087c.208.475.623.95 1.107 1.22l6.493-.88c.278-.409.416-.883.416-1.427zM12 26.153v1.358l8.29-1.153V25z"/>
    </g>
</svg>
