<svg xmlns="http://www.w3.org/2000/svg" width="92" height="31" viewBox="0 0 92 31">
    <g fill="none" fill-rule="evenodd">
        <rect width="91.5" height="30.5" x=".25" y=".25" stroke="#4855B5" stroke-width=".5" rx="15.25"/>
        <path fill="#4855B5" d="M26.248 20.192c-2.416 0-3.968-1.344-3.968-4.784V9.536h1.856v6.016c0 2.272.848 3.024 2.112 3.024 1.28 0 2.176-.752 2.176-3.024V9.536H30.2v5.872c0 3.44-1.52 4.784-3.952 4.784zm6.385 2.912v-10.96h1.52l.128.832h.064c.656-.56 1.504-1.024 2.368-1.024 1.952 0 3.088 1.568 3.088 4 0 2.688-1.616 4.24-3.36 4.24-.688 0-1.376-.32-2.016-.864l.048 1.312v2.464h-1.84zm3.424-4.432c1.04 0 1.84-.928 1.84-2.704 0-1.568-.512-2.496-1.696-2.496-.576 0-1.12.288-1.728.88v3.664c.576.48 1.12.656 1.584.656zm8.337 1.52c-1.968 0-3.232-1.52-3.232-4.112 0-2.56 1.616-4.128 3.328-4.128.896 0 1.456.336 2.064.864l-.064-1.264V8.704h1.84V20h-1.52l-.128-.848h-.064c-.576.576-1.376 1.04-2.224 1.04zm.448-1.52c.608 0 1.12-.272 1.648-.88v-3.664c-.544-.48-1.072-.656-1.6-.656-1.008 0-1.824.944-1.824 2.592 0 1.696.64 2.608 1.776 2.608zm7.713 1.52c-1.376 0-2.32-.928-2.32-2.304 0-1.68 1.392-2.56 4.624-2.912-.032-.832-.368-1.536-1.44-1.536-.768 0-1.504.352-2.208.768l-.672-1.232c.864-.544 1.984-1.024 3.232-1.024 1.952 0 2.928 1.2 2.928 3.392V20h-1.52l-.128-.864h-.064c-.704.592-1.504 1.056-2.432 1.056zm.592-1.44c.64 0 1.12-.32 1.712-.864v-1.76c-2.144.272-2.848.832-2.848 1.616 0 .704.48 1.008 1.136 1.008zm8.257 1.44c-1.824 0-2.496-1.152-2.496-2.848V13.6h-1.12v-1.376l1.216-.08.224-2.144h1.536v2.144h2V13.6h-2v3.744c0 .928.352 1.376 1.104 1.376.272 0 .592-.08.816-.176l.32 1.36c-.432.144-.976.288-1.6.288zm6.097 0c-2.176 0-3.872-1.52-3.872-4.112 0-2.56 1.776-4.128 3.616-4.128 2.128 0 3.248 1.536 3.248 3.728 0 .352-.032.704-.08.896h-4.992c.16 1.392 1.056 2.192 2.32 2.192.672 0 1.248-.208 1.824-.576l.624 1.152c-.752.496-1.696.848-2.688.848zm-2.096-4.864h3.488c0-1.216-.528-1.952-1.6-1.952-.928 0-1.728.688-1.888 1.952z"/>
    </g>
</svg>
