<svg xmlns="http://www.w3.org/2000/svg" width="24" height="24" viewBox="0 0 24 24">
    <g fill="none" fill-rule="nonzero">
        <path d="M0 0h24v24H0z"/>
        <path fill="#F9683D" d="M18.162 12.2L23 16.555v-8.71L18.162 12.2zm-.495 6v-12c0-.083-.13-.2-.334-.2h-16C1.13 6 1 6.117 1 6.2v12c0 .083.13.2.333.2h16c.204 0 .334-.117.334-.2zm2-8.7L24 5.6v13.2l-4.333-3.9-1-.9v4.2c0 .66-.6 1.2-1.334 1.2h-16C.6 19.4 0 18.86 0 18.2v-12C0 5.54.6 5 1.333 5h16c.734 0 1.334.54 1.334 1.2v4.2l1-.9z"/>
    </g>
</svg>
