<?xml version="1.0" encoding="UTF-8" standalone="no"?>
<!DOCTYPE svg PUBLIC "-//W3C//DTD SVG 1.1//EN"
 "http://www.w3.org/Graphics/SVG/1.1/DTD/svg11.dtd">
<!-- Generated by graphviz version 2.40.1 (20161225.0304)
 -->
<!-- Title: dependencies Pages: 1 -->
<svg width="2338pt" height="284pt"
 viewBox="0.00 0.00 2338.00 284.00" xmlns="http://www.w3.org/2000/svg" xmlns:xlink="http://www.w3.org/1999/xlink">
<g id="graph0" class="graph" transform="scale(1 1) rotate(0) translate(4 280)">
<title>dependencies</title>
<polygon fill="#ffffff" stroke="transparent" points="-4,4 -4,-280 2334,-280 2334,4 -4,4"/>
<text text-anchor="start" x="1144.0091" y="-42.4" font-family="sans-serif" font-weight="bold" font-size="14.00" fill="#000000">Legend</text>
<polygon fill="#ffffb3" stroke="transparent" points="931,-10 931,-30 951,-30 951,-10 931,-10"/>
<text text-anchor="start" x="954.629" y="-15.4" font-family="sans-serif" font-size="14.00" fill="#000000"> &#160;Declarations</text>
<polygon fill="#8dd3c7" stroke="transparent" points="1044,-10 1044,-30 1064,-30 1064,-10 1044,-10"/>
<text text-anchor="start" x="1067.7251" y="-15.4" font-family="sans-serif" font-size="14.00" fill="#000000"> &#160;Module</text>
<polygon fill="#80b1d3" stroke="transparent" points="1130,-10 1130,-30 1150,-30 1150,-10 1130,-10"/>
<text text-anchor="start" x="1153.7812" y="-15.4" font-family="sans-serif" font-size="14.00" fill="#000000"> &#160;Bootstrap</text>
<polygon fill="#fdb462" stroke="transparent" points="1227,-10 1227,-30 1247,-30 1247,-10 1227,-10"/>
<text text-anchor="start" x="1250.6732" y="-15.4" font-family="sans-serif" font-size="14.00" fill="#000000"> &#160;Providers</text>
<polygon fill="#fb8072" stroke="transparent" points="1323,-10 1323,-30 1343,-30 1343,-10 1323,-10"/>
<text text-anchor="start" x="1346.7258" y="-15.4" font-family="sans-serif" font-size="14.00" fill="#000000"> &#160;Exports</text>
<g id="clust1" class="cluster">
<title>cluster_SharedModule</title>
<polygon fill="none" stroke="#000000" stroke-dasharray="1,5" points="8,-70 8,-268 2322,-268 2322,-70 8,-70"/>
</g>
<g id="clust2" class="cluster">
<title>cluster_SharedModule_declarations</title>
<polygon fill="none" stroke="#000000" points="38,-78 38,-130 2292,-130 2292,-78 38,-78"/>
</g>
<g id="clust17" class="cluster">
<title>cluster_SharedModule_exports</title>
<polygon fill="none" stroke="#000000" points="16,-208 16,-260 2314,-260 2314,-208 16,-208"/>
</g>
<!-- AuthLeftSectionComponent -->
<g id="node1" class="node">
<title>AuthLeftSectionComponent</title>
<polygon fill="#ffffb3" stroke="#000000" points="2284.1414,-122 2109.8586,-122 2109.8586,-86 2284.1414,-86 2284.1414,-122"/>
<text text-anchor="middle" x="2197" y="-99.8" font-family="Times,serif" font-size="14.00" fill="#000000">AuthLeftSectionComponent</text>
</g>
<!-- SharedModule -->
<g id="node14" class="node">
<title>SharedModule</title>
<polygon fill="#8dd3c7" stroke="#000000" points="1101.4231,-187 1098.4231,-191 1077.4231,-191 1074.4231,-187 1002.5769,-187 1002.5769,-151 1101.4231,-151 1101.4231,-187"/>
<text text-anchor="middle" x="1052" y="-164.8" font-family="Times,serif" font-size="14.00" fill="#000000">SharedModule</text>
</g>
<!-- AuthLeftSectionComponent&#45;&gt;SharedModule -->
<g id="edge1" class="edge">
<title>AuthLeftSectionComponent&#45;&gt;SharedModule</title>
<path fill="none" stroke="#000000" d="M2119.1424,-122.1686C2119.1424,-141.0898 2119.1424,-168 2119.1424,-168 2119.1424,-168 1111.3303,-168 1111.3303,-168"/>
<polygon fill="#000000" stroke="#000000" points="1111.3303,-164.5001 1101.3303,-168 1111.3302,-171.5001 1111.3303,-164.5001"/>
</g>
<!-- AuthRightSidebarComponent -->
<g id="node2" class="node">
<title>AuthRightSidebarComponent</title>
<polygon fill="#ffffb3" stroke="#000000" points="2091.7105,-122 1908.2895,-122 1908.2895,-86 2091.7105,-86 2091.7105,-122"/>
<text text-anchor="middle" x="2000" y="-99.8" font-family="Times,serif" font-size="14.00" fill="#000000">AuthRightSidebarComponent</text>
</g>
<!-- AuthRightSidebarComponent&#45;&gt;SharedModule -->
<g id="edge2" class="edge">
<title>AuthRightSidebarComponent&#45;&gt;SharedModule</title>
<path fill="none" stroke="#000000" d="M1916.0198,-122.302C1916.0198,-140.2699 1916.0198,-165 1916.0198,-165 1916.0198,-165 1111.2425,-165 1111.2425,-165"/>
<polygon fill="#000000" stroke="#000000" points="1111.2425,-161.5001 1101.2425,-165 1111.2424,-168.5001 1111.2425,-161.5001"/>
</g>
<!-- ChooseSlotComponent -->
<g id="node3" class="node">
<title>ChooseSlotComponent</title>
<polygon fill="#ffffb3" stroke="#000000" points="1889.892,-122 1744.108,-122 1744.108,-86 1889.892,-86 1889.892,-122"/>
<text text-anchor="middle" x="1817" y="-99.8" font-family="Times,serif" font-size="14.00" fill="#000000">ChooseSlotComponent</text>
</g>
<!-- ChooseSlotComponent&#45;&gt;SharedModule -->
<g id="edge3" class="edge">
<title>ChooseSlotComponent&#45;&gt;SharedModule</title>
<path fill="none" stroke="#000000" d="M1750.179,-122.0225C1750.179,-139.3734 1750.179,-163 1750.179,-163 1750.179,-163 1111.3728,-163 1111.3728,-163"/>
<polygon fill="#000000" stroke="#000000" points="1111.3728,-159.5001 1101.3728,-163 1111.3727,-166.5001 1111.3728,-159.5001"/>
</g>
<!-- CommonHeaderComponent -->
<g id="node4" class="node">
<title>CommonHeaderComponent</title>
<polygon fill="#ffffb3" stroke="#000000" points="1725.8613,-122 1552.1387,-122 1552.1387,-86 1725.8613,-86 1725.8613,-122"/>
<text text-anchor="middle" x="1639" y="-99.8" font-family="Times,serif" font-size="14.00" fill="#000000">CommonHeaderComponent</text>
</g>
<!-- CommonHeaderComponent&#45;&gt;SharedModule -->
<g id="edge4" class="edge">
<title>CommonHeaderComponent&#45;&gt;SharedModule</title>
<path fill="none" stroke="#000000" d="M1556.6944,-122.027C1556.6944,-138.3976 1556.6944,-160 1556.6944,-160 1556.6944,-160 1111.3111,-160 1111.3111,-160"/>
<polygon fill="#000000" stroke="#000000" points="1111.3112,-156.5001 1101.3111,-160 1111.3111,-163.5001 1111.3112,-156.5001"/>
</g>
<!-- CommonJobDetailsComponent -->
<g id="node5" class="node">
<title>CommonJobDetailsComponent</title>
<polygon fill="#ffffb3" stroke="#000000" points="1534.0475,-122 1341.9525,-122 1341.9525,-86 1534.0475,-86 1534.0475,-122"/>
<text text-anchor="middle" x="1438" y="-99.8" font-family="Times,serif" font-size="14.00" fill="#000000">CommonJobDetailsComponent</text>
</g>
<!-- CommonJobDetailsComponent&#45;&gt;SharedModule -->
<g id="edge5" class="edge">
<title>CommonJobDetailsComponent&#45;&gt;SharedModule</title>
<path fill="none" stroke="#000000" d="M1471.8412,-122.2396C1471.8412,-137.5706 1471.8412,-157 1471.8412,-157 1471.8412,-157 1111.3957,-157 1111.3957,-157"/>
<polygon fill="#000000" stroke="#000000" points="1111.3957,-153.5001 1101.3957,-157 1111.3957,-160.5001 1111.3957,-153.5001"/>
</g>
<!-- CommonMapComponent -->
<g id="node6" class="node">
<title>CommonMapComponent</title>
<polygon fill="#ffffb3" stroke="#000000" points="1323.6094,-122 1164.3906,-122 1164.3906,-86 1323.6094,-86 1323.6094,-122"/>
<text text-anchor="middle" x="1244" y="-99.8" font-family="Times,serif" font-size="14.00" fill="#000000">CommonMapComponent</text>
</g>
<!-- CommonMapComponent&#45;&gt;SharedModule -->
<g id="edge6" class="edge">
<title>CommonMapComponent&#45;&gt;SharedModule</title>
<path fill="none" stroke="#000000" d="M1271.2682,-122.0511C1271.2682,-136.373 1271.2682,-154 1271.2682,-154 1271.2682,-154 1111.4815,-154 1111.4815,-154"/>
<polygon fill="#000000" stroke="#000000" points="1111.4815,-150.5001 1101.4815,-154 1111.4814,-157.5001 1111.4815,-150.5001"/>
</g>
<!-- CommonSidemenuComponent -->
<g id="node7" class="node">
<title>CommonSidemenuComponent</title>
<polygon fill="#ffffb3" stroke="#000000" points="1146.9437,-122 957.0563,-122 957.0563,-86 1146.9437,-86 1146.9437,-122"/>
<text text-anchor="middle" x="1052" y="-99.8" font-family="Times,serif" font-size="14.00" fill="#000000">CommonSidemenuComponent</text>
</g>
<!-- CommonSidemenuComponent&#45;&gt;SharedModule -->
<g id="edge7" class="edge">
<title>CommonSidemenuComponent&#45;&gt;SharedModule</title>
<path fill="none" stroke="#000000" d="M1052,-122.1061C1052,-122.1061 1052,-140.991 1052,-140.991"/>
<polygon fill="#000000" stroke="#000000" points="1048.5001,-140.9909 1052,-150.991 1055.5001,-140.991 1048.5001,-140.9909"/>
</g>
<!-- FormButtonComponent -->
<g id="node8" class="node">
<title>FormButtonComponent</title>
<polygon fill="#ffffb3" stroke="#000000" points="938.7842,-122 789.2158,-122 789.2158,-86 938.7842,-86 938.7842,-122"/>
<text text-anchor="middle" x="864" y="-99.8" font-family="Times,serif" font-size="14.00" fill="#000000">FormButtonComponent</text>
</g>
<!-- FormButtonComponent&#45;&gt;SharedModule -->
<g id="edge8" class="edge">
<title>FormButtonComponent&#45;&gt;SharedModule</title>
<path fill="none" stroke="#000000" d="M888.1307,-122.0511C888.1307,-136.373 888.1307,-154 888.1307,-154 888.1307,-154 992.3891,-154 992.3891,-154"/>
<polygon fill="#000000" stroke="#000000" points="992.3891,-157.5001 1002.3891,-154 992.3891,-150.5001 992.3891,-157.5001"/>
</g>
<!-- PreInterviewComponent -->
<g id="node9" class="node">
<title>PreInterviewComponent</title>
<polygon fill="#ffffb3" stroke="#000000" points="770.6288,-122 617.3712,-122 617.3712,-86 770.6288,-86 770.6288,-122"/>
<text text-anchor="middle" x="694" y="-99.8" font-family="Times,serif" font-size="14.00" fill="#000000">PreInterviewComponent</text>
</g>
<!-- PreInterviewComponent&#45;&gt;SharedModule -->
<g id="edge9" class="edge">
<title>PreInterviewComponent&#45;&gt;SharedModule</title>
<path fill="none" stroke="#000000" d="M716.7714,-122.2396C716.7714,-137.5706 716.7714,-157 716.7714,-157 716.7714,-157 992.5359,-157 992.5359,-157"/>
<polygon fill="#000000" stroke="#000000" points="992.5359,-160.5001 1002.5359,-157 992.5358,-153.5001 992.5359,-160.5001"/>
</g>
<!-- ResultsSidebarComponent -->
<g id="node10" class="node">
<title>ResultsSidebarComponent</title>
<polygon fill="#ffffb3" stroke="#000000" points="599.8173,-122 434.1827,-122 434.1827,-86 599.8173,-86 599.8173,-122"/>
<text text-anchor="middle" x="517" y="-99.8" font-family="Times,serif" font-size="14.00" fill="#000000">ResultsSidebarComponent</text>
</g>
<!-- ResultsSidebarComponent&#45;&gt;SharedModule -->
<g id="edge10" class="edge">
<title>ResultsSidebarComponent&#45;&gt;SharedModule</title>
<path fill="none" stroke="#000000" d="M595.5335,-122.027C595.5335,-138.3976 595.5335,-160 595.5335,-160 595.5335,-160 992.7164,-160 992.7164,-160"/>
<polygon fill="#000000" stroke="#000000" points="992.7164,-163.5001 1002.7164,-160 992.7164,-156.5001 992.7164,-163.5001"/>
</g>
<!-- TextFormatPipe -->
<g id="node11" class="node">
<title>TextFormatPipe</title>
<polygon fill="#ffffb3" stroke="#000000" points="416.4846,-122 309.5154,-122 309.5154,-86 416.4846,-86 416.4846,-122"/>
<text text-anchor="middle" x="363" y="-99.8" font-family="Times,serif" font-size="14.00" fill="#000000">TextFormatPipe</text>
</g>
<!-- TextFormatPipe&#45;&gt;SharedModule -->
<g id="edge11" class="edge">
<title>TextFormatPipe&#45;&gt;SharedModule</title>
<path fill="none" stroke="#000000" d="M410.3673,-122.0225C410.3673,-139.3734 410.3673,-163 410.3673,-163 410.3673,-163 992.7176,-163 992.7176,-163"/>
<polygon fill="#000000" stroke="#000000" points="992.7176,-166.5001 1002.7176,-163 992.7175,-159.5001 992.7176,-166.5001"/>
</g>
<!-- TimePipe -->
<g id="node12" class="node">
<title>TimePipe</title>
<polygon fill="#ffffb3" stroke="#000000" points="291.4376,-122 220.5624,-122 220.5624,-86 291.4376,-86 291.4376,-122"/>
<text text-anchor="middle" x="256" y="-99.8" font-family="Times,serif" font-size="14.00" fill="#000000">TimePipe</text>
</g>
<!-- TimePipe&#45;&gt;SharedModule -->
<g id="edge12" class="edge">
<title>TimePipe&#45;&gt;SharedModule</title>
<path fill="none" stroke="#000000" d="M283.5931,-122.302C283.5931,-140.2699 283.5931,-165 283.5931,-165 283.5931,-165 992.7638,-165 992.7638,-165"/>
<polygon fill="#000000" stroke="#000000" points="992.7638,-168.5001 1002.7638,-165 992.7637,-161.5001 992.7638,-168.5001"/>
</g>
<!-- UploadVideoComponent -->
<g id="node13" class="node">
<title>UploadVideoComponent</title>
<polygon fill="#ffffb3" stroke="#000000" points="202.2562,-122 45.7438,-122 45.7438,-86 202.2562,-86 202.2562,-122"/>
<text text-anchor="middle" x="124" y="-99.8" font-family="Times,serif" font-size="14.00" fill="#000000">UploadVideoComponent</text>
</g>
<!-- UploadVideoComponent&#45;&gt;SharedModule -->
<g id="edge13" class="edge">
<title>UploadVideoComponent&#45;&gt;SharedModule</title>
<path fill="none" stroke="#000000" d="M193.08,-122.1686C193.08,-141.0898 193.08,-168 193.08,-168 193.08,-168 992.7358,-168 992.7358,-168"/>
<polygon fill="#000000" stroke="#000000" points="992.7358,-171.5001 1002.7358,-168 992.7357,-164.5001 992.7358,-171.5001"/>
</g>
<!-- AuthLeftSectionComponent  -->
<g id="node15" class="node">
<title>AuthLeftSectionComponent </title>
<polygon fill="#fb8072" stroke="#000000" points="2306.1411,-252 2127.8589,-252 2127.8589,-216 2306.1411,-216 2306.1411,-252"/>
<text text-anchor="middle" x="2217" y="-229.8" font-family="Times,serif" font-size="14.00" fill="#000000">AuthLeftSectionComponent </text>
</g>
<!-- SharedModule&#45;&gt;AuthLeftSectionComponent  -->
<g id="edge14" class="edge">
<title>SharedModule&#45;&gt;AuthLeftSectionComponent </title>
<path fill="none" stroke="#000000" stroke-dasharray="5,2" d="M1101.2221,-171C1321.5116,-171 2206.125,-171 2206.125,-171 2206.125,-171 2206.125,-205.7778 2206.125,-205.7778"/>
<polygon fill="#000000" stroke="#000000" points="2202.6251,-205.7778 2206.125,-215.7778 2209.6251,-205.7778 2202.6251,-205.7778"/>
</g>
<!-- AuthRightSidebarComponent  -->
<g id="node16" class="node">
<title>AuthRightSidebarComponent </title>
<polygon fill="#fb8072" stroke="#000000" points="2110.2106,-252 1923.7894,-252 1923.7894,-216 2110.2106,-216 2110.2106,-252"/>
<text text-anchor="middle" x="2017" y="-229.8" font-family="Times,serif" font-size="14.00" fill="#000000">AuthRightSidebarComponent </text>
</g>
<!-- SharedModule&#45;&gt;AuthRightSidebarComponent  -->
<g id="edge15" class="edge">
<title>SharedModule&#45;&gt;AuthRightSidebarComponent </title>
<path fill="none" stroke="#000000" stroke-dasharray="5,2" d="M1101.3662,-174C1297.0515,-174 2007.625,-174 2007.625,-174 2007.625,-174 2007.625,-205.998 2007.625,-205.998"/>
<polygon fill="#000000" stroke="#000000" points="2004.1251,-205.998 2007.625,-215.998 2011.1251,-205.9981 2004.1251,-205.998"/>
</g>
<!-- ChooseSlotComponent  -->
<g id="node17" class="node">
<title>ChooseSlotComponent </title>
<polygon fill="#fb8072" stroke="#000000" points="1905.8925,-252 1756.1075,-252 1756.1075,-216 1905.8925,-216 1905.8925,-252"/>
<text text-anchor="middle" x="1831" y="-229.8" font-family="Times,serif" font-size="14.00" fill="#000000">ChooseSlotComponent </text>
</g>
<!-- SharedModule&#45;&gt;ChooseSlotComponent  -->
<g id="edge16" class="edge">
<title>SharedModule&#45;&gt;ChooseSlotComponent </title>
<path fill="none" stroke="#000000" stroke-dasharray="5,2" d="M1101.4104,-176C1271.6058,-176 1823.125,-176 1823.125,-176 1823.125,-176 1823.125,-205.9664 1823.125,-205.9664"/>
<polygon fill="#000000" stroke="#000000" points="1819.6251,-205.9663 1823.125,-215.9664 1826.6251,-205.9664 1819.6251,-205.9663"/>
</g>
<!-- CommonHeaderComponent  -->
<g id="node18" class="node">
<title>CommonHeaderComponent </title>
<polygon fill="#fb8072" stroke="#000000" points="1738.8616,-252 1561.1384,-252 1561.1384,-216 1738.8616,-216 1738.8616,-252"/>
<text text-anchor="middle" x="1650" y="-229.8" font-family="Times,serif" font-size="14.00" fill="#000000">CommonHeaderComponent </text>
</g>
<!-- SharedModule&#45;&gt;CommonHeaderComponent  -->
<g id="edge17" class="edge">
<title>SharedModule&#45;&gt;CommonHeaderComponent </title>
<path fill="none" stroke="#000000" stroke-dasharray="5,2" d="M1101.424,-179C1243.6151,-179 1643.625,-179 1643.625,-179 1643.625,-179 1643.625,-205.9909 1643.625,-205.9909"/>
<polygon fill="#000000" stroke="#000000" points="1640.1251,-205.9909 1643.625,-215.9909 1647.1251,-205.991 1640.1251,-205.9909"/>
</g>
<!-- CommonJobDetailsComponent  -->
<g id="node19" class="node">
<title>CommonJobDetailsComponent </title>
<polygon fill="#fb8072" stroke="#000000" points="1543.047,-252 1346.953,-252 1346.953,-216 1543.047,-216 1543.047,-252"/>
<text text-anchor="middle" x="1445" y="-229.8" font-family="Times,serif" font-size="14.00" fill="#000000">CommonJobDetailsComponent </text>
</g>
<!-- SharedModule&#45;&gt;CommonJobDetailsComponent  -->
<g id="edge18" class="edge">
<title>SharedModule&#45;&gt;CommonJobDetailsComponent </title>
<path fill="none" stroke="#000000" stroke-dasharray="5,2" d="M1101.3209,-182C1199.3675,-182 1409.4088,-182 1409.4088,-182 1409.4088,-182 1409.4088,-205.8129 1409.4088,-205.8129"/>
<polygon fill="#000000" stroke="#000000" points="1405.9089,-205.8129 1409.4088,-215.8129 1412.9089,-205.813 1405.9089,-205.8129"/>
</g>
<!-- CommonMapComponent  -->
<g id="node20" class="node">
<title>CommonMapComponent </title>
<polygon fill="#fb8072" stroke="#000000" points="1329.1099,-252 1166.8901,-252 1166.8901,-216 1329.1099,-216 1329.1099,-252"/>
<text text-anchor="middle" x="1248" y="-229.8" font-family="Times,serif" font-size="14.00" fill="#000000">CommonMapComponent </text>
</g>
<!-- SharedModule&#45;&gt;CommonMapComponent  -->
<g id="edge19" class="edge">
<title>SharedModule&#45;&gt;CommonMapComponent </title>
<path fill="none" stroke="#000000" stroke-dasharray="5,2" d="M1101.6479,-185C1150.8696,-185 1218.9818,-185 1218.9818,-185 1218.9818,-185 1218.9818,-205.7542 1218.9818,-205.7542"/>
<polygon fill="#000000" stroke="#000000" points="1215.4819,-205.7542 1218.9818,-215.7542 1222.4819,-205.7542 1215.4819,-205.7542"/>
</g>
<!-- CommonSidemenuComponent  -->
<g id="node21" class="node">
<title>CommonSidemenuComponent </title>
<polygon fill="#fb8072" stroke="#000000" points="1148.4432,-252 955.5568,-252 955.5568,-216 1148.4432,-216 1148.4432,-252"/>
<text text-anchor="middle" x="1052" y="-229.8" font-family="Times,serif" font-size="14.00" fill="#000000">CommonSidemenuComponent </text>
</g>
<!-- SharedModule&#45;&gt;CommonSidemenuComponent  -->
<g id="edge20" class="edge">
<title>SharedModule&#45;&gt;CommonSidemenuComponent </title>
<path fill="none" stroke="#000000" stroke-dasharray="5,2" d="M1052,-187.1061C1052,-187.1061 1052,-205.991 1052,-205.991"/>
<polygon fill="#000000" stroke="#000000" points="1048.5001,-205.9909 1052,-215.991 1055.5001,-205.991 1048.5001,-205.9909"/>
</g>
<!-- FormButtonComponent  -->
<g id="node22" class="node">
<title>FormButtonComponent </title>
<polygon fill="#fb8072" stroke="#000000" points="937.7843,-252 784.2157,-252 784.2157,-216 937.7843,-216 937.7843,-252"/>
<text text-anchor="middle" x="861" y="-229.8" font-family="Times,serif" font-size="14.00" fill="#000000">FormButtonComponent </text>
</g>
<!-- SharedModule&#45;&gt;FormButtonComponent  -->
<g id="edge21" class="edge">
<title>SharedModule&#45;&gt;FormButtonComponent </title>
<path fill="none" stroke="#000000" stroke-dasharray="5,2" d="M1002.7782,-185C939.7618,-185 838.6193,-185 838.6193,-185 838.6193,-185 838.6193,-205.7542 838.6193,-205.7542"/>
<polygon fill="#000000" stroke="#000000" points="835.1194,-205.7542 838.6193,-215.7542 842.1194,-205.7542 835.1194,-205.7542"/>
</g>
<!-- PreInterviewComponent  -->
<g id="node23" class="node">
<title>PreInterviewComponent </title>
<polygon fill="#fb8072" stroke="#000000" points="766.6285,-252 609.3715,-252 609.3715,-216 766.6285,-216 766.6285,-252"/>
<text text-anchor="middle" x="688" y="-229.8" font-family="Times,serif" font-size="14.00" fill="#000000">PreInterviewComponent </text>
</g>
<!-- SharedModule&#45;&gt;PreInterviewComponent  -->
<g id="edge22" class="edge">
<title>SharedModule&#45;&gt;PreInterviewComponent </title>
<path fill="none" stroke="#000000" stroke-dasharray="5,2" d="M1002.4534,-182C898.4653,-182 666.9786,-182 666.9786,-182 666.9786,-182 666.9786,-205.8129 666.9786,-205.8129"/>
<polygon fill="#000000" stroke="#000000" points="663.4787,-205.8129 666.9786,-215.8129 670.4787,-205.813 663.4787,-205.8129"/>
</g>
<!-- ResultsSidebarComponent  -->
<g id="node24" class="node">
<title>ResultsSidebarComponent </title>
<polygon fill="#fb8072" stroke="#000000" points="591.3171,-252 422.6829,-252 422.6829,-216 591.3171,-216 591.3171,-252"/>
<text text-anchor="middle" x="507" y="-229.8" font-family="Times,serif" font-size="14.00" fill="#000000">ResultsSidebarComponent </text>
</g>
<!-- SharedModule&#45;&gt;ResultsSidebarComponent  -->
<g id="edge23" class="edge">
<title>SharedModule&#45;&gt;ResultsSidebarComponent </title>
<path fill="none" stroke="#000000" stroke-dasharray="5,2" d="M1002.727,-179C869.6378,-179 512.875,-179 512.875,-179 512.875,-179 512.875,-205.9909 512.875,-205.9909"/>
<polygon fill="#000000" stroke="#000000" points="509.3751,-205.9909 512.875,-215.9909 516.3751,-205.991 509.3751,-205.9909"/>
</g>
<!-- TextFormatPipe  -->
<g id="node25" class="node">
<title>TextFormatPipe </title>
<polygon fill="#fb8072" stroke="#000000" points="404.4857,-252 293.5143,-252 293.5143,-216 404.4857,-216 404.4857,-252"/>
<text text-anchor="middle" x="349" y="-229.8" font-family="Times,serif" font-size="14.00" fill="#000000">TextFormatPipe </text>
</g>
<!-- SharedModule&#45;&gt;TextFormatPipe  -->
<g id="edge24" class="edge">
<title>SharedModule&#45;&gt;TextFormatPipe </title>
<path fill="none" stroke="#000000" stroke-dasharray="5,2" d="M1002.5656,-176C843.758,-176 356.875,-176 356.875,-176 356.875,-176 356.875,-205.9664 356.875,-205.9664"/>
<polygon fill="#000000" stroke="#000000" points="353.3751,-205.9663 356.875,-215.9664 360.3751,-205.9664 353.3751,-205.9663"/>
</g>
<!-- TimePipe  -->
<g id="node26" class="node">
<title>TimePipe </title>
<polygon fill="#fb8072" stroke="#000000" points="275.9362,-252 202.0638,-252 202.0638,-216 275.9362,-216 275.9362,-252"/>
<text text-anchor="middle" x="239" y="-229.8" font-family="Times,serif" font-size="14.00" fill="#000000">TimePipe </text>
</g>
<!-- SharedModule&#45;&gt;TimePipe  -->
<g id="edge25" class="edge">
<title>SharedModule&#45;&gt;TimePipe </title>
<path fill="none" stroke="#000000" stroke-dasharray="5,2" d="M1002.6382,-174C827.794,-174 248.375,-174 248.375,-174 248.375,-174 248.375,-205.998 248.375,-205.998"/>
<polygon fill="#000000" stroke="#000000" points="244.8751,-205.998 248.375,-215.998 251.8751,-205.9981 244.8751,-205.998"/>
</g>
<!-- UploadVideoComponent  -->
<g id="node27" class="node">
<title>UploadVideoComponent </title>
<polygon fill="#fb8072" stroke="#000000" points="184.2562,-252 23.7438,-252 23.7438,-216 184.2562,-216 184.2562,-252"/>
<text text-anchor="middle" x="104" y="-229.8" font-family="Times,serif" font-size="14.00" fill="#000000">UploadVideoComponent </text>
</g>
<!-- SharedModule&#45;&gt;UploadVideoComponent  -->
<g id="edge26" class="edge">
<title>SharedModule&#45;&gt;UploadVideoComponent </title>
<path fill="none" stroke="#000000" stroke-dasharray="5,2" d="M1002.6071,-171C809.327,-171 114.875,-171 114.875,-171 114.875,-171 114.875,-205.7778 114.875,-205.7778"/>
<polygon fill="#000000" stroke="#000000" points="111.3751,-205.7778 114.875,-215.7778 118.3751,-205.7778 111.3751,-205.7778"/>
</g>
</g>
</svg>
