<?xml version="1.0" encoding="UTF-8" standalone="no"?>
<!DOCTYPE svg PUBLIC "-//W3C//DTD SVG 1.1//EN"
 "http://www.w3.org/Graphics/SVG/1.1/DTD/svg11.dtd">
<!-- Generated by graphviz version 2.40.1 (20161225.0304)
 -->
<!-- Title: dependencies Pages: 1 -->
<svg width="705pt" height="211pt"
 viewBox="0.00 0.00 705.00 211.00" xmlns="http://www.w3.org/2000/svg" xmlns:xlink="http://www.w3.org/1999/xlink">
<g id="graph0" class="graph" transform="scale(1 1) rotate(0) translate(4 207)">
<title>dependencies</title>
<polygon fill="#ffffff" stroke="transparent" points="-4,4 -4,-207 701,-207 701,4 -4,4"/>
<text text-anchor="start" x="327.5091" y="-42.4" font-family="sans-serif" font-weight="bold" font-size="14.00" fill="#000000">Legend</text>
<polygon fill="#ffffb3" stroke="transparent" points="114.5,-10 114.5,-30 134.5,-30 134.5,-10 114.5,-10"/>
<text text-anchor="start" x="138.129" y="-15.4" font-family="sans-serif" font-size="14.00" fill="#000000"> &#160;Declarations</text>
<polygon fill="#8dd3c7" stroke="transparent" points="227.5,-10 227.5,-30 247.5,-30 247.5,-10 227.5,-10"/>
<text text-anchor="start" x="251.2251" y="-15.4" font-family="sans-serif" font-size="14.00" fill="#000000"> &#160;Module</text>
<polygon fill="#80b1d3" stroke="transparent" points="313.5,-10 313.5,-30 333.5,-30 333.5,-10 313.5,-10"/>
<text text-anchor="start" x="337.2812" y="-15.4" font-family="sans-serif" font-size="14.00" fill="#000000"> &#160;Bootstrap</text>
<polygon fill="#fdb462" stroke="transparent" points="410.5,-10 410.5,-30 430.5,-30 430.5,-10 410.5,-10"/>
<text text-anchor="start" x="434.1732" y="-15.4" font-family="sans-serif" font-size="14.00" fill="#000000"> &#160;Providers</text>
<polygon fill="#fb8072" stroke="transparent" points="506.5,-10 506.5,-30 526.5,-30 526.5,-10 506.5,-10"/>
<text text-anchor="start" x="530.2258" y="-15.4" font-family="sans-serif" font-size="14.00" fill="#000000"> &#160;Exports</text>
<g id="clust1" class="cluster">
<title>cluster_DashboardModule</title>
<polygon fill="none" stroke="#000000" stroke-dasharray="1,5" points="8,-70 8,-195 689,-195 689,-70 8,-70"/>
</g>
<g id="clust2" class="cluster">
<title>cluster_DashboardModule_declarations</title>
<polygon fill="none" stroke="#000000" points="322,-78 322,-130 681,-130 681,-78 322,-78"/>
</g>
<g id="clust5" class="cluster">
<title>cluster_DashboardModule_imports</title>
<polygon fill="none" stroke="#000000" points="16,-78 16,-130 314,-130 314,-78 16,-78"/>
</g>
<!-- DashboardLandingComponent -->
<g id="node1" class="node">
<title>DashboardLandingComponent</title>
<polygon fill="#ffffb3" stroke="#000000" points="673.1316,-122 484.8684,-122 484.8684,-86 673.1316,-86 673.1316,-122"/>
<text text-anchor="middle" x="579" y="-99.8" font-family="Times,serif" font-size="14.00" fill="#000000">DashboardLandingComponent</text>
</g>
<!-- DashboardModule -->
<g id="node3" class="node">
<title>DashboardModule</title>
<polygon fill="#8dd3c7" stroke="#000000" points="370.191,-187 367.191,-191 346.191,-191 343.191,-187 249.809,-187 249.809,-151 370.191,-151 370.191,-187"/>
<text text-anchor="middle" x="310" y="-164.8" font-family="Times,serif" font-size="14.00" fill="#000000">DashboardModule</text>
</g>
<!-- DashboardLandingComponent&#45;&gt;DashboardModule -->
<g id="edge1" class="edge">
<title>DashboardLandingComponent&#45;&gt;DashboardModule</title>
<path fill="none" stroke="#000000" d="M579,-122.1061C579,-141.3391 579,-169 579,-169 579,-169 380.3689,-169 380.3689,-169"/>
<polygon fill="#000000" stroke="#000000" points="380.3689,-165.5001 370.3689,-169 380.3688,-172.5001 380.3689,-165.5001"/>
</g>
<!-- ViewJobsComponent -->
<g id="node2" class="node">
<title>ViewJobsComponent</title>
<polygon fill="#ffffb3" stroke="#000000" points="466.0408,-122 329.9592,-122 329.9592,-86 466.0408,-86 466.0408,-122"/>
<text text-anchor="middle" x="398" y="-99.8" font-family="Times,serif" font-size="14.00" fill="#000000">ViewJobsComponent</text>
</g>
<!-- ViewJobsComponent&#45;&gt;DashboardModule -->
<g id="edge2" class="edge">
<title>ViewJobsComponent&#45;&gt;DashboardModule</title>
<path fill="none" stroke="#000000" d="M349.9127,-122.1061C349.9127,-122.1061 349.9127,-140.991 349.9127,-140.991"/>
<polygon fill="#000000" stroke="#000000" points="346.4128,-140.9909 349.9127,-150.991 353.4128,-140.991 346.4128,-140.9909"/>
</g>
<!-- DashboardRoutingModule -->
<g id="node4" class="node">
<title>DashboardRoutingModule</title>
<polygon fill="#8dd3c7" stroke="#000000" points="305.8089,-122 302.8089,-126 281.8089,-126 278.8089,-122 140.1911,-122 140.1911,-86 305.8089,-86 305.8089,-122"/>
<text text-anchor="middle" x="223" y="-99.8" font-family="Times,serif" font-size="14.00" fill="#000000">DashboardRoutingModule</text>
</g>
<!-- DashboardRoutingModule&#45;&gt;DashboardModule -->
<g id="edge3" class="edge">
<title>DashboardRoutingModule&#45;&gt;DashboardModule</title>
<path fill="none" stroke="#000000" d="M277.7795,-122.1061C277.7795,-122.1061 277.7795,-140.991 277.7795,-140.991"/>
<polygon fill="#000000" stroke="#000000" points="274.2795,-140.9909 277.7795,-150.991 281.2795,-140.991 274.2795,-140.9909"/>
</g>
<!-- SharedModule -->
<g id="node5" class="node">
<title>SharedModule</title>
<polygon fill="#8dd3c7" stroke="#000000" points="122.4231,-122 119.4231,-126 98.4231,-126 95.4231,-122 23.5769,-122 23.5769,-86 122.4231,-86 122.4231,-122"/>
<text text-anchor="middle" x="73" y="-99.8" font-family="Times,serif" font-size="14.00" fill="#000000">SharedModule</text>
</g>
<!-- SharedModule&#45;&gt;DashboardModule -->
<g id="edge4" class="edge">
<title>SharedModule&#45;&gt;DashboardModule</title>
<path fill="none" stroke="#000000" d="M73,-122.1061C73,-141.3391 73,-169 73,-169 73,-169 239.8885,-169 239.8885,-169"/>
<polygon fill="#000000" stroke="#000000" points="239.8886,-172.5001 249.8885,-169 239.8885,-165.5001 239.8886,-172.5001"/>
</g>
</g>
</svg>
