<?xml version="1.0" encoding="UTF-8" standalone="no"?>
<!DOCTYPE svg PUBLIC "-//W3C//DTD SVG 1.1//EN"
 "http://www.w3.org/Graphics/SVG/1.1/DTD/svg11.dtd">
<!-- Generated by graphviz version 2.40.1 (20161225.0304)
 -->
<!-- Title: dependencies Pages: 1 -->
<svg width="1987pt" height="211pt"
 viewBox="0.00 0.00 1987.00 211.00" xmlns="http://www.w3.org/2000/svg" xmlns:xlink="http://www.w3.org/1999/xlink">
<g id="graph0" class="graph" transform="scale(1 1) rotate(0) translate(4 207)">
<title>dependencies</title>
<polygon fill="#ffffff" stroke="transparent" points="-4,4 -4,-207 1983,-207 1983,4 -4,4"/>
<text text-anchor="start" x="968.5091" y="-42.4" font-family="sans-serif" font-weight="bold" font-size="14.00" fill="#000000">Legend</text>
<polygon fill="#ffffb3" stroke="transparent" points="755.5,-10 755.5,-30 775.5,-30 775.5,-10 755.5,-10"/>
<text text-anchor="start" x="779.129" y="-15.4" font-family="sans-serif" font-size="14.00" fill="#000000"> &#160;Declarations</text>
<polygon fill="#8dd3c7" stroke="transparent" points="868.5,-10 868.5,-30 888.5,-30 888.5,-10 868.5,-10"/>
<text text-anchor="start" x="892.2251" y="-15.4" font-family="sans-serif" font-size="14.00" fill="#000000"> &#160;Module</text>
<polygon fill="#80b1d3" stroke="transparent" points="954.5,-10 954.5,-30 974.5,-30 974.5,-10 954.5,-10"/>
<text text-anchor="start" x="978.2812" y="-15.4" font-family="sans-serif" font-size="14.00" fill="#000000"> &#160;Bootstrap</text>
<polygon fill="#fdb462" stroke="transparent" points="1051.5,-10 1051.5,-30 1071.5,-30 1071.5,-10 1051.5,-10"/>
<text text-anchor="start" x="1075.1732" y="-15.4" font-family="sans-serif" font-size="14.00" fill="#000000"> &#160;Providers</text>
<polygon fill="#fb8072" stroke="transparent" points="1147.5,-10 1147.5,-30 1167.5,-30 1167.5,-10 1147.5,-10"/>
<text text-anchor="start" x="1171.2258" y="-15.4" font-family="sans-serif" font-size="14.00" fill="#000000"> &#160;Exports</text>
<g id="clust1" class="cluster">
<title>cluster_AuthModule</title>
<polygon fill="none" stroke="#000000" stroke-dasharray="1,5" points="8,-70 8,-195 1971,-195 1971,-70 8,-70"/>
</g>
<g id="clust2" class="cluster">
<title>cluster_AuthModule_declarations</title>
<polygon fill="none" stroke="#000000" points="289,-78 289,-130 1963,-130 1963,-78 289,-78"/>
</g>
<g id="clust12" class="cluster">
<title>cluster_AuthModule_imports</title>
<polygon fill="none" stroke="#000000" points="16,-78 16,-130 281,-130 281,-78 16,-78"/>
</g>
<!-- AuthForgotPassComponent -->
<g id="node1" class="node">
<title>AuthForgotPassComponent</title>
<polygon fill="#ffffb3" stroke="#000000" points="1954.5504,-122 1783.4496,-122 1783.4496,-86 1954.5504,-86 1954.5504,-122"/>
<text text-anchor="middle" x="1869" y="-99.8" font-family="Times,serif" font-size="14.00" fill="#000000">AuthForgotPassComponent</text>
</g>
<!-- AuthModule -->
<g id="node10" class="node">
<title>AuthModule</title>
<polygon fill="#8dd3c7" stroke="#000000" points="1018.5482,-187 1015.5482,-191 994.5482,-191 991.5482,-187 931.4518,-187 931.4518,-151 1018.5482,-151 1018.5482,-187"/>
<text text-anchor="middle" x="975" y="-164.8" font-family="Times,serif" font-size="14.00" fill="#000000">AuthModule</text>
</g>
<!-- AuthForgotPassComponent&#45;&gt;AuthModule -->
<g id="edge1" class="edge">
<title>AuthForgotPassComponent&#45;&gt;AuthModule</title>
<path fill="none" stroke="#000000" d="M1869,-122.0908C1869,-145.1328 1869,-182 1869,-182 1869,-182 1028.7247,-182 1028.7247,-182"/>
<polygon fill="#000000" stroke="#000000" points="1028.7247,-178.5001 1018.7247,-182 1028.7246,-185.5001 1028.7247,-178.5001"/>
</g>
<!-- AuthLandingComponent -->
<g id="node2" class="node">
<title>AuthLandingComponent</title>
<polygon fill="#ffffb3" stroke="#000000" points="1764.9874,-122 1609.0126,-122 1609.0126,-86 1764.9874,-86 1764.9874,-122"/>
<text text-anchor="middle" x="1687" y="-99.8" font-family="Times,serif" font-size="14.00" fill="#000000">AuthLandingComponent</text>
</g>
<!-- AuthLandingComponent&#45;&gt;AuthModule -->
<g id="edge2" class="edge">
<title>AuthLandingComponent&#45;&gt;AuthModule</title>
<path fill="none" stroke="#000000" d="M1687,-122.2843C1687,-143.3211 1687,-175 1687,-175 1687,-175 1028.7339,-175 1028.7339,-175"/>
<polygon fill="#000000" stroke="#000000" points="1028.7339,-171.5001 1018.7339,-175 1028.7338,-178.5001 1028.7339,-171.5001"/>
</g>
<!-- ConfirmOTPComponent -->
<g id="node3" class="node">
<title>ConfirmOTPComponent</title>
<polygon fill="#ffffb3" stroke="#000000" points="1590.7133,-122 1435.2867,-122 1435.2867,-86 1590.7133,-86 1590.7133,-122"/>
<text text-anchor="middle" x="1513" y="-99.8" font-family="Times,serif" font-size="14.00" fill="#000000">ConfirmOTPComponent</text>
</g>
<!-- ConfirmOTPComponent&#45;&gt;AuthModule -->
<g id="edge3" class="edge">
<title>ConfirmOTPComponent&#45;&gt;AuthModule</title>
<path fill="none" stroke="#000000" d="M1513,-122.1061C1513,-141.3391 1513,-169 1513,-169 1513,-169 1028.5711,-169 1028.5711,-169"/>
<polygon fill="#000000" stroke="#000000" points="1028.5711,-165.5001 1018.5711,-169 1028.571,-172.5001 1028.5711,-165.5001"/>
</g>
<!-- NewPasswordComponent -->
<g id="node4" class="node">
<title>NewPasswordComponent</title>
<polygon fill="#ffffb3" stroke="#000000" points="1417.9143,-122 1256.0857,-122 1256.0857,-86 1417.9143,-86 1417.9143,-122"/>
<text text-anchor="middle" x="1337" y="-99.8" font-family="Times,serif" font-size="14.00" fill="#000000">NewPasswordComponent</text>
</g>
<!-- NewPasswordComponent&#45;&gt;AuthModule -->
<g id="edge4" class="edge">
<title>NewPasswordComponent&#45;&gt;AuthModule</title>
<path fill="none" stroke="#000000" d="M1337,-122.0225C1337,-139.3734 1337,-163 1337,-163 1337,-163 1028.6657,-163 1028.6657,-163"/>
<polygon fill="#000000" stroke="#000000" points="1028.6657,-159.5001 1018.6657,-163 1028.6656,-166.5001 1028.6657,-159.5001"/>
</g>
<!-- SendOTPComponent -->
<g id="node5" class="node">
<title>SendOTPComponent</title>
<polygon fill="#ffffb3" stroke="#000000" points="1237.7716,-122 1102.2284,-122 1102.2284,-86 1237.7716,-86 1237.7716,-122"/>
<text text-anchor="middle" x="1170" y="-99.8" font-family="Times,serif" font-size="14.00" fill="#000000">SendOTPComponent</text>
</g>
<!-- SendOTPComponent&#45;&gt;AuthModule -->
<g id="edge5" class="edge">
<title>SendOTPComponent&#45;&gt;AuthModule</title>
<path fill="none" stroke="#000000" d="M1170,-122.2396C1170,-137.5706 1170,-157 1170,-157 1170,-157 1028.7618,-157 1028.7618,-157"/>
<polygon fill="#000000" stroke="#000000" points="1028.7618,-153.5001 1018.7618,-157 1028.7618,-160.5001 1028.7618,-153.5001"/>
</g>
<!-- SidebarExternalRegisterComponent -->
<g id="node6" class="node">
<title>SidebarExternalRegisterComponent</title>
<polygon fill="#ffffb3" stroke="#000000" points="1084.1713,-122 865.8287,-122 865.8287,-86 1084.1713,-86 1084.1713,-122"/>
<text text-anchor="middle" x="975" y="-99.8" font-family="Times,serif" font-size="14.00" fill="#000000">SidebarExternalRegisterComponent</text>
</g>
<!-- SidebarExternalRegisterComponent&#45;&gt;AuthModule -->
<g id="edge6" class="edge">
<title>SidebarExternalRegisterComponent&#45;&gt;AuthModule</title>
<path fill="none" stroke="#000000" d="M975,-122.1061C975,-122.1061 975,-140.991 975,-140.991"/>
<polygon fill="#000000" stroke="#000000" points="971.5001,-140.9909 975,-150.991 978.5001,-140.991 971.5001,-140.9909"/>
</g>
<!-- SidebarLoginComponent -->
<g id="node7" class="node">
<title>SidebarLoginComponent</title>
<polygon fill="#ffffb3" stroke="#000000" points="847.5393,-122 690.4607,-122 690.4607,-86 847.5393,-86 847.5393,-122"/>
<text text-anchor="middle" x="769" y="-99.8" font-family="Times,serif" font-size="14.00" fill="#000000">SidebarLoginComponent</text>
</g>
<!-- SidebarLoginComponent&#45;&gt;AuthModule -->
<g id="edge7" class="edge">
<title>SidebarLoginComponent&#45;&gt;AuthModule</title>
<path fill="none" stroke="#000000" d="M769,-122.2396C769,-137.5706 769,-157 769,-157 769,-157 921.3127,-157 921.3127,-157"/>
<polygon fill="#000000" stroke="#000000" points="921.3127,-160.5001 931.3127,-157 921.3127,-153.5001 921.3127,-160.5001"/>
</g>
<!-- SidebarOTPVerifyComponent -->
<g id="node8" class="node">
<title>SidebarOTPVerifyComponent</title>
<polygon fill="#ffffb3" stroke="#000000" points="672.5702,-122 485.4298,-122 485.4298,-86 672.5702,-86 672.5702,-122"/>
<text text-anchor="middle" x="579" y="-99.8" font-family="Times,serif" font-size="14.00" fill="#000000">SidebarOTPVerifyComponent</text>
</g>
<!-- SidebarOTPVerifyComponent&#45;&gt;AuthModule -->
<g id="edge8" class="edge">
<title>SidebarOTPVerifyComponent&#45;&gt;AuthModule</title>
<path fill="none" stroke="#000000" d="M579,-122.0225C579,-139.3734 579,-163 579,-163 579,-163 921.108,-163 921.108,-163"/>
<polygon fill="#000000" stroke="#000000" points="921.1081,-166.5001 931.108,-163 921.108,-159.5001 921.1081,-166.5001"/>
</g>
<!-- SidebarRegisterComponent -->
<g id="node9" class="node">
<title>SidebarRegisterComponent</title>
<polygon fill="#ffffb3" stroke="#000000" points="467.2478,-122 296.7522,-122 296.7522,-86 467.2478,-86 467.2478,-122"/>
<text text-anchor="middle" x="382" y="-99.8" font-family="Times,serif" font-size="14.00" fill="#000000">SidebarRegisterComponent</text>
</g>
<!-- SidebarRegisterComponent&#45;&gt;AuthModule -->
<g id="edge9" class="edge">
<title>SidebarRegisterComponent&#45;&gt;AuthModule</title>
<path fill="none" stroke="#000000" d="M382,-122.1061C382,-141.3391 382,-169 382,-169 382,-169 921.3953,-169 921.3953,-169"/>
<polygon fill="#000000" stroke="#000000" points="921.3953,-172.5001 931.3953,-169 921.3953,-165.5001 921.3953,-172.5001"/>
</g>
<!-- AuthRoutingModule -->
<g id="node11" class="node">
<title>AuthRoutingModule</title>
<polygon fill="#8dd3c7" stroke="#000000" points="273.1652,-122 270.1652,-126 249.1652,-126 246.1652,-122 140.8348,-122 140.8348,-86 273.1652,-86 273.1652,-122"/>
<text text-anchor="middle" x="207" y="-99.8" font-family="Times,serif" font-size="14.00" fill="#000000">AuthRoutingModule</text>
</g>
<!-- AuthRoutingModule&#45;&gt;AuthModule -->
<g id="edge10" class="edge">
<title>AuthRoutingModule&#45;&gt;AuthModule</title>
<path fill="none" stroke="#000000" d="M207,-122.2843C207,-143.3211 207,-175 207,-175 207,-175 921.2299,-175 921.2299,-175"/>
<polygon fill="#000000" stroke="#000000" points="921.23,-178.5001 931.2299,-175 921.2299,-171.5001 921.23,-178.5001"/>
</g>
<!-- SharedModule -->
<g id="node12" class="node">
<title>SharedModule</title>
<polygon fill="#8dd3c7" stroke="#000000" points="122.4231,-122 119.4231,-126 98.4231,-126 95.4231,-122 23.5769,-122 23.5769,-86 122.4231,-86 122.4231,-122"/>
<text text-anchor="middle" x="73" y="-99.8" font-family="Times,serif" font-size="14.00" fill="#000000">SharedModule</text>
</g>
<!-- SharedModule&#45;&gt;AuthModule -->
<g id="edge11" class="edge">
<title>SharedModule&#45;&gt;AuthModule</title>
<path fill="none" stroke="#000000" d="M73,-122.0908C73,-145.1328 73,-182 73,-182 73,-182 921.1898,-182 921.1898,-182"/>
<polygon fill="#000000" stroke="#000000" points="921.1899,-185.5001 931.1898,-182 921.1898,-178.5001 921.1899,-185.5001"/>
</g>
</g>
</svg>
