<?xml version="1.0" encoding="UTF-8"?>
<svg width="54px" height="54px" viewBox="0 0 54 54" version="1.1" xmlns="http://www.w3.org/2000/svg" xmlns:xlink="http://www.w3.org/1999/xlink">
    <!-- Generator: Sketch 59.1 (86144) - https://sketch.com -->
    <title>Group 2</title>
    <desc>Created with Sketch.</desc>
    <g id="Revised-Emailer" stroke="none" stroke-width="1" fill="none" fill-rule="evenodd">
        <g id="Cover-Letter" transform="translate(-311.000000, -255.000000)">
            <g id="Group-2" transform="translate(311.000000, 255.000000)">
                <circle id="Oval" fill="#00BDE1" cx="27" cy="27" r="27"></circle>
                <g id="noun_Resume_1550414" transform="translate(13.000000, 11.000000)" fill="#FFFFFF" fill-rule="nonzero">
                    <path d="M13.5,11.1375 C15.1775649,11.1375 16.5375,9.77756493 16.5375,8.1 C16.5375,6.42243507 15.1775649,5.0625 13.5,5.0625 C11.8224351,5.0625 10.4625,6.42243507 10.4625,8.1 C10.4625,9.77756493 11.8224351,11.1375 13.5,11.1375 Z" id="Path"></path>
                    <path d="M8.5640625,17.2125 L18.4359375,17.2125 C18.5291706,17.2271213 18.6237768,17.1963024 18.6905083,17.1295708 C18.7572399,17.0628393 18.7880588,16.9682331 18.7734375,16.875 L18.7734375,16.6640625 C18.7848118,15.4186513 18.2950989,14.2209395 17.4144234,13.3402641 C16.533748,12.4595886 15.3360362,11.9698757 14.090625,11.98125 L12.909375,11.98125 C11.6639638,11.9698757 10.466252,12.4595886 9.58557656,13.3402641 C8.70490114,14.2209395 8.21518817,15.4186513 8.2265625,16.6640625 L8.2265625,16.875 C8.21194115,16.9682331 8.24276011,17.0628393 8.30949167,17.1295708 C8.37622323,17.1963024 8.47082936,17.2271213 8.5640625,17.2125 L8.5640625,17.2125 Z" id="Path"></path>
                    <path d="M22.10625,0.1265625 L4.89375,0.1265625 C2.34034999,0.149464326 0.276026826,2.21378749 0.253125,4.7671875 L0.253125,28.9828125 C0.276026826,31.5362125 2.34034999,33.6005357 4.89375,33.6234375 L22.10625,33.6234375 C24.65965,33.6005357 26.7239732,31.5362125 26.746875,28.9828125 L26.746875,4.7671875 C26.7239732,2.21378749 24.65965,0.149464326 22.10625,0.1265625 Z M24.215625,28.9828125 C24.1931808,30.1383638 23.2618013,31.0697433 22.10625,31.0921875 L4.89375,31.0921875 C3.73819872,31.0697433 2.8068192,30.1383638 2.784375,28.9828125 L2.784375,4.7671875 C2.8068192,3.61163622 3.73819872,2.6802567 4.89375,2.6578125 L22.10625,2.6578125 C23.2618013,2.6802567 24.1931808,3.61163622 24.215625,4.7671875 L24.215625,28.9828125 Z" id="Shape"></path>
                    <path d="M20.08125,20.5453125 L7.340625,20.5453125 C7.00144873,20.5334004 6.67256443,20.6629135 6.43258272,20.9028952 C6.19260101,21.1428769 6.06308794,21.4717612 6.075,21.8109375 C6.075,22.5099229 6.64163961,23.0765625 7.340625,23.0765625 L20.08125,23.0765625 C20.7802354,23.0765625 21.346875,22.5099229 21.346875,21.8109375 C21.3587871,21.4717612 21.229274,21.1428769 20.9892923,20.9028952 C20.7493106,20.6629135 20.4204263,20.5334004 20.08125,20.5453125 Z" id="Path"></path>
                    <path d="M20.08125,25.6078125 L7.340625,25.6078125 C7.00144873,25.5959004 6.67256443,25.7254135 6.43258272,25.9653952 C6.19260101,26.2053769 6.06308794,26.5342612 6.075,26.8734375 C6.075,27.5724229 6.64163961,28.1390625 7.340625,28.1390625 L20.08125,28.1390625 C20.7802354,28.1390625 21.346875,27.5724229 21.346875,26.8734375 C21.3587871,26.5342612 21.229274,26.2053769 20.9892923,25.9653952 C20.7493106,25.7254135 20.4204263,25.5959004 20.08125,25.6078125 Z" id="Path"></path>
                </g>
            </g>
        </g>
    </g>
</svg>