<?xml version="1.0" encoding="UTF-8" standalone="no"?>
<!DOCTYPE svg PUBLIC "-//W3C//DTD SVG 1.1//EN"
 "http://www.w3.org/Graphics/SVG/1.1/DTD/svg11.dtd">
<!-- Generated by graphviz version 2.40.1 (20161225.0304)
 -->
<!-- Title: dependencies Pages: 1 -->
<svg width="504pt" height="211pt"
 viewBox="0.00 0.00 504.00 211.00" xmlns="http://www.w3.org/2000/svg" xmlns:xlink="http://www.w3.org/1999/xlink">
<g id="graph0" class="graph" transform="scale(1 1) rotate(0) translate(4 207)">
<title>dependencies</title>
<polygon fill="#ffffff" stroke="transparent" points="-4,4 -4,-207 500,-207 500,4 -4,4"/>
<text text-anchor="start" x="227.0091" y="-42.4" font-family="sans-serif" font-weight="bold" font-size="14.00" fill="#000000">Legend</text>
<polygon fill="#ffffb3" stroke="transparent" points="14,-10 14,-30 34,-30 34,-10 14,-10"/>
<text text-anchor="start" x="37.629" y="-15.4" font-family="sans-serif" font-size="14.00" fill="#000000"> &#160;Declarations</text>
<polygon fill="#8dd3c7" stroke="transparent" points="127,-10 127,-30 147,-30 147,-10 127,-10"/>
<text text-anchor="start" x="150.7251" y="-15.4" font-family="sans-serif" font-size="14.00" fill="#000000"> &#160;Module</text>
<polygon fill="#80b1d3" stroke="transparent" points="213,-10 213,-30 233,-30 233,-10 213,-10"/>
<text text-anchor="start" x="236.7812" y="-15.4" font-family="sans-serif" font-size="14.00" fill="#000000"> &#160;Bootstrap</text>
<polygon fill="#fdb462" stroke="transparent" points="310,-10 310,-30 330,-30 330,-10 310,-10"/>
<text text-anchor="start" x="333.6732" y="-15.4" font-family="sans-serif" font-size="14.00" fill="#000000"> &#160;Providers</text>
<polygon fill="#fb8072" stroke="transparent" points="406,-10 406,-30 426,-30 426,-10 406,-10"/>
<text text-anchor="start" x="429.7258" y="-15.4" font-family="sans-serif" font-size="14.00" fill="#000000"> &#160;Exports</text>
<g id="clust1" class="cluster">
<title>cluster_CompanyModule</title>
<polygon fill="none" stroke="#000000" stroke-dasharray="1,5" points="15.5,-70 15.5,-195 480.5,-195 480.5,-70 15.5,-70"/>
</g>
<g id="clust2" class="cluster">
<title>cluster_CompanyModule_declarations</title>
<polygon fill="none" stroke="#000000" points="207.5,-78 207.5,-130 472.5,-130 472.5,-78 207.5,-78"/>
</g>
<g id="clust5" class="cluster">
<title>cluster_CompanyModule_imports</title>
<polygon fill="none" stroke="#000000" points="23.5,-78 23.5,-130 199.5,-130 199.5,-78 23.5,-78"/>
</g>
<!-- AboutusComponent -->
<g id="node1" class="node">
<title>AboutusComponent</title>
<polygon fill="#ffffb3" stroke="#000000" points="464.7744,-122 336.2256,-122 336.2256,-86 464.7744,-86 464.7744,-122"/>
<text text-anchor="middle" x="400.5" y="-99.8" font-family="Times,serif" font-size="14.00" fill="#000000">AboutusComponent</text>
</g>
<!-- CompanyModule -->
<g id="node3" class="node">
<title>CompanyModule</title>
<polygon fill="#8dd3c7" stroke="#000000" points="323.4916,-187 320.4916,-191 299.4916,-191 296.4916,-187 209.5084,-187 209.5084,-151 323.4916,-151 323.4916,-187"/>
<text text-anchor="middle" x="266.5" y="-164.8" font-family="Times,serif" font-size="14.00" fill="#000000">CompanyModule</text>
</g>
<!-- AboutusComponent&#45;&gt;CompanyModule -->
<g id="edge1" class="edge">
<title>AboutusComponent&#45;&gt;CompanyModule</title>
<path fill="none" stroke="#000000" d="M400.5,-122.1061C400.5,-141.3391 400.5,-169 400.5,-169 400.5,-169 333.7167,-169 333.7167,-169"/>
<polygon fill="#000000" stroke="#000000" points="333.7168,-165.5001 323.7167,-169 333.7167,-172.5001 333.7168,-165.5001"/>
</g>
<!-- FaqComponent -->
<g id="node2" class="node">
<title>FaqComponent</title>
<polygon fill="#ffffb3" stroke="#000000" points="317.8301,-122 215.1699,-122 215.1699,-86 317.8301,-86 317.8301,-122"/>
<text text-anchor="middle" x="266.5" y="-99.8" font-family="Times,serif" font-size="14.00" fill="#000000">FaqComponent</text>
</g>
<!-- FaqComponent&#45;&gt;CompanyModule -->
<g id="edge2" class="edge">
<title>FaqComponent&#45;&gt;CompanyModule</title>
<path fill="none" stroke="#000000" d="M266.5,-122.1061C266.5,-122.1061 266.5,-140.991 266.5,-140.991"/>
<polygon fill="#000000" stroke="#000000" points="263.0001,-140.9909 266.5,-150.991 270.0001,-140.991 263.0001,-140.9909"/>
</g>
<!-- CompanyRoutingModule -->
<g id="node4" class="node">
<title>CompanyRoutingModule</title>
<polygon fill="#8dd3c7" stroke="#000000" points="191.1094,-122 188.1094,-126 167.1094,-126 164.1094,-122 31.8906,-122 31.8906,-86 191.1094,-86 191.1094,-122"/>
<text text-anchor="middle" x="111.5" y="-99.8" font-family="Times,serif" font-size="14.00" fill="#000000">CompanyRoutingModule</text>
</g>
<!-- CompanyRoutingModule&#45;&gt;CompanyModule -->
<g id="edge3" class="edge">
<title>CompanyRoutingModule&#45;&gt;CompanyModule</title>
<path fill="none" stroke="#000000" d="M111.5,-122.1061C111.5,-141.3391 111.5,-169 111.5,-169 111.5,-169 199.2241,-169 199.2241,-169"/>
<polygon fill="#000000" stroke="#000000" points="199.2241,-172.5001 209.2241,-169 199.2241,-165.5001 199.2241,-172.5001"/>
</g>
</g>
</svg>
