<?xml version="1.0" encoding="UTF-8" standalone="no"?>
<!DOCTYPE svg PUBLIC "-//W3C//DTD SVG 1.1//EN"
 "http://www.w3.org/Graphics/SVG/1.1/DTD/svg11.dtd">
<!-- Generated by graphviz version 2.40.1 (20161225.0304)
 -->
<!-- Title: dependencies Pages: 1 -->
<svg width="622pt" height="211pt"
 viewBox="0.00 0.00 622.00 211.00" xmlns="http://www.w3.org/2000/svg" xmlns:xlink="http://www.w3.org/1999/xlink">
<g id="graph0" class="graph" transform="scale(1 1) rotate(0) translate(4 207)">
<title>dependencies</title>
<polygon fill="#ffffff" stroke="transparent" points="-4,4 -4,-207 618,-207 618,4 -4,4"/>
<text text-anchor="start" x="286.0091" y="-42.4" font-family="sans-serif" font-weight="bold" font-size="14.00" fill="#000000">Legend</text>
<polygon fill="#ffffb3" stroke="transparent" points="73,-10 73,-30 93,-30 93,-10 73,-10"/>
<text text-anchor="start" x="96.629" y="-15.4" font-family="sans-serif" font-size="14.00" fill="#000000"> &#160;Declarations</text>
<polygon fill="#8dd3c7" stroke="transparent" points="186,-10 186,-30 206,-30 206,-10 186,-10"/>
<text text-anchor="start" x="209.7251" y="-15.4" font-family="sans-serif" font-size="14.00" fill="#000000"> &#160;Module</text>
<polygon fill="#80b1d3" stroke="transparent" points="272,-10 272,-30 292,-30 292,-10 272,-10"/>
<text text-anchor="start" x="295.7812" y="-15.4" font-family="sans-serif" font-size="14.00" fill="#000000"> &#160;Bootstrap</text>
<polygon fill="#fdb462" stroke="transparent" points="369,-10 369,-30 389,-30 389,-10 369,-10"/>
<text text-anchor="start" x="392.6732" y="-15.4" font-family="sans-serif" font-size="14.00" fill="#000000"> &#160;Providers</text>
<polygon fill="#fb8072" stroke="transparent" points="465,-10 465,-30 485,-30 485,-10 465,-10"/>
<text text-anchor="start" x="488.7258" y="-15.4" font-family="sans-serif" font-size="14.00" fill="#000000"> &#160;Exports</text>
<g id="clust1" class="cluster">
<title>cluster_MyJobsModule</title>
<polygon fill="none" stroke="#000000" stroke-dasharray="1,5" points="8,-70 8,-195 606,-195 606,-70 8,-70"/>
</g>
<g id="clust2" class="cluster">
<title>cluster_MyJobsModule_declarations</title>
<polygon fill="none" stroke="#000000" points="306,-78 306,-130 598,-130 598,-78 306,-78"/>
</g>
<g id="clust5" class="cluster">
<title>cluster_MyJobsModule_imports</title>
<polygon fill="none" stroke="#000000" points="16,-78 16,-130 298,-130 298,-78 16,-78"/>
</g>
<!-- MyJobsComponent -->
<g id="node1" class="node">
<title>MyJobsComponent</title>
<polygon fill="#ffffb3" stroke="#000000" points="589.6666,-122 464.3334,-122 464.3334,-86 589.6666,-86 589.6666,-122"/>
<text text-anchor="middle" x="527" y="-99.8" font-family="Times,serif" font-size="14.00" fill="#000000">MyJobsComponent</text>
</g>
<!-- MyJobsModule -->
<g id="node3" class="node">
<title>MyJobsModule</title>
<polygon fill="#8dd3c7" stroke="#000000" points="348.8837,-187 345.8837,-191 324.8837,-191 321.8837,-187 245.1163,-187 245.1163,-151 348.8837,-151 348.8837,-187"/>
<text text-anchor="middle" x="297" y="-164.8" font-family="Times,serif" font-size="14.00" fill="#000000">MyJobsModule</text>
</g>
<!-- MyJobsComponent&#45;&gt;MyJobsModule -->
<g id="edge1" class="edge">
<title>MyJobsComponent&#45;&gt;MyJobsModule</title>
<path fill="none" stroke="#000000" d="M527,-122.1061C527,-141.3391 527,-169 527,-169 527,-169 358.9033,-169 358.9033,-169"/>
<polygon fill="#000000" stroke="#000000" points="358.9033,-165.5001 348.9033,-169 358.9032,-172.5001 358.9033,-165.5001"/>
</g>
<!-- ScheduleComponent -->
<g id="node2" class="node">
<title>ScheduleComponent</title>
<polygon fill="#ffffb3" stroke="#000000" points="446.1499,-122 313.8501,-122 313.8501,-86 446.1499,-86 446.1499,-122"/>
<text text-anchor="middle" x="380" y="-99.8" font-family="Times,serif" font-size="14.00" fill="#000000">ScheduleComponent</text>
</g>
<!-- ScheduleComponent&#45;&gt;MyJobsModule -->
<g id="edge2" class="edge">
<title>ScheduleComponent&#45;&gt;MyJobsModule</title>
<path fill="none" stroke="#000000" d="M331.3085,-122.1061C331.3085,-122.1061 331.3085,-140.991 331.3085,-140.991"/>
<polygon fill="#000000" stroke="#000000" points="327.8086,-140.9909 331.3085,-150.991 334.8086,-140.991 327.8086,-140.9909"/>
</g>
<!-- MyJobsRoutingModule -->
<g id="node4" class="node">
<title>MyJobsRoutingModule</title>
<polygon fill="#8dd3c7" stroke="#000000" points="289.5014,-122 286.5014,-126 265.5014,-126 262.5014,-122 140.4986,-122 140.4986,-86 289.5014,-86 289.5014,-122"/>
<text text-anchor="middle" x="215" y="-99.8" font-family="Times,serif" font-size="14.00" fill="#000000">MyJobsRoutingModule</text>
</g>
<!-- MyJobsRoutingModule&#45;&gt;MyJobsModule -->
<g id="edge3" class="edge">
<title>MyJobsRoutingModule&#45;&gt;MyJobsModule</title>
<path fill="none" stroke="#000000" d="M267.2795,-122.1061C267.2795,-122.1061 267.2795,-140.991 267.2795,-140.991"/>
<polygon fill="#000000" stroke="#000000" points="263.7795,-140.9909 267.2795,-150.991 270.7795,-140.991 263.7795,-140.9909"/>
</g>
<!-- SharedModule -->
<g id="node5" class="node">
<title>SharedModule</title>
<polygon fill="#8dd3c7" stroke="#000000" points="122.4231,-122 119.4231,-126 98.4231,-126 95.4231,-122 23.5769,-122 23.5769,-86 122.4231,-86 122.4231,-122"/>
<text text-anchor="middle" x="73" y="-99.8" font-family="Times,serif" font-size="14.00" fill="#000000">SharedModule</text>
</g>
<!-- SharedModule&#45;&gt;MyJobsModule -->
<g id="edge4" class="edge">
<title>SharedModule&#45;&gt;MyJobsModule</title>
<path fill="none" stroke="#000000" d="M73,-122.1061C73,-141.3391 73,-169 73,-169 73,-169 235.0469,-169 235.0469,-169"/>
<polygon fill="#000000" stroke="#000000" points="235.0469,-172.5001 245.0469,-169 235.0468,-165.5001 235.0469,-172.5001"/>
</g>
</g>
</svg>
