<?xml version="1.0" encoding="UTF-8"?>
<svg width="316px" height="225px" viewBox="0 0 316 225" version="1.1" xmlns="http://www.w3.org/2000/svg" xmlns:xlink="http://www.w3.org/1999/xlink">
    <!-- Generator: Sketch 55.2 (78181) - https://sketchapp.com -->
    <title>CS_new_logo 316x225</title>
    <desc>Created with Sketch.</desc>
    <g id="CS_new_logo-316x225" stroke="none" stroke-width="1" fill="none" fill-rule="evenodd">
        <rect id="Rectangle" fill-opacity="0" fill="#FFFFFF" x="0" y="0" width="316" height="225"></rect>
        <g id="Group-3" transform="translate(13.000000, 27.000000)">
            <g id="Group-Copy-2">
                <g id="Group-2" transform="translate(102.727128, 0.000000)">
                    <path d="M54.1784416,54.1822062 C52.1716144,56.197371 49.4628652,57.3474563 46.5659777,57.3474563 C40.6201552,57.3474563 35.8005862,52.5090052 35.8005862,46.5399864 C35.8005862,40.5716238 40.6202499,35.7332677 46.5659777,35.7332677 C49.0772746,35.7332677 51.4503306,36.5961196 53.3570036,38.153888 L56.3692119,34.4386525 C53.6190923,32.1917808 50.1847778,30.9430515 46.5659777,30.9430515 C37.9847618,30.9430515 31.0286888,37.9261026 31.0286888,46.5399864 C31.0286888,55.1544842 37.9846251,62.1376725 46.5659777,62.1376725 C50.7415707,62.1376725 54.6602106,60.4738897 57.553213,57.5688681 L54.1784416,54.1822062 Z" id="Stroke-1" fill="#E16240" fill-rule="nonzero"></path>
                    <path d="M36.4363351,27.4885622 L34.2062026,23.254856 C37.9366033,21.2615242 42.1039456,20.2044169 46.4179175,20.2044169 C60.8266445,20.2044169 72.5074659,31.9693617 72.5074659,46.4812871 C72.5074659,60.9938361 60.8267715,72.7589088 46.4179175,72.7589088 C32.0090635,72.7589088 20.3283691,60.9938361 20.3283691,46.4812871 L25.0868472,46.4812871 C25.0868472,58.3469786 34.6371447,67.966265 46.4179175,67.966265 C58.1986903,67.966265 67.7489877,58.3469786 67.7489877,46.4812871 C67.7489877,34.6162425 58.1985865,24.9970607 46.4179175,24.9970607 C42.8861838,24.9970607 39.4839092,25.8600974 36.4363351,27.4885622 Z M24.3335701,69.3165559 L21.0129964,72.7493858 C14.0248205,65.8923122 10.0092544,56.5057368 10.0092544,46.4812871 C10.0092544,26.2292594 26.3102619,9.81121145 46.4179175,9.81121145 C66.5260696,9.81121145 82.8265805,26.229008 82.8265805,46.4812871 C82.8265805,61.3341781 73.9783568,74.5449322 60.6359994,80.2506783 L58.7762754,75.8392139 C70.3761571,70.8786227 78.0681024,59.3942389 78.0681024,46.4812871 C78.0681024,28.8758958 63.8980185,14.6038552 46.4179175,14.6038552 C28.9382968,14.6038552 14.7677326,28.8761635 14.7677326,46.4812871 C14.7677326,55.1995811 18.2555824,63.3525948 24.3335701,69.3165559 Z" id="Stroke-2" fill="#465191" fill-rule="nonzero"></path>
                    <path d="M72.8950322,78.7817529 C65.4622654,85.0130458 56.119894,88.4809356 46.2416814,88.4809356 C23.2272541,88.4809356 4.57026853,69.7034423 4.57026853,46.540362 C4.57026853,23.3772817 23.2272541,4.59978845 46.2416814,4.59978845 C55.9881101,4.59978845 65.214214,7.97546398 72.6027289,14.0560617 L75.4957703,10.4951777 C67.2982049,3.74874794 57.0524518,2.13162821e-14 46.2416814,2.13162821e-14 C20.7031645,2.13162821e-14 1.77635684e-14,20.8368887 1.77635684e-14,46.540362 C1.77635684e-14,72.2438354 20.7031645,93.0807241 46.2416814,93.0807241 C57.1987036,93.0807241 67.5735217,89.2295899 75.8201024,82.3160325 L72.8950322,78.7817529 Z" id="Stroke-3" fill="#465191" fill-rule="nonzero"></path>
                    <path d="M61.3066834,39.2452183 C61.3066834,41.8844929 59.1778937,44.0246668 56.5519171,44.0246668 C53.9266815,44.0246668 51.7978917,41.8844929 51.7978917,39.2452183 C51.7978917,36.6051987 53.9266815,34.4650249 56.5519171,34.4650249 C59.1778937,34.4650249 61.3066834,36.6051987 61.3066834,39.2452183" id="Fill-4" fill="#E16240"></path>
                    <path d="M40.5374805,26.163603 C40.5374805,28.8036226 38.4094317,30.9430515 35.7834551,30.9430515 C33.1574785,30.9430515 31.0286888,28.8036226 31.0286888,26.163603 C31.0286888,23.5235834 33.1574785,21.3834096 35.7834551,21.3834096 C38.4094317,21.3834096 40.5374805,23.5235834 40.5374805,26.163603" id="Fill-5" fill="#E16240"></path>
                    <path d="M64.3094598,77.7353555 C64.3094598,80.3753751 62.181411,82.514804 59.5554344,82.514804 C56.9294578,82.514804 54.8006681,80.3753751 54.8006681,77.7353555 C54.8006681,75.095336 56.9294578,72.9551621 59.5554344,72.9551621 C62.181411,72.9551621 64.3094598,75.095336 64.3094598,77.7353555" id="Fill-6" fill="#E16240"></path>
                    <path d="M81.825655,13.8366963 C81.825655,16.4767159 79.6968653,18.6161448 77.0716297,18.6161448 C74.4456531,18.6161448 72.3168633,16.4767159 72.3168633,13.8366963 C72.3168633,11.1966768 74.4456531,9.05650288 77.0716297,9.05650288 C79.6968653,9.05650288 81.825655,11.1966768 81.825655,13.8366963" id="Fill-7" fill="#E16240"></path>
                    <path d="M81.825655,77.9861801 C81.825655,80.6261997 79.6968653,82.7663736 77.0716297,82.7663736 C74.4456531,82.7663736 72.3168633,80.6261997 72.3168633,77.9861801 C72.3168633,75.3461606 74.4456531,73.2067316 77.0716297,73.2067316 C79.6968653,73.2067316 81.825655,75.3461606 81.825655,77.9861801" id="Fill-8" fill="#E16240"></path>
                    <path d="M61.3066834,53.5846812 C61.3066834,56.2247007 59.1778937,58.3641297 56.5519171,58.3641297 C53.9266815,58.3641297 51.7978917,56.2247007 51.7978917,53.5846812 C51.7978917,50.9446616 53.9266815,48.8044877 56.5519171,48.8044877 C59.1778937,48.8044877 61.3066834,50.9446616 61.3066834,53.5846812" id="Fill-9" fill="#E16240"></path>
                    <path d="M27.5254497,46.5399896 C27.5254497,49.1800091 25.39666,51.320183 22.7706834,51.320183 C20.1447068,51.320183 18.016658,49.1800091 18.016658,46.5399896 C18.016658,43.9007149 20.1447068,41.7605411 22.7706834,41.7605411 C25.39666,41.7605411 27.5254497,43.9007149 27.5254497,46.5399896" id="Fill-10" fill="#E16240"></path>
                    <path d="M27.5254497,71.1945479 C27.5254497,73.8338225 25.39666,75.9739964 22.7706834,75.9739964 C20.1447068,75.9739964 18.016658,73.8338225 18.016658,71.1945479 C18.016658,68.5545283 20.1447068,66.4143545 22.7706834,66.4143545 C25.39666,66.4143545 27.5254497,68.5545283 27.5254497,71.1945479" id="Fill-11" fill="#E16240"></path>
                </g>
                <g id="Group" transform="translate(0.000000, 102.000000)">
                    <path d="M19.6579853,5.29963028 C24.7302099,5.29963028 28.988649,7.81483115 31.7437348,10.6451319 L26.6715103,16.3689133 C24.6051959,14.4823127 22.6638955,13.2866926 19.7829993,13.2866926 C14.0849084,13.2866926 9.63855018,18.2555139 9.63855018,26.4952959 C9.63855018,34.9230183 13.5840561,39.8286596 19.5329713,39.8286596 C22.9139235,39.8286596 25.2939673,38.382719 27.2981729,36.1810186 L32.3703974,41.7792399 C28.988649,45.7411811 24.4801819,47.8165217 19.4079573,47.8165217 C8.8247647,47.8165217 0.182872512,40.5836197 0.182872512,26.8095961 C0.182872512,13.2243124 9.13769787,5.29963028 19.6579853,5.29963028" id="Fill-12" fill="#465191"></path>
                    <path d="M38.2226747,2.36743088 L47.4839141,2.36743088 L47.4839141,37.6175684 C47.4839141,39.593651 48.3659751,40.230731 49.1222562,40.230731 C49.5003968,40.230731 49.7527576,40.230731 50.256678,40.1034771 L51.3902985,47.0513773 C50.3824578,47.4979817 48.8074061,47.8165217 46.727633,47.8165217 C40.364136,47.8165217 38.2226747,43.6098486 38.2226747,37.2349962 L38.2226747,2.36743088" id="Fill-13" fill="#465191"></path>
                    <path d="M56.5026151,46.350422 L65.3583975,46.350422 L65.3583975,15.1281349 L56.5026151,15.1281349 L56.5026151,46.350422 Z M55.7795065,5.68548812 C55.7795065,2.85277414 57.9488323,0.901331173 60.9002491,0.901331173 C63.9129463,0.901331173 66.0209917,2.85277414 66.0209917,5.68548812 C66.0209917,8.5182021 63.9129463,10.5328789 60.9002491,10.5328789 C57.9488323,10.5328789 55.7795065,8.5182021 55.7795065,5.68548812 L55.7795065,5.68548812 Z" id="Fill-14" fill="#465191"></path>
                    <polyline id="Fill-15" fill="#465191" points="73.3363383 2.36743088 82.1085919 2.36743088 82.1085919 27.5896965 82.3535223 27.5896965 91.9845925 15.2298768 101.799751 15.2298768 91.1257759 28.029295 102.597725 46.350422 92.8434091 46.350422 85.9728765 34.2411176 82.1085919 38.6953439 82.1085919 46.350422 73.3363383 46.350422 73.3363383 2.36743088"></polyline>
                    <path d="M110.886464,35.5524183 C113.789569,38.0676191 117.574274,39.8286596 120.98115,39.8286596 C124.829227,39.8286596 126.722382,38.3187394 126.722382,35.8667184 C126.722382,33.2875379 124.388026,32.4701976 120.791834,30.9602773 L115.492606,28.6961967 C111.202525,26.9983361 107.165132,23.4762552 107.165132,17.5013535 C107.165132,10.7083118 113.284193,5.29963028 121.800982,5.29963028 C126.532264,5.29963028 131.516234,7.18623087 135.049856,10.7083118 L130.380342,16.5576534 C127.668157,14.4823127 125.081915,13.2866926 121.800982,13.2866926 C118.646794,13.2866926 116.565126,14.6710528 116.565126,16.9975136 C116.565126,19.5135142 119.277311,20.3940344 122.873502,21.8407748 L128.109358,23.9792953 C133.093328,25.991456 136.248319,29.3247969 136.248319,35.1117583 C136.248319,41.9048 130.570459,47.8165217 120.791834,47.8165217 C115.429233,47.8165217 109.751374,45.804361 105.523863,41.9048 L110.886464,35.5524183" id="Fill-16" fill="#E16240"></path>
                    <path d="M154.569039,40.4350081 C158.385128,40.4350081 160.357071,37.0238482 160.357071,31.6898193 C160.357071,26.3550017 158.385128,22.9438418 154.569039,22.9438418 C150.688242,22.9438418 148.779388,26.3550017 148.779388,31.6898193 C148.779388,37.0238482 150.688242,40.4350081 154.569039,40.4350081 Z M154.569039,15.5623282 C162.519899,15.5623282 169.898913,21.454762 169.898913,31.6898193 C169.898913,41.9240879 162.519899,47.8165217 154.569039,47.8165217 C146.55428,47.8165217 139.174457,41.9240879 139.174457,31.6898193 C139.174457,21.454762 146.55428,15.5623282 154.569039,15.5623282 L154.569039,15.5623282 Z" id="Fill-17" fill="#E16240"></path>
                    <path d="M175.75119,15.5623282 L184.954138,15.5623282 L184.954138,33.9116388 C184.954138,38.4198468 186.143516,39.8795245 188.835936,39.8795245 C191.152595,39.8795245 192.529853,38.8646933 194.345763,36.3877624 L194.345763,15.5623282 L203.549507,15.5623282 L203.549507,47.0543891 L196.035889,47.0543891 L195.34726,42.6737415 L195.160176,42.6737415 C192.529853,45.8482174 189.650349,47.8165217 185.392791,47.8165217 C178.630694,47.8165217 175.75119,42.9910276 175.75119,35.1178105 L175.75119,15.5623282" id="Fill-18" fill="#E16240"></path>
                    <path d="M212.327923,14.8583611 L219.686883,14.8583611 L220.300584,20.3822076 L220.545441,20.3822076 C222.753051,16.1283129 226.064856,14.0962285 229.192628,14.0962285 C230.909745,14.0962285 231.952335,14.3505418 232.810894,14.7316081 L231.338634,22.794551 C230.235219,22.4772648 229.315056,22.2867317 228.027609,22.2867317 C225.758395,22.2867317 222.937083,23.8109969 221.343175,28.0648915 L221.343175,46.350422 L212.327923,46.350422 L212.327923,14.8583611" id="Fill-19" fill="#E16240"></path>
                    <path d="M249.925424,15.5623282 C253.62559,15.5623282 256.719474,16.9891001 258.721127,19.098104 L254.656885,24.7420949 C253.201347,23.501458 251.866141,22.9438418 250.47154,22.9438418 C246.164322,22.9438418 243.433743,26.3550017 243.433743,31.6898193 C243.433743,37.0238482 246.285424,40.4350081 250.167628,40.4350081 C252.35132,40.4350081 254.110769,39.3805062 255.567078,38.2021772 L259.146141,43.9707839 C256.233524,46.5758848 252.412256,47.8165217 249.136333,47.8165217 C240.765644,47.8165217 234.273963,41.9240879 234.273963,31.6898193 C234.273963,21.454762 241.614129,15.5623282 249.925424,15.5623282" id="Fill-20" fill="#E16240"></path>
                    <path d="M282.061777,28.5255248 C282.061777,24.9905377 280.562128,22.5092639 276.877344,22.5092639 C274.003546,22.5092639 271.50466,24.4321328 270.880336,28.5255248 L282.061777,28.5255248 Z M276.689094,15.5623282 C285.49715,15.5623282 289.870597,21.9516477 289.870597,30.3253553 C289.870597,31.9382622 289.683141,33.4257645 289.49489,34.1710931 L270.943086,34.1710931 C271.754072,38.82289 274.878077,40.869586 279.000523,40.869586 C281.312747,40.869586 283.435926,40.187354 285.684606,38.82289 L288.74586,44.3430538 C285.5599,46.5135769 281.437453,47.8165217 277.75108,47.8165217 C268.881068,47.8165217 262.07228,41.8625687 262.07228,31.6898193 C262.07228,21.7032049 269.255981,15.5623282 276.689094,15.5623282 L276.689094,15.5623282 Z" id="Fill-21" fill="#E16240"></path>
                </g>
            </g>
        </g>
    </g>
</svg>