<?xml version="1.0" encoding="UTF-8" standalone="no"?>
<!DOCTYPE svg PUBLIC "-//W3C//DTD SVG 1.1//EN"
 "http://www.w3.org/Graphics/SVG/1.1/DTD/svg11.dtd">
<!-- Generated by graphviz version 2.40.1 (20161225.0304)
 -->
<!-- Title: dependencies Pages: 1 -->
<svg width="1197pt" height="284pt"
 viewBox="0.00 0.00 1197.00 284.00" xmlns="http://www.w3.org/2000/svg" xmlns:xlink="http://www.w3.org/1999/xlink">
<g id="graph0" class="graph" transform="scale(1 1) rotate(0) translate(4 280)">
<title>dependencies</title>
<polygon fill="#ffffff" stroke="transparent" points="-4,4 -4,-280 1193,-280 1193,4 -4,4"/>
<text text-anchor="start" x="573.5091" y="-42.4" font-family="sans-serif" font-weight="bold" font-size="14.00" fill="#000000">Legend</text>
<polygon fill="#ffffb3" stroke="transparent" points="360.5,-10 360.5,-30 380.5,-30 380.5,-10 360.5,-10"/>
<text text-anchor="start" x="384.129" y="-15.4" font-family="sans-serif" font-size="14.00" fill="#000000"> &#160;Declarations</text>
<polygon fill="#8dd3c7" stroke="transparent" points="473.5,-10 473.5,-30 493.5,-30 493.5,-10 473.5,-10"/>
<text text-anchor="start" x="497.2251" y="-15.4" font-family="sans-serif" font-size="14.00" fill="#000000"> &#160;Module</text>
<polygon fill="#80b1d3" stroke="transparent" points="559.5,-10 559.5,-30 579.5,-30 579.5,-10 559.5,-10"/>
<text text-anchor="start" x="583.2812" y="-15.4" font-family="sans-serif" font-size="14.00" fill="#000000"> &#160;Bootstrap</text>
<polygon fill="#fdb462" stroke="transparent" points="656.5,-10 656.5,-30 676.5,-30 676.5,-10 656.5,-10"/>
<text text-anchor="start" x="680.1732" y="-15.4" font-family="sans-serif" font-size="14.00" fill="#000000"> &#160;Providers</text>
<polygon fill="#fb8072" stroke="transparent" points="752.5,-10 752.5,-30 772.5,-30 772.5,-10 752.5,-10"/>
<text text-anchor="start" x="776.2258" y="-15.4" font-family="sans-serif" font-size="14.00" fill="#000000"> &#160;Exports</text>
<g id="clust1" class="cluster">
<title>cluster_JobSearchModule</title>
<polygon fill="none" stroke="#000000" stroke-dasharray="1,5" points="8,-70 8,-268 1181,-268 1181,-70 8,-70"/>
</g>
<g id="clust2" class="cluster">
<title>cluster_JobSearchModule_declarations</title>
<polygon fill="none" stroke="#000000" points="318,-78 318,-130 1173,-130 1173,-78 318,-78"/>
</g>
<g id="clust8" class="cluster">
<title>cluster_JobSearchModule_imports</title>
<polygon fill="none" stroke="#000000" points="16,-78 16,-130 310,-130 310,-78 16,-78"/>
</g>
<g id="clust9" class="cluster">
<title>cluster_JobSearchModule_exports</title>
<polygon fill="none" stroke="#000000" points="494,-208 494,-260 672,-260 672,-208 494,-208"/>
</g>
<!-- JobDetailsComponent -->
<g id="node1" class="node">
<title>JobDetailsComponent</title>
<polygon fill="#ffffb3" stroke="#000000" points="1165.4299,-122 1024.5701,-122 1024.5701,-86 1165.4299,-86 1165.4299,-122"/>
<text text-anchor="middle" x="1095" y="-99.8" font-family="Times,serif" font-size="14.00" fill="#000000">JobDetailsComponent</text>
</g>
<!-- JobSearchModule -->
<g id="node6" class="node">
<title>JobSearchModule</title>
<polygon fill="#8dd3c7" stroke="#000000" points="641.5814,-187 638.5814,-191 617.5814,-191 614.5814,-187 524.4186,-187 524.4186,-151 641.5814,-151 641.5814,-187"/>
<text text-anchor="middle" x="583" y="-164.8" font-family="Times,serif" font-size="14.00" fill="#000000">JobSearchModule</text>
</g>
<!-- JobDetailsComponent&#45;&gt;JobSearchModule -->
<g id="edge1" class="edge">
<title>JobDetailsComponent&#45;&gt;JobSearchModule</title>
<path fill="none" stroke="#000000" d="M1095,-122.2921C1095,-144.2057 1095,-178 1095,-178 1095,-178 651.7329,-178 651.7329,-178"/>
<polygon fill="#000000" stroke="#000000" points="651.7329,-174.5001 641.7329,-178 651.7329,-181.5001 651.7329,-174.5001"/>
</g>
<!-- MainSearchComponent -->
<g id="node2" class="node">
<title>MainSearchComponent</title>
<polygon fill="#ffffb3" stroke="#000000" points="1006.4692,-122 857.5308,-122 857.5308,-86 1006.4692,-86 1006.4692,-122"/>
<text text-anchor="middle" x="932" y="-99.8" font-family="Times,serif" font-size="14.00" fill="#000000">MainSearchComponent</text>
</g>
<!-- MainSearchComponent&#45;&gt;JobSearchModule -->
<g id="edge2" class="edge">
<title>MainSearchComponent&#45;&gt;JobSearchModule</title>
<path fill="none" stroke="#000000" d="M932,-122.1061C932,-141.3391 932,-169 932,-169 932,-169 651.8084,-169 651.8084,-169"/>
<polygon fill="#000000" stroke="#000000" points="651.8085,-165.5001 641.8084,-169 651.8084,-172.5001 651.8085,-165.5001"/>
</g>
<!-- MatchingJobsComponent -->
<g id="node3" class="node">
<title>MatchingJobsComponent</title>
<polygon fill="#ffffb3" stroke="#000000" points="839.8766,-122 680.1234,-122 680.1234,-86 839.8766,-86 839.8766,-122"/>
<text text-anchor="middle" x="760" y="-99.8" font-family="Times,serif" font-size="14.00" fill="#000000">MatchingJobsComponent</text>
</g>
<!-- MatchingJobsComponent&#45;&gt;JobSearchModule -->
<g id="edge3" class="edge">
<title>MatchingJobsComponent&#45;&gt;JobSearchModule</title>
<path fill="none" stroke="#000000" d="M760,-122.027C760,-138.3976 760,-160 760,-160 760,-160 651.9384,-160 651.9384,-160"/>
<polygon fill="#000000" stroke="#000000" points="651.9385,-156.5001 641.9384,-160 651.9384,-163.5001 651.9385,-156.5001"/>
</g>
<!-- RecentSearchComponent -->
<g id="node4" class="node">
<title>RecentSearchComponent</title>
<polygon fill="#ffffb3" stroke="#000000" points="662.2907,-122 503.7093,-122 503.7093,-86 662.2907,-86 662.2907,-122"/>
<text text-anchor="middle" x="583" y="-99.8" font-family="Times,serif" font-size="14.00" fill="#000000">RecentSearchComponent</text>
</g>
<!-- RecentSearchComponent&#45;&gt;JobSearchModule -->
<g id="edge4" class="edge">
<title>RecentSearchComponent&#45;&gt;JobSearchModule</title>
<path fill="none" stroke="#000000" d="M583,-122.1061C583,-122.1061 583,-140.991 583,-140.991"/>
<polygon fill="#000000" stroke="#000000" points="579.5001,-140.9909 583,-150.991 586.5001,-140.991 579.5001,-140.9909"/>
</g>
<!-- SearchResultsComponent -->
<g id="node5" class="node">
<title>SearchResultsComponent</title>
<polygon fill="#ffffb3" stroke="#000000" points="486.1414,-122 325.8586,-122 325.8586,-86 486.1414,-86 486.1414,-122"/>
<text text-anchor="middle" x="406" y="-99.8" font-family="Times,serif" font-size="14.00" fill="#000000">SearchResultsComponent</text>
</g>
<!-- SearchResultsComponent&#45;&gt;JobSearchModule -->
<g id="edge5" class="edge">
<title>SearchResultsComponent&#45;&gt;JobSearchModule</title>
<path fill="none" stroke="#000000" d="M406,-122.027C406,-138.3976 406,-160 406,-160 406,-160 514.0616,-160 514.0616,-160"/>
<polygon fill="#000000" stroke="#000000" points="514.0616,-163.5001 524.0616,-160 514.0615,-156.5001 514.0616,-163.5001"/>
</g>
<!-- RecentSearchComponent  -->
<g id="node9" class="node">
<title>RecentSearchComponent </title>
<polygon fill="#fb8072" stroke="#000000" points="663.7905,-252 502.2095,-252 502.2095,-216 663.7905,-216 663.7905,-252"/>
<text text-anchor="middle" x="583" y="-229.8" font-family="Times,serif" font-size="14.00" fill="#000000">RecentSearchComponent </text>
</g>
<!-- JobSearchModule&#45;&gt;RecentSearchComponent  -->
<g id="edge8" class="edge">
<title>JobSearchModule&#45;&gt;RecentSearchComponent </title>
<path fill="none" stroke="#000000" stroke-dasharray="5,2" d="M583,-187.1061C583,-187.1061 583,-205.991 583,-205.991"/>
<polygon fill="#000000" stroke="#000000" points="579.5001,-205.9909 583,-215.991 586.5001,-205.991 579.5001,-205.9909"/>
</g>
<!-- JobSearchRoutingModule -->
<g id="node7" class="node">
<title>JobSearchRoutingModule</title>
<polygon fill="#8dd3c7" stroke="#000000" points="302.1993,-122 299.1993,-126 278.1993,-126 275.1993,-122 139.8007,-122 139.8007,-86 302.1993,-86 302.1993,-122"/>
<text text-anchor="middle" x="221" y="-99.8" font-family="Times,serif" font-size="14.00" fill="#000000">JobSearchRoutingModule</text>
</g>
<!-- JobSearchRoutingModule&#45;&gt;JobSearchModule -->
<g id="edge6" class="edge">
<title>JobSearchRoutingModule&#45;&gt;JobSearchModule</title>
<path fill="none" stroke="#000000" d="M221,-122.1061C221,-141.3391 221,-169 221,-169 221,-169 514.4361,-169 514.4361,-169"/>
<polygon fill="#000000" stroke="#000000" points="514.4361,-172.5001 524.4361,-169 514.4361,-165.5001 514.4361,-172.5001"/>
</g>
<!-- SharedModule -->
<g id="node8" class="node">
<title>SharedModule</title>
<polygon fill="#8dd3c7" stroke="#000000" points="122.4231,-122 119.4231,-126 98.4231,-126 95.4231,-122 23.5769,-122 23.5769,-86 122.4231,-86 122.4231,-122"/>
<text text-anchor="middle" x="73" y="-99.8" font-family="Times,serif" font-size="14.00" fill="#000000">SharedModule</text>
</g>
<!-- SharedModule&#45;&gt;JobSearchModule -->
<g id="edge7" class="edge">
<title>SharedModule&#45;&gt;JobSearchModule</title>
<path fill="none" stroke="#000000" d="M73,-122.2921C73,-144.2057 73,-178 73,-178 73,-178 513.9983,-178 513.9983,-178"/>
<polygon fill="#000000" stroke="#000000" points="513.9983,-181.5001 523.9983,-178 513.9983,-174.5001 513.9983,-181.5001"/>
</g>
</g>
</svg>
